<?xml version="1.0" encoding="UTF-8" standalone="no"?><!-- Generator: Gravit.io --><svg xmlns="http://www.w3.org/2000/svg" xmlns:xlink="http://www.w3.org/1999/xlink" style="isolation:isolate" viewBox="0 0 4000 4000" width="4000pt" height="4000pt"><path d=" M 0 0 L 0 4000 L 4000 4000 L 4000 0 L 0 0 Z " fill="none"/><g opacity="0"><path d=" M 4000 4000 L 0 4000 L 0 0 L 4000 0 L 4000 4000 Z " fill="rgb(255,255,255)"/></g><path d=" M 2363.06 1295.09 C 2435.2 1355.65 2489.31 1628 2463.03 1787.12 C 2436.75 1946.24 2153.12 1942.58 1991.58 1928.44 C 1830.04 1914.31 1850.83 1548.44 1858.37 1450.54 C 1870.14 1297.67 2256.18 1205.35 2363.06 1295.09 Z " fill="rgb(255,255,255)"/><path d=" M 2748.59 2683.85 C 2745.6 2716.41 2740.63 2748.67 2733.68 2780.46 C 2724.01 2825.13 2710.47 2868.87 2693.35 2911.15 C 2619.1 3094.59 2476.93 3250.87 2282.38 3338.86 C 2087.41 3427.04 1875.65 3430.42 1688.57 3364.62 C 1647.49 3350.16 1607.59 3332.37 1569.36 3311.4 C 1539.35 3294.99 1510.39 3276.61 1482.62 3256.4 C 1678.44 3207.15 1904.76 3127.73 2138.98 3021.79 C 2373.18 2915.87 2582.29 2798.38 2748.59 2683.85 Z " fill="rgb(255,178,0)"/><path d=" M 2138.98 3021.79 C 2373.18 2915.87 2582.29 2798.38 2748.59 2683.85 C 2745.6 2716.41 2740.63 2748.67 2733.68 2780.46 C 2605.71 2873.43 2401.24 2988.22 2163.13 3095.9 C 1935.07 3199.04 1722.48 3274.72 1569.36 3311.4 C 1539.35 3294.99 1510.39 3276.61 1482.62 3256.4 C 1678.44 3207.15 1904.76 3127.73 2138.98 3021.79 Z " fill="rgb(214,107,9)"/><path d=" M 2716.21 2375.57 C 2586.34 2480.6 2329.8 2627.59 2023.41 2766.19 C 1716.98 2904.75 1437.15 3000.33 1272.51 3028.49 C 1255.39 3000.46 1239.87 2971.1 1225.99 2940.45 C 1225.32 2938.99 1224.7 2937.62 1224.04 2936.11 C 1218 2922.58 1212.37 2909.01 1207.18 2895.26 C 1194.94 2863.24 1184.92 2830.81 1177.02 2798.26 C 1176.71 2796.93 1176.4 2795.64 1176.09 2794.31 C 1164.65 2745.88 1157.91 2697.04 1155.69 2648.43 C 1151.39 2555.91 1163.45 2464.19 1190.2 2377.13 C 1199.42 2347.14 1210.38 2317.78 1223.06 2289.13 C 1237.7 2255.73 1254.73 2223.35 1273.89 2192.17 C 1290.35 2165.47 1308.4 2139.66 1328 2114.95 L 1328.05 2114.95 C 1335.72 2105.2 1343.7 2095.62 1351.91 2086.21 C 1424.87 2002.52 1516.59 1932.75 1624.41 1884.01 C 1639.36 1877.27 1654.44 1871.01 1669.56 1865.2 C 1872.57 1787.76 2089.9 1798.85 2276.53 1881.39 C 2277.69 1881.92 2278.89 1882.41 2280.04 1882.99 C 2297.56 1890.79 2314.81 1899.31 2331.71 1908.45 C 2393.05 1941.31 2450.31 1982.43 2501.72 2030.86 C 2533.78 2061.11 2563.59 2094.29 2590.64 2130.26 C 2593.57 2134.12 2596.45 2138.06 2599.38 2142.01 C 2601.78 2145.25 2604.08 2148.53 2606.39 2151.81 C 2625.64 2179.27 2643.38 2208.18 2659.3 2238.52 C 2665.29 2249.79 2670.97 2261.23 2676.42 2272.85 C 2677.89 2276.04 2679.39 2279.24 2680.81 2282.48 C 2694.69 2313.12 2706.45 2344.22 2716.21 2375.57 Z " fill="rgb(255,178,0)"/><path d=" M 2676.4 2272.89 C 2677.9 2276.06 2679.38 2279.24 2680.84 2282.46 C 2694.7 2313.12 2706.48 2344.21 2716.19 2375.55 C 2586.34 2480.58 2329.81 2627.6 2023.38 2766.18 C 1716.98 2904.76 1437.15 3000.32 1272.53 3028.47 C 1255.41 3000.48 1239.84 2971.1 1225.97 2940.44 C 1225.32 2939 1224.68 2937.59 1224.06 2936.13 C 1380.15 2918.88 1665 2826.44 1977.37 2685.17 C 2302.08 2538.32 2567.56 2378.94 2676.4 2272.89 Z " fill="rgb(214,107,9)"/><path d=" M 1166.42 2667.02 C 1162.35 2667.02 1158.45 2666.93 1154.72 2666.73 L 1156.62 2630.14 C 1266.55 2635.87 1552.88 2545.13 1852.71 2409.53 C 2168.6 2266.67 2435 2103.34 2486.15 2021.17 L 2517.26 2040.54 C 2461.82 2129.58 2194.76 2295.04 1867.81 2442.91 C 1568.23 2578.4 1290.08 2667.02 1166.42 2667.02 Z " fill="rgb(214,107,9)"/><path d=" M 1192.88 2395.24 L 1187.5 2359 C 1310.61 2340.72 1523.67 2267.59 1743.55 2168.15 C 1973.97 2063.93 2173.52 1948.82 2264.31 1867.73 L 2288.72 1895.05 C 2195.34 1978.45 1992.22 2095.89 1758.64 2201.52 C 1535.89 2302.27 1319.11 2376.5 1192.88 2395.24 Z " fill="rgb(214,107,9)"/><path d=" M 1177.31 2812.62 C 1176.87 2812.62 1176.44 2812.62 1176.01 2812.62 L 1176.18 2775.98 C 1176.58 2775.99 1177 2775.99 1177.4 2775.99 C 1304.06 2775.99 1598.7 2681.19 1911.58 2539.68 C 2240.95 2390.72 2517.69 2222.74 2584.56 2131.19 L 2614.15 2152.8 C 2542.81 2250.47 2266.53 2419.36 1926.68 2573.06 C 1609.49 2716.51 1308.76 2812.62 1177.31 2812.62 Z " fill="rgb(214,107,9)"/><path d=" M 1689.23 3373.76 L 1688.58 3364.69 L 1685.65 3355.94 L 1686.74 3355.58 L 1687.92 3355.49 C 1796.37 3347.67 2002.81 3280.96 2213.85 3185.52 C 2426.05 3089.55 2607.34 2981.9 2686.97 2904.58 L 2699.73 2917.73 C 2618.69 2996.42 2435.4 3105.42 2221.4 3202.21 C 2005.28 3299.95 1801.37 3365.68 1689.23 3373.76 Z " fill="rgb(214,107,9)"/><path d=" M 1524.6 3263.87 C 1747.21 3409.87 2031.23 3432.97 2275.07 3322.69 C 2518.92 3212.41 2689.13 2983.88 2726.48 2720.3 C 2559.62 2831.95 2359.91 2941.35 2146.29 3037.96 C 1932.68 3134.57 1718.64 3212.31 1524.6 3263.87 Z  M 1953.85 3427.31 C 1783.5 3427.31 1614.2 3374.22 1472.17 3270.74 L 1441.55 3248.43 L 1478.29 3239.2 C 1680.1 3188.44 1906.04 3107.68 2131.68 3005.63 C 2357.31 2903.58 2567.15 2787.26 2738.52 2669.24 L 2769.72 2647.76 L 2766.25 2685.47 C 2739.42 2977.66 2556.81 3234.21 2289.69 3355.03 C 2182.55 3403.48 2067.96 3427.31 1953.85 3427.31 Z " fill="rgb(55,26,69)"/><path d=" M 1953.83 3391.83 C 1885.55 3391.83 1817.42 3382.91 1751.34 3365.27 C 1868.47 3343.3 2040.66 3283.95 2221.4 3202.21 C 2400.71 3121.11 2558.46 3031.43 2652.57 2958.2 C 2573.57 3117.14 2441.47 3247.44 2275.07 3322.69 C 2172.57 3369.05 2062.98 3391.84 1953.83 3391.83 Z  M 1710.58 3353.19 C 1671.07 3340.3 1632.45 3324.23 1595.12 3305.01 C 1745.89 3266.32 1947.6 3193.38 2163.13 3095.9 C 2388.16 2994.13 2583.13 2886.02 2711.9 2795.98 C 2701.48 2838.6 2687.54 2880.03 2670.35 2919.88 C 2583.87 2995.71 2412.39 3095.73 2213.85 3185.52 C 2016.7 3274.68 1823.57 3338.77 1710.58 3353.19 Z " fill="rgb(185,125,24)"/><path d=" M 1595.12 3305.01 C 1571.04 3292.6 1547.49 3278.88 1524.6 3263.87 C 1707.98 3215.14 1909.23 3143.03 2111.1 3053.71 C 2111.17 3053.67 2111.23 3053.65 2111.31 3053.61 C 2111.65 3053.46 2112 3053.31 2112.34 3053.15 C 2112.42 3053.12 2112.5 3053.08 2112.58 3053.05 C 2112.91 3052.9 2113.27 3052.74 2113.61 3052.59 C 2113.68 3052.56 2113.77 3052.52 2113.84 3052.49 C 2114.19 3052.34 2114.52 3052.19 2114.86 3052.04 C 2114.97 3051.99 2115.04 3051.96 2115.14 3051.91 C 2115.46 3051.77 2115.75 3051.64 2116.07 3051.5 C 2116.2 3051.44 2116.34 3051.38 2116.47 3051.33 C 2116.76 3051.2 2117.07 3051.06 2117.36 3050.93 C 2117.49 3050.87 2117.61 3050.82 2117.74 3050.76 C 2118.03 3050.63 2118.33 3050.5 2118.62 3050.37 C 2118.75 3050.31 2118.88 3050.25 2119.01 3050.2 C 2119.32 3050.06 2119.62 3049.92 2119.93 3049.79 C 2120.03 3049.74 2120.16 3049.69 2120.26 3049.64 C 2120.57 3049.5 2120.87 3049.37 2121.18 3049.23 C 2121.31 3049.17 2121.42 3049.12 2121.55 3049.06 C 2121.87 3048.92 2122.17 3048.79 2122.49 3048.65 C 2122.56 3048.62 2122.6 3048.6 2122.66 3048.57 C 2123.02 3048.41 2123.4 3048.24 2123.76 3048.08 C 2123.78 3048.07 2123.77 3048.07 2123.79 3048.07 C 2125.34 3047.38 2126.9 3046.68 2128.45 3045.99 C 2128.57 3045.93 2128.7 3045.87 2128.82 3045.82 C 2129.11 3045.69 2129.4 3045.56 2129.69 3045.43 C 2129.82 3045.37 2129.96 3045.31 2130.09 3045.25 C 2130.36 3045.13 2130.62 3045.02 2130.88 3044.9 C 2131.07 3044.82 2131.24 3044.74 2131.42 3044.66 C 2131.66 3044.55 2131.9 3044.44 2132.13 3044.34 C 2132.33 3044.25 2132.51 3044.17 2132.71 3044.08 C 2132.93 3043.98 2133.17 3043.87 2133.39 3043.77 C 2133.61 3043.68 2133.81 3043.58 2134.03 3043.48 C 2134.24 3043.39 2134.47 3043.29 2134.68 3043.19 C 2134.89 3043.1 2135.09 3043.01 2135.29 3042.92 C 2135.52 3042.82 2135.75 3042.71 2135.97 3042.61 C 2136.19 3042.52 2136.4 3042.42 2136.62 3042.32 C 2136.83 3042.23 2137.06 3042.13 2137.26 3042.03 C 2137.47 3041.94 2137.69 3041.84 2137.9 3041.75 C 2138.12 3041.65 2138.32 3041.56 2138.54 3041.46 C 2138.78 3041.35 2139 3041.25 2139.24 3041.15 C 2139.43 3041.06 2139.64 3040.97 2139.83 3040.88 C 2140.06 3040.77 2140.3 3040.67 2140.53 3040.56 C 2140.73 3040.47 2140.92 3040.39 2141.12 3040.3 C 2141.38 3040.18 2141.64 3040.06 2141.9 3039.95 C 2142.08 3039.86 2142.22 3039.8 2142.4 3039.72 C 2142.65 3039.61 2142.94 3039.48 2143.18 3039.37 C 2143.36 3039.28 2143.53 3039.21 2143.71 3039.13 C 2143.97 3039.01 2144.22 3038.9 2144.48 3038.78 C 2144.65 3038.7 2144.85 3038.62 2145.01 3038.54 C 2145.44 3038.35 2145.86 3038.16 2146.29 3037.96 L 2146.29 3037.96 L 2146.29 3037.96 C 2146.74 3037.76 2147.18 3037.56 2147.62 3037.36 C 2147.63 3037.35 2147.67 3037.34 2147.68 3037.33 C 2148.1 3037.14 2148.53 3036.95 2148.95 3036.76 C 2148.96 3036.75 2149 3036.73 2149.02 3036.73 C 2149.88 3036.34 2150.73 3035.95 2151.59 3035.56 C 2151.64 3035.54 2151.66 3035.53 2151.7 3035.51 C 2152.12 3035.32 2152.53 3035.14 2152.94 3034.95 C 2152.96 3034.94 2152.97 3034.94 2152.98 3034.93 C 2208.45 3009.74 2262.94 2983.7 2316.17 2956.98 L 2316.19 2956.98 C 2317.01 2956.56 2317.84 2956.14 2318.67 2955.73 C 2318.71 2955.71 2318.74 2955.69 2318.78 2955.67 C 2319.18 2955.47 2319.56 2955.28 2319.96 2955.08 C 2319.99 2955.07 2320.01 2955.06 2320.04 2955.04 C 2320.42 2954.85 2320.8 2954.66 2321.18 2954.46 C 2321.24 2954.44 2321.28 2954.42 2321.33 2954.39 C 2321.73 2954.19 2322.1 2954 2322.5 2953.8 C 2322.52 2953.79 2322.56 2953.77 2322.58 2953.76 C 2322.94 2953.58 2323.32 2953.39 2323.69 2953.2 C 2323.75 2953.17 2323.81 2953.14 2323.87 2953.11 C 2324.28 2952.9 2324.66 2952.71 2325.07 2952.5 C 2325.09 2952.5 2325.1 2952.49 2325.11 2952.48 C 2325.96 2952.06 2326.81 2951.63 2327.65 2951.2 C 2327.67 2951.19 2327.69 2951.18 2327.71 2951.17 C 2328.09 2950.98 2328.46 2950.79 2328.85 2950.6 C 2329.05 2950.5 2329.25 2950.39 2329.45 2950.29 C 2329.65 2950.19 2329.88 2950.07 2330.08 2949.97 C 2330.3 2949.86 2330.55 2949.73 2330.78 2949.62 C 2330.95 2949.53 2331.1 2949.46 2331.27 2949.37 C 2331.53 2949.24 2331.78 2949.11 2332.03 2948.99 C 2332.19 2948.9 2332.34 2948.83 2332.5 2948.74 C 2332.78 2948.6 2333.06 2948.46 2333.34 2948.32 C 2333.45 2948.26 2333.55 2948.21 2333.67 2948.15 C 2333.97 2948 2334.28 2947.84 2334.59 2947.69 C 2334.69 2947.64 2334.78 2947.59 2334.88 2947.54 C 2335.19 2947.38 2335.51 2947.22 2335.83 2947.06 C 2335.9 2947.02 2335.98 2946.98 2336.06 2946.94 C 2336.39 2946.77 2336.7 2946.61 2337.03 2946.45 C 2337.1 2946.41 2337.2 2946.36 2337.27 2946.32 C 2337.61 2946.15 2337.96 2945.98 2338.3 2945.8 C 2338.32 2945.79 2338.36 2945.77 2338.38 2945.76 C 2338.77 2945.56 2339.13 2945.38 2339.52 2945.18 L 2339.54 2945.17 C 2480.05 2873.61 2611.11 2797.5 2726.48 2720.31 C 2722.85 2745.88 2717.98 2771.14 2711.9 2795.98 C 2583.13 2886.02 2388.16 2994.13 2163.13 3095.9 C 1947.6 3193.38 1745.89 3266.32 1595.12 3305.01 Z " fill="rgb(159,79,30)"/><path d=" M 1751.34 3365.27 C 1737.66 3361.61 1724.07 3357.59 1710.58 3353.19 C 1823.57 3338.77 2016.7 3274.68 2213.85 3185.52 C 2412.39 3095.73 2583.87 2995.71 2670.35 2919.88 C 2664.76 2932.82 2658.83 2945.6 2652.57 2958.2 C 2558.46 3031.43 2400.71 3121.11 2221.4 3202.21 C 2040.66 3283.95 1868.47 3343.3 1751.34 3365.27 Z " fill="rgb(159,79,30)"/><path d=" M 1953.81 3410 C 1862.91 3410 1773.22 3394.39 1688.57 3364.62 C 1647.49 3350.16 1607.59 3332.37 1569.36 3311.4 C 1546.15 3298.71 1523.57 3284.84 1501.68 3269.86 C 1509.29 3267.91 1516.93 3265.91 1524.6 3263.87 C 1547.49 3278.88 1571.04 3292.6 1595.12 3305.01 C 1632.45 3324.23 1671.07 3340.3 1710.58 3353.19 C 1724.07 3357.59 1737.66 3361.61 1751.34 3365.27 C 1817.42 3382.91 1885.55 3391.83 1953.83 3391.83 C 2062.98 3391.84 2172.57 3369.05 2275.07 3322.69 C 2441.47 3247.44 2573.57 3117.14 2652.57 2958.2 C 2658.83 2945.6 2664.76 2932.82 2670.35 2919.88 C 2687.54 2880.03 2701.48 2838.6 2711.9 2795.98 C 2717.98 2771.14 2722.85 2745.88 2726.48 2720.3 C 2733.08 2715.88 2739.61 2711.48 2746.12 2707.05 C 2743.12 2731.74 2738.98 2756.24 2733.68 2780.46 C 2724.01 2825.13 2710.47 2868.87 2693.35 2911.15 C 2619.1 3094.59 2476.93 3250.87 2282.38 3338.86 C 2175.62 3387.14 2063.83 3410 1953.81 3410 Z  M 2111.1 3053.71 C 2111.17 3053.68 2111.24 3053.64 2111.31 3053.61 C 2111.23 3053.65 2111.17 3053.67 2111.1 3053.71 Z  M 2112.34 3053.15 C 2112.43 3053.12 2112.5 3053.09 2112.58 3053.05 C 2112.5 3053.08 2112.42 3053.12 2112.34 3053.15 Z  M 2113.61 3052.59 C 2113.69 3052.56 2113.76 3052.53 2113.84 3052.49 C 2113.77 3052.52 2113.68 3052.56 2113.61 3052.59 Z  M 2114.86 3052.04 C 2114.95 3052 2115.06 3051.95 2115.14 3051.91 C 2115.04 3051.96 2114.97 3051.99 2114.86 3052.04 Z  M 2116.07 3051.5 C 2116.19 3051.45 2116.34 3051.38 2116.47 3051.33 C 2116.34 3051.38 2116.2 3051.44 2116.07 3051.5 Z  M 2117.36 3050.93 C 2117.5 3050.87 2117.6 3050.82 2117.74 3050.76 C 2117.61 3050.82 2117.49 3050.87 2117.36 3050.93 Z  M 2118.62 3050.37 C 2118.75 3050.31 2118.89 3050.25 2119.01 3050.2 C 2118.88 3050.25 2118.75 3050.31 2118.62 3050.37 Z  M 2119.93 3049.79 C 2120.04 3049.74 2120.15 3049.69 2120.26 3049.64 C 2120.16 3049.69 2120.03 3049.74 2119.93 3049.79 Z  M 2121.18 3049.23 C 2121.3 3049.18 2121.43 3049.12 2121.55 3049.06 C 2121.42 3049.12 2121.31 3049.17 2121.18 3049.23 Z  M 2122.49 3048.65 C 2122.55 3048.62 2122.61 3048.59 2122.66 3048.57 C 2122.6 3048.6 2122.56 3048.62 2122.49 3048.65 Z  M 2123.76 3048.08 C 2123.78 3048.07 2123.77 3048.08 2123.79 3048.07 C 2123.77 3048.07 2123.78 3048.07 2123.76 3048.08 Z  M 2128.45 3045.99 C 2128.58 3045.93 2128.69 3045.88 2128.82 3045.82 C 2128.7 3045.87 2128.57 3045.93 2128.45 3045.99 Z  M 2129.69 3045.43 C 2129.82 3045.37 2129.97 3045.31 2130.09 3045.25 C 2129.96 3045.31 2129.82 3045.37 2129.69 3045.43 Z  M 2130.88 3044.9 C 2131.06 3044.82 2131.24 3044.74 2131.42 3044.66 C 2131.24 3044.74 2131.07 3044.82 2130.88 3044.9 Z  M 2132.13 3044.34 C 2132.33 3044.25 2132.51 3044.17 2132.71 3044.08 C 2132.51 3044.17 2132.33 3044.25 2132.13 3044.34 Z  M 2133.39 3043.77 C 2133.61 3043.67 2133.81 3043.58 2134.03 3043.48 C 2133.81 3043.58 2133.61 3043.68 2133.39 3043.77 Z  M 2134.68 3043.19 C 2134.89 3043.1 2135.09 3043.01 2135.29 3042.92 C 2135.09 3043.01 2134.89 3043.1 2134.68 3043.19 Z  M 2135.97 3042.61 C 2136.19 3042.52 2136.4 3042.42 2136.62 3042.32 C 2136.4 3042.42 2136.19 3042.52 2135.97 3042.61 Z  M 2137.26 3042.03 C 2137.47 3041.94 2137.69 3041.84 2137.9 3041.75 C 2137.69 3041.84 2137.47 3041.94 2137.26 3042.03 Z  M 2138.54 3041.46 C 2138.78 3041.35 2139 3041.25 2139.24 3041.15 C 2139 3041.25 2138.78 3041.35 2138.54 3041.46 Z  M 2139.83 3040.88 C 2140.07 3040.77 2140.29 3040.67 2140.53 3040.56 C 2140.3 3040.67 2140.06 3040.77 2139.83 3040.88 Z  M 2141.12 3040.3 C 2141.37 3040.19 2141.65 3040.06 2141.9 3039.95 C 2141.64 3040.06 2141.38 3040.18 2141.12 3040.3 Z  M 2142.4 3039.72 C 2142.65 3039.6 2142.93 3039.48 2143.18 3039.37 C 2142.94 3039.48 2142.65 3039.61 2142.4 3039.72 Z  M 2143.71 3039.13 C 2143.98 3039.01 2144.22 3038.9 2144.48 3038.78 C 2144.22 3038.9 2143.97 3039.01 2143.71 3039.13 Z  M 2145.01 3038.54 C 2145.44 3038.35 2145.86 3038.16 2146.29 3037.96 C 2145.86 3038.16 2145.44 3038.35 2145.01 3038.54 Z  M 2146.29 3037.96 C 2146.74 3037.76 2147.18 3037.56 2147.62 3037.36 C 2147.18 3037.56 2146.74 3037.76 2146.29 3037.96 Z  M 2147.68 3037.33 C 2148.11 3037.14 2148.52 3036.95 2148.95 3036.76 C 2148.53 3036.95 2148.1 3037.14 2147.68 3037.33 Z  M 2149.02 3036.73 C 2149.88 3036.34 2150.73 3035.95 2151.59 3035.56 C 2150.73 3035.95 2149.88 3036.34 2149.02 3036.73 Z  M 2151.7 3035.51 C 2152.12 3035.32 2152.53 3035.14 2152.94 3034.95 C 2152.53 3035.14 2152.12 3035.32 2151.7 3035.51 Z  M 2152.98 3034.93 C 2208.44 3009.74 2262.95 2983.7 2316.17 2956.98 C 2262.94 2983.7 2208.45 3009.74 2152.98 3034.93 Z  M 2316.19 2956.98 C 2317.01 2956.56 2317.84 2956.14 2318.67 2955.73 C 2317.84 2956.14 2317.01 2956.56 2316.19 2956.98 Z  M 2318.78 2955.67 C 2319.18 2955.47 2319.56 2955.28 2319.96 2955.08 C 2319.56 2955.28 2319.18 2955.47 2318.78 2955.67 Z  M 2320.04 2955.04 C 2320.41 2954.85 2320.81 2954.65 2321.18 2954.46 C 2320.8 2954.66 2320.42 2954.85 2320.04 2955.04 Z  M 2321.33 2954.39 C 2321.73 2954.19 2322.1 2954 2322.5 2953.8 C 2322.1 2954 2321.73 2954.19 2321.33 2954.39 Z  M 2322.58 2953.76 C 2322.95 2953.57 2323.31 2953.39 2323.69 2953.2 C 2323.32 2953.39 2322.94 2953.58 2322.58 2953.76 Z  M 2323.87 2953.11 C 2324.27 2952.91 2324.68 2952.7 2325.07 2952.5 C 2324.66 2952.71 2324.28 2952.9 2323.87 2953.11 Z  M 2325.11 2952.48 C 2325.96 2952.05 2326.81 2951.63 2327.65 2951.2 C 2326.81 2951.63 2325.96 2952.06 2325.11 2952.48 Z  M 2327.71 2951.17 C 2328.09 2950.98 2328.46 2950.79 2328.85 2950.6 C 2328.46 2950.79 2328.09 2950.98 2327.71 2951.17 Z  M 2329.45 2950.29 C 2329.66 2950.18 2329.87 2950.08 2330.08 2949.97 C 2329.88 2950.07 2329.65 2950.19 2329.45 2950.29 Z  M 2330.78 2949.62 C 2330.95 2949.53 2331.1 2949.45 2331.27 2949.37 C 2331.1 2949.46 2330.95 2949.53 2330.78 2949.62 Z  M 2332.03 2948.99 C 2332.19 2948.91 2332.34 2948.83 2332.5 2948.74 C 2332.34 2948.83 2332.19 2948.9 2332.03 2948.99 Z  M 2333.34 2948.32 C 2333.45 2948.27 2333.56 2948.21 2333.67 2948.15 C 2333.55 2948.21 2333.45 2948.26 2333.34 2948.32 Z  M 2334.59 2947.69 C 2334.7 2947.63 2334.77 2947.59 2334.88 2947.54 C 2334.78 2947.59 2334.69 2947.64 2334.59 2947.69 Z  M 2335.83 2947.06 C 2335.89 2947.02 2335.99 2946.97 2336.06 2946.94 C 2335.98 2946.98 2335.9 2947.02 2335.83 2947.06 Z  M 2337.03 2946.45 C 2337.11 2946.41 2337.19 2946.36 2337.27 2946.32 C 2337.2 2946.36 2337.1 2946.41 2337.03 2946.45 Z  M 2338.3 2945.8 C 2338.33 2945.79 2338.36 2945.77 2338.38 2945.76 C 2338.36 2945.77 2338.32 2945.79 2338.3 2945.8 Z  M 2339.52 2945.18 L 2339.54 2945.17 L 2339.52 2945.18 Z " fill="rgb(55,26,69)"/><path d=" M 2624.7 2318.03 C 2622.88 2314.46 2621.04 2310.91 2619.17 2307.39 C 2603.2 2277.04 2585.46 2248.1 2566.24 2220.67 C 2563.92 2217.37 2561.56 2214.12 2559.2 2210.86 C 2559.02 2210.62 2558.84 2210.37 2558.66 2210.13 C 2574.34 2196.57 2587.71 2183.74 2598.58 2171.74 C 2614.96 2195.86 2630.09 2221.06 2643.64 2246.82 C 2650.32 2259.45 2656.75 2272.5 2662.8 2285.68 C 2651.43 2296.03 2638.69 2306.83 2624.7 2318.03 Z " fill="rgb(255,210,105)"/><path d=" M 2659.47 2396.53 C 2653.7 2381.36 2647.43 2366.27 2640.67 2351.31 C 2639.2 2348.09 2637.72 2344.93 2636.24 2341.76 C 2632.52 2333.74 2628.67 2325.83 2624.7 2318.03 C 2638.69 2306.83 2651.43 2296.03 2662.8 2285.68 C 2663.43 2287.04 2664.05 2288.41 2664.67 2289.78 L 2664.67 2289.78 C 2676.41 2315.73 2686.79 2342.43 2695.58 2369.3 C 2684.37 2378.12 2672.31 2387.22 2659.47 2396.53 Z " fill="rgb(231,168,110)"/><path d=" M 2536.49 2181.05 C 2513.46 2152.23 2488.6 2125.27 2462.18 2100.33 C 2479.54 2085.16 2493.74 2071.02 2504.44 2058.09 C 2530.18 2083.76 2554.36 2111.48 2576.71 2141.16 C 2566.44 2153.36 2552.93 2166.72 2536.49 2181.05 Z  M 2435.09 2075.86 C 2390.27 2037.21 2341.51 2003.88 2289.86 1976.31 C 2307.32 1961.91 2322.42 1946.04 2335.25 1930.35 C 2386.08 1958.77 2433.98 1993.02 2477.88 2032.84 C 2467.76 2045.69 2453.33 2060.14 2435.09 2075.86 Z " fill="rgb(255,210,105)"/><path d=" M 2462.18 2100.33 C 2461.96 2100.11 2461.74 2099.91 2461.51 2099.7 C 2452.87 2091.54 2444.06 2083.6 2435.09 2075.86 C 2453.33 2060.14 2467.76 2045.69 2477.88 2032.84 C 2486.9 2041.02 2495.77 2049.44 2504.44 2058.09 C 2493.74 2071.02 2479.54 2085.16 2462.18 2100.33 Z " fill="rgb(231,168,110)"/><path d=" M 2558.66 2210.13 C 2551.48 2200.23 2544.08 2190.54 2536.49 2181.05 C 2552.93 2166.72 2566.44 2153.36 2576.71 2141.16 C 2581.86 2148.02 2586.91 2154.96 2591.87 2162.02 L 2591.87 2162.02 C 2593.12 2163.81 2594.37 2165.6 2595.61 2167.4 C 2596.6 2168.84 2597.59 2170.29 2598.58 2171.74 C 2587.71 2183.74 2574.34 2196.57 2558.66 2210.13 Z " fill="rgb(231,168,110)"/><path d=" M 1953.1 1830.79 C 1844.9 1830.79 1735.44 1853.28 1631.72 1900.19 C 1290.35 2054.58 1106.38 2430.52 1194.28 2794.1 C 1202.04 2826.17 1211.96 2858.08 1223.76 2888.95 C 1229.39 2903.76 1235.57 2918.61 1242.13 2933.14 C 1253.89 2959.12 1267.09 2984.54 1281.45 3008.86 C 1450.98 2977.55 1730.54 2879.15 2016.08 2750.02 C 2301.61 2620.88 2560.12 2475.93 2695.58 2369.3 C 2686.79 2342.43 2676.41 2315.73 2664.67 2289.78 L 2664.67 2289.78 C 2658.08 2275.22 2651.01 2260.76 2643.64 2246.82 C 2628.26 2217.58 2610.84 2189.06 2591.87 2162.02 C 2442.22 1948.92 2201.01 1830.79 1953.1 1830.79 Z  M 1263.67 3047.98 L 1257.4 3037.73 C 1239.86 3009.06 1223.85 2978.79 1209.81 2947.76 C 1202.95 2932.58 1196.48 2917.05 1190.6 2901.59 C 1178.28 2869.34 1167.91 2835.97 1159.8 2802.45 C 1067.89 2422.32 1260.22 2029.26 1617.11 1867.86 C 1974 1706.46 2396.16 1821.59 2620.91 2141.64 C 2640.75 2169.91 2658.96 2199.73 2675.03 2230.27 C 2682.72 2244.82 2690.12 2259.94 2697 2275.15 C 2711.02 2306.15 2723.18 2338.16 2733.14 2370.3 L 2736.69 2381.79 L 2727.35 2389.35 C 2590.48 2500.04 2330.05 2646.96 2030.69 2782.35 C 1731.33 2917.74 1449.03 3016.28 1275.52 3045.95 L 1263.67 3047.98 Z " fill="rgb(55,26,69)"/><path d=" M 3140.16 2198.87 C 3188.35 2305.43 3029.47 2490.43 2748.59 2683.85 C 2582.29 2798.38 2373.18 2915.87 2138.98 3021.79 C 1904.76 3127.73 1678.44 3207.15 1482.62 3256.4 C 1151.88 3339.59 908.064 3336.72 859.869 3230.16 C 816.099 3133.38 943.075 2971.98 1177.04 2798.27 C 1184.93 2830.85 1194.94 2863.25 1207.19 2895.29 C 1142.5 2948.18 1110.65 2990.15 1121.72 3014.61 C 1132.99 3039.53 1187.33 3043.02 1272.53 3028.47 C 1437.15 3000.32 1716.98 2904.76 2023.38 2766.18 C 2329.81 2627.6 2586.34 2480.58 2716.19 2375.55 C 2783.35 2321.2 2816.62 2278.08 2805.35 2253.17 C 2794.3 2228.73 2741.74 2224.91 2659.33 2238.54 C 2643.36 2208.18 2625.65 2179.27 2606.39 2151.83 C 2891.34 2090.85 3096.39 2102.09 3140.16 2198.87 Z " fill="rgb(255,201,67)"/><path d=" M 1159.09 3112.29 C 1098.47 3112.29 1052.34 3099.75 1037.2 3066.26 C 1015.49 3018.27 1065.66 2945.42 1186.29 2849.74 L 1203.37 2871.27 C 1100.04 2953.22 1047.29 3021.88 1062.24 3054.93 C 1080.12 3094.49 1211.41 3107.28 1522.58 3013.19 C 1682.28 2964.86 1862.86 2895.82 2044.8 2813.54 C 2226.72 2731.26 2397.81 2641.25 2539.57 2553.24 C 2815.72 2381.71 2892.82 2274.66 2874.94 2235.11 C 2859.98 2202.05 2773.57 2196.33 2643.82 2219.81 L 2638.93 2192.77 C 2790.44 2165.36 2878.27 2175.8 2899.98 2223.79 C 2942.35 2317.49 2701.44 2485.05 2554.06 2576.59 C 2411.3 2665.22 2239.12 2755.81 2056.12 2838.58 C 1873.12 2921.34 1691.37 2990.82 1530.53 3039.49 C 1423.84 3071.75 1268.06 3112.29 1159.09 3112.29 Z " fill="rgb(255,236,144)"/><path d=" M 1117.36 3219.93 C 1018.69 3219.94 955.679 3197.24 935.162 3151.89 C 892.643 3057.87 1042.85 2917.45 1176.35 2816.21 L 1192.95 2838.11 C 1020.66 2968.78 933.643 3081.84 960.201 3140.56 C 993.668 3214.55 1199.25 3209.72 1496.71 3127.96 C 1678.59 3077.98 1883.17 3002.53 2088.32 2909.75 C 2293.42 2816.99 2485.17 2713.21 2642.83 2609.62 C 2900.68 2440.22 3040.08 2289.03 3006.62 2215.04 C 2980.06 2156.33 2837.69 2147.01 2625.79 2190.08 L 2620.31 2163.16 C 2784.51 2129.76 2989.14 2109.71 3031.66 2203.72 C 3072.28 2293.55 2936.06 2449.86 2657.92 2632.58 C 2499.07 2736.94 2306.03 2841.45 2099.64 2934.79 C 1893.2 3028.15 1687.23 3104.11 1503.99 3154.45 C 1345.14 3198.12 1214.11 3219.93 1117.36 3219.93 Z " fill="rgb(255,236,144)"/><path d=" M 1166.52 2828.36 C 947.574 2994.88 839.249 3141.51 876.036 3222.85 C 918.067 3315.79 1148.84 3322.06 1478.29 3239.2 C 1680.1 3188.44 1906.04 3107.68 2131.68 3005.63 C 2357.31 2903.58 2567.15 2787.26 2738.52 2669.24 C 3018.33 2476.56 3166.03 2299.12 3123.99 2206.18 C 3087.21 2124.84 2905.56 2109.36 2635.93 2163.81 C 2647.67 2181.77 2658.74 2200.26 2669.01 2219.05 C 2758.63 2205.63 2807.21 2214.22 2821.51 2245.85 C 2836.71 2279.45 2806.79 2325.05 2727.35 2389.34 C 2590.48 2500.04 2330.05 2646.96 2030.69 2782.35 C 1731.33 2917.74 1449.03 3016.28 1275.52 3045.95 C 1174.74 3063.17 1120.75 3055.53 1105.55 3021.92 C 1091.25 2990.28 1116.89 2948.11 1186.16 2889.68 C 1178.82 2869.54 1172.26 2849.03 1166.52 2828.36 Z  M 1091.97 3332.75 C 958.614 3332.76 872.345 3300.8 843.702 3237.47 C 797.022 3134.25 911.646 2973.22 1166.46 2784.03 L 1187.97 2768.05 L 1194.28 2794.1 C 1202.04 2826.17 1211.96 2858.08 1223.76 2888.95 L 1228.33 2900.91 L 1218.41 2909.02 C 1128.22 2982.78 1137.44 3006.33 1137.88 3007.3 C 1138.34 3008.29 1150.26 3031.36 1269.54 3010.98 C 1437.69 2982.22 1723.74 2882.23 2016.08 2750.02 C 2308.4 2617.8 2572.4 2469.03 2705.03 2361.76 C 2799.09 2285.64 2789.63 2261.47 2789.18 2260.47 C 2788.74 2259.51 2777.15 2237.03 2662.23 2256.04 L 2649.6 2258.13 L 2643.63 2246.8 C 2628.26 2217.58 2610.84 2189.06 2591.87 2162.02 L 2576.48 2140.09 L 2602.68 2134.48 C 2913.01 2068.07 3109.64 2088.34 3156.32 2191.56 C 3207.4 2304.49 3062.45 2489.25 2758.65 2698.47 C 2585.57 2817.66 2373.82 2935.05 2146.29 3037.96 C 1918.77 3140.86 1690.77 3222.35 1486.94 3273.61 C 1329.81 3313.13 1196.44 3332.75 1091.97 3332.75 Z " fill="rgb(55,26,69)"/><path d=" M 1089.91 3297.22 C 974.234 3297.22 898.401 3272.3 876.036 3222.85 C 852.955 3171.81 886.993 3095.08 969.649 3003.85 C 968.854 3007.84 968.23 3011.75 967.777 3015.62 C 933.357 3064.99 917.354 3112.51 935.162 3151.89 C 955.679 3197.24 1018.69 3219.94 1117.36 3219.93 C 1214.11 3219.93 1345.14 3198.12 1503.99 3154.45 C 1687.23 3104.11 1893.2 3028.15 2099.64 2934.79 C 2135.86 2918.41 2171.64 2901.7 2206.93 2884.69 C 2222.77 2877.73 2238.65 2870.66 2254.58 2863.46 C 2488.76 2757.5 2697.89 2640.01 2864.17 2525.49 C 2953.48 2464.01 3030.43 2403.37 3092.31 2345.83 C 3033.9 2436.92 2911.44 2550.17 2738.52 2669.24 C 2567.15 2787.26 2357.31 2903.58 2131.68 3005.63 C 1906.04 3107.68 1680.1 3188.44 1478.29 3239.2 C 1324.14 3277.97 1191.63 3297.22 1089.91 3297.22 Z  M 1114.2 3192.85 C 1030.16 3192.85 975.997 3175.48 960.201 3140.56 C 951.093 3120.42 955.341 3093.89 971.808 3062.45 C 972.85 3065.63 974.059 3068.74 975.437 3071.78 C 1001.4 3129.18 1084.09 3156.5 1206.53 3156.5 C 1311.46 3156.5 1445.57 3136.44 1598.2 3098.04 C 1598.93 3097.86 1599.66 3097.67 1600.39 3097.49 C 1565.13 3108.49 1530.54 3118.67 1496.71 3127.96 C 1339.65 3171.13 1208.22 3192.85 1114.2 3192.85 Z " fill="rgb(185,140,68)"/><path d=" M 1117.36 3219.93 C 1018.69 3219.94 955.679 3197.24 935.162 3151.89 C 917.354 3112.51 933.357 3064.99 967.777 3015.62 C 965.809 3032.41 967.089 3048.08 971.808 3062.45 C 955.341 3093.89 951.093 3120.42 960.201 3140.56 C 975.997 3175.48 1030.16 3192.85 1114.2 3192.85 C 1208.22 3192.85 1339.65 3171.13 1496.71 3127.96 C 1530.54 3118.67 1565.13 3108.49 1600.39 3097.49 C 1782.37 3051.58 1990.59 2979.65 2206.93 2884.69 C 2171.64 2901.7 2135.86 2918.41 2099.64 2934.79 C 1893.2 3028.15 1687.23 3104.11 1503.99 3154.45 C 1345.14 3198.12 1214.11 3219.93 1117.36 3219.93 Z " fill="rgb(185,163,118)"/><path d=" M 1090.96 3314.85 C 968.497 3314.86 885.819 3287.55 859.853 3230.17 C 830.581 3165.5 877.594 3071.92 981.913 2965.11 C 976.231 2978.54 972.119 2991.48 969.649 3003.85 C 886.993 3095.08 852.955 3171.81 876.036 3222.85 C 898.401 3272.3 974.234 3297.22 1089.91 3297.22 C 1191.63 3297.22 1324.14 3277.97 1478.29 3239.2 C 1680.1 3188.44 1906.04 3107.68 2131.68 3005.63 C 2357.31 2903.58 2567.15 2787.26 2738.52 2669.24 C 2911.44 2550.17 3033.9 2436.92 3092.31 2345.83 C 3106.95 2332.22 3120.75 2318.77 3133.66 2305.54 C 3089.62 2409.9 2950.66 2544.74 2748.58 2683.87 C 2582.31 2798.39 2373.18 2915.88 2139 3021.8 C 1904.77 3127.71 1678.43 3207.15 1482.61 3256.42 C 1330 3294.8 1195.88 3314.85 1090.96 3314.85 Z " fill="rgb(55,26,69)"/><path d=" M 1912.71 2455 C 1892.74 2455 1873.79 2452.49 1856.32 2448.09 C 1860.16 2446.37 1863.97 2444.65 1867.81 2442.91 C 1955.73 2403.15 2039.3 2362.12 2115.61 2321.64 C 2106.84 2357.71 2089.83 2389.24 2056.81 2410.51 C 2007.26 2442.43 1957.44 2455 1912.71 2455 Z  M 1808.19 2429.38 C 1770.76 2408.85 1747.55 2379.02 1747.72 2351.53 C 1748.14 2288.86 1764.75 2208.97 1750.86 2205.03 C 1753.46 2203.87 1756.05 2202.7 1758.64 2201.52 C 1770.16 2196.31 1781.6 2191.08 1792.96 2185.82 C 1785.7 2201.76 1779.4 2218.24 1774.44 2235.41 C 1769.26 2253.88 1765.45 2273.24 1765.93 2293.8 C 1766.21 2304.04 1767.46 2314.6 1770.85 2325.03 C 1774.17 2335.42 1779.55 2345.59 1786.86 2354.18 C 1788.65 2356.37 1790.51 2358.47 1792.62 2360.32 C 1794.66 2362.16 1796.72 2364.36 1798.79 2365.73 C 1802.95 2368.74 1806.99 2371.99 1811.32 2374.72 C 1815.76 2377.24 1820.17 2379.86 1824.69 2382.21 L 1838.67 2388.23 C 1851.89 2393.05 1865.59 2396.03 1879.4 2397.36 C 1870.55 2401.43 1861.64 2405.49 1852.71 2409.53 C 1837.83 2416.26 1822.98 2422.88 1808.19 2429.38 Z  M 1531.2 2344.72 C 1516.93 2344.72 1502.87 2343.48 1489.33 2341.13 C 1474.14 2338.49 1456.91 2334.63 1440.15 2328.94 C 1479.23 2315.55 1520.22 2300.53 1562.46 2284.1 C 1586.77 2280.42 1607.44 2272.15 1623.59 2259.7 C 1662.51 2243.78 1702.19 2226.8 1742.11 2208.96 C 1735.41 2214.91 1725.87 2227.67 1712.51 2249.18 C 1670.29 2317.16 1598.52 2344.71 1531.2 2344.72 Z  M 2048.72 2315.16 C 2059.18 2299 2067.51 2281.53 2073.7 2263.43 C 2079.78 2244.99 2083.91 2225.97 2085.73 2206.83 C 2086.75 2197.27 2087.15 2187.67 2087.18 2178.09 C 2087.22 2173.3 2087.04 2168.52 2086.87 2163.73 L 2086.07 2149.88 C 2084.9 2131.55 2083.3 2113.73 2083.26 2096.59 C 2083.29 2079.53 2084.82 2063.07 2090.42 2048.92 C 2091.06 2047.12 2091.74 2045.35 2092.63 2043.69 C 2093.5 2042.02 2094.16 2040.23 2095.17 2038.65 L 2098.05 2033.83 C 2099.08 2032.45 2099.83 2031.24 2100.99 2029.97 C 2105.33 2024.91 2111.41 2020.05 2118.24 2015.63 C 2132.03 2006.8 2148.17 1999.36 2164.49 1991.93 C 2190.31 1980.22 2217.29 1968.65 2243.04 1953.25 C 2258.88 1960.42 2274.5 1968.11 2289.86 1976.31 C 2263.34 1998.19 2231.37 2016.7 2193.64 2026.08 C 2103.32 2048.53 2131.98 2170.63 2122.71 2276.26 C 2098.78 2289.18 2074.1 2302.15 2048.72 2315.16 Z  M 1393.9 2305.86 C 1371.18 2288.92 1357.07 2264.93 1363.99 2230.91 C 1395.36 2253.73 1434.02 2270.21 1471.87 2279 C 1445.04 2288.67 1418.98 2297.65 1393.9 2305.86 Z  M 1663.39 2203.37 C 1686.14 2162.59 1722.79 2104.4 1763.09 2059.16 C 1766.2 2070.17 1770.45 2081.02 1776.18 2091.54 C 1779.14 2097.79 1783.82 2103.49 1787.98 2109.31 L 1799.61 2123.39 L 1810.85 2136.99 C 1788.78 2147.45 1766.3 2157.85 1743.55 2168.15 C 1716.68 2180.3 1689.91 2192.06 1663.39 2203.37 Z " fill="rgb(185,125,24)"/><path d=" M 1856.32 2448.09 C 1838.58 2443.61 1822.36 2437.16 1808.19 2429.38 C 1822.98 2422.88 1837.83 2416.26 1852.71 2409.53 C 1861.64 2405.49 1870.55 2401.43 1879.4 2397.36 C 1885.08 2397.91 1890.79 2398.18 1896.48 2398.18 C 1896.86 2398.18 1897.25 2398.18 1897.64 2398.17 C 1917.54 2398.04 1937.33 2394.63 1956.15 2388.23 C 1975.04 2381.95 1992.61 2371.91 2008.26 2359.66 C 2012.18 2356.57 2016.16 2353.56 2019.61 2349.94 C 2023.12 2346.41 2026.89 2343.11 2030.15 2339.36 L 2039.67 2327.86 C 2042.8 2324 2045.37 2319.89 2048.23 2315.91 C 2048.39 2315.66 2048.56 2315.41 2048.72 2315.16 C 2074.1 2302.15 2098.78 2289.18 2122.71 2276.26 C 2121.34 2291.87 2119.14 2307.12 2115.61 2321.64 C 2039.3 2362.12 1955.73 2403.15 1867.81 2442.91 C 1863.97 2444.65 1860.16 2446.37 1856.32 2448.09 Z " fill="rgb(159,79,30)"/><path d=" M 1440.15 2328.94 C 1423.44 2323.26 1407.2 2315.77 1393.9 2305.86 C 1418.98 2297.65 1445.04 2288.67 1471.87 2279 C 1491.15 2283.47 1510.23 2285.95 1528.02 2286.26 C 1529.37 2286.28 1530.71 2286.29 1532.04 2286.29 C 1542.71 2286.29 1552.87 2285.55 1562.46 2284.1 C 1520.22 2300.53 1479.23 2315.55 1440.15 2328.94 Z  M 1623.59 2259.7 C 1633.89 2251.77 1642.34 2242.13 1648.74 2230.9 L 1649.13 2230.17 C 1652.91 2222.63 1657.72 2213.54 1663.39 2203.37 C 1689.91 2192.06 1716.68 2180.3 1743.55 2168.15 C 1766.3 2157.85 1788.78 2147.45 1810.85 2136.99 L 1815.51 2142.61 C 1812.6 2147.43 1809.98 2152.15 1807.27 2157.08 C 1802.79 2165.35 1798.57 2173.73 1794.6 2182.26 C 1794.05 2183.44 1793.5 2184.63 1792.96 2185.82 C 1781.6 2191.08 1770.16 2196.31 1758.64 2201.52 C 1756.05 2202.7 1753.46 2203.87 1750.86 2205.03 C 1750.51 2204.93 1750.14 2204.88 1749.74 2204.88 C 1747.75 2204.88 1745.24 2206.18 1742.11 2208.96 C 1702.19 2226.8 1662.51 2243.78 1623.59 2259.7 Z " fill="rgb(159,79,30)"/><path d=" M 2289.86 1976.31 C 2274.5 1968.11 2258.88 1960.42 2243.04 1953.25 C 2248.98 1949.7 2254.85 1945.95 2260.62 1941.95 C 2284.89 1938.36 2308.09 1933.54 2329.71 1927.28 C 2331.56 1928.3 2333.4 1929.32 2335.25 1930.35 C 2322.42 1946.04 2307.32 1961.91 2289.86 1976.31 Z " fill="rgb(185,146,92)"/><path d=" M 1427.08 2033.96 C 1426.28 2033.94 1425.47 2033.93 1424.63 2033.91 C 1425.08 2021.59 1424.75 2010.04 1423.87 1999.32 C 1424.63 1998.73 1425.4 1998.14 1426.17 1997.56 C 1425.49 2011.87 1426.12 2024.33 1427.08 2033.96 Z  M 2335.25 1930.35 C 2333.4 1929.32 2331.56 1928.3 2329.71 1927.28 C 2333.28 1926.25 2336.79 1925.18 2340.27 1924.07 C 2338.64 1926.16 2336.96 1928.25 2335.25 1930.35 Z " fill="rgb(55,26,69)"/><path d=" M 2338.4 1890.79 C 2335.25 1889.4 2332.08 1888.02 2328.91 1886.66 C 2325.07 1884.68 2321.24 1882.74 2317.37 1880.82 C 2323.5 1869.59 2328.37 1857.91 2332.39 1846.12 C 2338.59 1827.84 2342.76 1809.19 2345.72 1790.5 C 2346.76 1783.24 2347.62 1775.97 2348.31 1768.7 C 2349.75 1769.84 2351.22 1770.91 2352.73 1771.92 C 2362.95 1778.73 2374.41 1782.14 2387.01 1782.14 C 2396.33 1782.14 2406.28 1780.27 2416.81 1776.53 C 2432.28 1771.03 2443.62 1760.61 2451.75 1746.94 C 2450.7 1760.04 2449.21 1772.62 2447.24 1784.51 C 2438.49 1837.47 2396.25 1870.67 2338.4 1890.79 Z  M 2331.57 1547.19 C 2326.46 1542.65 2322.53 1540.21 2322.06 1539.92 L 2322.02 1539.89 C 2309.01 1496.14 2292.06 1453.61 2271.84 1412.79 L 2265.77 1400.32 L 2259.32 1388.04 L 2252.9 1375.74 L 2246.14 1363.62 L 2239.36 1351.51 L 2232.1 1339.68 C 2227.18 1331.84 2222.27 1324 2216.75 1316.56 C 2207.18 1302.94 2196.94 1289.78 2185.73 1277.46 C 2191.44 1276.97 2197.1 1276.57 2202.69 1276.27 C 2241.83 1314.55 2299.13 1393.44 2334.93 1546.07 L 2331.57 1547.19 Z " fill="rgb(185,175,190)"/><path d=" M 2328.91 1886.66 C 2324.93 1884.96 2320.93 1883.28 2316.92 1881.63 C 2317.07 1881.36 2317.22 1881.09 2317.37 1880.82 C 2321.24 1882.74 2325.07 1884.68 2328.91 1886.66 Z " fill="rgb(55,26,69)"/><path d=" M 2337.43 1891.13 C 2334.61 1889.63 2331.75 1888.13 2328.91 1886.66 C 2332.08 1888.02 2335.25 1889.4 2338.4 1890.79 C 2338.07 1890.91 2337.76 1891.01 2337.43 1891.13 Z " fill="rgb(140,123,148)"/><path d=" M 2304.67 1900.69 C 2305.13 1900.07 2305.6 1899.43 2306.06 1898.8 C 2310.07 1893.24 2313.67 1887.5 2316.92 1881.63 C 2320.93 1883.28 2324.93 1884.96 2328.91 1886.66 C 2331.75 1888.13 2334.61 1889.63 2337.43 1891.13 C 2326.98 1894.72 2316.02 1897.9 2304.67 1900.69 Z " fill="rgb(55,26,69)"/><path d=" M 2226.96 1275.62 C 2161.26 1275.62 2083 1290.74 2012.91 1320.19 C 1928.55 1355.64 1878.03 1403.59 1874.32 1451.77 C 1866.24 1556.71 1850.89 1900.07 1992.97 1912.51 C 2152.42 1926.46 2423.47 1928.39 2447.24 1784.51 C 2472.59 1631.03 2419.62 1363.46 2352.78 1307.35 C 2327.41 1286.05 2281.51 1275.62 2226.96 1275.62 Z  M 2126.58 1950.77 C 2080.8 1950.77 2034.46 1948.26 1990.18 1944.38 C 1829.5 1930.32 1828.63 1628.17 1842.42 1449.31 C 1847.15 1387.87 1903.29 1331.53 2000.51 1290.69 C 2123.01 1239.21 2300.39 1221.57 2373.35 1282.83 C 2449.44 1346.71 2506.6 1621.47 2478.81 1789.73 C 2457.9 1916.37 2296.09 1950.76 2126.58 1950.77 Z " fill="rgb(55,26,69)"/><path d=" M 2332.32 1562.8 L 2405.73 1538.14 C 2422.32 1532.57 2440.08 1542.77 2443.53 1559.92 C 2455.4 1618.96 2471.96 1740.88 2412.03 1762.33 C 2339.4 1788.34 2318.77 1705.07 2312.52 1591.9 C 2311.8 1578.86 2319.95 1566.96 2332.32 1562.8 Z " fill="rgb(255,255,255)"/><path d=" M 2387.2 1752.11 C 2380.44 1752.11 2374.53 1750.39 2369.38 1746.96 C 2361.72 1741.85 2355.5 1733.01 2350.43 1721.97 C 2350.31 1697.51 2348.52 1673.17 2345.42 1649.05 C 2356.71 1683.51 2374.42 1704.62 2402.23 1704.62 C 2409.7 1704.62 2417.91 1703.1 2426.91 1699.9 C 2430.95 1698.47 2434.64 1696.58 2438 1694.28 C 2433.75 1723.6 2423.23 1742.4 2406.76 1748.26 C 2399.55 1750.82 2393.05 1752.11 2387.2 1752.11 Z " fill="rgb(185,175,190)"/><path d=" M 2332.53 1562.68 L 2332.58 1562.68 L 2332.53 1562.68 Z  M 2415.25 1551.68 C 2413.74 1551.68 2412.22 1551.92 2410.73 1552.42 L 2337.27 1576.91 C 2331.27 1578.91 2327.31 1584.68 2327.64 1590.94 C 2329.38 1623.8 2334.67 1723.81 2369.38 1746.96 C 2378.98 1753.36 2391.21 1753.79 2406.76 1748.26 C 2441.32 1735.98 2449.64 1666.71 2429.02 1562.98 C 2428.23 1558.99 2425.85 1555.65 2422.32 1553.6 C 2420.11 1552.33 2417.7 1551.68 2415.25 1551.68 Z  M 2387.01 1782.14 C 2374.41 1782.14 2362.95 1778.73 2352.73 1771.92 C 2319.64 1749.84 2303.17 1696.2 2297.68 1592.53 C 2296.63 1572.84 2309.01 1554.71 2327.79 1548.45 L 2401.24 1523.96 C 2413.26 1519.95 2426.44 1521.3 2437.38 1527.67 C 2448.31 1534.01 2455.99 1544.75 2458.45 1557.13 C 2472.63 1628.5 2486.08 1751.91 2416.81 1776.53 C 2406.28 1780.27 2396.33 1782.14 2387.01 1782.14 Z " fill="rgb(55,26,69)"/><path d=" M 2383.44 1333.08 C 2374.68 1334.45 2365.6 1336.07 2356.69 1337.74 C 2347.74 1339.43 2338.82 1341.24 2329.92 1343.16 C 2312.13 1347.02 2294.46 1351.35 2277.18 1356.67 L 2277.1 1356.7 C 2272.87 1358 2268.39 1355.62 2267.08 1351.39 C 2265.9 1347.53 2267.76 1343.47 2271.31 1341.79 C 2288.3 1333.72 2305.65 1326.69 2323.13 1320.13 C 2331.88 1316.87 2340.67 1313.72 2349.5 1310.68 C 2358.37 1307.64 2367.11 1304.73 2376.26 1301.89 C 2384.72 1299.27 2393.71 1304 2396.33 1312.47 C 2398.96 1320.93 2394.22 1329.92 2385.76 1332.54 C 2385.03 1332.77 2384.31 1332.94 2383.58 1333.06 L 2383.44 1333.08 Z " fill="rgb(55,26,69)"/><line x1="1655.19" y1="1390.15" x2="1634.83" y2="1274.19"/><path d=" M 2285.72 1898.8 C 2228.76 1964.08 2114.28 1980.56 2084.96 2024.64 C 2059.16 2063.36 2068.44 2112.64 2070.88 2164.36 C 2073 2208.56 2065.48 2266.44 2028.28 2316.6 C 1972 2392.48 1865.16 2400.4 1807.28 2352.12 C 1741.2 2297.04 1823.32 2158.44 1835.24 2141.36 C 1835.24 2141.36 1817.2 2119.2 1800.44 2099.28 C 1794.36 2092.08 1789.2 2083.4 1785.04 2073.6 C 1778.96 2059.52 1774.84 2043.16 1772.84 2025.64 C 1697.4 2098.4 1634.84 2223 1634.84 2223 C 1582.8 2314.36 1375.6 2261.68 1324.36 2164.04 C 1313.4 2143.16 1308.96 2126.08 1309.2 2112.08 C 1310.6 2037.52 1445.84 2051 1445.84 2051 C 1445.84 2051 1411.24 1912.92 1538.88 1831.8 C 1560.2 1818.24 1586.08 1806.28 1617.36 1796.8 C 1617.36 1796.8 1638.72 1725.84 1650.92 1622.48 C 1656.36 1576.28 1660 1523.56 1659.04 1467.84 C 1657.96 1405.52 1651.16 1339.32 1634.84 1274.2 L 2136.24 1240.08 C 2152.08 1258 2166.84 1276.24 2180.64 1294.68 C 2357.04 1531.44 2366.48 1806.28 2285.72 1898.8 Z " fill="rgb(255,255,255)"/><path d=" M 1531.82 2254.29 C 1530.71 2254.29 1529.62 2254.28 1528.57 2254.26 C 1451.34 2252.94 1366.08 2209.12 1338.52 2156.59 C 1332.6 2145.31 1328.65 2135.14 1326.68 2126.1 C 1393.44 2177.8 1447.47 2198 1491.64 2198 C 1604.16 2198 1652.67 2066.94 1684.84 1992.08 C 1703.78 1947.97 1741.12 1913.58 1783.08 1887.2 C 1774.37 1903.01 1768.02 1919.84 1763.62 1936.95 C 1757.03 1962.28 1754.46 1988.4 1755.93 2014.5 C 1756.03 2016.24 1756.15 2017.98 1756.29 2019.72 C 1683.61 2092.46 1625.79 2205.39 1620.73 2215.4 C 1601.44 2248.81 1557.99 2254.29 1531.82 2254.29 Z  M 1781.56 1854.11 C 1779.09 1854.11 1776.62 1854.1 1774.16 1854.08 C 1784.37 1851.96 1794.59 1849.46 1804.76 1846.53 C 1821.99 1841.59 1832 1824.1 1827.54 1806.72 C 1827.51 1806.6 1827.48 1806.47 1827.45 1806.35 L 1876.11 1805.58 C 1870.12 1808.26 1864.22 1811.16 1858.43 1814.26 C 1839.66 1824.6 1821.75 1837.41 1806.76 1853.82 C 1798.31 1854.02 1789.91 1854.11 1781.56 1854.11 Z  M 2061.67 1796.58 C 2052.51 1793.18 2043.1 1790.42 2033.5 1788.29 C 2042.55 1781.23 2049.89 1772.09 2054.81 1761.61 C 2057.36 1756.2 2059.23 1750.5 2060.38 1744.61 C 2061.34 1739.69 2061.81 1734.6 2061.72 1729.39 L 2061.65 1724.88 C 2067.8 1725.01 2073.83 1725.08 2079.75 1725.08 C 2092.94 1725.08 2105.55 1724.75 2117.61 1724.15 C 2104.06 1756.12 2085.82 1783.79 2061.67 1796.58 Z " fill="rgb(185,175,190)"/><path d=" M 1617.36 1796.81 L 1617.41 1796.81 L 1617.36 1796.81 Z  M 1532.04 2286.29 C 1530.71 2286.29 1529.37 2286.28 1528.02 2286.26 C 1449.85 2284.92 1347 2241.61 1310.18 2171.46 C 1289.72 2132.48 1287.69 2100.34 1304.15 2075.94 C 1330.06 2037.53 1393.62 2033.26 1427.08 2033.96 C 1421.83 1981.07 1426.31 1842.19 1604.29 1784.15 C 1616.8 1737.83 1675.01 1500.18 1619.31 1278.1 C 1617.15 1269.53 1622.36 1260.84 1630.93 1258.69 C 1639.51 1256.53 1648.19 1261.75 1650.34 1270.32 C 1714.28 1525.24 1636.04 1790.27 1632.68 1801.43 L 1630.21 1809.64 L 1621.99 1812.12 C 1421.08 1872.9 1459.6 2040.05 1461.34 2047.13 L 1466.73 2069.11 L 1444.22 2066.91 C 1419.36 2064.45 1350.41 2064.54 1330.66 2093.86 C 1321.31 2107.74 1323.96 2128.84 1338.52 2156.59 C 1366.08 2209.12 1451.34 2252.94 1528.57 2254.26 C 1554.24 2254.7 1600.62 2250.23 1620.73 2215.4 C 1627.84 2201.33 1739.32 1983.71 1849.67 1960.55 C 1858.31 1958.72 1866.8 1964.28 1868.61 1972.93 C 1870.43 1981.57 1864.89 1990.06 1856.24 1991.87 C 1776.09 2008.69 1679.56 2169.59 1649.13 2230.17 L 1648.74 2230.9 C 1628.36 2266.71 1587 2286.29 1532.04 2286.29 Z " fill="rgb(55,26,69)"/><path d=" M 2081.2 1810.17 C 2015.89 1790.33 1944.99 1793.63 1883.05 1821.96 C 1861.59 1831.77 1840.86 1844.69 1823.71 1861.69 C 1761.03 1923.86 1759.27 2048.67 1801.83 2099.27 C 1818.61 2119.21 1836.66 2141.36 1836.66 2141.36 C 1824.73 2158.45 1742.6 2297.04 1808.69 2352.13 C 1866.57 2400.38 1973.39 2392.46 2029.67 2316.58 C 2066.87 2266.43 2074.42 2208.57 2072.3 2164.34 C 2069.83 2112.64 2060.58 2063.34 2086.35 2024.64 C 2115.7 1980.55 2230.15 1964.07 2287.11 1898.81 C 2374.19 1799.03 2356.41 1487.45 2137.63 1240.06 L 2213.53 1644.1 L 2081.2 1810.17 Z " fill="rgb(255,255,255)"/><path d=" M 1826.55 2189.58 C 1829.36 2183.77 1832.31 2178.02 1835.39 2172.36 C 1839.48 2164.83 1844.1 2156.84 1848.36 2150.52 L 1855.2 2140.39 L 1847.64 2131.25 L 1824.2 2102.92 L 1812.53 2088.78 C 1811.41 2087.1 1810.2 2085.5 1809.02 2083.88 C 1875.89 2138.25 1955 2146.56 1955 2146.56 C 1911.7 2188.67 1875.01 2180.47 1826.55 2189.58 Z " fill="rgb(185,175,190)"/><path d=" M 1896.42 2366.18 C 1880.45 2366.18 1864.51 2363.59 1849.76 2358.21 L 1838.76 2353.48 C 1835.26 2351.62 1831.89 2349.57 1828.42 2347.67 C 1825.09 2345.57 1822.09 2343.06 1818.87 2340.82 C 1817.12 2339.69 1816.18 2338.44 1814.82 2337.28 C 1813.48 2336.16 1812.36 2334.86 1811.3 2333.52 C 1802.39 2323.18 1798.15 2308.8 1797.92 2293 C 1797.9 2292.22 1797.89 2291.44 1797.88 2290.65 C 1818.19 2323.93 1851.02 2337.05 1885.31 2337.05 C 1938.98 2337.05 1996.25 2304.93 2014.81 2267.72 C 2036.45 2224.32 2044.76 2156.12 2042.64 2111.88 C 2040.16 2060.16 2019.95 1978.77 2045.71 1940.05 C 2075.07 1895.97 2200.48 1911.6 2257.44 1846.36 C 2287.12 1812.34 2304.62 1753.71 2306.13 1681.39 C 2310.06 1679.43 2313.41 1677.63 2316.2 1676.05 C 2317.93 1695.23 2318.7 1714.45 2318.35 1733.6 C 2317.92 1751.12 2316.53 1768.54 2314.08 1785.73 C 2311.36 1802.83 2307.57 1819.68 2302.12 1835.74 C 2296.68 1851.76 2289.54 1867.06 2280.12 1880.06 C 2270.92 1892.88 2258.41 1904.16 2244.76 1913.99 C 2217.11 1933.72 2184.48 1947.81 2151.27 1962.79 C 2134.64 1970.4 2117.66 1978.05 2100.86 1988.76 C 2092.51 1994.21 2084.09 2000.56 2076.59 2009.26 C 2074.73 2011.35 2072.94 2013.94 2071.33 2016.23 L 2067.22 2023.06 C 2065.83 2025.33 2064.83 2027.79 2063.63 2030.16 C 2062.42 2032.52 2061.44 2034.97 2060.55 2037.43 C 2052.85 2057.18 2051.32 2077.59 2051.26 2096.63 C 2051.32 2115.77 2053.01 2134.1 2054.14 2151.94 L 2054.91 2165.24 C 2055.05 2169.52 2055.22 2173.79 2055.18 2178.07 C 2055.15 2186.61 2054.8 2195.16 2053.89 2203.62 C 2052.29 2220.58 2048.63 2237.21 2043.38 2253.2 C 2032.44 2284.86 2014.27 2314.74 1988.46 2334.52 C 1963.03 2355.02 1930.14 2365.98 1897.48 2366.17 C 1897.13 2366.18 1896.77 2366.18 1896.42 2366.18 Z " fill="rgb(185,175,190)"/><path d=" M 2078.23 1815.27 C 2030.12 1809.46 1983.4 1809.57 1938.68 1820.41 C 1933.09 1821.67 1927.64 1823.43 1922.12 1824.92 C 1916.71 1826.78 1911.23 1828.39 1905.95 1830.58 C 1895.27 1834.56 1884.8 1839.25 1874.83 1844.59 C 1855.02 1855.24 1836.5 1868.65 1823.35 1885.49 C 1809.92 1902.56 1800.5 1923.32 1794.6 1945.11 C 1788.84 1966.97 1786.61 1990 1787.87 2012.61 L 1788.05 2016.86 L 1788.55 2021.05 L 1789.54 2029.45 C 1790.28 2035.02 1791.64 2040.42 1792.65 2045.91 C 1795.68 2056.46 1798.89 2067.13 1804.19 2076.07 C 1806.41 2080.95 1809.74 2084.58 1812.53 2088.78 L 1824.2 2102.92 L 1847.64 2131.25 L 1855.2 2140.39 L 1848.36 2150.52 C 1844.1 2156.84 1839.48 2164.83 1835.39 2172.36 C 1831.23 2180.03 1827.3 2187.84 1823.62 2195.75 C 1816.24 2211.56 1809.95 2227.8 1805.21 2244.19 C 1800.59 2260.55 1797.5 2277.24 1797.92 2293 C 1798.15 2308.8 1802.39 2323.18 1811.3 2333.52 C 1812.36 2334.86 1813.48 2336.16 1814.82 2337.28 C 1816.18 2338.44 1817.12 2339.69 1818.87 2340.82 C 1822.09 2343.06 1825.09 2345.57 1828.42 2347.67 C 1831.89 2349.57 1835.26 2351.62 1838.76 2353.48 L 1849.76 2358.21 C 1864.84 2363.7 1881.16 2366.29 1897.48 2366.17 C 1930.14 2365.98 1963.03 2355.02 1988.46 2334.52 C 2014.27 2314.74 2032.44 2284.86 2043.38 2253.2 C 2048.63 2237.21 2052.29 2220.58 2053.89 2203.62 C 2054.8 2195.16 2055.15 2186.61 2055.18 2178.07 C 2055.22 2173.79 2055.05 2169.52 2054.91 2165.24 L 2054.14 2151.94 C 2053.01 2134.1 2051.32 2115.77 2051.26 2096.63 C 2051.32 2077.59 2052.85 2057.18 2060.55 2037.43 C 2061.44 2034.97 2062.42 2032.52 2063.63 2030.16 C 2064.83 2027.79 2065.83 2025.33 2067.22 2023.06 L 2071.33 2016.23 C 2072.94 2013.94 2074.73 2011.35 2076.59 2009.26 C 2084.09 2000.56 2092.51 1994.21 2100.86 1988.76 C 2117.66 1978.05 2134.64 1970.4 2151.27 1962.79 C 2184.48 1947.81 2217.11 1933.72 2244.76 1913.99 C 2258.41 1904.16 2270.92 1892.88 2280.12 1880.06 C 2289.54 1867.06 2296.68 1851.76 2302.12 1835.74 C 2307.57 1819.68 2311.36 1802.83 2314.08 1785.73 C 2316.53 1768.54 2317.92 1751.12 2318.35 1733.6 C 2319 1698.54 2315.85 1663.23 2310.01 1628.36 C 2297.89 1558.62 2274.78 1490.65 2243.12 1427.06 L 2237.05 1415.2 L 2230.61 1403.53 L 2224.11 1391.9 L 2217.16 1380.53 L 2210.23 1369.16 L 2203.01 1357.97 C 2198.31 1350.44 2193.57 1342.94 2188.67 1335.53 C 2179.18 1320.51 2169.12 1305.87 2159.72 1290.61 C 2154.77 1283.17 2150.26 1275.35 2145.58 1267.61 C 2140.81 1259.94 2136.31 1251.99 2132.21 1243.59 L 2132.12 1243.41 C 2130.8 1240.69 2131.93 1237.41 2134.65 1236.08 C 2136.5 1235.18 2138.63 1235.42 2140.2 1236.53 C 2147.87 1241.93 2155.13 1247.78 2162.12 1253.91 C 2165.75 1256.86 2168.88 1260.24 2172.23 1263.45 C 2175.58 1266.66 2178.75 1270.03 2181.95 1273.38 C 2194.65 1286.86 2206.11 1301.43 2216.75 1316.56 C 2222.27 1324 2227.18 1331.84 2232.1 1339.68 L 2239.36 1351.51 L 2246.14 1363.62 L 2252.9 1375.74 L 2259.32 1388.04 L 2265.77 1400.32 L 2271.84 1412.79 C 2304.65 1479.04 2328.86 1549.76 2341.56 1622.97 C 2347.69 1659.59 2351.03 1696.82 2350.34 1734.28 C 2349.89 1753.01 2348.4 1771.78 2345.72 1790.5 C 2342.76 1809.19 2338.59 1827.84 2332.39 1846.12 C 2326.16 1864.37 2317.92 1882.37 2306.06 1898.8 C 2294.01 1915.48 2279.1 1928.65 2263.4 1940 C 2231.81 1962.47 2197.22 1977.09 2164.49 1991.93 C 2148.17 1999.36 2132.03 2006.8 2118.24 2015.63 C 2111.41 2020.05 2105.33 2024.91 2100.99 2029.97 C 2099.83 2031.24 2099.08 2032.45 2098.05 2033.83 L 2095.17 2038.65 C 2094.16 2040.23 2093.5 2042.02 2092.63 2043.69 C 2091.74 2045.35 2091.06 2047.12 2090.42 2048.92 C 2084.82 2063.07 2083.29 2079.53 2083.26 2096.59 C 2083.3 2113.73 2084.9 2131.55 2086.07 2149.88 L 2086.87 2163.73 C 2087.04 2168.52 2087.22 2173.3 2087.18 2178.09 C 2087.15 2187.67 2086.75 2197.27 2085.73 2206.83 C 2083.91 2225.97 2079.78 2244.99 2073.7 2263.43 C 2067.41 2281.81 2058.92 2299.55 2048.23 2315.91 C 2045.37 2319.89 2042.8 2324 2039.67 2327.86 L 2030.15 2339.36 C 2026.89 2343.11 2023.12 2346.41 2019.61 2349.94 C 2016.16 2353.56 2012.18 2356.57 2008.26 2359.66 C 1992.61 2371.91 1975.04 2381.95 1956.15 2388.23 C 1937.33 2394.63 1917.54 2398.04 1897.64 2398.17 C 1877.75 2398.3 1857.7 2395.17 1838.67 2388.23 L 1824.69 2382.21 C 1820.17 2379.86 1815.76 2377.24 1811.32 2374.72 C 1806.99 2371.99 1802.95 2368.74 1798.79 2365.73 C 1796.72 2364.36 1794.66 2362.16 1792.62 2360.32 C 1790.51 2358.47 1788.65 2356.37 1786.86 2354.18 C 1779.55 2345.59 1774.17 2335.42 1770.85 2325.03 C 1767.46 2314.6 1766.21 2304.04 1765.93 2293.8 C 1765.45 2273.24 1769.26 2253.88 1774.44 2235.41 C 1779.77 2216.96 1786.65 2199.3 1794.6 2182.26 C 1798.57 2173.73 1802.79 2165.35 1807.27 2157.08 C 1811.87 2148.7 1816.25 2140.92 1822.12 2132.21 L 1822.84 2151.47 L 1799.61 2123.39 L 1787.98 2109.31 C 1783.82 2103.49 1779.14 2097.79 1776.18 2091.54 C 1762.78 2066.93 1757.46 2040.54 1755.93 2014.5 C 1754.46 1988.4 1757.03 1962.28 1763.62 1936.95 C 1770.13 1911.64 1780.92 1886.93 1797.28 1865.24 C 1813.88 1843.18 1835.52 1826.89 1858.43 1814.26 C 1881.43 1801.94 1906.05 1792.87 1931.49 1787.91 C 1982.12 1777.59 2036.06 1782.55 2081.33 1805.07 C 2084 1806.4 2085.09 1809.65 2083.76 1812.32 C 2082.72 1814.42 2080.49 1815.54 2078.28 1815.28 L 2078.23 1815.27 Z " fill="rgb(55,26,69)"/><path d=" M 1425.13 1216.63 C 1766.78 1722.89 2486.61 1273.62 2211.97 753.491 C 1874.54 226.971 1130.9 692.07 1425.13 1216.63 Z " fill="rgb(255,255,255)"/><path d=" M 1425.13 1216.63 C 1766.78 1722.89 2486.61 1273.62 2211.97 753.491 C 1874.54 226.971 1130.9 692.07 1425.13 1216.63 Z " fill="rgb(255,255,255)"/><path d=" M 1800.56 1491.99 C 1780.17 1491.99 1759.67 1490.55 1739.21 1487.59 C 1734.45 1472.99 1729.75 1459.14 1725.17 1446.19 C 1725.67 1446.29 1726.16 1446.38 1726.66 1446.48 C 1754.19 1451.74 1782.1 1454.34 1810.08 1454.34 C 1894.56 1454.34 1979.55 1430.62 2055.9 1384.87 C 2090.93 1363.89 2122.81 1339.1 2150.99 1311.2 L 2154.16 1328.05 C 2066.17 1429.08 1935.49 1491.99 1800.56 1491.99 Z " fill="rgb(185,175,190)"/><path d=" M 2154.16 1328.05 L 2150.99 1311.2 C 2155.47 1306.77 2159.85 1302.26 2164.14 1297.68 C 2166.32 1301.11 2168.52 1304.52 2170.73 1307.91 C 2165.39 1314.79 2159.87 1321.49 2154.16 1328.05 Z " fill="rgb(185,175,190)"/><path d=" M 2170.73 1307.91 C 2168.52 1304.52 2166.32 1301.11 2164.14 1297.68 C 2167.61 1293.96 2171.02 1290.2 2174.36 1286.39 C 2176.48 1289.15 2178.57 1291.91 2180.64 1294.68 C 2177.42 1299.15 2174.11 1303.57 2170.73 1307.91 Z " fill="rgb(55,26,69)"/><path d=" M 1425.13 1216.63 C 1766.78 1722.89 2486.61 1273.62 2211.97 753.491 C 1874.54 226.971 1130.9 692.07 1425.13 1216.63 Z " fill="rgb(255,255,255)"/><path d=" M 1434.85 1210.64 C 1605.79 1463.56 1862.82 1468.59 2041.81 1361.36 C 2216.7 1256.6 2341.38 1023.51 2202.11 759.242 C 2034.19 497.643 1766.89 493.038 1589.49 599.513 C 1410.34 707.035 1285.6 944.092 1434.85 1210.64 Z  M 1810.08 1449.75 C 1782.38 1449.75 1754.77 1447.18 1727.52 1441.96 C 1604.27 1418.4 1496.44 1342.69 1415.68 1223.01 L 1415.19 1222.21 C 1345.02 1097.12 1327.99 966.488 1365.95 844.432 C 1399.81 735.534 1475.03 641.607 1577.75 579.955 C 1680.27 518.424 1797.78 496.761 1908.68 519.01 C 2033.71 544.073 2141.91 623.028 2221.58 747.338 L 2222.06 748.168 C 2287.65 872.379 2301.95 1001.34 2263.44 1121.1 C 2228.99 1228.21 2154.44 1320.48 2053.54 1380.93 C 1977.91 1426.24 1893.73 1449.75 1810.08 1449.75 Z " fill="rgb(55,26,69)"/><path d=" M 1771.1 1413.82 C 1751.41 1413.82 1731.41 1412.24 1711.31 1408.86 C 1709.61 1404.51 1707.95 1400.38 1706.33 1396.44 C 1721.22 1397.97 1736.05 1398.73 1750.8 1398.73 C 1778.6 1398.73 1806.11 1396.02 1833.13 1390.55 C 1931.59 1370.63 2018.44 1314.99 2077.68 1233.89 C 2088.32 1219.32 2097.87 1204.17 2106.31 1188.56 C 2110.31 1194.89 2114.65 1200.66 2119.29 1205.91 C 2077.97 1279 2015.11 1337.14 1944.2 1372.56 C 1893.96 1397.65 1834.11 1413.82 1771.1 1413.82 Z  M 1939.66 1402.38 C 1944.93 1400.01 1950.17 1397.52 1955.38 1394.92 C 2032.46 1356.42 2096.22 1296.56 2138.7 1223.66 C 2148.69 1230.97 2159.43 1236.38 2170.51 1239.95 C 2134.14 1287.95 2088.81 1327.85 2039.45 1357.42 C 2008.28 1376.1 1974.73 1391.33 1939.66 1402.38 Z " fill="rgb(185,175,190)"/><path d=" M 1438.77 1208.23 C 1608.01 1458.47 1862.36 1463.52 2039.45 1357.42 C 2212.51 1253.75 2335.9 1023.13 2198.14 761.561 C 2031.88 502.723 1767.37 498.107 1591.86 603.453 C 1414.59 709.843 1291.17 944.43 1438.77 1208.23 Z  M 1810.08 1454.34 C 1782.1 1454.34 1754.19 1451.74 1726.66 1446.48 C 1602.18 1422.68 1493.33 1346.29 1411.87 1225.58 L 1411.18 1224.46 C 1340.38 1098.24 1323.22 966.359 1361.56 843.067 C 1395.76 733.091 1471.7 638.251 1575.39 576.014 C 1678.89 513.9 1797.55 492.051 1909.59 514.506 C 2035.87 539.82 2145.09 619.476 2225.45 744.859 L 2226.12 746.022 C 2292.3 871.351 2306.71 1001.54 2267.81 1122.51 C 2233.02 1230.68 2157.76 1323.85 2055.9 1384.87 C 1979.55 1430.62 1894.56 1454.34 1810.08 1454.34 Z " fill="rgb(41,56,86)"/><path d=" M 1438.77 1208.23 C 1608.01 1458.47 1862.36 1463.52 2039.45 1357.42 C 2212.51 1253.75 2335.9 1023.13 2198.14 761.561 C 2031.88 502.723 1767.37 498.107 1591.86 603.453 C 1414.59 709.843 1291.17 944.43 1438.77 1208.23 Z  M 1810.08 1454.34 C 1782.1 1454.34 1754.19 1451.74 1726.66 1446.48 C 1602.18 1422.68 1493.33 1346.29 1411.87 1225.58 L 1411.18 1224.46 C 1340.38 1098.24 1323.22 966.359 1361.56 843.067 C 1395.76 733.091 1471.7 638.251 1575.39 576.014 C 1678.89 513.9 1797.55 492.051 1909.59 514.506 C 2035.87 539.82 2145.09 619.476 2225.45 744.859 L 2226.12 746.022 C 2292.3 871.351 2306.71 1001.54 2267.81 1122.51 C 2233.02 1230.68 2157.76 1323.85 2055.9 1384.87 C 1979.55 1430.62 1894.56 1454.34 1810.08 1454.34 Z " fill="rgb(55,26,69)"/><path d=" M 1497.99 1308.16 C 1959.82 1580.66 2351.87 1041.76 2001.58 729.169 C 1587.95 402.882 1123.64 911.422 1497.99 1308.16 Z " fill="rgb(55,26,69)"/><path d=" M 1374.54 990.598 C 1372.52 1475.25 2065.63 1515.62 2140.2 1072.83 C 1918.13 1333.7 1504.44 1225.12 1374.54 990.598 Z " fill="rgb(33,16,43)"/><path d=" M 1435.7 1209.95 C 1584.53 1443.12 1802.65 1443.26 1944.2 1372.56 C 2106.92 1291.28 2227.2 1090.39 2142.27 863.702 C 2099.05 756.81 2007.13 669.542 1890.2 624.576 C 1773.2 579.586 1646.17 582.776 1541.45 633.304 C 1348.83 772.217 1331.19 1043.4 1435.7 1209.95 Z  M 1771.74 1439.03 C 1739.21 1439.03 1706.89 1434.96 1675.49 1426.73 C 1572.5 1399.75 1482.29 1329.42 1414.6 1223.36 L 1414.55 1223.28 C 1303.83 1046.87 1322.9 759.298 1527.74 612.37 L 1529.56 611.283 C 1640.66 557.294 1775.37 553.634 1899.18 601.243 C 2022.55 648.685 2119.64 741.041 2165.56 854.632 C 2207.2 965.751 2205.5 1078.27 2160.75 1180.31 C 2120.2 1272.81 2047.26 1349.03 1955.38 1394.92 C 1896.91 1424.13 1833.97 1439.03 1771.74 1439.03 Z " fill="rgb(55,26,69)"/><path d=" M 1508.07 1295.53 C 1742.74 1432.9 1950.15 1354.24 2051.83 1215.01 C 2144.11 1088.67 2161.12 893.288 1991.29 741.43 C 1786.65 580.265 1581.83 631.825 1469.56 754.498 C 1354.2 880.543 1321.58 1096.51 1508.07 1295.53 Z  M 1750.8 1398.73 C 1664.82 1398.73 1576 1372.76 1489.86 1321.94 L 1487.91 1320.79 L 1486.35 1319.14 C 1395.75 1223.12 1346.7 1113.44 1344.52 1001.96 C 1342.56 902.056 1378.58 806.5 1445.95 732.894 C 1511.79 660.953 1601.04 617.318 1697.27 610.02 C 1804.18 601.944 1912.83 638.777 2011.49 716.607 L 2012.24 717.23 C 2094.73 790.844 2142.69 881.649 2150.95 979.83 C 2158.42 1068.74 2132.4 1158.96 2077.68 1233.89 C 2018.44 1314.99 1931.59 1370.63 1833.13 1390.55 C 1806.11 1396.02 1778.6 1398.73 1750.8 1398.73 Z " fill="rgb(55,26,69)"/><path d=" M 2333.27 1073.87 C 2304.1 1287.24 2087.8 1275.97 2095.11 1069.46 C 2117.48 844.707 2348.7 856.735 2333.27 1073.87 Z " fill="rgb(255,255,255)"/><path d=" M 2199.39 1213.05 C 2198.66 1213.01 2197.92 1212.96 2197.19 1212.9 C 2153.65 1209.16 2111.1 1166.69 2110.93 1080.29 C 2117.04 1085.58 2123.7 1087.93 2130.68 1087.93 C 2136.72 1087.93 2143 1086.17 2149.36 1083.04 C 2149.3 1083.57 2149.25 1084.1 2149.2 1084.63 L 2149.16 1085.37 C 2146.81 1151.86 2169.5 1193.7 2199.39 1213.05 Z " fill="rgb(185,175,190)"/><path d=" M 2333.27 1073.87 L 2333.32 1073.87 L 2333.27 1073.87 Z  M 2111.09 1070.54 C 2107.96 1163.49 2152.04 1209.02 2197.19 1212.9 C 2245.19 1217 2303.16 1174.75 2317.34 1072.22 C 2324.1 974.732 2277.7 926.104 2231.66 922.179 C 2179.63 917.743 2121.54 967.274 2111.09 1070.54 Z  M 2203.51 1245.16 C 2200.46 1245.16 2197.45 1245.03 2194.45 1244.78 C 2134.13 1239.6 2075.07 1183.2 2079.12 1068.89 L 2079.19 1067.87 C 2091.55 943.658 2166.67 884.525 2234.38 890.294 C 2295.64 895.519 2357.72 955.55 2349.23 1075.01 L 2349.12 1076.04 C 2333.03 1193.74 2264.14 1245.16 2203.51 1245.16 Z " fill="rgb(55,26,69)"/><path d=" M 2341.76 1085.66 C 2317.94 1258.55 2155.76 1252.84 2161.65 1085.81 C 2179.12 901.553 2355.37 907.955 2341.76 1085.66 Z " fill="rgb(255,255,255)"/><path d=" M 2341.76 1085.67 L 2341.81 1085.67 L 2341.76 1085.67 Z  M 2174.13 1086.62 C 2171.6 1161.32 2203.94 1197.66 2237.16 1200.52 C 2273.36 1203.67 2317.6 1168.61 2329.33 1084.33 C 2335.29 1004.95 2301.08 965.626 2266.72 962.684 C 2226.93 959.276 2182.39 1000.75 2174.13 1086.62 Z  M 2241.48 1225.71 C 2239.3 1225.71 2237.15 1225.62 2235.01 1225.43 C 2189.96 1221.54 2145.93 1176.72 2149.16 1085.37 L 2149.2 1084.63 C 2158.9 982.315 2216.68 933.282 2268.86 937.774 C 2315.16 941.741 2361.62 990.011 2354.23 1086.62 L 2354.15 1087.37 C 2340.89 1183.58 2287.73 1225.71 2241.48 1225.71 Z " fill="rgb(55,26,69)"/><path d=" M 1993.06 1032.09 C 1962.06 1032.09 1932.4 1004.63 1936.7 960.179 C 1943.46 916.375 1970.27 897.349 1996.6 897.349 C 2029.9 897.349 2062.43 927.8 2052.56 977.053 C 2042.22 1015.4 2017.23 1032.09 1993.06 1032.09 Z " fill="rgb(195,186,199)"/><path d=" M 1976.65 1134.55 C 1962.83 1134.55 1949.86 1122.09 1954.9 1100.48 C 1959.44 1086.82 1969.64 1080.58 1979.42 1080.58 C 1993.24 1080.58 2006.2 1093.04 2001.17 1114.65 C 1996.63 1128.31 1986.42 1134.55 1976.65 1134.55 Z " fill="rgb(195,186,199)"/><path d=" M 1422.45 1024.44 C 1374.06 768.29 1562.1 675.934 1704.45 675.934 C 1751.27 675.934 1793.13 685.915 1820.03 703.346 C 1593.42 723.282 1495.64 865.321 1422.45 1024.44 Z " fill="rgb(195,186,199)"/><path d=" M 2241.65 1200.72 C 2240.14 1200.72 2238.65 1200.65 2237.16 1200.52 C 2203.94 1197.66 2171.6 1161.32 2174.13 1086.62 C 2174.23 1085.59 2174.33 1084.56 2174.44 1083.54 C 2189.29 1108.43 2210.2 1118.9 2232.19 1118.9 C 2269.33 1118.9 2309.58 1089.09 2329.19 1048.45 C 2330.2 1059.34 2330.31 1071.3 2329.33 1084.33 C 2318.08 1165.16 2276.93 1200.72 2241.65 1200.72 Z " fill="rgb(185,175,190)"/><path d=" M 2235.37 1211.29 C 2200.94 1211.29 2167.83 1185.28 2153.68 1125.06 C 2150.11 1100.78 2153.19 1075.42 2161.33 1052.14 C 2164.83 1064.47 2169.27 1074.88 2174.44 1083.54 C 2174.33 1084.56 2174.23 1085.59 2174.13 1086.62 C 2171.6 1161.32 2203.94 1197.66 2237.16 1200.52 C 2238.65 1200.65 2240.14 1200.72 2241.65 1200.72 C 2276.93 1200.72 2318.08 1165.16 2329.33 1084.33 C 2330.31 1071.3 2330.2 1059.34 2329.19 1048.45 C 2332 1042.63 2334.39 1036.58 2336.28 1030.38 C 2354.51 1138.12 2293.1 1211.29 2235.37 1211.29 Z " fill="rgb(55,26,69)"/><path d=" M 2104.18 912.457 M 2104.58 944.444 C 2100.01 944.444 2096.14 943.321 2093.05 941.874 C 2072.98 932.474 2070.82 901.866 2070.63 892.708 C 2070.45 883.873 2077.47 876.568 2086.3 876.39 C 2095.22 876.146 2102.42 883.211 2102.62 892.027 C 2102.79 898.956 2104.46 907.335 2106.31 911.449 C 2107.13 910.96 2108.18 910.248 2109.48 909.205 C 2116.38 903.683 2126.45 904.801 2131.97 911.703 C 2137.49 918.602 2136.37 928.67 2129.47 934.19 C 2119.81 941.925 2111.41 944.444 2104.58 944.444 Z " fill="rgb(55,26,69)"/><path d=" M 2070.26 2081.83 C 2069.79 2081.83 2069.31 2081.8 2068.83 2081.74 C 2062.25 2080.96 2057.55 2075 2058.33 2068.41 C 2072.63 1947.52 2001.99 1891.89 1970.95 1873.58 C 1923.58 1845.63 1867.92 1842.33 1835.59 1865.52 C 1830.2 1869.39 1822.71 1868.16 1818.84 1862.77 C 1814.98 1857.39 1816.21 1849.89 1821.59 1846.03 C 1862.03 1816.98 1926.96 1819.75 1983.15 1852.91 C 2056.22 1896.01 2093.24 1977.63 2082.16 2071.24 C 2081.44 2077.34 2076.26 2081.83 2070.26 2081.83 Z " fill="rgb(55,26,69)"/><path d=" M 1832.19 2118.98 C 1835.97 2121.7 1840.79 2124.96 1845.3 2127.74 C 1849.9 2130.58 1854.57 2133.36 1859.4 2135.78 C 1868.96 2140.81 1878.93 2144.88 1889.21 2147.76 C 1899.52 2150.82 1910.11 2151.55 1921.01 2151.62 C 1923.71 2151.44 1926.46 2151.35 1929.29 2151.33 C 1932 2150.9 1934.76 2150.44 1937.62 2150.11 C 1939.04 2149.91 1940.49 2149.76 1941.92 2149.51 L 1946.13 2148.46 C 1948.97 2147.77 1951.92 2147.14 1954.99 2146.56 C 1952.86 2148.67 1950.59 2150.74 1948.23 2152.75 L 1944.63 2155.75 C 1943.37 2156.65 1941.99 2157.34 1940.66 2158.15 C 1937.98 2159.73 1935.21 2161.27 1932.37 2162.71 C 1929.44 2163.83 1926.45 2164.9 1923.4 2165.88 C 1911.18 2169.49 1897.92 2170.36 1885.22 2168.56 C 1872.49 2166.86 1860.15 2163.12 1848.62 2157.88 C 1842.89 2155.19 1837.27 2152.28 1831.99 2148.82 C 1826.53 2145.39 1821.74 2141.89 1816.48 2137.13 C 1811.57 2132.68 1811.19 2125.1 1815.63 2120.19 C 1819.76 2115.62 1826.62 2114.98 1831.51 2118.5 L 1832.19 2118.98 Z " fill="rgb(55,26,69)"/><path d=" M 1702.48 2122.64 C 1702.28 2122.64 1702.08 2122.64 1701.88 2122.63 C 1695.26 2122.3 1690.16 2116.67 1690.48 2110.05 C 1694.24 2033.44 1676.38 1973.92 1637.38 1933.15 C 1581.69 1874.93 1500.71 1874.88 1500.05 1874.76 L 1500 1874.76 C 1493.4 1874.76 1488.03 1869.43 1487.99 1862.83 C 1487.95 1856.21 1493.27 1850.81 1499.89 1850.75 C 1503.63 1850.79 1591.58 1850.76 1654.51 1916.34 C 1698.39 1962.07 1718.56 2027.64 1714.45 2111.23 C 1714.14 2117.65 1708.83 2122.64 1702.48 2122.64 Z " fill="rgb(55,26,69)"/><path d=" M 1611.64 1675.25 C 1613.73 1702.95 1637.88 1723.72 1665.59 1721.64 C 1693.29 1719.55 1714.06 1695.4 1711.97 1667.69 C 1709.89 1639.99 1685.73 1619.22 1658.03 1621.31 C 1630.33 1623.39 1609.56 1647.55 1611.64 1675.25 Z " fill="rgb(255,255,255)"/><path d=" M 1661.84 1637.16 C 1660.97 1637.16 1660.1 1637.2 1659.23 1637.27 C 1650.09 1637.95 1641.77 1642.16 1635.8 1649.1 C 1629.82 1656.05 1626.91 1664.91 1627.6 1674.05 C 1629.02 1692.91 1645.46 1707.15 1664.39 1705.68 C 1683.25 1704.26 1697.44 1687.76 1696.02 1668.89 C 1694.66 1650.9 1679.59 1637.16 1661.84 1637.16 Z  M 1661.71 1737.78 C 1645.87 1737.78 1630.71 1732.18 1618.58 1721.74 C 1605.15 1710.2 1597.02 1694.11 1595.69 1676.45 C 1594.36 1658.79 1599.99 1641.67 1611.53 1628.24 C 1623.08 1614.81 1639.17 1606.69 1656.83 1605.35 C 1693.26 1602.65 1725.18 1630.03 1727.93 1666.49 C 1730.67 1702.95 1703.24 1734.84 1666.79 1737.59 C 1665.09 1737.72 1663.39 1737.78 1661.71 1737.78 Z " fill="rgb(55,26,69)"/><path d=" M 1723.47 1791.98 L 1989.39 1787.78 C 2020.86 1787.3 2046.23 1761.13 2045.74 1729.62 L 2043.5 1588.12 C 2043.06 1560.53 2022.94 1537.67 1996.8 1532.74 C 1993.09 1532.02 1989.26 1531.71 1985.34 1531.76 L 1719.46 1535.95 C 1687.95 1536.44 1662.58 1562.61 1663.11 1594.12 L 1664.86 1706.19 L 1665.31 1735.62 C 1665.8 1767.14 1692 1792.46 1723.47 1791.98 Z " fill="rgb(255,255,255)"/><path d=" M 1986.25 1547.75 C 1986.03 1547.75 1985.81 1547.75 1985.59 1547.75 L 1719.7 1551.94 C 1708.74 1552.12 1698.46 1556.58 1690.76 1564.53 C 1683.06 1572.48 1678.92 1582.89 1679.09 1593.85 L 1681.31 1735.37 C 1681.49 1746.33 1685.96 1756.61 1693.91 1764.31 C 1701.86 1772.01 1712.34 1775.95 1723.22 1775.99 L 1989.12 1771.8 C 2011.87 1771.44 2030.09 1752.64 2029.73 1729.89 L 2027.51 1588.37 C 2027.15 1565.84 2008.7 1547.75 1986.25 1547.75 Z  M 1989.37 1787.8 L 1989.42 1787.8 L 1989.37 1787.8 Z  M 1722.55 1807.99 C 1703.48 1807.99 1685.44 1800.67 1671.64 1787.29 C 1657.56 1773.64 1649.63 1755.38 1649.32 1735.88 L 1647.1 1594.36 C 1646.78 1574.85 1654.13 1556.35 1667.78 1542.26 C 1681.43 1528.17 1699.69 1520.25 1719.2 1519.95 L 1985.08 1515.76 C 1985.47 1515.75 1985.87 1515.75 1986.25 1515.75 C 2026.12 1515.75 2058.87 1547.86 2059.5 1587.86 L 2061.72 1729.39 C 2062.36 1769.78 2030.02 1803.16 1989.62 1803.79 L 1723.73 1807.98 C 1723.34 1807.99 1722.94 1807.99 1722.55 1807.99 Z " fill="rgb(55,26,69)"/><path d=" M 1712.78 1791.1 C 1716.24 1791.76 1719.79 1792.05 1723.47 1791.98 L 1989.39 1787.78 C 2012.45 1787.41 2032.23 1773.29 2040.95 1753.31 C 2044.13 1746.06 2045.85 1738.03 2045.7 1729.62 L 2044.73 1666.76 L 2044.41 1646.02 L 2043.5 1588.12 C 2043.01 1556.6 2016.81 1531.28 1985.34 1531.76 L 1927.88 1532.68 C 1954.44 1537.26 1974.98 1560.28 1975.43 1588.15 L 1976.66 1664.59 L 1977.67 1729.7 C 1978.16 1761.17 1952.79 1787.37 1921.32 1787.86 L 1712.78 1791.1 Z " fill="rgb(255,255,255)"/><path d=" M 1980.85 1771.93 C 1982.84 1769.03 1984.62 1766.01 1986.16 1762.89 C 2000.13 1757.64 2013.92 1751.54 2027.3 1744.48 C 2025.33 1749.91 2022.21 1754.92 2018.05 1759.21 C 2010.35 1767.16 2000.08 1771.63 1989.14 1771.8 L 1980.85 1771.93 Z " fill="rgb(185,175,190)"/><path d=" M 1978.71 1547.86 C 1986.56 1559.37 1991.2 1573.18 1991.43 1587.92 L 1993.65 1729.43 C 1993.91 1744.77 1989.42 1759.48 1980.85 1771.93 L 1989.14 1771.8 C 2000.08 1771.63 2010.35 1767.16 2018.05 1759.21 C 2025.75 1751.26 2029.9 1740.85 2029.72 1729.89 L 2029.72 1729.89 L 2027.49 1588.37 C 2027.32 1577.41 2022.85 1567.13 2014.9 1559.43 C 2006.96 1551.73 1996.51 1547.76 1985.57 1547.75 L 1978.71 1547.86 Z  M 1722.31 1807.98 C 1718.18 1807.98 1713.99 1807.61 1709.88 1806.85 L 1712.52 1775.12 L 1921.08 1771.85 C 1932.03 1771.69 1942.29 1767.21 1949.99 1759.27 C 1957.7 1751.31 1961.84 1740.9 1961.66 1729.95 L 1959.43 1588.42 C 1959.12 1568.63 1944.71 1551.81 1925.17 1548.43 L 1927.64 1516.67 L 1985.07 1515.75 C 1985.45 1515.74 1985.83 1515.74 1986.21 1515.74 C 2005.31 1515.74 2023.36 1523.07 2037.17 1536.45 C 2051.27 1550.1 2059.19 1568.37 2059.48 1587.87 L 2061.71 1729.38 C 2062.03 1748.89 2054.68 1767.39 2041.03 1781.48 C 2027.37 1795.57 2009.12 1803.5 1989.63 1803.79 L 1723.73 1807.97 C 1723.25 1807.98 1722.78 1807.98 1722.31 1807.98 Z " fill="rgb(55,26,69)"/><path d=" M 1871.72 1661.73 C 1871.83 1666.96 1880.1 1709.04 1880.1 1709.04 C 1880.1 1709.04 1893.48 1708.75 1909.91 1708.4 C 1930.44 1707.96 1946.62 1686.35 1946.06 1660.13 C 1945.49 1633.91 1928.4 1613.01 1907.87 1613.46 C 1894.02 1613.75 1878.06 1614.1 1878.06 1614.1 C 1878.06 1614.1 1871.54 1653.2 1871.72 1661.73 Z " fill="rgb(34,167,240)"/><path d=" M 1883.72 1661.37 C 1883.94 1664.52 1886.8 1680.41 1889.95 1696.83 L 1909.65 1696.4 C 1923.3 1696.1 1934.47 1679.61 1934.06 1660.39 C 1933.64 1641.16 1921.71 1624.97 1908.13 1625.45 L 1888.31 1625.88 C 1885.81 1641.68 1883.67 1657.37 1883.72 1661.37 Z  M 1870.27 1721.26 L 1868.32 1711.35 C 1865.16 1695.26 1859.84 1667.44 1859.72 1661.98 L 1859.72 1661.98 C 1859.53 1652.8 1865.1 1618.84 1866.22 1612.12 L 1867.86 1602.32 L 1907.61 1601.46 C 1934.58 1600.8 1957.35 1627.08 1958.05 1659.87 C 1958.76 1692.66 1937.28 1719.81 1910.17 1720.4 L 1870.27 1721.26 Z " fill="rgb(55,26,69)"/><path d=" M 1841.91 1662.37 C 1842.47 1688.58 1859.57 1709.48 1880.1 1709.04 C 1900.63 1708.6 1916.81 1686.99 1916.25 1660.77 C 1915.68 1634.55 1898.59 1613.65 1878.06 1614.1 C 1857.53 1614.54 1841.35 1636.15 1841.91 1662.37 Z " fill="rgb(34,167,240)"/><path d=" M 1916.24 1660.78 C 1916.29 1662.56 1916.24 1664.32 1916.11 1666.06 C 1911.59 1645.61 1896.67 1630.73 1879.33 1631.12 C 1860.21 1631.54 1844.82 1650.34 1843.34 1674.13 C 1842.49 1670.35 1842.01 1666.43 1841.92 1662.35 C 1841.34 1636.15 1857.53 1614.53 1878.05 1614.08 C 1898.58 1613.67 1915.67 1634.55 1916.24 1660.78 Z " fill="rgb(255,255,255)"/><path d=" M 1853.91 1662.11 C 1854.33 1681.33 1866.16 1697.2 1879.84 1697.04 C 1886 1696.91 1891.91 1693.48 1896.48 1687.38 C 1901.7 1680.4 1904.46 1671.04 1904.25 1661.03 C 1904.03 1651.01 1900.88 1641.78 1895.35 1635.04 C 1890.52 1629.13 1884.3 1625.87 1878.32 1626.09 C 1872.15 1626.23 1866.25 1629.66 1861.68 1635.76 C 1856.46 1642.74 1853.69 1652.1 1853.91 1662.11 Z  M 1879.47 1721.05 C 1852.76 1721.05 1830.61 1695.05 1829.91 1662.62 C 1829.59 1647.27 1834.04 1632.62 1842.47 1621.37 C 1851.56 1609.24 1864.1 1602.39 1877.8 1602.1 C 1891.45 1601.87 1904.32 1608.1 1913.93 1619.83 C 1922.83 1630.72 1927.92 1645.16 1928.24 1660.51 C 1928.57 1675.86 1924.11 1690.51 1915.68 1701.76 C 1906.6 1713.9 1894.05 1720.74 1880.36 1721.04 C 1880.06 1721.04 1879.77 1721.05 1879.47 1721.05 Z " fill="rgb(55,26,69)"/><path d=" M 1806.11 1801.66 C 1799.7 1801.66 1794.38 1796.59 1794.13 1790.13 L 1790.51 1698.46 L 1750.04 1673.89 C 1746.52 1671.75 1744.35 1667.97 1744.27 1663.86 L 1741.81 1535.72 C 1741.68 1529.1 1746.95 1523.62 1753.58 1523.5 C 1760.4 1523.48 1765.67 1528.64 1765.8 1535.26 L 1768.14 1656.8 L 1808.48 1681.29 C 1811.92 1683.38 1814.08 1687.05 1814.24 1691.07 L 1818.11 1789.18 C 1818.37 1795.8 1813.21 1801.38 1806.59 1801.65 C 1806.43 1801.65 1806.27 1801.66 1806.11 1801.66 Z " fill="rgb(55,26,69)"/><path d=" M 2313.72 1553.57 C 2313.72 1553.57 2341.82 1570.75 2342.39 1602.25 C 2343.06 1638.68 2317.39 1656.48 2317.39 1656.48 C 2317.39 1656.48 2230.25 1719.89 2028.11 1707.46 C 2028.11 1707.46 1977.01 1653.79 2036.09 1613.22 C 2036.09 1613.22 2220.82 1643.52 2313.72 1553.57 Z " fill="rgb(255,255,255)"/><path d=" M 2097.78 1692.82 C 2104.88 1685.61 2111.62 1677.91 2117.92 1669.7 C 2242.75 1665.06 2307.71 1630.21 2323.84 1620.26 C 2318.94 1635.39 2308.68 1643.03 2308.03 1643.5 C 2307.3 1644.02 2242.23 1689.14 2097.78 1692.82 Z " fill="rgb(185,175,190)"/><path d=" M 2036.03 1691.89 C 2223.82 1701.91 2307.2 1644.09 2308.03 1643.5 C 2308.9 1642.87 2326.89 1629.46 2326.4 1602.54 C 2326.17 1590.31 2319.76 1580.8 2314.05 1574.73 C 2224.03 1649.34 2074.41 1634.55 2040.31 1630 C 2030.36 1637.99 2024.81 1646.81 2023.78 1656.27 C 2022.19 1670.82 2030.83 1684.89 2036.03 1691.89 Z  M 2079.75 1725.08 C 2063.12 1725.08 2045.59 1724.56 2027.13 1723.43 L 2020.86 1723.04 L 2016.52 1718.49 C 2015.37 1717.28 1988.25 1688.35 1991.94 1653.09 C 1994.1 1632.38 2005.91 1614.53 2027.03 1600.03 L 2032.33 1596.39 L 2038.67 1597.43 C 2040.45 1597.73 2216.65 1625.29 2302.59 1542.08 L 2311.49 1533.46 L 2322.06 1539.92 C 2323.52 1540.81 2357.67 1562.13 2358.39 1601.96 C 2359.2 1646.44 2327.84 1668.7 2326.5 1669.62 C 2323.36 1671.91 2248.18 1725.08 2079.75 1725.08 Z " fill="rgb(55,26,69)"/><path d=" M 1816.03 1826.27 C 1816.03 1826.27 1797.88 1754.77 1769.55 1648.02 C 1730.02 1499.09 1676.36 1336.96 1647.94 1333.45 C 1619.4 1329.94 1540.59 1446.41 1488.07 1573.07 C 1445.55 1675.61 1410.71 1790.44 1410.71 1790.44 C 1410.71 1790.44 1624.71 1890.27 1816.03 1826.27 Z " fill="rgb(255,200,44)"/><path d=" M 1716.45 1576.42 C 1716.38 1576.32 1716.31 1576.21 1716.25 1576.11 C 1683.42 1468.87 1648.39 1378.72 1627.27 1376.09 C 1626.85 1376.04 1626.42 1376.02 1625.99 1376.02 C 1622.7 1376.02 1618.82 1377.44 1614.44 1380.15 C 1628.14 1362.95 1639.11 1352.42 1645.51 1349.83 C 1660.31 1362.28 1692.2 1438.08 1729.44 1564.1 C 1725.17 1567.68 1720.84 1571.76 1716.45 1576.42 Z " fill="rgb(255,223,131)"/><path d=" M 1617.49 1555.07 C 1585.9 1555.07 1560.29 1529.45 1560.29 1497.86 C 1560.29 1466.27 1585.9 1440.66 1617.49 1440.66 C 1649.08 1440.66 1674.7 1466.27 1674.7 1497.86 C 1674.7 1529.45 1649.08 1555.07 1617.49 1555.07 Z  M 1617.49 1444.69 C 1595.14 1444.69 1577.01 1462.81 1577.01 1485.17 C 1577.01 1507.52 1595.14 1525.65 1617.49 1525.65 C 1636.03 1525.65 1651.66 1513.18 1656.45 1496.18 C 1656.46 1496.19 1656.46 1496.19 1656.46 1496.2 C 1657.45 1492.67 1657.97 1488.97 1657.97 1485.18 C 1657.97 1472.59 1652.24 1461.36 1643.25 1453.94 C 1636.25 1448.16 1627.27 1444.69 1617.49 1444.69 Z " fill="rgb(235,182,47)"/><path d=" M 1657.97 1485.17 C 1657.97 1507.52 1639.85 1525.65 1617.49 1525.65 C 1595.14 1525.65 1577.01 1507.52 1577.01 1485.17 C 1577.01 1462.81 1595.14 1444.69 1617.49 1444.69 C 1639.85 1444.69 1657.97 1462.81 1657.97 1485.17 Z " fill="rgb(242,16,28)"/><path d=" M 1656.46 1496.2 C 1656.46 1496.19 1656.46 1496.19 1656.45 1496.18 C 1657.44 1492.68 1657.97 1488.99 1657.97 1485.17 C 1657.97 1472.6 1652.24 1461.37 1643.25 1453.94 C 1652.24 1461.36 1657.97 1472.59 1657.97 1485.18 C 1657.97 1488.97 1657.45 1492.67 1656.46 1496.2 Z " fill="rgb(243,212,133)"/><path d=" M 1578.54 1496.2 C 1577.56 1492.67 1577.04 1488.97 1577.04 1485.18 C 1577.04 1462.81 1595.14 1444.71 1617.5 1444.71 C 1627.29 1444.71 1636.25 1448.17 1643.25 1453.94 C 1652.24 1461.37 1657.97 1472.6 1657.97 1485.17 C 1657.97 1488.99 1657.44 1492.68 1656.45 1496.18 C 1651.66 1479.18 1636.06 1466.66 1617.5 1466.66 C 1598.93 1466.66 1583.33 1479.19 1578.54 1496.2 Z " fill="rgb(247,114,121)"/><path d=" M 1617.49 1456.7 C 1601.79 1456.7 1589.01 1469.47 1589.01 1485.17 C 1589.01 1500.87 1601.79 1513.64 1617.49 1513.64 C 1633.19 1513.64 1645.97 1500.87 1645.97 1485.17 C 1645.97 1469.47 1633.19 1456.7 1617.49 1456.7 Z  M 1617.49 1537.65 C 1588.56 1537.65 1565.01 1514.11 1565.01 1485.17 C 1565.01 1456.24 1588.56 1432.69 1617.49 1432.69 C 1646.43 1432.69 1669.97 1456.24 1669.97 1485.17 C 1669.97 1514.11 1646.43 1537.65 1617.49 1537.65 Z " fill="rgb(55,26,69)"/><path d=" M 1667.18 1675.17 C 1637.49 1675.17 1613.42 1651.09 1613.42 1621.4 C 1613.42 1614.14 1614.85 1607.21 1617.46 1600.89 C 1617.34 1602.4 1617.27 1603.92 1617.27 1605.46 C 1617.27 1635.15 1641.43 1659.3 1671.12 1659.3 C 1675.02 1659.3 1678.82 1658.89 1682.49 1658.09 C 1682.25 1663.04 1682.26 1668.01 1682.52 1672.95 C 1677.66 1674.39 1672.51 1675.17 1667.18 1675.17 Z " fill="rgb(235,182,47)"/><path d=" M 1712.96 1605.46 C 1712.96 1628.57 1694.23 1647.3 1671.12 1647.3 C 1648.01 1647.3 1629.27 1628.57 1629.27 1605.46 C 1629.27 1582.35 1648.01 1563.61 1671.12 1563.61 C 1694.23 1563.61 1712.96 1582.35 1712.96 1605.46 Z " fill="rgb(242,16,28)"/><path d=" M 1641.31 1606.88 C 1641.29 1606.41 1641.28 1605.93 1641.28 1605.46 C 1641.28 1589.01 1654.66 1575.62 1671.12 1575.62 C 1681.97 1575.62 1691.49 1581.44 1696.72 1590.13 C 1691.03 1587.24 1684.6 1585.61 1677.79 1585.61 C 1662.15 1585.61 1648.5 1594.17 1641.31 1606.88 Z " fill="rgb(247,114,121)"/><path d=" M 1671.12 1575.62 C 1654.66 1575.62 1641.28 1589.01 1641.28 1605.46 C 1641.28 1621.91 1654.66 1635.3 1671.12 1635.3 C 1687.57 1635.3 1700.96 1621.91 1700.96 1605.46 C 1700.96 1589.01 1687.57 1575.62 1671.12 1575.62 Z  M 1671.12 1659.3 C 1641.43 1659.3 1617.27 1635.15 1617.27 1605.46 C 1617.27 1575.77 1641.43 1551.61 1671.12 1551.61 C 1700.81 1551.61 1724.97 1575.77 1724.97 1605.46 C 1724.97 1635.15 1700.81 1659.3 1671.12 1659.3 Z " fill="rgb(55,26,69)"/><path d=" M 1553 1716.14 C 1540.94 1713.72 1529.49 1711.16 1518.67 1708.53 C 1513.8 1705.43 1509.49 1701.52 1505.92 1697 C 1507.89 1693.25 1509.8 1689.29 1511.63 1685.17 C 1520.86 1693.38 1533.01 1698.37 1546.3 1698.37 C 1571.1 1698.37 1591.91 1681 1597.22 1657.79 C 1597.56 1660.19 1597.74 1662.64 1597.74 1665.13 C 1597.74 1691.27 1578.25 1712.86 1553 1716.14 Z " fill="rgb(235,182,47)"/><path d=" M 1586.53 1646.14 C 1586.53 1668.36 1568.52 1686.37 1546.3 1686.37 C 1524.08 1686.37 1506.07 1668.36 1506.07 1646.14 C 1506.07 1623.93 1524.08 1605.91 1546.3 1605.91 C 1568.52 1605.91 1586.53 1623.93 1586.53 1646.14 Z " fill="rgb(242,16,28)"/><path d=" M 1574.52 1645.46 C 1567.18 1635.74 1555.52 1629.45 1542.4 1629.45 C 1537.96 1629.45 1533.69 1630.17 1529.69 1631.5 C 1530.52 1628.24 1531.29 1625 1532.02 1621.8 C 1536.21 1619.33 1541.09 1617.92 1546.3 1617.92 C 1561.64 1617.92 1574.15 1630.21 1574.52 1645.46 Z " fill="rgb(247,114,121)"/><path d=" M 1546.3 1617.92 C 1530.73 1617.92 1518.07 1630.58 1518.07 1646.14 C 1518.07 1661.71 1530.73 1674.37 1546.3 1674.37 C 1561.87 1674.37 1574.53 1661.71 1574.53 1646.14 C 1574.53 1630.58 1561.87 1617.92 1546.3 1617.92 Z  M 1546.3 1698.37 C 1517.5 1698.37 1494.07 1674.94 1494.07 1646.14 C 1494.07 1617.34 1517.5 1593.91 1546.3 1593.91 C 1575.1 1593.91 1598.53 1617.34 1598.53 1646.14 C 1598.53 1674.94 1575.1 1698.37 1546.3 1698.37 Z " fill="rgb(55,26,69)"/><path d=" M 1816.02 1826.29 C 1624.73 1890.28 1410.72 1790.45 1410.72 1790.45 C 1410.72 1790.45 1422.03 1753.12 1439.62 1702.01 C 1507.11 1725.52 1637.02 1759.68 1795.36 1746.18 C 1808.44 1796.31 1816.02 1826.29 1816.02 1826.29 Z " fill="rgb(255,162,26)"/><path d=" M 1675.44 1831.85 C 1572.39 1831.85 1479.61 1800.9 1436.46 1783.9 C 1432.92 1782.51 1431.11 1778.75 1432.26 1775.16 C 1433.76 1770.42 1435.56 1764.81 1437.61 1758.5 C 1479.5 1774.74 1574.35 1806.25 1680.18 1806.25 C 1716.41 1806.25 1753.93 1802.56 1791.05 1793.3 C 1793.25 1801.81 1795.09 1808.98 1796.55 1814.67 C 1796.67 1815.15 1796.39 1815.65 1795.92 1815.78 C 1755.71 1827.33 1714.84 1831.85 1675.44 1831.85 Z " fill="rgb(255,200,120)"/><path d=" M 1449.62 1722.25 C 1442.21 1744.16 1436.23 1762.64 1432.26 1775.16 C 1431.11 1778.75 1432.92 1782.51 1436.46 1783.9 C 1496.1 1807.4 1650.53 1857.54 1795.92 1815.78 C 1796.39 1815.65 1796.67 1815.15 1796.55 1814.67 C 1793.6 1803.16 1789.09 1785.63 1783.25 1763.17 C 1638.05 1773.23 1517.21 1744.19 1449.62 1722.25 Z  M 1675.63 1863.8 C 1566.96 1863.8 1469.92 1831.48 1424.73 1813.68 C 1405.65 1806.16 1395.56 1784.98 1401.76 1765.47 C 1406.67 1750.02 1414.6 1725.55 1424.5 1696.8 C 1425.88 1692.78 1428.81 1689.48 1432.64 1687.62 C 1436.47 1685.77 1440.88 1685.51 1444.89 1686.9 C 1507.86 1708.84 1636.94 1743.61 1794 1730.24 C 1801.72 1729.56 1808.87 1734.61 1810.84 1742.14 C 1818.35 1770.92 1824.05 1793.07 1827.54 1806.72 C 1832 1824.1 1821.99 1841.59 1804.76 1846.53 C 1761.55 1858.95 1717.71 1863.8 1675.63 1863.8 Z " fill="rgb(55,26,69)"/><path d=" M 1460.06 1692 C 1524.32 1712.8 1638.1 1740.09 1775.02 1731.64 C 1768.92 1708.32 1761.89 1681.55 1754.06 1652.13 C 1706.69 1473.58 1663.49 1364.95 1645.51 1349.83 C 1624.88 1358.17 1556.79 1449.07 1502.86 1579.21 C 1489.21 1612.11 1474.84 1649.98 1460.06 1692 Z  M 1723.68 1765.22 C 1594.12 1765.22 1489.68 1736.39 1434.36 1717.12 C 1426.03 1714.22 1421.62 1705.12 1424.5 1696.78 C 1441.36 1648.04 1457.77 1604.36 1473.3 1566.95 C 1498.51 1506.13 1531.46 1443.64 1563.72 1395.53 C 1618.56 1313.72 1641.33 1316.53 1649.9 1317.55 C 1664.17 1319.33 1682.46 1329.68 1719.59 1430.68 C 1740.05 1486.35 1763.28 1562.08 1784.99 1643.92 C 1795 1681.54 1803.72 1714.84 1810.84 1742.14 C 1812.03 1746.71 1811.15 1751.56 1808.42 1755.42 C 1805.7 1759.27 1801.42 1761.72 1796.71 1762.13 C 1771.64 1764.26 1747.24 1765.22 1723.68 1765.22 Z " fill="rgb(55,26,69)"/><path d=" M 1507.91 1505.03 C 1534.17 1514.59 1536.93 1523.81 1539.36 1563.25 C 1541.79 1602.68 1510.69 1731.09 1468.19 1732.37 C 1425.69 1733.66 1391.66 1729.08 1391.36 1651.75 C 1391.01 1563.34 1449.67 1483.81 1507.91 1505.03 Z " fill="rgb(255,255,255)"/><path d=" M 1422.83 1726.8 C 1422.82 1726.8 1422.81 1726.79 1422.8 1726.79 C 1422.81 1726.79 1422.82 1726.8 1422.83 1726.8 Z " fill="rgb(55,26,69)"/><path d=" M 1415.68 1722.8 C 1403.08 1714.11 1394.48 1698.05 1392.06 1668.88 C 1394.49 1698.04 1403.08 1714.11 1415.68 1722.8 L 1415.68 1722.8 Z " fill="rgb(57,120,190)"/><path d=" M 1422.77 1726.77 C 1420.28 1725.66 1417.92 1724.35 1415.68 1722.8 L 1415.68 1722.8 C 1417.92 1724.35 1420.29 1725.66 1422.77 1726.77 Z " fill="rgb(55,26,69)"/><path d=" M 1524.16 1651.26 C 1526.18 1644.69 1528.03 1638.05 1529.69 1631.5 C 1529.69 1631.5 1529.69 1631.5 1529.69 1631.5 C 1528.03 1638.06 1526.18 1644.69 1524.16 1651.26 Z " fill="rgb(177,19,42)"/><path d=" M 1529.69 1631.5 C 1530.51 1628.24 1531.29 1625.01 1532.01 1621.8 C 1532.01 1621.8 1532.02 1621.8 1532.02 1621.8 C 1531.29 1625 1530.52 1628.24 1529.69 1631.5 C 1529.69 1631.5 1529.69 1631.5 1529.69 1631.5 Z " fill="rgb(180,83,103)"/><path d=" M 1532.01 1621.8 C 1532.25 1620.74 1532.49 1619.68 1532.72 1618.63 C 1532.72 1618.62 1532.73 1618.61 1532.73 1618.6 C 1532.5 1619.66 1532.26 1620.73 1532.02 1621.8 C 1532.02 1621.8 1532.01 1621.8 1532.01 1621.8 Z " fill="rgb(55,26,69)"/><path d=" M 1405.59 1576.51 C 1406.46 1574.34 1407.36 1572.2 1408.3 1570.09 C 1408.3 1570.09 1408.3 1570.1 1408.3 1570.1 C 1407.36 1572.21 1406.46 1574.34 1405.59 1576.51 Z " fill="rgb(57,120,190)"/><path d=" M 1458.55 1732.52 C 1445.27 1732.52 1433.07 1731.37 1422.83 1726.8 C 1422.82 1726.8 1422.81 1726.79 1422.8 1726.79 C 1422.79 1726.78 1422.78 1726.78 1422.77 1726.77 C 1420.29 1725.66 1417.92 1724.35 1415.68 1722.8 C 1403.08 1714.11 1394.49 1698.04 1392.06 1668.88 C 1391.62 1663.61 1391.38 1657.91 1391.36 1651.75 C 1391.25 1625.01 1396.56 1599.09 1405.59 1576.51 C 1406.46 1574.34 1407.36 1572.21 1408.3 1570.1 C 1406.76 1580.21 1405.95 1590.59 1406 1601.09 C 1406.29 1672.48 1435.32 1681.87 1473.25 1681.87 C 1476.39 1681.87 1479.59 1681.8 1482.85 1681.7 C 1502.73 1681.1 1520.07 1652.74 1532.72 1618.63 C 1532.49 1619.68 1532.25 1620.74 1532.01 1621.8 C 1531.29 1625.01 1530.51 1628.24 1529.69 1631.5 C 1528.03 1638.05 1526.18 1644.69 1524.16 1651.26 C 1511.35 1692.77 1491.47 1731.65 1468.17 1732.36 C 1464.91 1732.46 1461.7 1732.52 1458.55 1732.52 Z " fill="rgb(185,175,190)"/><path d=" M 1488.49 1513.53 C 1478.36 1513.53 1468.13 1517.13 1457.93 1524.3 C 1425.59 1547.03 1403.15 1599.42 1403.36 1651.71 C 1403.47 1680.94 1408.5 1699.96 1418.73 1709.83 C 1428.82 1719.59 1444.36 1721.07 1467.83 1720.38 C 1472.95 1720.23 1478.2 1715.61 1481.71 1711.77 C 1509.26 1681.57 1529.23 1594.13 1527.38 1563.99 C 1525 1525.29 1522.83 1523.23 1503.8 1516.3 C 1498.73 1514.45 1493.62 1513.53 1488.49 1513.53 Z  M 1458.33 1744.54 C 1437.77 1744.54 1417.36 1741.9 1402.05 1727.1 C 1386.71 1712.28 1379.5 1688.35 1379.36 1651.8 C 1379.12 1591.2 1405.14 1532.07 1444.13 1504.66 C 1465.96 1489.3 1489.44 1485.53 1512.01 1493.75 C 1544.97 1505.75 1548.8 1521.26 1551.34 1562.51 C 1553.48 1597.33 1533.03 1691.13 1499.44 1727.95 C 1489.8 1738.52 1479.41 1744.04 1468.55 1744.37 C 1465.16 1744.47 1461.74 1744.54 1458.33 1744.54 Z " fill="rgb(55,26,69)"/><path d=" M 1448.7 2039.34 C 1456.1 2040.59 1462.73 2042.73 1469.51 2045.18 C 1476.19 2047.75 1482.75 2050.66 1489.1 2054.14 C 1495.4 2057.69 1501.73 2061.25 1507.3 2066.22 C 1512.85 2071.08 1518.13 2076.68 1521.33 2083.76 C 1513.74 2082.22 1507.15 2080.65 1500.54 2079 C 1493.94 2077.44 1487.59 2075.49 1481.14 2073.77 L 1461.82 2068.54 C 1455.48 2066.69 1448.89 2064.82 1442.92 2062.63 L 1442.55 2062.5 C 1436.31 2060.21 1433.11 2053.3 1435.4 2047.06 C 1437.42 2041.53 1443.09 2038.39 1448.7 2039.34 Z " fill="rgb(55,26,69)"/><path d=" M 2089.97 1390.15 C 2089.97 1390.15 2065.28 1494.98 1937.06 1534.87 C 1893.92 1548.29 1860.01 1545.59 1830.35 1542.88 C 1787.72 1539 1753.85 1535.12 1713.97 1579.09 C 1654.51 1644.65 1682.95 1765.96 1764.79 1785.02 C 1845.15 1803.73 2106.98 1788.39 2161.49 1579.57 L 2089.97 1390.15 Z " fill="rgb(255,255,255)"/><path d=" M 1827.6 1790.91 C 1826.21 1790.91 1824.84 1790.9 1823.48 1790.89 C 1823.48 1790.89 1823.48 1790.89 1823.48 1790.89 C 1824.85 1790.9 1826.24 1790.91 1827.64 1790.91 C 1853.32 1790.91 1882.88 1788.59 1913.65 1782.86 C 1882.87 1788.59 1853.29 1790.91 1827.6 1790.91 Z " fill="rgb(55,26,69)"/><path d=" M 1789.96 1789.07 C 1780.34 1788.06 1771.87 1786.68 1764.8 1785.04 C 1755.79 1782.94 1747.42 1779.59 1739.75 1775.22 C 1747.42 1779.59 1755.78 1782.92 1764.79 1785.02 C 1771.86 1786.67 1780.34 1788.05 1789.96 1789.06 C 1789.96 1789.06 1789.96 1789.07 1789.96 1789.07 Z " fill="rgb(185,115,41)"/><path d=" M 1823.48 1790.89 C 1811.27 1790.77 1800 1790.12 1789.96 1789.07 C 1789.96 1789.07 1789.96 1789.06 1789.96 1789.06 C 1799.99 1790.12 1811.26 1790.76 1823.48 1790.89 C 1823.48 1790.89 1823.48 1790.89 1823.48 1790.89 Z " fill="rgb(55,26,69)"/><path d=" M 1827.64 1790.91 C 1826.24 1790.91 1824.85 1790.9 1823.48 1790.89 C 1811.26 1790.76 1799.99 1790.12 1789.96 1789.06 C 1780.34 1788.05 1771.86 1786.67 1764.79 1785.02 C 1755.78 1782.92 1747.42 1779.59 1739.75 1775.22 C 1697.5 1751.14 1676.3 1695.86 1683.88 1644.64 C 1695.8 1671.92 1717.47 1711.58 1771.39 1725.45 C 1791.48 1730.61 1813.81 1733.23 1837.43 1733.24 C 1940.62 1733.24 2068.81 1683.27 2146.21 1577.39 C 2147.97 1574.98 2150.58 1573.84 2153.19 1573.84 C 2156.65 1573.84 2160.08 1575.85 2161.48 1579.56 C 2127.74 1708.89 2014.45 1764.01 1914.02 1782.79 C 1913.92 1782.81 1913.82 1782.83 1913.72 1782.85 C 1913.69 1782.85 1913.68 1782.85 1913.65 1782.86 C 1882.88 1788.59 1853.32 1790.91 1827.64 1790.91 Z " fill="rgb(185,175,190)"/><path d=" M 2093.86 1391.07 C 2092.66 1418.03 2080.7 1442.38 2065.1 1463.48 C 2049.55 1484.78 2029.29 1502.48 2006.93 1516.13 C 1984.61 1529.96 1960.51 1540.08 1935.63 1547.66 C 1910.56 1555.11 1883.87 1557.85 1858.05 1556.79 C 1832.21 1556.08 1807.36 1551.33 1785.02 1553.21 C 1773.76 1553.81 1763.62 1557.35 1753.91 1562.11 L 1746.83 1566.23 C 1744.43 1567.51 1742.38 1569.59 1740.13 1571.21 C 1737.96 1573 1735.63 1574.52 1733.56 1576.51 L 1727.44 1582.62 C 1694.58 1613.95 1686.56 1666.08 1701.7 1708.91 C 1709.18 1730.3 1722.57 1749.73 1740.84 1761.73 C 1749.95 1767.89 1759.91 1771.84 1770.97 1774.04 C 1782.28 1776.35 1794.26 1777.58 1806.24 1778.29 C 1854.4 1780.75 1903.53 1774.98 1950.1 1762.01 C 1996.64 1749.05 2040.97 1727.52 2076.73 1696.09 C 2081.35 1692.32 2085.33 1687.9 2089.66 1683.85 C 2093.86 1679.66 2097.64 1675.09 2101.64 1670.72 C 2105.36 1666.11 2108.83 1661.32 2112.34 1656.56 L 2121.68 1641.52 C 2133.86 1621.14 2143.06 1599.99 2157.62 1578.56 L 2157.66 1578.51 C 2158.97 1576.58 2161.59 1576.08 2163.52 1577.39 C 2164.63 1578.14 2165.27 1579.34 2165.36 1580.58 C 2167.23 1607.3 2157.28 1632.67 2143.56 1654.85 C 2139.98 1660.33 2136.06 1665.6 2132.32 1670.95 L 2120.01 1686.21 C 2115.59 1691 2111.42 1696.04 2106.81 1700.64 C 2102.07 1705.1 2097.65 1709.94 2092.63 1714.07 C 2053.43 1748.51 2005.78 1771.4 1956.61 1785.11 C 1907.27 1798.81 1856.19 1804.84 1804.88 1802.25 C 1792.02 1801.48 1779.17 1800.2 1766.08 1797.53 C 1759.58 1796.31 1752.57 1794.14 1746.11 1791.61 C 1739.65 1788.85 1733.35 1785.67 1727.57 1781.72 C 1704.05 1766.19 1687.94 1742.23 1679.05 1716.84 C 1670.17 1691.29 1667.96 1663.66 1672.98 1637.02 C 1675.46 1623.72 1679.76 1610.65 1686.11 1598.52 C 1692.37 1586.48 1700.7 1574.92 1710.38 1565.74 L 1717.5 1558.68 C 1719.92 1556.37 1722.79 1554.39 1725.43 1552.24 C 1728.21 1550.21 1730.65 1547.85 1733.72 1546.13 L 1742.77 1540.85 C 1755.22 1534.57 1769.2 1530.07 1782.91 1529.31 C 1796.52 1528.24 1809.8 1528.95 1822.26 1530.13 C 1834.81 1531.18 1846.96 1532.47 1858.91 1532.81 C 1882.82 1533.75 1906.28 1531.32 1928.99 1524.6 C 1951.72 1517.77 1973.84 1508.29 1993.52 1495.27 C 2013.2 1482.2 2030.4 1466.01 2045.51 1448.08 C 2060.41 1429.98 2073.69 1410.29 2086.07 1389.24 L 2086.31 1388.83 C 2087.45 1386.9 2089.93 1386.26 2091.87 1387.39 C 2093.2 1388.18 2093.92 1389.62 2093.86 1391.07 Z " fill="rgb(55,26,69)"/><path d=" M 2018.86 1760.77 C 2017.27 1760.77 2015.66 1760.46 2014.1 1759.79 C 2008.02 1757.16 2005.22 1750.09 2007.85 1744.01 C 2055.47 1633.8 1956.11 1534.71 1955.11 1533.73 C 1950.37 1529.09 1950.29 1521.5 1954.93 1516.76 C 1959.56 1512.02 1967.16 1511.94 1971.9 1516.58 C 1976.5 1521.08 2083.98 1628.35 2029.88 1753.53 C 2027.92 1758.06 2023.5 1760.77 2018.86 1760.77 Z " fill="rgb(55,26,69)"/></svg>