<?xml version="1.0" standalone="no"?>
<!DOCTYPE svg PUBLIC "-//W3C//DTD SVG 20010904//EN"
 "http://www.w3.org/TR/2001/REC-SVG-20010904/DTD/svg10.dtd">
<svg version="1.0" xmlns="http://www.w3.org/2000/svg"
 width="512.000000pt" height="512.000000pt" viewBox="0 0 512.000000 512.000000"
 preserveAspectRatio="xMidYMid meet">

<g transform="translate(0.000000,512.000000) scale(0.100000,-0.100000)"
fill="#000000" stroke="none">
<path d="M0 2560 l0 -2560 2560 0 2560 0 0 2560 0 2560 -2560 0 -2560 0 0
-2560z m2246 2030 c31 0 39 -16 20 -45 -19 -29 -52 -41 -71 -25 -10 8 -14 8
-18 -2 -4 -10 -8 -10 -16 2 -15 21 -14 27 9 33 30 8 25 37 -6 37 -22 0 -25 -2
-14 -15 8 -10 9 -15 2 -15 -18 0 -33 35 -20 48 7 7 22 6 50 -4 22 -8 51 -14
64 -14z m952 23 c20 -5 16 -8 -29 -24 -28 -10 -60 -26 -70 -35 -18 -16 -18
-18 -2 -29 15 -11 13 -14 -18 -30 -19 -10 -43 -25 -54 -35 -13 -11 -45 -20
-89 -24 -71 -7 -165 -40 -215 -75 -39 -28 -44 -26 -27 8 45 87 184 200 285
232 55 18 174 25 219 12z m-599 -50 c25 -14 59 -30 76 -33 l30 -7 -25 -12
c-22 -9 -17 -11 33 -8 31 1 57 1 57 0 0 -2 -22 -31 -50 -65 -27 -34 -57 -81
-66 -105 -9 -24 -22 -43 -28 -43 -7 0 -25 13 -41 30 -15 16 -50 37 -77 46 -55
18 -74 41 -84 100 -7 45 12 95 43 113 32 18 85 12 132 -16z m-189 -50 c0 -48
-6 -52 -43 -23 -14 11 -30 20 -36 20 -24 0 -48 24 -43 42 4 16 11 18 41 14 20
-4 43 -2 51 3 20 14 30 -4 30 -56z m714 -119 c150 -39 263 -130 331 -267 47
-96 54 -156 26 -233 -12 -32 -25 -92 -29 -133 l-7 -73 -64 -39 c-74 -44 -172
-79 -232 -82 -69 -3 -55 17 25 35 72 16 204 74 237 104 10 9 18 39 22 80 4 36
17 89 30 118 22 47 23 56 12 93 -17 58 -79 167 -126 223 -160 189 -443 219
-641 67 -55 -42 -65 -30 -15 17 35 32 148 84 214 96 66 13 153 11 217 -6z
m-278 -97 c-55 -82 -80 -162 -79 -257 0 -137 53 -250 116 -250 29 0 42 -14 50
-55 3 -16 9 -38 12 -48 7 -16 2 -17 -50 -11 -42 5 -59 4 -65 -6 -6 -10 -23 -5
-71 21 -52 28 -68 44 -87 80 -60 121 -69 399 -14 462 34 39 184 124 224 127 3
0 -13 -28 -36 -63z m773 -23 c41 -124 20 -350 -43 -472 -33 -62 -33 -49 0 24
44 99 52 342 15 451 -25 74 -25 74 -7 67 7 -3 23 -34 35 -70z m-621 34 c17
-17 15 -49 -8 -85 -22 -37 -67 -54 -81 -32 -16 24 -2 82 26 107 29 25 45 28
63 10z m-871 -153 c40 -28 57 -95 50 -203 -7 -102 -27 -231 -54 -345 -14 -56
-22 -71 -44 -83 -15 -7 -34 -11 -42 -9 -7 3 -24 1 -38 -5 -22 -10 -21 -10 9
-5 18 2 31 1 27 -4 -3 -5 4 -7 15 -4 11 3 23 9 26 14 13 22 19 4 22 -66 3
-104 -29 -158 -117 -195 -46 -19 -124 1 -200 50 -55 36 -62 44 -77 95 -9 32
-16 90 -15 133 1 110 2 123 12 116 11 -7 11 7 0 25 -6 9 -3 34 6 65 57 197
219 396 348 427 45 11 49 10 72 -6z m805 -133 c9 -53 14 -62 39 -62 16 0 19
-7 19 -54 0 -68 -15 -84 -60 -61 -57 29 -92 122 -69 182 22 58 60 56 71 -5z
m-457 -74 c-14 -24 -25 -47 -25 -53 0 -5 14 14 32 44 30 51 32 53 66 47 19 -3
40 -10 45 -15 5 -5 17 -44 28 -88 15 -65 16 -90 8 -148 -15 -104 8 -298 46
-387 7 -17 5 -17 -40 0 -31 11 -75 42 -122 85 -40 38 -73 64 -73 58 0 -14 102
-118 145 -149 50 -36 13 -25 -56 17 -66 39 -109 94 -109 138 0 12 -4 24 -9 27
-11 7 1 -51 17 -81 18 -32 15 -35 -18 -18 -46 24 -49 18 -5 -11 45 -29 30 -26
-65 9 -38 15 -67 32 -71 43 -4 11 -13 34 -19 52 -18 48 -22 34 -4 -17 17 -51
14 -58 -14 -34 -19 16 -20 23 -11 68 5 27 7 56 4 63 -6 16 9 123 37 260 l21
102 36 0 c20 1 61 7 91 15 91 22 93 22 65 -27z m-736 -83 c-22 -47 -45 -110
-52 -140 -6 -30 -15 -55 -19 -55 -14 0 -8 130 7 168 15 35 81 112 96 112 4 0
-10 -38 -32 -85z m1905 -97 c-1 -10 3 -16 10 -15 6 1 10 -6 10 -15 -1 -10 3
-16 10 -15 6 1 10 -6 10 -15 -1 -10 3 -16 10 -15 6 1 10 -6 10 -15 -1 -10 2
-16 6 -13 4 2 12 -7 19 -21 14 -32 14 -34 -5 -34 -16 0 -26 -4 -149 -59 -105
-48 -257 -155 -331 -233 l-66 -70 -51 36 c-56 38 -97 78 -143 140 l-28 39 50
-26 c71 -36 157 -52 219 -41 l50 9 -55 2 c-93 5 -148 14 -126 23 16 5 10 9
-27 18 -26 7 -47 14 -47 16 0 3 40 2 88 -1 96 -6 187 13 220 45 16 16 138 106
169 125 26 16 12 -6 -24 -39 -20 -19 -34 -34 -30 -34 5 0 31 21 59 48 42 39
48 42 33 17 -29 -47 -76 -93 -127 -127 -27 -16 -48 -32 -48 -35 0 -12 90 48
133 89 27 26 66 51 86 57 35 10 35 10 4 8 l-32 -3 21 39 c16 32 17 39 4 34
-10 -4 -13 -1 -9 8 3 8 8 13 12 11 3 -2 7 12 8 32 1 19 8 39 15 44 20 12 43 4
42 -14z m-892 -151 c28 -29 70 -77 93 -107 109 -143 271 -290 320 -290 16 0
41 20 77 59 30 33 66 70 81 82 27 20 29 20 47 4 22 -20 28 -7 8 14 -15 15 9
37 95 88 82 50 81 51 113 -11 34 -65 52 -73 45 -21 -1 6 10 -3 24 -18 38 -43
33 -61 -32 -97 -68 -39 -164 -134 -213 -212 -31 -50 -38 -55 -65 -52 -16 2
-55 21 -87 44 -32 22 -58 36 -58 31 0 -13 67 -64 118 -90 l42 -21 -16 -38 c-9
-20 -19 -66 -22 -101 l-7 -63 -109 56 c-61 30 -112 54 -114 52 -9 -10 143
-100 198 -117 22 -6 20 -7 -12 -8 -21 -1 -38 2 -38 7 0 4 -22 20 -50 35 -27
15 -86 55 -130 88 -45 33 -85 57 -89 55 -4 -3 -17 1 -27 8 -16 12 -19 28 -19
123 0 134 -12 160 -89 198 -40 19 -66 26 -98 23 l-43 -3 -18 70 c-26 104 -39
232 -31 300 l6 59 25 -47 c13 -27 47 -71 75 -100z m728 71 c-14 -55 -66 -98
-183 -154 -163 -77 -345 -54 -499 64 -66 49 -60 58 10 16 152 -92 357 -97 522
-14 81 41 140 95 140 128 0 18 3 23 11 15 7 -7 7 -24 -1 -55z m60 2 c-12 -23
-23 -40 -26 -38 -2 3 6 23 18 46 13 22 24 39 26 37 2 -2 -6 -22 -18 -45z m-29
13 c-8 -15 -10 -15 -11 -2 0 17 10 32 18 25 2 -3 -1 -13 -7 -23z m-763 -16
c20 -13 45 -26 55 -30 17 -6 24 -27 9 -27 -9 0 -112 69 -112 75 0 9 10 5 48
-18z m206 -29 c76 -12 79 -14 108 -55 l29 -43 -29 0 c-43 0 -141 20 -184 37
-32 13 -38 20 -38 44 0 34 2 34 114 17z m1753 -90 c35 -24 63 -72 63 -108 0
-11 -7 -35 -16 -52 l-16 -31 -24 58 c-13 32 -30 66 -39 74 -9 9 -5 -4 9 -29
13 -25 27 -61 31 -81 6 -33 4 -39 -27 -62 -18 -13 -43 -28 -56 -32 -12 -3 -27
-15 -32 -25 -6 -11 -17 -17 -25 -14 -11 5 -15 -1 -15 -24 0 -17 -4 -34 -10
-37 -6 -4 -7 5 -4 24 4 20 -1 45 -16 76 -12 25 -24 44 -27 41 -2 -2 3 -18 11
-35 21 -41 20 -74 -4 -96 -10 -9 -18 -20 -17 -24 5 -16 -34 -52 -77 -71 -60
-25 -60 -25 -40 5 12 18 17 48 17 104 1 67 -3 84 -26 124 l-27 46 28 -8 c16
-5 43 -16 61 -25 18 -10 35 -15 38 -12 3 2 -10 13 -29 22 -25 14 -29 19 -15
22 21 4 84 -32 114 -67 12 -14 22 -21 23 -15 0 12 -45 56 -75 72 -15 9 -16 11
-4 12 9 0 35 -14 57 -30 49 -35 56 -24 10 15 -25 21 -39 26 -63 22 -18 -3 -38
-1 -46 4 -9 7 5 9 44 7 60 -3 78 8 27 18 l-30 6 17 29 c22 38 73 93 98 107 32
18 76 14 112 -10z m-378 -181 c55 -51 69 -168 29 -247 -42 -81 -91 -79 -62 3
16 44 18 87 6 87 -5 0 -15 -21 -23 -47 l-14 -46 -19 29 c-14 21 -15 26 -4 16
13 -10 18 -10 24 -1 4 7 3 9 -4 5 -6 -3 -13 -2 -17 4 -4 6 -10 8 -15 5 -5 -3
-16 5 -24 17 -15 25 -11 132 5 122 5 -3 6 1 3 9 -3 8 -1 18 5 22 7 3 11 -2 11
-14 0 -12 4 -21 9 -21 6 0 6 12 1 32 -18 60 34 75 89 25z m-3908 -164 c35 -28
107 -74 159 -103 128 -71 157 -95 192 -157 16 -29 32 -53 34 -53 2 0 13 18 24
39 11 22 25 43 30 46 16 10 48 -23 55 -57 6 -27 20 -36 139 -92 160 -76 215
-95 309 -106 39 -5 84 -12 99 -15 34 -9 154 26 192 56 34 27 51 60 66 132 l12
58 53 -53 c93 -94 212 -138 294 -110 53 19 70 1 77 -78 2 -19 6 -54 10 -78 6
-40 4 -45 -31 -77 -20 -19 -43 -35 -52 -35 -10 0 -13 -6 -9 -16 5 -14 -2 -16
-57 -12 -114 7 -271 101 -334 201 -13 21 -27 36 -30 33 -13 -12 43 -100 90
-142 145 -127 352 -163 436 -75 14 14 35 33 45 41 19 15 19 13 13 -45 -17
-167 96 -391 229 -455 36 -18 57 -21 102 -17 31 3 67 8 79 12 23 7 23 7 8 -29
-23 -55 -18 -60 24 -27 l39 31 -5 -48 c-2 -26 -9 -69 -14 -95 -15 -79 -11
-128 21 -220 16 -49 30 -92 30 -97 0 -17 -84 33 -124 75 -23 24 -58 74 -77
111 -32 64 -34 75 -34 166 0 65 -3 94 -10 87 -5 -6 -10 -54 -10 -107 0 -85 3
-104 27 -152 15 -30 25 -56 22 -59 -6 -7 -77 64 -139 139 -63 77 -94 134 -111
204 l-12 51 -1 -52 c-1 -41 6 -66 35 -120 19 -37 48 -81 64 -98 15 -16 38 -53
50 -82 25 -58 51 -86 98 -101 39 -13 92 -49 92 -63 0 -5 -12 -9 -27 -10 -22 0
-16 -4 25 -19 88 -29 91 -41 12 -55 -39 -6 -67 -24 -72 -45 -2 -11 8 -15 39
-15 48 -1 65 -11 43 -25 -11 -7 -3 -10 28 -10 50 0 53 -8 12 -38 -47 -35 -36
-62 26 -62 14 0 27 -7 29 -15 3 -8 8 -23 12 -32 3 -10 6 -21 5 -25 -1 -4 12
-5 30 -1 21 4 29 3 24 -5 -3 -5 7 -24 24 -40 21 -21 30 -40 30 -62 0 -21 8
-38 25 -53 17 -14 31 -44 41 -82 9 -32 24 -75 34 -95 26 -51 157 -198 228
-256 66 -53 76 -80 42 -114 -45 -45 -226 -13 -339 59 -69 45 -134 118 -171
192 -22 44 -62 95 -130 164 -136 140 -182 239 -179 387 1 67 5 80 28 107 14
17 35 42 46 56 12 16 39 31 70 40 40 11 44 13 21 14 -28 1 -60 -7 -129 -32
-40 -14 -78 -76 -86 -139 l-7 -53 -8 47 c-5 26 -4 67 2 94 13 60 7 69 -13 21
-18 -44 -19 -109 -1 -159 8 -21 10 -38 6 -38 -16 0 -41 87 -53 185 l-12 100
-28 -27 c-15 -15 -27 -38 -27 -51 0 -13 -2 -26 -5 -29 -3 -2 -30 20 -61 50
-63 61 -88 63 -29 2 74 -75 26 -40 -78 58 -58 54 -125 109 -151 122 -55 30
-60 42 -10 28 147 -40 -125 114 -284 161 -106 32 -264 133 -366 235 -53 53
-113 140 -217 311 -56 93 -182 230 -236 259 l-31 16 37 37 c41 41 81 134 81
186 -1 27 -5 21 -29 -39 -49 -124 -81 -164 -131 -164 -21 0 -20 2 9 35 41 47
40 57 -2 17 -37 -36 -61 -39 -111 -15 -25 11 -33 20 -26 28 7 8 2 10 -19 7
-25 -3 -39 6 -98 65 -114 113 -172 217 -214 383 -18 72 -19 81 -5 115 l16 37
49 -60 c27 -32 78 -81 112 -109z m3488 131 c78 -23 175 -72 218 -109 l38 -34
-38 9 c-54 12 -82 -13 -81 -72 1 -53 23 -96 77 -155 64 -69 144 -102 175 -71
9 9 13 7 18 -6 8 -20 -2 -223 -13 -271 l-6 -30 -13 40 c-11 37 -12 29 -13 -89
-1 -71 -6 -170 -13 -220 l-12 -91 -7 60 c-9 83 -56 245 -80 274 -25 31 -38 19
-17 -17 38 -65 52 -143 51 -288 0 -113 -4 -147 -18 -174 l-18 -35 -9 25 c-5
14 -16 77 -23 141 -8 63 -23 140 -34 170 -25 73 -63 147 -68 132 -2 -6 3 -25
11 -41 29 -56 57 -177 62 -272 6 -101 -15 -329 -39 -410 -12 -43 -13 -40 -9
53 3 65 1 102 -7 110 -8 8 -11 -3 -11 -42 0 -138 -114 -437 -233 -609 -70
-101 -140 -162 -249 -215 -168 -82 -204 -91 -370 -91 -164 -1 -148 -8 -208 83
-32 48 -31 61 4 61 28 0 128 40 227 92 70 35 173 126 205 178 5 9 36 24 69 34
33 10 77 27 98 38 22 11 45 17 53 14 8 -3 13 0 11 7 -1 7 6 11 15 11 10 -1 15
3 12 8 -3 5 2 8 12 6 11 -2 18 2 17 9 -2 10 36 40 45 35 1 -1 2 1 3 6 2 16 21
42 27 38 4 -2 8 3 9 12 1 9 5 36 9 59 4 29 3 48 -6 57 -6 9 -9 19 -6 24 3 6
-1 15 -9 22 -8 7 -15 9 -15 4 0 -4 -6 -2 -12 5 -7 6 -13 17 -13 24 0 7 -9 12
-20 12 -17 0 -19 6 -16 52 3 63 -8 163 -19 163 -4 0 -4 -19 1 -42 11 -58 11
-158 0 -158 -5 0 -29 9 -54 19 l-44 19 -1 65 c-3 196 -96 408 -242 558 -77 79
-155 127 -267 163 -29 10 -53 19 -53 21 0 2 22 11 49 20 71 23 185 33 268 23
135 -16 330 -99 415 -176 21 -19 38 -30 38 -24 0 6 -22 30 -50 55 -55 49 -216
126 -313 148 -31 8 -57 16 -57 20 0 10 150 76 215 95 70 20 239 23 299 6 22
-6 42 -9 45 -6 10 10 -24 23 -94 35 -150 25 -342 -14 -442 -91 -29 -22 -53
-35 -53 -30 0 17 104 92 175 127 95 45 201 66 291 59 39 -3 80 -9 90 -12 15
-5 16 -4 8 5 -18 19 -137 30 -211 20 -87 -12 -190 -49 -248 -88 -25 -17 -48
-31 -51 -31 -3 0 7 24 23 53 36 68 183 216 253 256 30 17 49 31 41 31 -28 0
-126 -65 -185 -124 -66 -65 -122 -145 -149 -211 -9 -22 -16 -32 -16 -22 -2 46
62 177 119 245 32 38 57 72 54 75 -8 7 80 82 132 113 45 27 165 73 190 74 6 0
34 -7 63 -16z m-1097 -59 c71 -29 77 -111 28 -360 -49 -249 -83 -328 -165
-384 -70 -47 -191 -37 -240 20 -32 38 -44 33 -13 -6 27 -34 151 -95 196 -95
20 0 31 -4 27 -10 -9 -14 16 -12 63 4 48 17 52 12 52 -60 0 -39 -4 -47 -32
-64 -42 -25 -105 -34 -142 -20 -43 16 -41 6 4 -24 49 -32 51 -53 10 -127 -20
-38 -26 -59 -20 -69 17 -27 11 -32 -32 -25 -57 9 -118 46 -161 95 -107 126
-162 339 -104 406 l24 27 7 -42 c8 -50 56 -151 83 -172 17 -14 17 -13 0 14
-38 59 -67 156 -67 222 0 36 3 65 8 65 4 0 13 -23 19 -51 14 -59 61 -165 69
-156 3 3 -2 19 -10 35 -9 17 -25 65 -37 108 -54 197 21 450 175 590 91 83 183
111 258 79z m-985 -50 c17 -8 63 -20 102 -26 61 -10 77 -10 114 5 23 9 50 16
59 16 24 0 41 -25 30 -47 -13 -24 -32 -86 -32 -102 0 -7 9 -24 20 -38 24 -31
26 -92 6 -132 -8 -15 -32 -43 -52 -61 -33 -28 -43 -32 -80 -27 -63 7 -130 43
-195 106 l-58 56 -4 153 -4 152 31 -21 c17 -11 45 -27 63 -34z m2360 -71 c67
-51 139 -198 113 -229 -29 -35 -107 -7 -170 62 -64 68 -90 158 -57 192 18 18
73 7 114 -25z m-1020 -336 c30 -17 52 -33 49 -35 -10 -10 -213 128 -231 157
-4 6 24 -13 61 -41 37 -28 91 -64 121 -81z m-112 -171 c131 -45 234 -108 272
-166 l17 -26 -33 28 c-38 32 -189 107 -215 107 -15 0 -16 -3 -6 -15 21 -26 2
-30 -48 -11 -59 23 -180 56 -204 56 -20 0 -21 4 -11 39 6 23 8 23 82 18 42 -3
108 -17 146 -30z m-65 -194 c66 -44 185 -161 192 -190 l6 -21 -35 20 c-18 11
-36 18 -39 16 -2 -3 7 -29 21 -59 25 -55 31 -103 16 -128 -11 -16 -41 -8 -41
12 0 7 -17 49 -39 93 -29 61 -53 93 -101 136 -61 56 -62 57 -37 63 14 4 31 4
36 0 23 -14 9 26 -20 60 -40 45 -28 44 41 -2z m-182 -499 c6 -32 18 -36 50
-20 40 21 45 20 32 -3 -5 -11 -10 -28 -10 -38 1 -12 8 -5 20 18 19 37 47 65
55 57 3 -2 -4 -22 -15 -43 -11 -22 -20 -51 -20 -65 1 -24 2 -23 15 8 17 40 51
44 65 7 11 -30 34 -32 99 -8 54 19 84 13 75 -14 -5 -16 -4 -16 10 1 14 17 21
18 68 8 29 -6 114 -14 188 -16 208 -8 226 -12 276 -61 26 -24 44 -51 44 -64 0
-56 -74 -147 -142 -175 -49 -21 -60 -20 -86 4 -29 27 -28 13 1 -18 17 -19 18
-24 5 -19 -9 3 -18 1 -20 -4 -6 -18 -86 -38 -200 -50 -122 -12 -211 -6 -268
17 -83 35 -164 155 -177 263 -6 52 -23 61 -23 13 0 -33 27 -163 45 -214 l13
-37 -38 19 c-49 25 -86 70 -124 150 -25 54 -30 77 -30 140 -1 88 16 143 47
158 29 14 41 10 45 -14z"/>
<path d="M2516 4508 c-18 -26 -20 -56 -5 -78 8 -11 9 -8 4 14 -4 18 0 37 10
53 21 31 12 42 -9 11z"/>
<path d="M2368 3909 l-33 -31 38 27 c20 15 37 29 37 31 0 10 -12 2 -42 -27z"/>
<path d="M2435 3850 c-4 -17 -5 -34 -2 -36 2 -3 7 10 11 27 8 42 0 50 -9 9z"/>
<path d="M2417 3676 c-4 -71 -6 -131 -3 -133 6 -6 19 197 14 232 -2 17 -7 -28
-11 -99z"/>
<path d="M3640 3610 c8 -5 20 -10 25 -10 6 0 3 5 -5 10 -8 5 -19 10 -25 10 -5
0 -3 -5 5 -10z"/>
<path d="M3218 3433 c6 -2 18 -2 25 0 6 3 1 5 -13 5 -14 0 -19 -2 -12 -5z"/>
<path d="M3178 3423 c7 -3 16 -2 19 1 4 3 -2 6 -13 5 -11 0 -14 -3 -6 -6z"/>
<path d="M3425 3290 c3 -5 8 -10 11 -10 2 0 4 5 4 10 0 6 -5 10 -11 10 -5 0
-7 -4 -4 -10z"/>
<path d="M4450 3170 c-29 -15 -31 -18 -12 -17 13 1 30 9 39 19 20 22 17 22
-27 -2z"/>
<path d="M4241 3299 c-1 -9 6 -22 15 -29 12 -11 18 -10 32 3 15 16 17 15 29
-5 9 -17 12 -19 13 -7 0 9 -7 23 -16 30 -13 11 -17 10 -25 -4 -14 -23 -28 -21
-39 6 -6 15 -9 17 -9 6z"/>
<path d="M4201 3244 c0 -11 3 -14 6 -6 3 7 2 16 -1 19 -3 4 -6 -2 -5 -13z"/>
<path d="M4332 3209 c-1 -24 4 -41 16 -50 15 -12 15 -12 5 1 -6 8 -13 31 -16
50 l-4 35 -1 -36z"/>
<path d="M4316 3105 c-11 -8 -15 -15 -9 -15 6 0 16 7 23 15 16 19 11 19 -14 0z"/>
<path d="M1521 2554 c-1 -18 112 -184 172 -253 49 -55 87 -121 71 -121 -15 0
-58 43 -113 113 -54 68 -71 86 -71 74 0 -2 25 -37 55 -77 70 -93 100 -155 142
-289 31 -97 36 -93 17 13 -7 37 -6 38 17 31 13 -4 51 -33 84 -65 33 -32 80
-70 105 -85 25 -15 67 -48 94 -74 l49 -46 -7 34 c-9 48 14 27 44 -41 51 -118
82 -179 87 -174 3 3 -4 28 -16 55 -11 27 -21 54 -21 60 0 39 -49 130 -102 189
-33 37 -89 110 -123 162 -66 99 -148 185 -275 287 -75 61 -160 146 -192 193
-9 14 -17 20 -17 14z"/>
<path d="M1950 2354 c0 -2 11 -17 25 -32 14 -16 46 -59 72 -97 53 -76 100
-111 137 -101 93 23 -38 176 -189 222 -25 7 -45 11 -45 8z"/>
<path d="M2658 1954 c-14 -34 -24 -204 -11 -204 4 0 6 22 5 49 -2 27 3 77 12
111 17 67 14 91 -6 44z"/>
<path d="M1831 1955 c0 -5 7 -26 14 -45 12 -32 14 -33 14 -9 1 14 -6 34 -14
45 -8 10 -14 15 -14 9z"/>
<path d="M2320 1725 c0 -20 45 -145 52 -145 13 0 9 37 -7 76 -16 38 -45 83
-45 69z"/>
<path d="M2711 1047 c-19 -24 -41 -98 -40 -141 0 -39 1 -38 17 24 9 36 28 80
40 98 18 24 20 32 9 32 -8 0 -20 -6 -26 -13z"/>
<path d="M3780 3314 c-72 -19 -211 -87 -235 -116 l-20 -22 25 17 c107 73 237
117 353 117 38 0 67 4 67 10 0 15 -126 11 -190 -6z"/>
<path d="M4005 2870 c-3 -4 11 -22 31 -39 42 -38 125 -136 154 -183 26 -43 26
-14 0 32 -11 19 -31 58 -44 85 -13 28 -34 60 -48 73 -28 25 -85 45 -93 32z
m72 -27 c12 -8 31 -30 43 -50 l20 -34 -61 47 c-33 26 -62 51 -65 55 -6 11 38
-2 63 -18z"/>
<path d="M3640 2745 c0 -2 20 -13 44 -24 24 -10 62 -31 83 -45 61 -42 181
-166 226 -233 44 -67 64 -80 52 -36 -22 87 -172 240 -297 303 -73 36 -108 48
-108 35z"/>
<path d="M3330 2716 c98 -38 226 -116 307 -186 41 -36 137 -150 114 -135 -8 5
-7 -3 3 -23 25 -48 56 -173 56 -223 0 -77 -43 -83 -65 -9 -15 50 -65 140 -84
150 -19 10 -61 14 -61 6 0 -3 16 -51 35 -108 19 -57 35 -96 35 -87 0 8 -13 54
-29 102 -28 82 -29 87 -11 87 30 0 57 -37 92 -123 35 -84 58 -108 85 -85 22
18 13 133 -19 226 -13 39 -23 72 -22 72 10 0 64 -102 58 -111 -5 -8 -3 -9 6
-4 10 6 12 4 7 -9 -4 -10 -3 -15 3 -11 5 3 13 -7 16 -22 4 -15 13 -32 20 -38
16 -13 34 -80 34 -127 0 -21 5 -38 10 -38 23 0 -24 179 -71 271 -43 86 -144
205 -234 276 -80 64 -234 147 -290 158 -28 5 -27 4 5 -9z"/>
<path d="M3870 2427 c0 -4 20 -49 45 -100 24 -51 53 -123 63 -162 10 -38 21
-63 24 -55 15 46 -49 229 -102 290 -16 19 -29 31 -30 27z"/>
<path d="M3920 1960 c0 -5 -7 -7 -15 -4 -25 10 -45 -15 -44 -55 1 -20 3 -27 6
-16 14 69 13 67 38 61 18 -5 25 -2 25 9 0 8 -2 15 -5 15 -3 0 -5 -4 -5 -10z"/>
<path d="M3857 1839 c-3 -8 -12 -48 -21 -89 -23 -104 -96 -249 -162 -320 -47
-50 -112 -96 -122 -85 -2 1 9 31 24 66 40 95 44 109 36 109 -9 0 -76 -179 -70
-186 8 -8 57 14 94 43 61 46 152 188 191 297 17 50 43 169 38 175 -3 2 -6 -2
-8 -10z"/>
<path d="M3802 1735 c0 -16 2 -22 5 -12 2 9 2 23 0 30 -3 6 -5 -1 -5 -18z"/>
<path d="M3218 1511 c18 -17 38 -31 45 -31 13 0 -25 34 -58 51 -11 6 -5 -4 13
-20z"/>
</g>
</svg>
