<?xml version="1.0" encoding="UTF-8"?>
<svg xmlns="http://www.w3.org/2000/svg" xmlns:xlink="http://www.w3.org/1999/xlink" width="48pt" height="48pt" viewBox="0 0 48 48" version="1.1">
<g id="surface7174331">
<path style=" stroke:none;fill-rule:nonzero;fill:rgb(20.392157%,59.607846%,85.882354%);fill-opacity:1;" d="M 40 12 L 22 12 L 18 8 L 8 8 C 5.800781 8 4 9.800781 4 12 L 4 20 L 44 20 L 44 16 C 44 13.800781 42.199219 12 40 12 Z M 40 12 "/>
<path style=" stroke:none;fill-rule:nonzero;fill:rgb(40.000001%,63.921571%,100%);fill-opacity:1;" d="M 40 12 L 8 12 C 5.800781 12 4 13.800781 4 16 L 4 36 C 4 38.199219 5.800781 40 8 40 L 40 40 C 42.199219 40 44 38.199219 44 36 L 44 16 C 44 13.800781 42.199219 12 40 12 Z M 40 12 "/>
</g>
</svg>
