<?xml version="1.0" encoding="UTF-8" standalone="no"?><!-- Generator: Gravit.io --><svg xmlns="http://www.w3.org/2000/svg" xmlns:xlink="http://www.w3.org/1999/xlink" style="isolation:isolate" viewBox="0 0 4000 4000" width="4000pt" height="4000pt"><path d=" M 0 0 L 0 4000 L 4000 4000 L 4000 0 L 0 0 Z " fill="none"/><g opacity="0"><path d=" M 4000 3999 L 0 3999 L 0 -1 L 4000 -1 L 4000 3999 Z " fill="rgb(58,170,255)"/></g><path d=" M 2792.4 2778.02 C 2764.18 2703.45 2723.95 2632.41 2672.75 2566.75 L 2672.75 2483.49 C 2672.75 2441.86 2655.61 2402.24 2624.25 2370.85 L 2625.29 2362.05 C 2629.2 2328.97 2618.96 2296.81 2596.45 2271.48 C 2572.76 2244.83 2538.21 2229.55 2501.66 2229.55 L 2498.03 2229.55 C 2501.1 2225.62 2504.11 2221.66 2507.07 2217.67 C 2510.82 2213.45 2513.91 2209.68 2516.5 2206.17 C 2555.16 2153.67 2584.32 2096.12 2603.31 2034.93 C 2640.47 2029.59 2674.35 2011.68 2699.89 1983.62 C 2729.04 1951.59 2743.97 1910.12 2741.93 1866.86 L 2736.31 1747.52 C 2734.27 1704.25 2715.51 1664.37 2683.48 1635.23 C 2655.06 1609.36 2618.67 1594.54 2580.42 1593.12 C 2550.83 1524.12 2509.29 1461.31 2456.81 1406.25 C 2340.41 1284.14 2183.43 1214.68 2014.78 1210.64 C 2009.49 1210.51 2004.12 1210.44 1998.83 1210.44 C 1836.37 1210.44 1681.91 1272.39 1563.91 1384.88 C 1487.2 1458 1430.09 1549 1398.15 1648.76 C 1360.12 1653.69 1325.41 1671.73 1299.31 1700.42 C 1270.16 1732.45 1255.23 1773.91 1257.27 1817.18 L 1262.89 1936.51 C 1266.88 2021.33 1335.11 2088.17 1419.31 2090.94 C 1440.65 2140.53 1468.15 2186.97 1501.36 2229.55 L 1498.34 2229.55 C 1461.79 2229.55 1427.24 2244.83 1403.55 2271.48 C 1382.14 2295.58 1371.83 2325.86 1374.24 2357.23 C 1362.35 2366.84 1351.85 2377.69 1342.93 2389.62 C 1321.92 2417.55 1310.8 2450.03 1310.8 2483.49 L 1310.8 2589.8 C 1267.78 2648.99 1233.38 2712.28 1208.49 2778.02 C 1169.49 2881.09 1167.76 2962.01 1203.34 3018.57 L 1191.43 3018.57 C 1240.46 3059.18 1292.4 3096.18 1346.91 3129.18 C 1544.38 3125.5 1765.93 3123.45 2000 3123.45 C 2234.07 3123.45 2455.62 3125.5 2653.1 3129.18 C 2707.6 3096.18 2759.54 3059.18 2808.57 3018.57 L 2797.56 3018.57 C 2833.14 2962.01 2831.41 2881.09 2792.4 2778.02 Z " fill="rgb(255,255,255)"/><path d=" M 2638.2 2483.49 L 2638.2 2915.84 C 2638.2 2935.98 2633.01 2955.17 2623.64 2972.43 C 2598.03 3019.92 2541.28 3053.12 2475.78 3053.12 L 1507.77 3053.12 C 1452.7 3053.12 1403.82 3029.68 1374.42 2993.98 C 1356.12 2971.77 1345.35 2944.84 1345.35 2915.84 L 1345.35 2483.49 C 1345.35 2456.66 1354.61 2431.57 1370.57 2410.35 C 1399.36 2371.86 1450.19 2346.21 1507.77 2346.21 L 2475.78 2346.21 C 2483.59 2346.21 2491.23 2346.68 2498.77 2347.63 C 2577.33 2357.1 2638.2 2414.59 2638.2 2483.49 Z " fill="rgb(255,255,255)"/><path d=" M 1507.77 2360.75 C 1456.47 2360.75 1409.53 2382.55 1382.22 2419.06 C 1367.61 2438.49 1359.9 2460.76 1359.9 2483.49 L 1359.9 2915.84 C 1359.9 2940.47 1368.8 2964.29 1385.65 2984.73 C 1413.42 3018.45 1459.07 3038.58 1507.77 3038.58 L 2475.78 3038.58 C 2533.89 3038.58 2586.91 3009.91 2610.84 2965.53 C 2619.35 2949.85 2623.66 2933.15 2623.66 2915.84 L 2623.66 2483.49 C 2623.66 2422.98 2569.22 2370.77 2497.02 2362.07 C 2490.05 2361.19 2482.92 2360.75 2475.78 2360.75 L 1507.77 2360.75 Z  M 2475.78 3067.67 L 1507.77 3067.67 C 1450.48 3067.67 1396.43 3043.58 1363.19 3003.23 C 1342 2977.52 1330.8 2947.3 1330.8 2915.84 L 1330.8 2483.49 C 1330.8 2454.4 1340.53 2426.09 1358.94 2401.6 C 1391.7 2357.82 1447.34 2331.66 1507.77 2331.66 L 2475.78 2331.66 C 2484.12 2331.66 2492.47 2332.18 2500.57 2333.19 C 2587.3 2343.66 2652.75 2408.27 2652.75 2483.49 L 2652.75 2915.84 C 2652.75 2938.05 2647.26 2959.43 2636.42 2979.38 C 2607.5 3033 2544.44 3067.67 2475.78 3067.67 Z " fill="rgb(55,26,69)"/><path d=" M 2004.1 2226.02 C 2334.83 2280.71 2643.29 2481.62 2760.09 2790.25 C 2854.49 3039.68 2683.04 3053.12 2683.04 3053.12 L 1997.31 3053.12 L 2003.59 3053.12 L 1317.86 3053.12 C 1317.86 3053.12 1146.41 3039.68 1240.81 2790.25 C 1357.61 2481.62 1666.07 2280.71 1996.8 2226.02 L 2004.1 2226.02 Z " fill="rgb(255,255,255)"/><path d=" M 2682.36 3038.58 L 2599.5 3038.58 C 2621.38 3019.82 2635.26 2991.99 2635.26 2960.97 L 2635.26 2941.96 L 2591.05 2941.96 C 2594.12 2940.14 2597.1 2938.19 2599.88 2935.93 C 2604.56 2932.61 2608.8 2928.68 2612.78 2924.54 C 2620.09 2916.89 2625.96 2907.72 2629.13 2897.18 L 2642.23 2922.79 C 2656.8 2951.29 2683.64 2964.63 2710.29 2964.63 C 2734.65 2964.63 2758.85 2953.5 2773.43 2932.62 C 2772.02 2956.11 2766.22 2976.18 2756.01 2992.43 C 2730.94 3032.29 2687.56 3038.03 2682.36 3038.58 Z  M 1399.83 3038.58 L 1318.55 3038.58 C 1313.12 3038 1269.89 3032.2 1244.89 2992.42 C 1234.59 2976.04 1228.77 2955.75 1227.43 2932 C 1241.96 2952.6 1266.01 2963.55 1290.23 2963.55 C 1317.14 2963.55 1344.24 2950.04 1358.73 2921.21 L 1370.77 2897.24 C 1373.95 2907.75 1379.8 2916.91 1387.1 2924.54 C 1391.08 2928.68 1395.32 2932.61 1400 2935.93 C 1402.78 2938.19 1405.77 2940.14 1408.83 2941.96 L 1364.07 2941.96 L 1364.07 2960.97 C 1364.07 2991.99 1377.95 3019.82 1399.83 3038.58 Z " fill="rgb(185,175,190)"/><path d=" M 1261.98 2903.77 C 1261.98 2903.77 1327.29 2706.84 1503.17 2706.28 C 1665.44 2705.76 1727.41 2786.7 1689.39 2897.86 C 1670.47 2953.17 1468.33 3005.46 1373.73 2891.35 L 1261.98 2903.77 Z " fill="rgb(255,255,255)"/><path d=" M 1462.41 2933.61 C 1450.88 2929.79 1439.83 2924.81 1429.83 2918.19 C 1427.79 2916.89 1425.74 2915.62 1423.63 2914.43 C 1421.51 2913.26 1419.61 2911.78 1417.52 2910.57 C 1415.52 2909.23 1413.37 2908.08 1411.31 2906.8 C 1409.32 2905.43 1407.3 2904.09 1405.2 2902.82 C 1400.86 2900.44 1396.91 2897.56 1392.21 2895.27 C 1387.58 2892.9 1383.15 2890.19 1377.46 2888.26 L 1376.92 2888.07 C 1376.37 2887.89 1375.79 2887.79 1375.2 2887.79 C 1374.79 2887.79 1374.37 2887.83 1373.96 2887.93 C 1375.66 2875.08 1386.8 2866.41 1398.78 2866.41 C 1403.43 2866.41 1408.21 2867.72 1412.62 2870.59 C 1426.69 2879.77 1441.82 2886.8 1457.49 2891.99 L 1462.41 2933.61 Z " fill="rgb(185,175,190)"/><path d=" M 1257.38 2902.24 C 1257.73 2879.11 1265.63 2858.34 1275.88 2838.95 C 1285.94 2819.4 1299.09 2801.48 1313.76 2784.95 C 1328.58 2768.55 1344.34 2752.77 1362.32 2739.42 C 1380.24 2726.06 1400 2714.86 1421.08 2706.8 C 1442.14 2698.66 1464.49 2693.86 1486.92 2692.34 L 1503.74 2691.73 C 1509.19 2691.83 1514.63 2691.82 1520.08 2691.99 C 1531 2692.43 1541.92 2693.07 1552.86 2694.38 C 1574.71 2696.9 1596.64 2701.28 1617.9 2709.15 C 1639.1 2716.88 1659.77 2728.41 1676.83 2744.97 C 1693.98 2761.37 1706.3 2783.48 1711.33 2806.69 C 1716.47 2829.93 1715.4 2853.68 1710.55 2875.78 C 1709.48 2881.37 1707.89 2886.77 1706.43 2892.22 L 1703.89 2900.24 L 1703.25 2902.25 C 1703.03 2902.93 1702.57 2903.95 1702.22 2904.78 L 1699.87 2909.97 C 1692.55 2922.55 1682.78 2930.49 1673.04 2937.23 C 1653.31 2950.42 1632.09 2958.19 1610.58 2964.06 C 1567.5 2975.09 1522.25 2977.18 1478.27 2967.96 C 1472.78 2966.78 1467.32 2965.52 1461.92 2963.87 C 1456.47 2962.47 1451.17 2960.49 1445.83 2958.65 C 1440.48 2956.83 1435.28 2954.52 1429.96 2952.54 C 1424.82 2950.09 1419.46 2948.05 1414.49 2945.19 C 1409.49 2942.39 1404.48 2939.57 1400 2935.93 C 1395.32 2932.61 1391.08 2928.68 1387.1 2924.54 C 1379.16 2916.24 1372.93 2906.14 1370 2894.45 C 1369.28 2891.58 1371.01 2888.67 1373.88 2887.95 C 1374.92 2887.69 1375.97 2887.75 1376.92 2888.07 L 1377.46 2888.26 C 1383.15 2890.19 1387.58 2892.9 1392.21 2895.27 C 1396.91 2897.56 1400.86 2900.44 1405.2 2902.82 C 1407.3 2904.09 1409.32 2905.43 1411.31 2906.8 C 1413.37 2908.08 1415.52 2909.23 1417.52 2910.57 C 1419.61 2911.78 1421.51 2913.26 1423.63 2914.43 C 1425.74 2915.62 1427.79 2916.89 1429.83 2918.19 C 1446.04 2928.92 1465.01 2935.34 1484.32 2939.5 C 1523.11 2947.7 1564.52 2945.86 1603.17 2935.92 C 1622.33 2930.76 1641.29 2923.55 1656.72 2913.15 C 1664.33 2908.05 1671.01 2901.83 1674.33 2896.03 C 1674.59 2895.33 1674.88 2894.65 1675.2 2893.99 C 1675.36 2893.6 1675.53 2893.45 1675.71 2892.87 L 1676.27 2891.1 L 1678.52 2884.02 C 1679.77 2879.26 1681.2 2874.52 1682.09 2869.73 C 1686.31 2850.64 1686.94 2831.16 1682.94 2813.1 C 1678.97 2795.02 1669.87 2778.63 1656.49 2765.77 C 1643.18 2752.84 1626.23 2743.14 1607.82 2736.44 C 1589.42 2729.61 1569.64 2725.59 1549.55 2723.29 C 1539.5 2722.07 1529.33 2721.48 1519.13 2721.07 L 1503.8 2720.83 L 1488.95 2721.37 C 1469.22 2722.7 1449.81 2726.88 1431.44 2733.98 C 1394.71 2748.13 1361.95 2772.96 1336.71 2804.36 C 1330.45 2812.26 1324.46 2820.37 1318.83 2828.76 C 1313.07 2837.06 1307.51 2845.52 1302.04 2854.08 C 1291.22 2871.29 1280.51 2888.65 1266.59 2905.29 L 1266.35 2905.58 C 1264.55 2907.73 1261.35 2908.01 1259.2 2906.21 C 1257.99 2905.2 1257.37 2903.71 1257.38 2902.24 Z " fill="rgb(55,26,69)"/><path d=" M 2737.9 2903.77 C 2737.9 2903.77 2672.59 2706.84 2496.72 2706.28 C 2334.44 2705.76 2272.48 2786.7 2310.49 2897.86 C 2329.41 2953.17 2531.55 3005.46 2626.15 2891.35 L 2737.9 2903.77 Z " fill="rgb(255,255,255)"/><path d=" M 2737.9 2903.77 C 2737.9 2903.77 2672.59 2706.84 2496.72 2706.28 C 2334.44 2705.76 2272.48 2786.7 2310.49 2897.86 C 2329.41 2953.17 2531.55 3005.46 2626.15 2891.35 L 2737.9 2903.77 Z " fill="rgb(255,255,255)"/><path d=" M 2537.59 2933.57 L 2542.51 2891.95 C 2558.14 2886.77 2573.23 2879.74 2587.27 2870.59 C 2591.67 2867.72 2596.45 2866.41 2601.1 2866.41 C 2613.09 2866.41 2624.22 2875.08 2625.92 2887.93 C 2625.52 2887.83 2625.11 2887.78 2624.69 2887.78 C 2624.12 2887.78 2623.54 2887.88 2622.97 2888.07 L 2622.42 2888.26 C 2616.73 2890.19 2612.3 2892.9 2607.67 2895.27 C 2602.97 2897.56 2599.02 2900.44 2594.68 2902.82 C 2592.58 2904.09 2590.56 2905.43 2588.57 2906.8 C 2586.51 2908.08 2584.37 2909.23 2582.36 2910.57 C 2580.27 2911.78 2578.37 2913.26 2576.25 2914.43 C 2574.14 2915.62 2572.1 2916.89 2570.05 2918.19 C 2560.09 2924.78 2549.08 2929.75 2537.59 2933.57 Z " fill="rgb(185,175,190)"/><path d=" M 2733.3 2905.29 C 2719.37 2888.65 2708.66 2871.29 2697.85 2854.08 C 2692.37 2845.52 2686.81 2837.06 2681.06 2828.76 C 2675.42 2820.37 2669.43 2812.26 2663.17 2804.36 C 2637.93 2772.96 2605.17 2748.13 2568.44 2733.98 C 2550.08 2726.88 2530.66 2722.7 2510.94 2721.37 L 2496.09 2720.83 L 2480.75 2721.07 C 2470.55 2721.48 2460.38 2722.07 2450.34 2723.29 C 2430.25 2725.59 2410.46 2729.61 2392.06 2736.44 C 2373.65 2743.14 2356.7 2752.84 2343.4 2765.77 C 2330.01 2778.63 2320.91 2795.02 2316.94 2813.1 C 2312.94 2831.16 2313.57 2850.64 2317.79 2869.73 C 2318.69 2874.52 2320.11 2879.26 2321.37 2884.02 L 2323.61 2891.1 L 2324.17 2892.87 C 2324.36 2893.45 2324.52 2893.6 2324.68 2893.99 C 2325 2894.65 2325.29 2895.33 2325.55 2896.03 C 2328.88 2901.83 2335.55 2908.05 2343.17 2913.15 C 2358.6 2923.55 2377.55 2930.76 2396.72 2935.92 C 2435.36 2945.86 2476.78 2947.7 2515.56 2939.5 C 2534.87 2935.34 2553.84 2928.92 2570.05 2918.19 C 2572.1 2916.89 2574.14 2915.62 2576.25 2914.43 C 2578.37 2913.26 2580.27 2911.78 2582.36 2910.57 C 2584.37 2909.23 2586.51 2908.08 2588.57 2906.8 C 2590.56 2905.43 2592.58 2904.09 2594.68 2902.82 C 2599.02 2900.44 2602.97 2897.56 2607.67 2895.27 C 2612.3 2892.9 2616.73 2890.19 2622.42 2888.26 L 2622.97 2888.07 C 2625.77 2887.12 2628.81 2888.62 2629.76 2891.42 C 2630.11 2892.44 2630.13 2893.48 2629.89 2894.45 C 2626.95 2906.14 2620.72 2916.24 2612.78 2924.54 C 2608.8 2928.68 2604.56 2932.61 2599.88 2935.93 C 2595.4 2939.57 2590.39 2942.39 2585.39 2945.19 C 2580.42 2948.05 2575.06 2950.09 2569.93 2952.54 C 2564.6 2954.52 2559.4 2956.83 2554.06 2958.65 C 2548.71 2960.49 2543.41 2962.47 2537.96 2963.87 C 2532.56 2965.52 2527.1 2966.78 2521.61 2967.96 C 2477.63 2977.18 2432.38 2975.09 2389.3 2964.06 C 2367.79 2958.19 2346.58 2950.42 2326.84 2937.23 C 2317.1 2930.49 2307.33 2922.55 2300.02 2909.97 L 2297.66 2904.78 C 2297.32 2903.95 2296.85 2902.93 2296.63 2902.25 L 2295.99 2900.24 L 2293.45 2892.22 C 2292 2886.77 2290.4 2881.37 2289.33 2875.78 C 2284.48 2853.68 2283.41 2829.93 2288.56 2806.69 C 2293.58 2783.48 2305.9 2761.37 2323.05 2744.97 C 2340.11 2728.41 2360.78 2716.88 2381.99 2709.15 C 2403.24 2701.28 2425.18 2696.9 2447.02 2694.38 C 2457.96 2693.07 2468.89 2692.43 2479.8 2691.99 C 2485.25 2691.82 2490.69 2691.83 2496.14 2691.73 L 2512.96 2692.34 C 2535.39 2693.86 2557.75 2698.66 2578.8 2706.8 C 2599.88 2714.86 2619.64 2726.06 2637.56 2739.42 C 2655.54 2752.77 2671.3 2768.55 2686.12 2784.95 C 2700.79 2801.48 2713.94 2819.4 2724 2838.95 C 2734.25 2858.34 2742.16 2879.11 2742.5 2902.24 C 2742.54 2905.05 2740.31 2907.35 2737.5 2907.39 C 2735.92 2907.42 2734.5 2906.72 2733.55 2905.6 L 2733.3 2905.29 Z " fill="rgb(55,26,69)"/><path d=" M 2003.59 3038.58 L 2682.36 3038.58 C 2687.56 3038.03 2730.94 3032.29 2756.01 2992.43 C 2782.57 2950.18 2779.28 2882.05 2746.49 2795.4 C 2638.94 2511.22 2353.56 2298.55 2001.72 2240.37 C 2001.29 2240.3 2000.86 2240.21 2000.45 2240.11 C 2000.03 2240.21 1999.61 2240.3 1999.18 2240.37 C 1647.33 2298.55 1361.96 2511.22 1254.41 2795.4 C 1221.62 2882.05 1218.33 2950.18 1244.89 2992.42 C 1269.89 3032.2 1313.12 3038 1318.55 3038.58 L 2003.59 3038.58 Z  M 2683.61 3067.67 L 1316.72 3067.62 C 1314.2 3067.43 1254.69 3062.18 1220.54 3008.35 C 1188.19 2957.37 1190.43 2882.26 1227.2 2785.11 C 1338.4 2491.26 1632.39 2271.53 1994.43 2211.67 C 1996.5 2211.33 1998.54 2211.44 2000.45 2211.93 C 2002.36 2211.44 2004.4 2211.33 2006.47 2211.67 C 2368.51 2271.53 2662.5 2491.26 2773.7 2785.11 C 2810.47 2882.26 2812.7 2957.37 2780.36 3008.36 C 2746.21 3062.18 2686.7 3067.43 2684.18 3067.62 L 2683.61 3067.67 Z " fill="rgb(55,26,69)"/><path d=" M 2585.97 2001.94 C 2579.26 2002.26 2573.56 1997.07 2573.25 1990.36 L 2556.77 1640.41 C 2556.45 1633.7 2561.63 1628.01 2568.34 1627.69 C 2638.74 1624.37 2698.49 1678.75 2701.8 1749.15 L 2707.43 1868.48 C 2710.74 1938.87 2656.36 1998.63 2585.97 2001.94 Z " fill="rgb(255,255,255)"/><path d=" M 2574.41 1630.16 C 2572.44 1630.16 2570.46 1630.21 2568.46 1630.3 C 2563.21 1630.55 2559.13 1635.03 2559.38 1640.29 L 2575.86 1990.24 C 2576.1 1995.5 2580.59 1999.54 2585.85 1999.33 C 2654.69 1996.09 2708.06 1937.44 2704.81 1868.6 L 2699.19 1749.27 C 2696.04 1682.42 2640.65 1630.16 2574.41 1630.16 Z  M 2585.39 2004.57 C 2577.56 2004.57 2571.01 1998.39 2570.64 1990.49 L 2554.16 1640.53 C 2553.77 1632.4 2560.08 1625.46 2568.22 1625.08 C 2639.98 1621.69 2701.04 1677.3 2704.41 1749.02 L 2710.03 1868.36 C 2711.67 1903.1 2699.68 1936.4 2676.27 1962.12 C 2652.86 1987.85 2620.83 2002.92 2586.09 2004.55 C 2585.86 2004.56 2585.62 2004.57 2585.39 2004.57 Z " fill="rgb(55,26,69)"/><path d=" M 2595.63 1986.45 C 2600.44 1964.94 2603.95 1943.11 2606.13 1921.04 C 2606.99 1914.43 2607.74 1907.8 2608.39 1901.12 C 2643.81 1893.83 2673.63 1871.95 2691.63 1842.26 L 2692.89 1869.16 C 2695.66 1927.94 2652.81 1978.5 2595.63 1986.45 Z " fill="rgb(185,175,190)"/><path d=" M 2571.41 1642.13 L 2587.66 1987.27 C 2648.78 1983.12 2695.79 1930.64 2692.89 1869.16 L 2687.27 1749.83 C 2684.38 1688.35 2632.55 1640.48 2571.41 1642.13 Z  M 2585.38 2016.5 C 2571.23 2016.5 2559.39 2005.33 2558.72 1991.05 L 2542.23 1641.09 C 2541.54 1626.38 2552.95 1613.85 2567.65 1613.16 C 2645.9 1609.47 2712.65 1670.17 2716.34 1748.46 L 2721.96 1867.8 C 2725.64 1946.09 2664.95 2012.78 2586.65 2016.47 L 2586.65 2016.47 C 2586.23 2016.49 2585.8 2016.5 2585.38 2016.5 Z " fill="rgb(55,26,69)"/><path d=" M 1413.23 1682.09 C 1419.94 1681.78 1425.64 1686.96 1425.95 1693.67 L 1442.43 2043.62 C 1442.75 2050.33 1437.57 2056.03 1430.86 2056.34 C 1360.46 2059.66 1300.71 2005.28 1297.4 1934.89 L 1291.78 1815.55 C 1288.46 1745.16 1342.84 1685.41 1413.23 1682.09 Z " fill="rgb(255,255,255)"/><path d=" M 1413.35 1684.7 C 1344.51 1687.94 1291.14 1746.59 1294.39 1815.43 L 1300.01 1934.76 C 1303.25 2003.6 1361.86 2056.93 1430.74 2053.73 C 1435.99 2053.48 1440.07 2049 1439.82 2043.74 L 1423.34 1693.79 C 1423.09 1688.53 1418.51 1684.4 1413.35 1684.7 Z  M 1424.79 2059.1 C 1355.77 2059.1 1298.06 2004.66 1294.79 1935.01 L 1289.17 1815.67 C 1287.53 1780.93 1299.52 1747.63 1322.93 1721.91 C 1346.34 1696.18 1378.36 1681.12 1413.11 1679.48 C 1421.28 1679.09 1428.18 1685.41 1428.56 1693.54 L 1445.04 2043.5 C 1445.43 2051.64 1439.12 2058.57 1430.98 2058.95 C 1428.91 2059.05 1426.84 2059.1 1424.79 2059.1 Z " fill="rgb(55,26,69)"/><path d=" M 1421.67 2041.9 C 1363.17 2040.28 1314.72 1993.62 1311.93 1934.2 L 1310.71 1908.31 C 1332.13 1933.94 1363.39 1950.94 1398.34 1953.75 C 1403.95 1983.94 1411.78 2013.39 1421.67 2041.9 Z " fill="rgb(185,175,190)"/><path d=" M 1411.54 1696.76 C 1350.42 1700.91 1303.41 1753.39 1306.31 1814.87 L 1311.93 1934.2 C 1314.82 1995.68 1366.58 2043.5 1427.79 2041.9 L 1411.54 1696.76 Z  M 1424.78 2071.03 C 1349.44 2071.03 1286.45 2011.6 1282.86 1935.57 L 1277.24 1816.24 C 1273.56 1737.94 1334.25 1671.25 1412.55 1667.56 L 1412.55 1667.56 C 1427.27 1666.92 1439.79 1678.27 1440.48 1692.98 L 1456.97 2042.94 C 1457.66 2057.65 1446.25 2070.18 1431.55 2070.87 C 1429.29 2070.98 1427.02 2071.03 1424.78 2071.03 Z " fill="rgb(55,26,69)"/><path d=" M 2596.51 1856.3 C 2588.62 2185.92 2315.01 2446.74 1985.39 2438.85 C 1655.76 2430.96 1394.94 2157.35 1402.83 1827.73 C 1410.72 1498.1 1684.33 1237.29 2013.96 1245.17 C 2343.58 1253.06 2604.4 1526.67 2596.51 1856.3 Z " fill="rgb(255,255,255)"/><path d=" M 1999.3 1247.61 C 1845.94 1247.61 1700.95 1305.58 1589.55 1411.78 C 1474.63 1521.32 1409.25 1669.07 1405.45 1827.79 C 1397.61 2155.45 1657.8 2428.4 1985.45 2436.24 C 2313.03 2444.09 2586.05 2183.89 2593.9 1856.23 L 2596.51 1856.3 L 2593.9 1856.23 C 2597.7 1697.51 2539.46 1546.81 2429.91 1431.89 C 2320.36 1316.97 2172.62 1251.58 2013.89 1247.79 C 2009.03 1247.67 2004.15 1247.61 1999.3 1247.61 Z  M 1999.88 2441.64 C 1995.02 2441.64 1990.21 2441.58 1985.32 2441.46 C 1654.79 2433.55 1392.31 2158.2 1400.22 1827.66 C 1404.05 1667.55 1470.01 1518.5 1585.94 1407.99 C 1701.87 1297.48 1853.89 1238.78 2014.02 1242.56 C 2174.14 1246.39 2323.18 1312.35 2433.69 1428.28 C 2544.2 1544.21 2602.96 1696.24 2599.12 1856.36 C 2591.33 2182.02 2323.88 2441.64 1999.88 2441.64 Z " fill="rgb(55,26,69)"/><path d=" M 2596.51 1856.3 L 2596.56 1856.3 L 2596.51 1856.3 Z  M 1999.31 1259.55 C 1849.03 1259.55 1706.94 1316.35 1597.78 1420.41 C 1485.17 1527.76 1421.1 1672.54 1417.38 1828.08 C 1409.69 2149.15 1664.66 2416.62 1985.74 2424.31 C 2306.73 2432.02 2574.28 2177.03 2581.97 1855.95 C 2589.65 1534.87 2334.69 1267.4 2013.61 1259.72 C 2008.84 1259.6 2004.06 1259.55 1999.31 1259.55 Z  M 1999.88 2453.57 C 1994.93 2453.57 1990.02 2453.51 1985.04 2453.39 C 1647.93 2445.33 1380.22 2164.49 1388.29 1827.38 C 1396.36 1490.26 1677 1222.6 2014.3 1230.63 C 2177.61 1234.54 2329.62 1301.81 2442.33 1420.05 C 2555.04 1538.28 2614.96 1693.34 2611.05 1856.65 C 2603.1 2188.78 2330.33 2453.57 1999.88 2453.57 Z " fill="rgb(55,26,69)"/><path d=" M 2594.24 1871.58 C 2593.21 1988.4 2554.33 2096.52 2488.68 2185.69 C 2439.46 2252.53 2238.55 2368.51 1991.72 2368.55 C 1762.85 2368.59 1555.71 2244.74 1507.68 2177.03 C 1443.62 2086.73 1406.65 1977.93 1407.69 1861.11 C 1410.41 1551.97 1677.15 1426.15 2004.82 1429.05 C 2332.49 1431.94 2596.96 1562.44 2594.24 1871.58 Z " fill="rgb(55,26,69)"/><path d=" M 2594.24 1871.58 L 2594.28 1871.58 L 2594.24 1871.58 Z  M 1993.83 1443.54 C 1829.07 1443.54 1690.41 1476.92 1592.29 1540.29 C 1480.69 1612.36 1423.47 1720.34 1422.23 1861.24 C 1421.26 1971.22 1454.91 2077.51 1519.55 2168.62 C 1565.45 2233.32 1768.04 2354.01 1991.62 2354.01 L 1991.72 2354.01 C 2239.53 2353.96 2432.97 2236.81 2476.97 2177.06 C 2543.2 2087.11 2578.72 1981.43 2579.69 1871.45 C 2583.06 1489.89 2178.7 1445.13 2004.69 1443.59 C 2001.06 1443.56 1997.43 1443.54 1993.83 1443.54 Z  M 1991.62 2383.1 C 1754.85 2383.1 1546.15 2256.4 1495.82 2185.45 C 1427.62 2089.32 1392.12 1977.12 1393.14 1860.98 C 1394.48 1709.68 1456.17 1593.56 1576.51 1515.84 C 1681.57 1448 1829.72 1412.86 2004.95 1414.5 C 2180.17 1416.05 2327.68 1453.7 2431.53 1523.39 C 2550.48 1603.21 2610.12 1720.41 2608.78 1871.71 C 2607.76 1987.84 2570.28 2099.4 2500.39 2194.31 C 2451.94 2260.12 2253 2383.05 1991.72 2383.1 L 1991.62 2383.1 Z " fill="rgb(55,26,69)"/><path d=" M 2392.59 1932.67 C 2389.08 1932.67 2385.55 1932.34 2382.03 1931.67 C 2340.5 1923.77 2315.67 1870.89 2326.58 1813.57 C 2336.57 1761.1 2373.03 1723.1 2410.99 1723.1 C 2414.5 1723.1 2418.03 1723.42 2421.54 1724.09 C 2455.11 1730.48 2477.76 1766.25 2479.46 1809.99 C 2474.74 1835.78 2468.55 1861.11 2460.97 1885.86 C 2444.41 1914.47 2418.86 1932.67 2392.59 1932.67 Z " fill="rgb(195,186,199)"/><path d=" M 2302.24 2084.18 C 2298.34 2084.18 2294.43 2083.56 2290.6 2082.26 C 2268.83 2074.89 2258.15 2048.34 2266.75 2022.98 C 2273.83 2002.07 2291.8 1988.49 2310.08 1988.49 C 2313.98 1988.49 2317.9 1989.11 2321.72 1990.4 C 2343.49 1997.78 2354.17 2024.32 2345.58 2049.69 C 2338.49 2070.59 2320.53 2084.18 2302.24 2084.18 Z " fill="rgb(195,186,199)"/><path d=" M 2386.57 2249.55 L 2113.73 2249.55 C 2235.63 2200.69 2323.28 2137.95 2356.49 2092.83 C 2402.44 2030.43 2438.05 1960.71 2460.97 1885.86 C 2468.34 1873.14 2473.92 1858.35 2477 1842.2 C 2479.09 1831.2 2479.87 1820.37 2479.46 1809.99 C 2486.35 1772.33 2490.1 1733.64 2490.44 1694.18 C 2490.73 1663.34 2488.88 1633.9 2485.09 1605.82 C 2542.96 1668.05 2580.73 1753.7 2579.69 1871.45 C 2578.72 1981.43 2543.2 2087.11 2476.97 2177.06 C 2462.29 2197 2430.98 2223.32 2386.57 2249.55 Z " fill="rgb(42,26,59)"/><path d=" M 2414.33 2249.55 L 2386.57 2249.55 C 2430.98 2223.32 2462.29 2197 2476.97 2177.06 C 2543.2 2087.11 2578.72 1981.43 2579.69 1871.45 C 2580.73 1753.7 2542.96 1668.05 2485.09 1605.82 C 2484.01 1597.82 2482.78 1589.94 2481.39 1582.16 C 2553.31 1652.01 2595.31 1747.4 2594.23 1871.56 C 2593.2 1988.41 2554.3 2096.52 2488.7 2185.69 C 2474.96 2204.35 2449.4 2226.83 2414.33 2249.55 Z " fill="rgb(42,26,59)"/><path d=" M 2460.97 1885.86 C 2468.55 1861.11 2474.74 1835.78 2479.46 1809.99 C 2479.87 1820.37 2479.09 1831.2 2477 1842.2 C 2473.92 1858.35 2468.34 1873.14 2460.97 1885.86 Z " fill="rgb(133,130,144)"/><path d=" M 2545.55 1614.57 C 2542.31 1614.57 2539.06 1613.48 2536.36 1611.26 L 2534.83 1610 L 2533.61 1608.31 C 2434.16 1466.24 2240.36 1383.55 2001.91 1381.44 C 1762.31 1379.2 1567.06 1461.21 1466.74 1606.09 L 1466 1607.06 C 1460.9 1613.27 1451.69 1614.19 1445.49 1609.08 C 1439.47 1604.12 1438.43 1595.37 1443.05 1589.19 C 1549.01 1436.46 1752.96 1350.1 2002.16 1352.35 C 2249.98 1354.54 2452.27 1441.64 2557.23 1591.33 C 2561.12 1596.58 2561.12 1603.99 2556.79 1609.25 C 2553.91 1612.75 2549.74 1614.57 2545.55 1614.57 Z " fill="rgb(55,26,69)"/><path d=" M 1539.3 2046.2 C 1539.3 2046.2 1446.24 1740.38 1611.67 1620.3 C 1731.82 1533.09 1889.43 1510.58 1964.55 1510.58 C 1992.86 1510.58 2009.45 1513.77 2007.9 1517.91 C 2007.9 1517.91 1745.56 1578.98 1641.31 1785.03 C 1560.91 1943.92 1539.3 2046.2 1539.3 2046.2 Z " fill="rgb(195,186,199)"/><path d=" M 830.375 3166.13 C 879.109 3158.42 927.842 3156.57 976.578 3155.62 C 1000.94 3155.1 1025.31 3155 1049.68 3155.13 C 1074.05 3155.09 1098.41 3155.45 1122.78 3155.7 C 1171.51 3156.16 1220.25 3156.27 1268.98 3156.2 L 1415.19 3156.2 L 2000 3156.2 L 2584.81 3156.2 L 2877.22 3156.2 L 2950.32 3156.17 L 2986.87 3155.81 L 3023.42 3155.19 C 3072.16 3155.02 3120.89 3155.47 3169.63 3166.13 C 3172.37 3166.73 3174.11 3169.44 3173.51 3172.19 C 3173.07 3174.19 3171.5 3175.65 3169.63 3176.07 C 3120.89 3186.74 3072.16 3187.18 3023.42 3187.01 L 2986.87 3186.39 L 2950.32 3186.03 L 2877.22 3186.01 L 2584.81 3186.01 L 2000 3186.01 L 1415.19 3186.01 L 1268.98 3186.01 C 1220.25 3185.93 1171.51 3186.05 1122.78 3186.5 C 1098.41 3186.75 1074.05 3187.11 1049.68 3187.07 C 1025.31 3187.2 1000.94 3187.1 976.578 3186.58 C 927.842 3185.63 879.109 3183.78 830.375 3176.07 C 827.63 3175.64 825.758 3173.06 826.193 3170.31 C 826.541 3168.11 828.282 3166.47 830.375 3166.13 Z " fill="rgb(55,26,69)"/><path d=" M 2942.05 3165.24 L 1057.95 3165.24 C 1027.49 3165.24 1002.79 3140.55 1002.79 3110.08 L 1002.79 3108.29 C 1002.79 3077.82 1027.49 3053.12 1057.95 3053.12 L 2942.05 3053.12 C 2972.51 3053.12 2997.21 3077.82 2997.21 3108.29 L 2997.21 3110.08 C 2997.21 3140.55 2972.51 3165.24 2942.05 3165.24 Z " fill="rgb(249,35,35)"/><path d=" M 1057.95 3055.22 C 1028.69 3055.22 1004.89 3079.03 1004.89 3108.28 L 1004.89 3110.08 C 1004.89 3139.34 1028.69 3163.15 1057.95 3163.15 L 2942.04 3163.15 C 2971.31 3163.15 2995.11 3139.34 2995.11 3110.08 L 2995.11 3108.28 C 2995.11 3079.03 2971.31 3055.22 2942.04 3055.22 L 1057.95 3055.22 Z  M 2942.04 3167.35 L 1057.95 3167.35 C 1026.38 3167.35 1000.69 3141.66 1000.69 3110.08 L 1000.69 3108.28 C 1000.69 3076.71 1026.38 3051.02 1057.95 3051.02 L 2942.04 3051.02 C 2973.62 3051.02 2999.31 3076.71 2999.31 3108.28 L 2999.31 3110.08 C 2999.31 3141.66 2973.62 3167.35 2942.04 3167.35 Z " fill="rgb(55,26,69)"/><path d=" M 1057.95 3067.67 C 1035.56 3067.67 1017.33 3085.89 1017.33 3108.28 L 1017.33 3110.08 C 1017.33 3132.48 1035.56 3150.7 1057.95 3150.7 L 2942.04 3150.7 C 2964.44 3150.7 2982.66 3132.48 2982.66 3110.08 L 2982.66 3108.28 C 2982.66 3085.89 2964.44 3067.67 2942.04 3067.67 L 1057.95 3067.67 Z  M 2942.04 3179.79 L 1057.95 3179.79 C 1019.51 3179.79 988.242 3148.52 988.242 3110.08 L 988.242 3108.28 C 988.242 3069.85 1019.51 3038.58 1057.95 3038.58 L 2942.04 3038.58 C 2980.48 3038.58 3011.76 3069.85 3011.76 3108.28 L 3011.76 3110.08 C 3011.76 3148.52 2980.48 3179.79 2942.04 3179.79 Z " fill="rgb(55,26,69)"/><path d=" M 1041.31 3145.07 C 1028.1 3138.86 1018.87 3125.13 1018.87 3109.18 C 1018.87 3087.43 1036.01 3069.73 1057.07 3069.73 L 1236.44 3069.73 L 1368.27 3069.73 L 2156.85 3069.73 C 2144.64 3074.03 2129.33 3078.83 2110.37 3083.89 L 1370 3083.89 C 1361.64 3093.47 1334.56 3100.5 1302.35 3100.5 C 1270.15 3100.5 1243.07 3093.47 1234.7 3083.89 L 1073.16 3083.89 C 1052.09 3083.89 1034.96 3101.59 1034.96 3123.34 C 1034.96 3131.37 1037.3 3138.84 1041.31 3145.07 Z " fill="rgb(252,145,145)"/><path d=" M 2533.05 3048.64 L 1466.27 3048.64 C 1417.86 3048.64 1378.61 3009.39 1378.61 2960.98 L 1378.61 2956.5 L 2620.71 2956.5 L 2620.71 2960.98 C 2620.71 3009.39 2581.47 3048.64 2533.05 3048.64 Z " fill="rgb(197,211,226)"/><path d=" M 2533.05 3034.09 L 2501.95 3034.09 C 2507.11 3029.32 2511.75 3024.04 2515.79 3018.32 L 2533.05 3018.32 C 2561.2 3018.32 2586.29 3005.02 2602.33 2984.36 C 2592.56 3013.24 2565.19 3034.09 2533.05 3034.09 Z  M 1498.05 3034.09 L 1466.27 3034.09 C 1434.13 3034.09 1406.77 3013.24 1397 2984.35 C 1398.17 2985.86 1399.38 2987.33 1400.65 2988.76 C 1409.11 3008.53 1425.89 3023.68 1446.38 3029.47 C 1439.68 3024.15 1433.92 3017.63 1429.42 3010.21 C 1440.63 3015.42 1453.12 3018.32 1466.29 3018.32 L 1484.21 3018.32 C 1488.25 3024.04 1492.89 3029.32 1498.05 3034.09 Z " fill="rgb(147,146,171)"/><path d=" M 1393.86 2971.05 C 1398.78 3006.61 1429.38 3034.09 1466.27 3034.09 L 2533.05 3034.09 C 2569.95 3034.09 2600.55 3006.61 2605.47 2971.05 L 1393.86 2971.05 Z  M 2533.05 3063.18 L 1466.27 3063.18 C 1409.92 3063.18 1364.07 3017.33 1364.07 2960.97 L 1364.07 2941.96 L 2635.26 2941.96 L 2635.26 2960.97 C 2635.26 3017.33 2589.41 3063.18 2533.05 3063.18 Z " fill="rgb(55,26,69)"/><path d=" M 1429.42 3010.21 C 1418.4 3005.09 1408.61 2997.75 1400.65 2988.76 C 1398.53 2983.81 1396.93 2978.57 1395.93 2973.11 L 1467.08 2973.11 L 1467.21 2974.18 C 1467.67 2978.06 1468.35 2981.86 1469.26 2985.57 L 1434.6 2985.57 C 1426.89 2985.57 1421.61 2993.76 1424.72 3001.05 C 1426.08 3004.23 1427.65 3007.29 1429.42 3010.21 Z " fill="rgb(232,237,243)"/><path d=" M 1446.38 3029.47 C 1425.89 3023.68 1409.11 3008.53 1400.65 2988.76 C 1408.61 2997.75 1418.4 3005.09 1429.42 3010.21 C 1433.92 3017.63 1439.68 3024.15 1446.38 3029.47 Z " fill="rgb(212,211,221)"/><path d=" M 2599.94 2985.57 L 2530.74 2985.57 C 2531.65 2981.86 2532.33 2978.06 2532.79 2974.18 L 2532.92 2973.11 L 2603.4 2973.11 C 2602.61 2977.42 2601.43 2981.58 2599.94 2985.57 Z " fill="rgb(232,237,243)"/><path d=" M 2429.02 3047.68 L 1570.98 3047.68 C 1525.18 3047.68 1486.71 3015.29 1481.65 2972.48 L 1409.02 2357.99 C 1403.1 2307.9 1444.77 2264.1 1498.35 2264.1 L 2501.66 2264.1 C 2555.23 2264.1 2596.9 2307.9 2590.98 2357.99 L 2518.35 2972.48 C 2513.29 3015.29 2474.81 3047.68 2429.02 3047.68 Z " fill="rgb(58,170,255)"/><path d=" M 2000.47 2768.57 C 1971.75 2768.57 1944.02 2752.91 1930.07 2726.28 C 1908.52 2685.15 1926.6 2635.09 1968.43 2616.79 C 1978.76 2612.28 1989.53 2610.14 2000.13 2610.14 C 2005.76 2610.14 2011.34 2610.74 2016.78 2611.91 C 2021.95 2613.02 2022.7 2620.09 2017.85 2622.2 L 2017.69 2622.27 C 1988.82 2634.9 1976.42 2669.52 1991.48 2697.86 C 2001.12 2715.98 2020.12 2726.61 2039.75 2726.61 C 2046.53 2726.61 2053.38 2725.34 2059.95 2722.68 C 2060.13 2722.61 2060.3 2722.54 2060.47 2722.46 C 2061.27 2722.13 2062.06 2721.98 2062.81 2721.98 C 2067.06 2721.98 2070.22 2726.75 2067.67 2730.89 C 2059.08 2744.9 2046.05 2756.38 2029.51 2762.99 C 2020.05 2766.77 2010.2 2768.57 2000.47 2768.57 Z " fill="rgb(176,221,255)"/><path d=" M 2426.41 2443.41 C 2415.65 2433 2405.16 2422.87 2394.64 2412.7 C 2394.61 2412.43 2394.64 2412.11 2394.64 2411.82 C 2405.05 2411.5 2415.49 2411.21 2426.04 2410.9 C 2427.52 2422.08 2427.42 2432.55 2426.41 2443.41 Z  M 2423.49 2460.66 C 2420.08 2473.99 2414.83 2486.44 2406.32 2497.39 C 2399.75 2505.79 2391.93 2512.92 2383.56 2519.46 C 2360.85 2537.22 2335.7 2550.89 2309.73 2563.16 C 2308.46 2563.74 2307.64 2563.8 2306.58 2562.71 C 2304.28 2560.3 2301.76 2558.02 2299.35 2555.66 C 2299.19 2555.53 2299.11 2555.29 2298.84 2554.84 C 2299.45 2554.18 2300.12 2553.51 2300.78 2552.82 C 2314.5 2538.57 2328.31 2524.34 2342.04 2510.05 C 2346.01 2505.97 2345.32 2500.09 2340.66 2497.34 C 2337.4 2495.4 2333.58 2496.01 2330.61 2499.03 C 2322.35 2507.56 2314.11 2516.1 2305.87 2524.66 C 2299.72 2531.02 2293.62 2537.35 2287.24 2543.97 C 2284.27 2541.11 2281.43 2538.51 2278.81 2535.73 C 2278.36 2535.23 2278.52 2533.77 2278.92 2533 C 2285.33 2519.41 2291.66 2505.76 2298.45 2492.33 C 2305.15 2479 2313.15 2466.41 2322.27 2454.59 C 2330.8 2443.44 2340.34 2433.29 2352.66 2426.24 C 2360.56 2421.71 2368.88 2418.18 2377.68 2415.88 C 2378.47 2415.64 2379.77 2416.28 2380.46 2416.94 C 2391.32 2427.33 2402.08 2437.74 2412.87 2448.18 C 2416.1 2451.28 2419.31 2454.46 2422.62 2457.51 C 2423.6 2458.43 2423.84 2459.31 2423.49 2460.66 Z  M 2376.11 2559.58 C 2374.58 2569.49 2370.07 2578.05 2364.14 2585.97 C 2356.74 2595.73 2347.6 2603.54 2337.56 2610.94 C 2334.88 2597.64 2332.23 2584.62 2329.63 2571.88 C 2345.16 2562.97 2360.35 2554.28 2375.61 2545.54 C 2376.91 2549.91 2376.86 2554.76 2376.11 2559.58 Z  M 2268.93 2514.4 C 2256.68 2512.36 2243.99 2510.24 2230.95 2508.07 C 2241.74 2492.49 2253.53 2478.52 2271.07 2470.73 C 2278.65 2467.37 2287.82 2466.17 2293.54 2467.55 C 2285.41 2483.08 2277.25 2498.61 2268.93 2514.4 Z  M 2443.08 2423.64 C 2442.79 2415.61 2442.63 2407.48 2439.87 2399.69 C 2439.05 2398.92 2438.28 2398.12 2437.46 2397.35 C 2435.05 2396.88 2432.66 2396.14 2430.2 2395.9 C 2412.82 2394.1 2395.59 2394.94 2378.58 2399.02 C 2356.4 2404.35 2336.82 2414.39 2321.24 2431.35 C 2315.59 2437.47 2310.61 2444.18 2305.47 2450.72 C 2304.09 2452.5 2302.95 2453.32 2300.54 2452.63 C 2294.87 2451.02 2288.99 2450.8 2283.13 2451.39 C 2267.44 2453.03 2254.3 2460.16 2242.56 2470.25 C 2229.84 2481.22 2220.3 2494.76 2211.66 2509.02 C 2207.98 2515.06 2210.63 2520.79 2217.65 2522.03 C 2222.07 2522.77 2226.5 2523.49 2230.93 2524.23 C 2241.53 2525.98 2252.1 2527.7 2262.67 2529.45 C 2262.7 2529.77 2262.75 2529.93 2262.73 2530.09 C 2262.67 2530.3 2262.62 2530.54 2262.51 2530.75 C 2259.12 2536.79 2260.9 2541.64 2266.04 2545.67 C 2266.59 2546.12 2267.1 2546.68 2267.6 2547.18 C 2270.38 2549.88 2273.22 2552.61 2276.16 2555.42 C 2273.19 2558.52 2270.22 2561.22 2267.71 2564.32 C 2266.43 2565.89 2265.43 2568.03 2265.16 2570.05 C 2264.69 2573.31 2266.78 2576.25 2269.8 2577.47 C 2273.01 2578.79 2276.03 2578.26 2278.47 2575.88 C 2281.57 2572.88 2284.48 2569.7 2287.61 2566.47 C 2291.61 2570.37 2295.4 2574.05 2299.19 2577.68 C 2303.53 2581.81 2306.16 2582.24 2311.56 2579.83 C 2312.54 2579.35 2313.52 2578.98 2314.69 2578.5 C 2314.95 2579.69 2315.19 2580.65 2315.38 2581.55 C 2318.29 2596.02 2321.16 2610.51 2324.15 2624.93 C 2325.55 2631.76 2331.49 2634.2 2337.27 2630.31 C 2342.49 2626.81 2347.68 2623.15 2352.74 2619.34 C 2364.4 2610.51 2374.68 2600.31 2382.21 2587.67 C 2391.62 2571.77 2395.62 2555 2389.81 2536.77 C 2389.58 2536.05 2390 2534.7 2390.58 2534.22 C 2395.7 2529.72 2401 2525.43 2406.11 2520.89 C 2417.67 2510.61 2426.33 2498.21 2432.43 2484.03 C 2440.72 2464.77 2443.85 2444.52 2443.08 2423.64 Z " fill="rgb(55,26,69)"/><path d=" M 2398.08 2479.58 C 2387.56 2490.31 2370.44 2490.66 2359.76 2480.3 C 2349.03 2469.96 2348.77 2452.84 2359.15 2442.01 C 2369.36 2431.38 2386.5 2431.14 2397.26 2441.48 C 2407.91 2451.76 2408.31 2469.11 2398.08 2479.58 Z  M 2422.62 2457.51 C 2419.31 2454.46 2416.1 2451.28 2412.87 2448.18 C 2402.08 2437.74 2391.32 2427.33 2380.46 2416.94 C 2379.77 2416.28 2378.47 2415.64 2377.68 2415.88 C 2368.88 2418.18 2360.56 2421.71 2352.66 2426.24 C 2340.34 2433.29 2330.8 2443.44 2322.27 2454.59 C 2313.15 2466.41 2305.15 2479 2298.45 2492.33 C 2291.66 2505.76 2285.33 2519.41 2278.92 2533 C 2278.52 2533.77 2278.36 2535.23 2278.81 2535.73 C 2281.43 2538.51 2284.27 2541.11 2287.24 2543.97 C 2293.62 2537.35 2299.72 2531.02 2305.87 2524.66 C 2314.11 2516.1 2322.35 2507.56 2330.61 2499.03 C 2333.58 2496.01 2337.4 2495.4 2340.66 2497.34 C 2345.32 2500.09 2346.01 2505.97 2342.04 2510.05 C 2328.31 2524.34 2314.5 2538.57 2300.78 2552.82 C 2300.12 2553.51 2299.45 2554.18 2298.84 2554.84 C 2299.11 2555.29 2299.19 2555.53 2299.35 2555.66 C 2301.76 2558.02 2304.28 2560.3 2306.58 2562.71 C 2307.64 2563.8 2308.46 2563.74 2309.73 2563.16 C 2335.7 2550.89 2360.85 2537.22 2383.56 2519.46 C 2391.93 2512.92 2399.75 2505.79 2406.32 2497.39 C 2414.83 2486.44 2420.08 2473.99 2423.49 2460.66 C 2423.84 2459.31 2423.6 2458.43 2422.62 2457.51 Z " fill="rgb(255,255,255)"/><path d=" M 2426.41 2443.4 C 2415.65 2433.01 2405.15 2422.87 2394.63 2412.7 C 2394.62 2412.42 2394.64 2412.12 2394.63 2411.82 C 2405.05 2411.52 2415.49 2411.22 2426.05 2410.9 C 2427.53 2422.07 2427.41 2432.54 2426.41 2443.4 Z " fill="rgb(219,44,44)"/><path d=" M 2293.55 2467.55 C 2285.4 2483.07 2277.24 2498.61 2268.94 2514.41 C 2256.67 2512.35 2243.98 2510.24 2230.95 2508.08 C 2241.75 2492.48 2253.53 2478.51 2271.08 2470.73 C 2278.65 2467.36 2287.81 2466.17 2293.55 2467.55 Z " fill="rgb(219,44,44)"/><path d=" M 2364.12 2585.98 C 2356.73 2595.73 2347.6 2603.56 2337.55 2610.94 C 2334.87 2597.64 2332.23 2584.63 2329.63 2571.88 C 2345.16 2562.98 2360.34 2554.29 2375.62 2545.53 C 2376.92 2549.91 2376.85 2554.75 2376.12 2559.59 C 2374.59 2569.5 2370.08 2578.06 2364.12 2585.98 Z " fill="rgb(219,44,44)"/><path d=" M 2388.6 2470.92 C 2383.27 2476.38 2374.26 2476.51 2368.67 2471.21 C 2362.89 2465.75 2362.84 2456.45 2368.54 2450.72 C 2373.86 2445.32 2383.06 2445.26 2388.49 2450.62 C 2394.16 2456.18 2394.19 2465.19 2388.6 2470.92 Z  M 2397.26 2441.48 C 2386.5 2431.14 2369.36 2431.38 2359.16 2442.01 C 2348.77 2452.84 2349.03 2469.96 2359.76 2480.3 C 2370.44 2490.66 2387.56 2490.31 2398.08 2479.58 C 2408.31 2469.11 2407.91 2451.76 2397.26 2441.48 Z " fill="rgb(55,26,69)"/><path d=" M 2388.59 2470.92 C 2383.26 2476.37 2374.25 2476.51 2368.66 2471.2 C 2362.9 2465.75 2362.84 2456.45 2368.53 2450.73 C 2373.87 2445.33 2383.05 2445.27 2388.48 2450.61 C 2394.15 2456.18 2394.2 2465.2 2388.59 2470.92 Z " fill="rgb(34,167,240)"/><path d=" M 2406.83 3031.78 L 1570.98 3031.78 C 1546.5 3031.78 1524.77 3020.36 1512.13 3002.75 C 1518.5 3007.08 1525.65 3010.48 1533.33 3012.75 C 1527.77 3004.41 1524.05 2994.86 1522.83 2984.54 L 1522.33 2980.31 C 1947.27 2963.31 2186.87 2783.97 2321.12 2610.12 C 2322.12 2615.06 2323.13 2620 2324.15 2624.93 C 2325.1 2629.55 2328.12 2632.16 2331.77 2632.16 C 2333.51 2632.17 2335.4 2631.57 2337.27 2630.31 C 2342.49 2626.81 2347.68 2623.15 2352.74 2619.34 C 2364.4 2610.51 2374.68 2600.31 2382.21 2587.67 C 2391.62 2571.77 2395.62 2555 2389.81 2536.77 C 2389.58 2536.05 2390 2534.7 2390.58 2534.22 C 2395.7 2529.72 2401 2525.43 2406.11 2520.89 C 2417.67 2510.61 2426.33 2498.21 2432.43 2484.03 C 2440.72 2464.77 2443.85 2444.52 2443.08 2423.64 C 2442.84 2417.24 2442.7 2410.77 2441.25 2404.45 C 2461.71 2356.4 2473.63 2317.52 2480.3 2294.78 L 2510.16 2294.78 C 2519.67 2298.97 2528.14 2305.15 2534.9 2313.04 C 2546.31 2326.34 2551.5 2342.92 2549.51 2359.71 L 2476.87 2974.2 C 2473 3007.02 2442.88 3031.78 2406.83 3031.78 Z  M 2337.56 2610.94 C 2337.56 2610.93 2337.56 2610.93 2337.56 2610.93 C 2339.21 2609.72 2340.84 2608.49 2342.44 2607.25 C 2340.84 2608.49 2339.21 2609.72 2337.56 2610.94 Z  M 2353.94 2597.37 C 2357.6 2593.84 2361.02 2590.08 2364.12 2585.98 C 2365.08 2584.71 2365.99 2583.43 2366.87 2582.12 C 2366 2583.43 2365.09 2584.71 2364.14 2585.97 C 2361.03 2590.08 2357.61 2593.84 2353.94 2597.37 Z  M 2361.34 2553.72 L 2361.34 2553.71 C 2364.7 2551.79 2368.05 2549.87 2371.41 2547.94 C 2368.05 2549.87 2364.7 2551.79 2361.34 2553.72 Z  M 2426.41 2443.41 C 2425.77 2442.79 2425.14 2442.18 2424.51 2441.57 L 2424.51 2441.56 C 2425.14 2442.18 2425.77 2442.79 2426.41 2443.4 C 2426.62 2441.07 2426.8 2438.76 2426.93 2436.46 L 2426.93 2436.45 C 2426.8 2438.76 2426.63 2441.08 2426.41 2443.41 Z " fill="rgb(57,120,190)"/><path d=" M 2331.77 2632.16 C 2328.12 2632.16 2325.1 2629.55 2324.15 2624.93 C 2323.13 2620 2322.12 2615.06 2321.12 2610.12 C 2325.51 2604.43 2329.78 2598.76 2333.94 2593.1 C 2335.14 2598.99 2336.34 2604.93 2337.55 2610.94 C 2337.55 2610.93 2337.55 2610.93 2337.56 2610.93 C 2337.56 2610.93 2337.56 2610.93 2337.56 2610.94 C 2339.21 2609.72 2340.84 2608.49 2342.44 2607.25 C 2346.47 2604.11 2350.33 2600.85 2353.94 2597.37 C 2357.61 2593.84 2361.03 2590.08 2364.14 2585.97 C 2365.09 2584.71 2366 2583.43 2366.87 2582.12 C 2371.45 2575.28 2374.83 2567.92 2376.12 2559.59 C 2376.85 2554.75 2376.92 2549.91 2375.62 2545.53 C 2374.22 2546.33 2372.81 2547.14 2371.41 2547.94 C 2368.05 2549.87 2364.7 2551.79 2361.34 2553.71 C 2368.69 2542.53 2375.62 2531.48 2382.16 2520.55 C 2382.63 2520.19 2383.09 2519.83 2383.56 2519.46 C 2391.93 2512.92 2399.75 2505.79 2406.32 2497.39 C 2414.83 2486.44 2420.08 2473.99 2423.49 2460.66 C 2423.59 2460.28 2423.64 2459.94 2423.64 2459.62 C 2423.65 2458.81 2423.32 2458.17 2422.62 2457.51 C 2421.27 2456.26 2419.93 2455 2418.6 2453.72 C 2420.63 2449.63 2422.59 2445.57 2424.51 2441.57 C 2425.14 2442.18 2425.77 2442.79 2426.41 2443.41 C 2426.63 2441.08 2426.8 2438.76 2426.93 2436.45 C 2432.11 2425.41 2436.87 2414.73 2441.25 2404.45 C 2442.7 2410.77 2442.84 2417.24 2443.08 2423.64 C 2443.85 2444.52 2440.72 2464.77 2432.43 2484.03 C 2426.33 2498.21 2417.67 2510.61 2406.11 2520.89 C 2401 2525.43 2395.7 2529.72 2390.58 2534.22 C 2390 2534.7 2389.58 2536.05 2389.81 2536.77 C 2395.62 2555 2391.62 2571.77 2382.21 2587.67 C 2374.68 2600.31 2364.4 2610.51 2352.74 2619.34 C 2347.68 2623.15 2342.49 2626.81 2337.27 2630.31 C 2335.4 2631.57 2333.51 2632.17 2331.77 2632.16 Z " fill="rgb(55,26,69)"/><path d=" M 2382.16 2520.55 C 2395.99 2497.46 2408.07 2475.04 2418.6 2453.72 C 2419.93 2455 2421.27 2456.26 2422.62 2457.51 C 2423.32 2458.17 2423.65 2458.81 2423.64 2459.62 C 2423.64 2459.94 2423.59 2460.28 2423.49 2460.66 C 2420.08 2473.99 2414.83 2486.44 2406.32 2497.39 C 2399.75 2505.79 2391.93 2512.92 2383.56 2519.46 C 2383.09 2519.83 2382.63 2520.19 2382.16 2520.55 Z " fill="rgb(185,175,190)"/><path d=" M 2426.41 2443.4 C 2425.77 2442.79 2425.14 2442.18 2424.51 2441.56 C 2425.32 2439.85 2426.13 2438.15 2426.93 2436.46 C 2426.8 2438.76 2426.62 2441.07 2426.41 2443.4 Z " fill="rgb(162,38,53)"/><path d=" M 2337.55 2610.94 C 2336.34 2604.93 2335.14 2598.99 2333.94 2593.1 C 2343.66 2579.88 2352.78 2566.74 2361.34 2553.72 C 2364.7 2551.79 2368.05 2549.87 2371.41 2547.94 C 2372.81 2547.14 2374.22 2546.33 2375.62 2545.53 C 2376.92 2549.91 2376.85 2554.75 2376.12 2559.59 C 2374.83 2567.92 2371.45 2575.28 2366.87 2582.12 C 2365.99 2583.43 2365.08 2584.71 2364.12 2585.98 C 2361.02 2590.08 2357.6 2593.84 2353.94 2597.37 C 2350.33 2600.85 2346.47 2604.11 2342.44 2607.25 C 2340.84 2608.49 2339.21 2609.72 2337.56 2610.93 C 2337.55 2610.93 2337.55 2610.93 2337.55 2610.94 Z " fill="rgb(162,38,53)"/><path d=" M 1512.13 3002.75 C 1509.76 3001.14 1507.49 2999.4 1505.34 2997.54 C 1500.47 2989.51 1497.25 2980.46 1496.1 2970.76 L 1423.46 2356.28 C 1421.23 2337.33 1427.19 2318.79 1440.25 2304.09 C 1454.62 2287.92 1475.8 2278.64 1498.35 2278.64 L 2501.66 2278.64 C 2516.82 2278.64 2531.36 2282.84 2543.64 2290.51 C 2543.96 2290.87 2544.28 2291.24 2544.6 2291.6 C 2546.38 2293.69 2547.98 2295.87 2549.47 2298.1 C 2542.26 2295.97 2534.67 2294.78 2526.87 2294.78 L 2510.16 2294.78 C 2501.52 2290.96 2492.02 2288.78 2482.15 2288.44 L 2482.19 2288.3 C 2481.61 2290.28 2480.98 2292.45 2480.3 2294.78 L 1523.56 2294.78 C 1500.84 2294.78 1479.72 2304.22 1465.61 2320.68 C 1453.57 2334.73 1448.09 2352.26 1450.2 2370.04 L 1522.33 2980.31 C 1515.67 2980.57 1508.92 2980.8 1502.16 2980.99 C 1504.04 2988.91 1507.46 2996.25 1512.13 3002.75 Z " fill="rgb(176,221,255)"/><path d=" M 1533.33 3012.75 C 1525.65 3010.48 1518.5 3007.08 1512.13 3002.75 C 1507.46 2996.25 1504.04 2988.91 1502.16 2980.99 C 1508.92 2980.8 1515.67 2980.57 1522.33 2980.31 L 1522.83 2984.54 C 1524.05 2994.86 1527.77 3004.41 1533.33 3012.75 Z  M 2510.16 2294.78 L 2480.3 2294.78 C 2480.98 2292.45 2481.61 2290.28 2482.19 2288.3 L 2482.15 2288.44 C 2492.02 2288.78 2501.52 2290.96 2510.16 2294.78 Z " fill="rgb(176,201,229)"/><path d=" M 1498.35 2278.64 C 1475.8 2278.64 1454.62 2287.92 1440.25 2304.09 C 1427.19 2318.79 1421.23 2337.33 1423.46 2356.28 L 1496.1 2970.76 C 1500.3 3006.32 1532.49 3033.13 1570.98 3033.13 L 2429.02 3033.13 C 2467.51 3033.13 2499.7 3006.32 2503.9 2970.76 L 2576.54 2356.28 C 2578.77 2337.33 2572.82 2318.79 2559.75 2304.09 C 2545.37 2287.92 2524.2 2278.64 2501.66 2278.64 L 1498.35 2278.64 Z  M 2429.02 3062.22 L 1570.98 3062.22 C 1517.75 3062.22 1473.14 3024.37 1467.21 2974.18 L 1394.57 2359.7 C 1391.34 2332.38 1399.84 2305.76 1418.5 2284.77 C 1438.39 2262.39 1467.5 2249.55 1498.35 2249.55 L 2501.66 2249.55 C 2532.5 2249.55 2561.6 2262.39 2581.5 2284.77 C 2600.16 2305.76 2608.66 2332.38 2605.43 2359.7 L 2532.79 2974.18 C 2526.86 3024.37 2482.25 3062.22 2429.02 3062.22 Z " fill="rgb(55,26,69)"/><path d=" M 2942.04 3150.7 L 1057.95 3150.7 C 1051.46 3150.7 1045.31 3149.17 1039.86 3146.44 C 1140.38 3149.31 1232.26 3150.59 1316.58 3150.59 C 1772.74 3150.58 2001.71 3112.92 2110.37 3083.89 L 2959.01 3083.89 C 2964.64 3083.89 2969.96 3085.19 2974.78 3087.45 C 2967.93 3076.79 2956.22 3069.73 2942.93 3069.73 L 2156.85 3069.73 C 2158.84 3069.03 2160.76 3068.34 2162.59 3067.67 L 2942.04 3067.67 C 2964.44 3067.67 2982.66 3085.89 2982.66 3108.28 L 2982.66 3110.08 C 2982.66 3132.48 2964.44 3150.7 2942.04 3150.7 Z " fill="rgb(181,32,47)"/><path d=" M 2942.93 3165.24 L 1087.16 3165.24 L 1030.94 3146.18 C 1033.89 3146.27 1036.91 3146.36 1039.86 3146.44 C 1045.31 3149.17 1051.46 3150.7 1057.95 3150.7 L 2942.04 3150.7 C 2964.44 3150.7 2982.66 3132.48 2982.66 3110.08 L 2982.66 3108.28 C 2982.66 3085.89 2964.44 3067.67 2942.04 3067.67 L 2162.59 3067.67 C 2166.89 3066.09 2170.76 3064.59 2174.21 3063.18 L 2533.05 3063.18 C 2548.88 3063.18 2563.87 3059.57 2577.26 3053.12 L 2942.93 3053.12 C 2972.91 3053.12 2997.21 3078.22 2997.21 3109.18 C 2997.21 3140.15 2972.91 3165.24 2942.93 3165.24 Z " fill="rgb(55,26,69)"/><path d=" M 2974.78 3087.45 C 2969.96 3085.19 2964.64 3083.89 2959.01 3083.89 L 2110.37 3083.89 C 2129.33 3078.83 2144.64 3074.03 2156.85 3069.73 L 2942.93 3069.73 C 2956.22 3069.73 2967.93 3076.79 2974.78 3087.45 Z " fill="rgb(183,103,118)"/><path d=" M 2533.05 3063.18 L 2174.21 3063.18 C 2175.01 3062.86 2175.78 3062.54 2176.54 3062.22 L 2429.02 3062.22 C 2444.62 3062.22 2459.47 3058.98 2472.83 3053.12 L 2577.26 3053.12 C 2563.87 3059.57 2548.88 3063.18 2533.05 3063.18 Z " fill="rgb(55,26,69)"/><path d=" M 2429.02 3062.22 L 2176.54 3062.22 C 2186.11 3058.23 2192.24 3055.08 2195.71 3053.12 L 2472.83 3053.12 C 2459.47 3058.98 2444.62 3062.22 2429.02 3062.22 Z " fill="rgb(55,26,69)"/><path d=" M 1665.11 2660.31 L 1609.15 2660.31 C 1589.07 2660.31 1572.79 2644.03 1572.79 2623.95 L 1572.79 2439.2 C 1572.79 2419.12 1589.07 2402.84 1609.15 2402.84 L 1665.11 2402.84 C 1685.19 2402.84 1701.47 2419.12 1701.47 2439.2 L 1701.47 2623.95 C 1701.47 2644.03 1685.19 2660.31 1665.11 2660.31 Z " fill="rgb(87,183,255)"/><path d=" M 2069.95 2712.68 C 2070.13 2712.61 2070.3 2712.54 2070.47 2712.46 C 2075.75 2710.26 2080.67 2716.01 2077.67 2720.89 C 2069.08 2734.9 2056.05 2746.38 2039.51 2752.99 C 2002.13 2767.92 1958.74 2751.94 1940.07 2716.28 C 1918.52 2675.15 1936.6 2625.09 1978.43 2606.79 C 1994.25 2599.88 2011.1 2598.53 2026.78 2601.91 C 2031.95 2603.03 2032.7 2610.09 2027.85 2612.2 L 2027.69 2612.27 C 1998.82 2624.9 1986.42 2659.52 2001.48 2687.86 C 2014.45 2712.24 2044.37 2723.06 2069.95 2712.68 Z " fill="rgb(55,26,69)"/><path d=" M 2833.14 1249.21 L 2833.14 1249.2 C 2833.14 1249.21 2833.14 1249.21 2833.14 1249.21 Z  M 2833.12 1248.9 C 2833.12 1248.88 2833.11 1248.87 2833.11 1248.86 C 2833.11 1248.87 2833.12 1248.88 2833.12 1248.9 Z  M 2833.1 1248.57 C 2833.09 1248.55 2833.09 1248.53 2833.09 1248.51 C 2833.09 1248.54 2833.09 1248.55 2833.1 1248.57 Z  M 2833.08 1248.25 C 2833.07 1248.22 2833.07 1248.19 2833.07 1248.15 C 2833.07 1248.19 2833.07 1248.22 2833.08 1248.25 Z  M 2833.06 1247.92 C 2833.05 1247.88 2833.05 1247.84 2833.05 1247.81 C 2833.05 1247.85 2833.05 1247.88 2833.06 1247.92 Z  M 2833.04 1247.58 C 2833.03 1247.54 2833.03 1247.5 2833.03 1247.46 C 2833.03 1247.5 2833.03 1247.54 2833.04 1247.58 Z  M 2833.02 1247.24 C 2833.01 1247.2 2833.01 1247.14 2833.01 1247.1 C 2833.01 1247.15 2833.01 1247.19 2833.02 1247.24 Z  M 2833 1246.9 C 2832.99 1246.85 2832.99 1246.79 2832.99 1246.73 C 2832.99 1246.79 2832.99 1246.85 2833 1246.9 Z  M 2832.98 1246.56 C 2832.97 1246.5 2832.97 1246.43 2832.97 1246.37 C 2832.97 1246.43 2832.97 1246.5 2832.98 1246.56 Z  M 2832.96 1246.22 C 2832.96 1246.14 2832.95 1246.07 2832.95 1246 C 2832.95 1246.07 2832.96 1246.14 2832.96 1246.22 Z  M 2832.94 1245.87 C 2832.94 1245.77 2832.93 1245.67 2832.93 1245.57 C 2832.93 1245.67 2832.94 1245.77 2832.94 1245.87 Z  M 2832.92 1245.52 C 2832.91 1245.28 2832.9 1245.05 2832.89 1244.81 C 2832.9 1245.05 2832.91 1245.29 2832.92 1245.52 Z  M 2832.89 1244.76 C 2832.88 1244.67 2832.88 1244.56 2832.87 1244.46 C 2832.88 1244.56 2832.88 1244.67 2832.89 1244.76 Z  M 2832.87 1244.39 C 2832.86 1244.3 2832.86 1244.2 2832.86 1244.1 C 2832.86 1244.2 2832.86 1244.29 2832.87 1244.39 Z  M 2832.85 1244.04 C 2832.85 1243.94 2832.84 1243.84 2832.84 1243.75 C 2832.84 1243.85 2832.85 1243.94 2832.85 1244.04 Z  M 2832.84 1243.68 C 2832.83 1243.59 2832.83 1243.49 2832.83 1243.4 C 2832.83 1243.49 2832.83 1243.59 2832.84 1243.68 Z  M 2832.82 1243.32 C 2832.82 1243.22 2832.82 1243.13 2832.81 1243.04 C 2832.82 1243.14 2832.82 1243.22 2832.82 1243.32 Z  M 2832.81 1242.97 C 2832.8 1242.87 2832.8 1242.77 2832.8 1242.68 C 2832.8 1242.77 2832.8 1242.87 2832.81 1242.97 Z  M 2832.79 1242.62 C 2832.79 1242.52 2832.79 1242.41 2832.78 1242.31 C 2832.79 1242.42 2832.79 1242.51 2832.79 1242.62 Z  M 2832.78 1242.27 C 2832.78 1242.16 2832.77 1242.06 2832.77 1241.95 C 2832.77 1242.06 2832.78 1242.17 2832.78 1242.27 Z  M 2832.77 1241.91 C 2832.76 1241.79 2832.76 1241.69 2832.76 1241.57 C 2832.76 1241.69 2832.76 1241.79 2832.77 1241.91 Z  M 2832.76 1241.56 C 2832.73 1240.72 2832.7 1239.88 2832.68 1239.04 C 2832.7 1239.88 2832.73 1240.72 2832.76 1241.56 Z  M 2832.68 1239.02 C 2832.68 1238.91 2832.68 1238.79 2832.67 1238.68 C 2832.68 1238.79 2832.68 1238.91 2832.68 1239.02 Z  M 2832.67 1238.65 C 2832.67 1238.54 2832.67 1238.44 2832.67 1238.33 C 2832.67 1238.44 2832.67 1238.54 2832.67 1238.65 Z  M 2832.67 1238.27 C 2832.66 1238.17 2832.66 1238.07 2832.66 1237.97 C 2832.66 1238.07 2832.66 1238.17 2832.67 1238.27 Z  M 2832.66 1237.91 C 2832.66 1237.82 2832.66 1237.72 2832.65 1237.63 C 2832.66 1237.72 2832.66 1237.82 2832.66 1237.91 Z  M 2832.65 1237.54 C 2832.65 1237.45 2832.65 1237.36 2832.65 1237.26 C 2832.65 1237.36 2832.65 1237.45 2832.65 1237.54 Z  M 2832.65 1237.19 C 2832.64 1237.09 2832.64 1237 2832.64 1236.91 C 2832.64 1237 2832.64 1237.1 2832.65 1237.19 Z  M 2832.64 1236.83 C 2832.64 1236.74 2832.64 1236.64 2832.64 1236.55 C 2832.64 1236.64 2832.64 1236.74 2832.64 1236.83 Z  M 2832.64 1236.47 C 2832.63 1236.38 2832.63 1236.29 2832.63 1236.19 C 2832.63 1236.28 2832.63 1236.38 2832.64 1236.47 Z  M 2832.63 1236.12 C 2832.63 1236.02 2832.63 1235.92 2832.63 1235.82 C 2832.63 1235.92 2832.63 1236.01 2832.63 1236.12 Z  M 2832.63 1235.76 C 2832.63 1235.65 2832.62 1235.54 2832.62 1235.44 C 2832.62 1235.54 2832.63 1235.65 2832.63 1235.76 Z  M 2832.62 1235.4 C 2832.62 1235.28 2832.62 1235.17 2832.62 1235.05 C 2832.61 1234.4 2832.61 1233.75 2832.61 1233.1 C 2832.61 1233.75 2832.61 1234.4 2832.62 1235.04 C 2832.62 1235.17 2832.62 1235.28 2832.62 1235.4 Z " fill="rgb(155,141,162)"/><path d=" M 1030.82 3187.12 C 1012.74 3187.12 994.659 3186.97 976.578 3186.58 C 927.842 3185.63 879.109 3183.78 830.375 3176.07 C 827.63 3175.64 825.758 3173.06 826.193 3170.31 C 826.209 3170.21 826.229 3170.1 826.252 3170 L 1022.35 3170 C 1032.78 3176.22 1044.96 3179.79 1057.95 3179.79 L 2942.04 3179.79 C 2955.04 3179.79 2967.22 3176.22 2977.64 3170 L 3171.06 3170 C 3171.9 3170.12 3172.74 3170.24 3173.57 3170.37 C 3173.66 3170.96 3173.64 3171.57 3173.51 3172.19 C 3173.07 3174.19 3171.5 3175.65 3169.63 3176.07 C 3125.05 3185.82 3080.47 3187.03 3035.89 3187.03 C 3031.74 3187.03 3027.58 3187.02 3023.42 3187.01 L 2986.87 3186.39 L 2950.32 3186.03 L 2877.22 3186.01 L 2584.81 3186.01 L 2000 3186.01 L 1415.19 3186.01 L 1268.98 3186.01 C 1260.12 3185.99 1251.25 3185.99 1242.39 3185.99 C 1202.51 3185.99 1162.65 3186.13 1122.78 3186.5 C 1099.66 3186.74 1076.53 3187.07 1053.41 3187.07 C 1052.16 3187.07 1050.92 3187.07 1049.68 3187.07 C 1043.39 3187.11 1037.11 3187.12 1030.82 3187.12 Z " fill="rgb(55,26,69)"/><path d=" M 2942.04 3179.79 L 1057.95 3179.79 C 1044.96 3179.79 1032.78 3176.22 1022.35 3170 L 2977.64 3170 C 2967.22 3176.22 2955.04 3179.79 2942.04 3179.79 Z " fill="rgb(55,26,69)"/></svg>