<?xml version="1.0" encoding="UTF-8" standalone="no"?><!-- Generator: Gravit.io --><svg xmlns="http://www.w3.org/2000/svg" xmlns:xlink="http://www.w3.org/1999/xlink" style="isolation:isolate" viewBox="0 0 4000 4000" width="4000pt" height="4000pt"><path d=" M 0 0 L 0 4000 L 4000 4000 L 4000 0 L 0 0 Z " fill="none"/><g><g opacity="0"><path d=" M 4000 4000 L 0 4000 L 0 0 L 4000 0 L 4000 4000 Z " fill="rgb(255,255,255)"/></g></g><path d=" M 1933.75 3440 C 1300.69 3440 787.5 3367.25 787.5 3277.5 C 787.5 3237.57 889.121 3201 1057.67 3172.7 C 1063.3 3186.55 1068.74 3199.19 1073.72 3210.35 L 1073.72 3210.35 C 1084.59 3234.73 1105.57 3252.5 1130.43 3259.69 C 1139.02 3276.12 1144.71 3277.98 1149.91 3279.67 C 1167.38 3285.36 1192.21 3287.26 1217.61 3287.26 C 1267.22 3287.26 1318.97 3280 1322.13 3279.55 C 1326.16 3279 1727.83 3224.99 1954.82 3224.99 C 2181.81 3224.99 2583.47 3279 2587.38 3279.54 C 2590.63 3279.99 2642.42 3287.26 2692.05 3287.26 C 2717.44 3287.26 2742.27 3285.36 2759.73 3279.67 C 2764.92 3277.98 2770.61 3276.12 2779.21 3259.69 C 2804.06 3252.5 2825.04 3234.73 2835.91 3210.35 L 2835.91 3210.35 C 2840.04 3201.09 2844.49 3190.81 2849.1 3179.67 C 2994.04 3206.89 3080 3240.77 3080 3277.5 C 3080 3367.25 2566.81 3440 1933.75 3440 Z " fill="rgb(121,145,197)"/><path d=" M 2239.57 3021.02 L 1681.16 3021.02 C 1527.72 3021.02 1402.17 2895.48 1402.17 2742.04 L 1402.17 2132.87 C 1402.17 1979.43 1527.72 1853.89 1681.16 1853.89 L 2239.57 1853.89 C 2393.01 1853.89 2518.55 1979.43 2518.55 2132.87 L 2518.55 2742.04 C 2518.55 2895.48 2393.01 3021.02 2239.57 3021.02 Z " fill="rgb(255,255,255)"/><path d=" M 1681.16 1871.21 C 1536.88 1871.21 1419.49 1988.59 1419.49 2132.87 L 1419.49 2742.04 C 1419.49 2886.32 1536.88 3003.7 1681.16 3003.7 L 2239.57 3003.7 C 2383.85 3003.7 2501.23 2886.32 2501.23 2742.04 L 2501.23 2132.87 C 2501.23 1988.59 2383.85 1871.21 2239.57 1871.21 L 1681.16 1871.21 Z  M 2239.57 3038.34 L 1681.16 3038.34 C 1517.77 3038.34 1384.85 2905.42 1384.85 2742.04 L 1384.85 2132.87 C 1384.85 1969.49 1517.77 1836.57 1681.16 1836.57 L 2239.57 1836.57 C 2402.95 1836.57 2535.87 1969.49 2535.87 2132.87 L 2535.87 2742.04 C 2535.87 2905.42 2402.95 3038.34 2239.57 3038.34 Z " fill="rgb(55,26,69)"/><path d=" M 2472.4 3080.57 L 1449.29 3080.57 C 1449.29 3080.57 1420.54 2918.41 1433.57 2683.46 C 1445.09 2475.96 1489.21 2211.61 1614.53 1952.15 C 1629.03 1922.05 1644.62 1892.05 1661.42 1862.21 C 1684.5 1821.16 1709.79 1780.37 1737.46 1740.19 L 2302.32 1740.19 C 2372.16 1879.27 2419.01 2024.37 2449.71 2165.62 C 2554.16 2645.48 2472.4 3080.57 2472.4 3080.57 Z " fill="rgb(255,255,255)"/><path d=" M 1854.25 2889.05 C 1849.29 2887.26 1844.38 2885.34 1839.52 2883.29 C 1835.71 2881.73 1831.99 2880.04 1828.3 2878.35 C 1802.5 2866.19 1778.38 2850.38 1756.6 2831.33 C 1752.18 2827.43 1747.59 2823.49 1742.83 2819.55 C 1742.22 2819.03 1741.62 2818.56 1741.01 2818.04 C 1734.99 2813.1 1728.76 2808.12 1722.17 2803.18 C 1715.78 2798.36 1709.15 2793.58 1702.3 2788.89 C 1702.35 2788.81 1702.4 2788.73 1702.45 2788.66 C 1703.3 2787.32 1703.94 2785.91 1704.39 2784.46 C 1716.51 2785.08 1728.65 2785.38 1740.79 2785.38 C 1747.56 2785.38 1754.34 2785.29 1761.11 2785.11 L 1758.83 2797.9 C 1754.31 2815.48 1760.9 2843.53 1854.25 2889.05 Z  M 1691.36 2353.07 C 1680.05 2351.02 1669.34 2347.96 1660.46 2343.34 C 1655.7 2340.77 1651.53 2337.78 1648.07 2334.36 C 1647.27 2333.46 1646.38 2332.63 1645.6 2331.72 L 1643.43 2328.86 C 1642.15 2326.73 1640.97 2325.13 1639.58 2321.95 C 1633.84 2310.82 1629.66 2298.7 1625.99 2286.43 C 1622.73 2273.97 1619.92 2261.33 1618.09 2248.37 C 1614.08 2222.57 1611.98 2196.13 1610.56 2169.41 C 1609.72 2156.05 1609.07 2142.6 1608.07 2129.02 C 1607.98 2127.82 1607.9 2126.61 1607.81 2125.41 C 1618.26 2198.96 1637.32 2266.54 1699.13 2304.74 C 1694.83 2314.96 1692.38 2325.97 1691.95 2337.35 L 1691.36 2353.07 Z " fill="rgb(185,175,190)"/><path d=" M 2472.41 3080.55 L 2472.46 3080.55 L 2472.41 3080.55 Z  M 2472.41 3097.88 L 1449.27 3097.88 C 1440.87 3097.88 1433.69 3091.85 1432.22 3083.58 C 1431.89 3081.72 1399.59 2895.12 1419.31 2636.72 C 1437.52 2398.1 1505.02 2047.16 1723.18 1730.37 C 1728.61 1722.49 1739.4 1720.5 1747.27 1725.93 C 1755.15 1731.35 1757.14 1742.13 1751.71 1750.01 C 1538.16 2060.11 1471.91 2404.23 1453.93 2638.32 C 1437.52 2851.98 1457.21 3015.4 1464.11 3063.24 L 2457.79 3063.24 C 2465.46 3015.74 2488.67 2852.83 2485.18 2639.13 C 2481.37 2405.17 2443.86 2060.65 2286.85 1747.96 C 2282.56 1739.41 2286.01 1729 2294.56 1724.71 C 2303.11 1720.42 2313.52 1723.87 2317.81 1732.42 C 2477.89 2051.23 2516.03 2401.62 2519.83 2639.41 C 2523.95 2896.84 2489.78 3081.91 2489.43 3083.75 C 2487.89 3091.94 2480.74 3097.88 2472.41 3097.88 Z " fill="rgb(55,26,69)"/><path d=" M 1756.97 2527.56 C 1692.1 2551.02 1593.42 2541.88 1526.31 2531.18 C 1486.05 2524.77 1459.07 2486.38 1466.55 2446.31 C 1473.37 2409.75 1506.74 2384.23 1543.8 2387.37 C 1606.75 2392.7 1701.28 2397.65 1761.69 2386.62 L 1756.97 2527.56 Z " fill="rgb(255,255,255)"/><path d=" M 1537.6 2404.43 C 1511.28 2404.43 1488.5 2423.09 1483.58 2449.49 C 1480.82 2464.27 1484.07 2479.16 1492.73 2491.45 C 1501.36 2503.68 1514.25 2511.72 1529.03 2514.08 C 1624.94 2529.37 1703.8 2528.38 1751.08 2511.26 C 1764.81 2506.3 1769.64 2484.53 1771.07 2475.4 C 1776.19 2442.88 1767.47 2412.06 1761.49 2404.24 C 1700.22 2414.68 1608.81 2410.25 1542.34 2404.63 C 1540.75 2404.5 1539.17 2404.43 1537.6 2404.43 Z  M 1651.91 2559.57 C 1607.24 2559.57 1561.51 2554.34 1523.58 2548.29 C 1499.49 2544.45 1478.48 2531.35 1464.42 2511.41 C 1450.33 2491.43 1445.04 2467.18 1449.52 2443.14 C 1458.01 2397.6 1499.23 2366.25 1545.26 2370.11 C 1637.97 2377.96 1713.72 2377.76 1758.58 2369.57 C 1767.68 2367.94 1790.11 2368.68 1801.7 2411.58 C 1813.43 2455.01 1809.2 2527.08 1762.86 2543.84 C 1730.97 2555.38 1691.86 2559.57 1651.91 2559.57 Z " fill="rgb(55,26,69)"/><path d=" M 2245.72 2545.96 C 2308.65 2574.24 2407.74 2572.55 2475.47 2566.93 C 2516.09 2563.56 2545.87 2527.31 2541.44 2486.8 C 2537.38 2449.82 2506.03 2421.87 2468.83 2422.21 C 2405.66 2422.79 2311.03 2420.61 2251.62 2405.07 L 2245.72 2545.96 Z " fill="rgb(255,255,255)"/><path d=" M 2252.82 2530.16 C 2298.69 2550.78 2377.26 2557.72 2474.03 2549.67 C 2488.95 2548.43 2502.41 2541.39 2511.94 2529.83 C 2521.49 2518.24 2525.85 2503.63 2524.22 2488.68 C 2521.14 2460.58 2497.67 2439.53 2469.52 2439.53 C 2469.34 2439.53 2469.17 2439.53 2468.99 2439.53 C 2402.31 2440.14 2310.8 2437.68 2250.5 2422.66 C 2243.94 2430 2232.93 2460.08 2235.58 2492.89 C 2236.33 2502.1 2239.51 2524.18 2252.82 2530.16 L 2252.82 2530.16 Z  M 2398.9 2587.59 C 2342.43 2587.59 2282.69 2581.56 2238.63 2561.76 L 2238.62 2561.76 C 2193.68 2541.57 2194.88 2469.38 2209.85 2426.95 C 2224.63 2385.04 2247.05 2385.97 2256.01 2388.31 C 2312.54 2403.1 2402.87 2405.48 2468.68 2404.89 C 2468.96 2404.89 2469.24 2404.89 2469.53 2404.89 C 2515.4 2404.89 2553.64 2439.15 2558.65 2484.91 C 2561.31 2509.22 2554.22 2533 2538.67 2551.86 C 2523.14 2570.69 2501.21 2582.17 2476.9 2584.19 C 2453.14 2586.16 2426.41 2587.59 2398.9 2587.59 Z " fill="rgb(55,26,69)"/><path d=" M 2277.48 2359.41 L 2268.97 2585.23 C 2267.4 2627.13 2231.81 2660.13 2189.91 2658.56 L 1774.02 2642.89 C 1732.18 2641.32 1699.17 2605.73 1700.75 2563.83 L 1709.26 2338.01 C 1710.83 2296.11 1746.42 2263.16 1788.26 2264.73 L 2204.15 2280.4 C 2228.82 2281.33 2250.39 2294.04 2263.67 2312.87 C 2272.93 2326.02 2278.13 2342.17 2277.48 2359.41 Z " fill="rgb(255,255,255)"/><path d=" M 2190.59 2641.24 C 2206.2 2641.85 2221.21 2636.24 2232.78 2625.5 C 2244.36 2614.77 2251.06 2600.24 2251.65 2584.61 L 2260.16 2358.76 C 2260.75 2343.12 2255.16 2328.13 2244.42 2316.55 C 2233.68 2304.98 2219.16 2298.28 2203.53 2297.69 L 1787.63 2282.03 C 1755.18 2280.79 1727.78 2306.21 1726.56 2338.65 L 1718.06 2564.51 C 1717.47 2580.14 1723.06 2595.13 1733.79 2606.71 C 1744.53 2618.29 1759.05 2624.99 1774.69 2625.57 L 2190.59 2641.24 Z  M 2192.86 2675.92 C 2191.67 2675.92 2190.48 2675.9 2189.28 2675.85 L 1773.38 2660.19 C 1748.5 2659.25 1725.42 2648.62 1708.39 2630.26 C 1691.37 2611.9 1682.51 2588.09 1683.44 2563.21 L 1691.95 2337.35 C 1692.89 2312.47 1703.51 2289.39 1721.87 2272.36 C 1740.23 2255.34 1764.05 2246.53 1788.93 2247.41 L 2204.83 2263.07 C 2229.71 2264.01 2252.79 2274.64 2269.82 2293 C 2286.85 2311.36 2295.71 2335.18 2294.77 2360.05 L 2286.27 2585.91 C 2285.33 2610.79 2274.7 2633.87 2256.34 2650.9 C 2238.86 2667.11 2216.44 2675.92 2192.86 2675.92 Z " fill="rgb(55,26,69)"/><path d=" M 2202.12 2469.65 C 2200.75 2505.93 2170.24 2534.22 2133.97 2532.86 C 2097.7 2531.49 2069.4 2500.98 2070.77 2464.71 C 2072.13 2428.44 2102.65 2400.14 2138.92 2401.51 C 2175.19 2402.87 2203.49 2433.38 2202.12 2469.65 Z " fill="rgb(34,167,240)"/><path d=" M 2202.12 2469.65 L 2202.17 2469.65 L 2202.12 2469.65 Z  M 2136.39 2414.45 C 2123.06 2414.45 2110.42 2419.4 2100.59 2428.52 C 2090.26 2438.1 2084.28 2451.12 2083.75 2465.2 C 2083.22 2479.27 2088.2 2492.71 2097.78 2503.04 C 2107.36 2513.36 2120.38 2519.35 2134.46 2519.87 C 2148.55 2520.46 2161.97 2515.42 2172.3 2505.84 C 2182.63 2496.27 2188.61 2483.24 2189.14 2469.16 C 2190.23 2440.11 2167.48 2415.58 2138.43 2414.49 C 2137.75 2414.46 2137.07 2414.45 2136.39 2414.45 Z  M 2136.52 2545.89 C 2135.51 2545.89 2134.5 2545.87 2133.48 2545.84 C 2112.47 2545.04 2093.03 2536.12 2078.73 2520.7 C 2064.43 2505.29 2057 2485.22 2057.79 2464.22 C 2058.58 2443.21 2067.5 2423.76 2082.92 2409.47 C 2098.34 2395.17 2118.41 2387.85 2139.41 2388.52 C 2182.78 2390.16 2216.73 2426.77 2215.1 2470.14 C 2214.31 2491.15 2205.39 2510.6 2189.97 2524.9 C 2175.3 2538.5 2156.42 2545.89 2136.52 2545.89 Z " fill="rgb(55,26,69)"/><path d=" M 1943.22 2662.24 C 1943.05 2662.24 1942.89 2662.24 1942.72 2662.24 C 1935.55 2661.96 1929.96 2655.93 1930.23 2648.76 L 1936.05 2494.2 L 1860.26 2432.55 C 1857.09 2429.97 1855.32 2426.06 1855.47 2421.98 L 1861.29 2267.47 C 1861.57 2260.3 1867.64 2254.86 1874.76 2254.98 C 1881.93 2255.25 1887.53 2261.28 1887.26 2268.45 L 1881.68 2416.48 L 1957.47 2478.14 C 1960.64 2480.72 1962.41 2484.63 1962.25 2488.71 L 1956.19 2649.74 C 1955.93 2656.74 1950.17 2662.24 1943.22 2662.24 Z " fill="rgb(55,26,69)"/><path d=" M 2891.69 2758.11 C 2891.69 2758.11 2788.11 3252.21 2754.34 3263.21 C 2706.01 3278.93 2589.84 3262.39 2589.84 3262.39 C 2589.84 3262.39 2185.62 3207.66 1954.83 3207.66 C 1723.99 3207.66 1319.82 3262.39 1319.82 3262.39 C 1319.82 3262.39 1203.6 3278.93 1155.28 3263.21 C 1121.5 3252.21 1017.93 2758.11 1017.93 2758.11 C 1079.55 2668.99 1221.92 2678.43 1289.77 2835.66 C 1316.1 2794 1354.77 2756.42 1411.45 2735.94 C 1419.59 2732.99 1427.73 2730.48 1435.78 2728.4 C 1547.93 2699.09 1650.12 2748.88 1722.17 2803.18 C 1728.76 2808.12 1734.99 2813.1 1741.01 2818.04 C 1741.62 2818.56 1742.22 2819.03 1742.83 2819.55 C 1747.59 2823.49 1752.18 2827.43 1756.6 2831.33 C 1778.38 2850.38 1802.5 2866.19 1828.3 2878.35 C 1831.99 2880.04 1835.71 2881.73 1839.52 2883.29 C 1875.72 2898.58 1914.86 2906.67 1954.83 2906.67 C 2027.88 2906.67 2098.15 2879.57 2153.02 2831.33 C 2213.86 2777.85 2307.99 2716.15 2415.55 2719.87 C 2442.4 2720.78 2470.02 2725.76 2498.21 2735.94 C 2554.89 2756.42 2593.52 2794 2619.89 2835.66 C 2687.74 2678.43 2830.07 2668.99 2891.69 2758.11 Z " fill="rgb(255,255,255)"/><path d=" M 1216.7 3252.66 C 1213.98 3252.66 1211.28 3252.63 1208.62 3252.58 C 1215.99 3246.89 1222.07 3239.33 1227.02 3230.19 C 1227.02 3230.18 1227.03 3230.17 1227.04 3230.15 C 1227.05 3230.13 1227.08 3230.08 1227.1 3230.05 C 1227.11 3230.03 1227.13 3229.99 1227.14 3229.97 C 1227.15 3229.95 1227.16 3229.93 1227.17 3229.91 C 1227.19 3229.87 1227.21 3229.83 1227.24 3229.79 C 1227.24 3229.78 1227.25 3229.77 1227.25 3229.76 C 1237.88 3209.88 1243.16 3182.66 1244.48 3151.22 L 1246.37 3151.04 C 1255.9 3150.19 1262.92 3141.76 1262.06 3132.24 C 1261.25 3123.23 1253.74 3116.47 1244.83 3116.47 C 1244.7 3116.47 1244.58 3116.47 1244.45 3116.48 C 1243.86 3101.29 1242.59 3085.49 1240.74 3069.34 C 1282.11 3067.62 1319.79 3062.25 1319.79 3062.25 C 1319.79 3062.25 1419 3035.38 1547.18 3008.26 C 1557.72 3074.98 1553.1 3148.31 1518.02 3221.17 C 1404.31 3233.54 1319.27 3244.98 1317.37 3245.24 C 1297.62 3248.05 1254.77 3252.66 1216.7 3252.66 Z  M 2692.96 3252.65 C 2654.88 3252.65 2611.97 3248.04 2592.15 3245.22 C 2590.33 3244.98 2507.99 3233.9 2397.03 3221.77 C 2361.86 3149.08 2357.06 3075.94 2367.42 3009.32 C 2493.16 3036.07 2589.81 3062.25 2589.81 3062.25 C 2589.81 3062.25 2627.51 3067.62 2668.9 3069.34 C 2667.05 3085.49 2665.77 3101.28 2665.18 3116.47 C 2665.05 3116.47 2664.92 3116.47 2664.79 3116.47 C 2655.92 3116.47 2648.38 3123.24 2647.57 3132.24 C 2646.71 3141.76 2653.74 3150.19 2663.27 3151.04 L 2665.15 3151.22 C 2666.5 3183.48 2672.03 3211.29 2683.23 3231.3 C 2683.23 3231.31 2683.23 3231.31 2683.24 3231.32 C 2683.26 3231.37 2683.28 3231.41 2683.31 3231.45 C 2683.32 3231.47 2683.33 3231.48 2683.34 3231.5 C 2683.36 3231.53 2683.38 3231.57 2683.4 3231.6 C 2683.41 3231.62 2683.43 3231.66 2683.44 3231.68 C 2683.45 3231.71 2683.47 3231.73 2683.48 3231.75 C 2683.5 3231.79 2683.52 3231.83 2683.54 3231.86 C 2683.55 3231.88 2683.56 3231.89 2683.57 3231.9 C 2683.59 3231.95 2683.62 3232 2683.65 3232.05 C 2683.65 3232.05 2683.65 3232.05 2683.65 3232.06 C 2688.4 3240.36 2694.15 3247.28 2701.01 3252.58 C 2698.36 3252.63 2695.67 3252.65 2692.96 3252.65 Z  M 2366.99 3218.53 C 2235.19 3204.57 2072.14 3190.35 1954.82 3190.35 C 1839.09 3190.35 1678.87 3204.18 1548.02 3217.96 C 1576.64 3151.42 1584.97 3078.73 1573 3002.88 C 1698.43 2977.14 1845.92 2952.77 1954.8 2952.77 C 1977.91 2952.77 2002.75 2953.87 2028.75 2955.84 C 2038.75 2958.91 2048.88 2961.91 2059.12 2964.84 C 2128.37 2984.65 2195.04 2999.02 2251.88 3006.37 C 2281.4 3010.22 2305.09 3011.85 2324.14 3011.85 C 2330.03 3011.85 2335.47 3011.7 2340.51 3011.4 C 2330.42 3084.38 2339.26 3154.33 2366.99 3218.53 Z " fill="rgb(185,175,190)"/><path d=" M 1217.61 3287.26 C 1192.21 3287.26 1167.38 3285.36 1149.91 3279.67 C 1136.41 3275.27 1119.61 3269.8 1057.12 3010.6 C 1027.3 2886.87 1001.27 2762.91 1001.01 2761.67 C 1000.03 2757.02 1001.01 2752.17 1003.71 2748.27 C 1034.75 2703.36 1085.13 2679.72 1138.57 2685 C 1200.52 2691.14 1255.51 2733.18 1292.57 2801.71 C 1322.71 2763.44 1360.6 2735.9 1405.52 2719.65 C 1497.6 2686.32 1598.45 2701.92 1697.14 2764.75 C 1705.21 2769.88 1707.58 2780.59 1702.45 2788.66 C 1697.31 2796.72 1686.61 2799.1 1678.53 2793.96 C 1587.97 2736.31 1500.08 2722.27 1417.3 2752.22 C 1370.64 2769.11 1332.66 2800.29 1304.41 2844.92 C 1300.98 2850.34 1294.85 2853.48 1288.42 2852.92 C 1282.02 2852.42 1276.42 2848.41 1273.87 2842.52 C 1242.55 2769.96 1191.99 2725.11 1135.15 2719.48 C 1096.87 2715.68 1060.47 2731.54 1036.5 2762.13 C 1082.75 2981.8 1141.76 3218.66 1163.4 3247.56 C 1201.43 3258.18 1286.91 3249.58 1317.37 3245.24 C 1321.54 3244.67 1725.49 3190.35 1954.82 3190.35 C 2184.14 3190.35 2588.09 3244.67 2592.15 3245.22 C 2622.73 3249.58 2708.21 3258.18 2746.24 3247.56 C 2767.88 3218.66 2826.88 2981.8 2873.13 2762.13 C 2849.17 2731.54 2812.8 2715.69 2774.48 2719.48 C 2717.64 2725.11 2667.08 2769.95 2635.77 2842.52 C 2633.22 2848.41 2627.62 2852.42 2621.22 2852.92 C 2614.81 2853.47 2608.66 2850.35 2605.23 2844.92 C 2576.98 2800.29 2538.99 2769.1 2492.33 2752.23 C 2408.84 2722.01 2320.19 2736.53 2228.84 2795.42 C 2220.8 2800.61 2210.08 2798.28 2204.9 2790.24 C 2199.72 2782.2 2202.03 2771.48 2210.07 2766.29 C 2309.57 2702.17 2411.24 2686.03 2504.12 2719.65 C 2549.03 2735.9 2586.92 2763.44 2617.07 2801.71 C 2654.13 2733.18 2709.11 2691.14 2771.07 2685 C 2824.47 2679.71 2874.88 2703.37 2905.92 2748.27 C 2908.62 2752.17 2909.6 2757.02 2908.63 2761.67 C 2908.37 2762.91 2882.34 2886.87 2852.51 3010.6 C 2790.02 3269.8 2773.22 3275.27 2759.73 3279.67 C 2708.15 3296.48 2592.29 3280.23 2587.38 3279.54 C 2583.47 3279 2181.81 3224.99 1954.82 3224.99 C 1727.83 3224.99 1326.16 3279 1322.13 3279.55 C 1318.97 3280 1267.22 3287.26 1217.61 3287.26 Z " fill="rgb(55,26,69)"/><path d=" M 2724.34 3263.2 L 2754.36 3263.2 C 2789.61 3263.2 2821.56 3242.53 2835.91 3210.35 C 2880.85 3109.71 2962.78 2888.61 2886.04 2753.68 C 2883.8 2749.74 2881.42 2745.96 2878.88 2742.32 C 2878.88 2742.32 2805.21 2675.31 2752.28 2770.11 C 2702.83 2858.67 2599.06 3237.34 2724.34 3263.2 Z " fill="rgb(175,175,178)"/><path d=" M 2725.17 2833.22 C 2734.83 2806.38 2744.25 2784.46 2752.28 2770.11 C 2744.28 2784.44 2734.85 2806.37 2725.21 2833.16 C 2725.2 2833.18 2725.18 2833.2 2725.17 2833.22 Z " fill="rgb(255,255,255)"/><path d=" M 2905.87 2801.1 C 2904.83 2797.51 2903.7 2793.94 2902.5 2790.43 C 2902.5 2790.43 2902.5 2790.43 2902.5 2790.42 C 2903.7 2793.94 2904.83 2797.5 2905.87 2801.1 Z " fill="rgb(223,237,254)"/><path d=" M 2902.5 2790.43 C 2898.11 2777.62 2892.67 2765.33 2886.04 2753.68 C 2892.67 2765.32 2898.11 2777.62 2902.5 2790.42 C 2902.5 2790.43 2902.5 2790.43 2902.5 2790.43 Z " fill="rgb(195,186,199)"/><path d=" M 2915.61 2852 C 2909.93 2837.58 2902.66 2823.8 2893.57 2810.81 C 2890.85 2806.87 2887.89 2803.09 2884.79 2799.45 C 2884.79 2799.45 2853.71 2776.46 2814.88 2776.46 C 2787.42 2776.46 2756.07 2787.97 2729.11 2827.24 C 2727.83 2829.08 2726.52 2831.07 2725.21 2833.16 C 2734.85 2806.37 2744.28 2784.44 2752.28 2770.11 L 2752.28 2770.11 C 2774.21 2730.83 2799.69 2719.33 2822.03 2719.33 C 2853.61 2719.33 2878.88 2742.32 2878.88 2742.32 C 2881.42 2745.96 2883.8 2749.74 2886.04 2753.68 L 2886.04 2753.68 C 2892.67 2765.33 2898.11 2777.62 2902.5 2790.43 C 2903.7 2793.94 2904.83 2797.51 2905.87 2801.1 C 2910.63 2817.41 2913.79 2834.47 2915.61 2852 Z " fill="rgb(231,231,232)"/><path d=" M 2915.21 2865.54 C 2914.26 2865.54 2913.3 2865.46 2912.34 2865.3 L 2728.19 2834.56 C 2718.75 2832.98 2712.38 2824.06 2713.95 2814.62 C 2715.53 2805.19 2724.49 2798.81 2733.89 2800.39 L 2918.04 2831.13 C 2927.48 2832.71 2933.85 2841.64 2932.27 2851.07 C 2930.86 2859.54 2923.52 2865.54 2915.21 2865.54 Z " fill="rgb(55,26,69)"/><path d=" M 2914.04 2965.03 C 2913.27 2965.03 2912.49 2964.98 2911.71 2964.88 L 2696.29 2935.92 C 2686.81 2934.64 2680.15 2925.92 2681.43 2916.44 C 2682.7 2906.96 2691.4 2900.34 2700.9 2901.58 L 2916.32 2930.54 C 2925.8 2931.82 2932.46 2940.54 2931.18 2950.02 C 2930.01 2958.72 2922.58 2965.03 2914.04 2965.03 Z " fill="rgb(55,26,69)"/><path d=" M 2895.03 3062.49 C 2894.33 3062.49 2893.62 3062.45 2892.91 3062.36 L 2674.23 3035.59 C 2664.73 3034.43 2657.98 3025.79 2659.14 3016.29 C 2660.3 3006.8 2668.94 3000.04 2678.44 3001.21 L 2897.12 3027.97 C 2906.61 3029.14 2913.37 3037.77 2912.2 3047.27 C 2911.13 3056.05 2903.66 3062.49 2895.03 3062.49 Z " fill="rgb(55,26,69)"/><path d=" M 2860.35 3168.75 C 2859.83 3168.75 2859.3 3168.74 2858.77 3168.69 L 2663.27 3151.04 C 2653.74 3150.19 2646.71 3141.76 2647.57 3132.24 C 2648.43 3122.71 2656.84 3115.67 2666.38 3116.54 L 2861.89 3134.18 C 2871.41 3135.04 2878.44 3143.47 2877.58 3152.99 C 2876.77 3161.99 2869.21 3168.75 2860.35 3168.75 Z " fill="rgb(55,26,69)"/><path d=" M 2683.65 3232.06 C 2683.65 3232.05 2683.65 3232.05 2683.65 3232.05 L 2683.65 3232.06 Z  M 2683.57 3231.9 C 2683.56 3231.89 2683.55 3231.88 2683.54 3231.86 C 2683.55 3231.88 2683.56 3231.89 2683.57 3231.9 Z  M 2683.48 3231.75 C 2683.47 3231.73 2683.45 3231.71 2683.44 3231.68 C 2683.45 3231.71 2683.46 3231.73 2683.48 3231.75 Z  M 2683.4 3231.6 C 2683.38 3231.57 2683.36 3231.53 2683.34 3231.5 C 2683.36 3231.53 2683.38 3231.57 2683.4 3231.6 Z  M 2683.31 3231.45 C 2683.28 3231.41 2683.26 3231.37 2683.24 3231.32 C 2683.26 3231.37 2683.28 3231.4 2683.31 3231.45 Z  M 2683.23 3231.3 C 2672.03 3211.29 2666.5 3183.48 2665.15 3151.22 L 2665.16 3151.22 C 2666.51 3183.47 2672.04 3211.3 2683.23 3231.3 Z " fill="rgb(140,123,148)"/><path d=" M 2754.36 3263.2 L 2724.34 3263.2 L 2724.34 3263.2 C 2706.32 3259.48 2693.04 3248.46 2683.65 3232.06 L 2683.65 3232.05 C 2683.62 3232 2683.59 3231.95 2683.57 3231.9 C 2683.56 3231.89 2683.55 3231.88 2683.54 3231.86 C 2683.52 3231.83 2683.5 3231.79 2683.48 3231.75 C 2683.46 3231.73 2683.45 3231.71 2683.44 3231.68 C 2683.42 3231.66 2683.41 3231.63 2683.4 3231.6 C 2683.38 3231.57 2683.36 3231.53 2683.34 3231.5 C 2683.33 3231.48 2683.32 3231.47 2683.31 3231.45 C 2683.28 3231.4 2683.26 3231.37 2683.24 3231.32 C 2683.23 3231.32 2683.23 3231.3 2683.23 3231.3 C 2672.04 3211.3 2666.51 3183.47 2665.16 3151.22 L 2731.93 3157.24 C 2735.81 3158.57 2739.92 3159.62 2744.25 3160.37 L 2766.63 3160.37 L 2853.75 3168.23 C 2847.49 3183.83 2841.42 3197.99 2835.91 3210.35 L 2835.91 3210.35 C 2821.56 3242.53 2789.61 3263.2 2754.36 3263.2 Z  M 2866.45 3135.23 C 2865.02 3134.69 2863.49 3134.33 2861.89 3134.18 L 2855.95 3133.65 C 2863.47 3127.22 2869.88 3119.78 2874.87 3111.5 C 2872.09 3119.62 2869.28 3127.54 2866.45 3135.23 Z  M 2689.58 3118.64 L 2666.38 3116.54 C 2665.98 3116.51 2665.58 3116.48 2665.18 3116.47 C 2666.17 3091.01 2669.11 3063.8 2673.42 3036.15 C 2673.79 3068.45 2678.64 3096.97 2689.58 3118.64 Z " fill="rgb(133,123,140)"/><path d=" M 2853.75 3168.23 L 2766.63 3160.37 L 2780.03 3160.37 C 2809.11 3160.37 2836.3 3150.45 2855.95 3133.65 L 2861.89 3134.18 C 2863.49 3134.33 2865.02 3134.69 2866.45 3135.23 C 2862.2 3146.79 2857.93 3157.83 2853.75 3168.23 Z  M 2731.93 3157.24 L 2665.16 3151.22 L 2665.15 3151.22 C 2664.69 3140.11 2664.72 3128.49 2665.18 3116.47 C 2665.58 3116.48 2665.98 3116.51 2666.38 3116.54 L 2689.58 3118.64 C 2698.92 3137.14 2712.71 3150.65 2731.93 3157.24 Z " fill="rgb(55,26,69)"/><path d=" M 2726.26 3245.88 L 2754.36 3245.88 C 2782.76 3245.88 2808.56 3229.16 2820.09 3203.29 C 2860 3113.94 2944.83 2892.09 2870.98 2762.25 C 2869.39 2759.43 2867.69 2756.68 2865.92 2754.05 C 2860.4 2749.6 2838.2 2733.24 2814.5 2737.28 C 2796.89 2740.22 2781.05 2754.12 2767.4 2778.55 C 2725.17 2854.19 2652.09 3122.35 2695.41 3217.06 C 2702.77 3233.14 2712.87 3242.58 2726.26 3245.88 Z  M 2754.36 3280.52 L 2724.34 3280.52 C 2723.16 3280.52 2721.99 3280.4 2720.84 3280.16 C 2695.8 3275 2676.12 3258.15 2663.91 3231.46 C 2612.22 3118.45 2696.44 2834.59 2737.16 2761.67 C 2756.26 2727.45 2780.47 2707.72 2809.11 2703.05 C 2852.97 2695.92 2889.02 2728.13 2890.54 2729.51 C 2891.49 2730.38 2892.34 2731.35 2893.08 2732.41 C 2895.92 2736.47 2898.62 2740.76 2901.11 2745.14 C 2979.83 2883.56 2903.96 3100.44 2851.73 3217.41 C 2834.63 3255.74 2796.42 3280.52 2754.36 3280.52 Z " fill="rgb(55,26,69)"/><path d=" M 1185.3 3263.2 L 1155.27 3263.2 C 1120.03 3263.2 1088.07 3242.53 1073.72 3210.35 C 1028.78 3109.71 946.853 2888.61 1023.6 2753.68 C 1025.83 2749.74 1028.21 2745.96 1030.75 2742.32 C 1030.75 2742.32 1104.43 2675.31 1157.36 2770.11 C 1206.8 2858.67 1310.58 3237.34 1185.3 3263.2 Z " fill="rgb(175,175,178)"/><path d=" M 1184.46 2833.22 C 1184.45 2833.2 1184.44 2833.18 1184.43 2833.16 C 1174.78 2806.37 1165.36 2784.44 1157.36 2770.11 C 1165.38 2784.46 1174.81 2806.38 1184.46 2833.22 Z " fill="rgb(255,255,255)"/><path d=" M 1004.01 2800.25 C 1004.98 2796.94 1006.03 2793.66 1007.14 2790.42 L 1007.14 2790.43 C 1006.03 2793.67 1004.99 2796.94 1004.01 2800.25 Z " fill="rgb(223,237,254)"/><path d=" M 1007.14 2790.43 L 1007.14 2790.42 C 1011.52 2777.62 1016.96 2765.32 1023.6 2753.68 C 1016.97 2765.33 1011.53 2777.62 1007.14 2790.43 Z " fill="rgb(195,186,199)"/><path d=" M 994.027 2852 C 995.876 2834.17 999.114 2816.82 1004.01 2800.25 C 1004.99 2796.94 1006.03 2793.67 1007.14 2790.43 C 1011.53 2777.62 1016.97 2765.33 1023.6 2753.68 L 1023.6 2753.68 C 1025.83 2749.74 1028.21 2745.96 1030.75 2742.32 C 1030.75 2742.32 1056.03 2719.33 1087.6 2719.33 C 1109.94 2719.33 1135.43 2730.83 1157.36 2770.11 L 1157.36 2770.11 C 1165.36 2784.44 1174.78 2806.37 1184.43 2833.16 C 1183.11 2831.07 1181.8 2829.08 1180.53 2827.24 C 1153.57 2787.97 1122.22 2776.46 1094.75 2776.46 C 1055.92 2776.46 1024.85 2799.45 1024.85 2799.45 C 1021.74 2803.09 1018.79 2806.87 1016.06 2810.81 C 1006.98 2823.8 999.706 2837.58 994.027 2852 Z " fill="rgb(231,231,232)"/><path d=" M 994.423 2865.54 C 986.112 2865.54 978.775 2859.54 977.359 2851.07 C 975.785 2841.64 982.157 2832.71 991.593 2831.13 L 1175.74 2800.39 C 1185.17 2798.82 1194.1 2805.19 1195.68 2814.62 C 1197.25 2824.06 1190.88 2832.98 1181.45 2834.56 L 997.296 2865.3 C 996.332 2865.46 995.37 2865.54 994.423 2865.54 Z " fill="rgb(55,26,69)"/><path d=" M 995.597 2965.03 C 987.057 2965.03 979.623 2958.72 978.453 2950.02 C 977.179 2940.54 983.832 2931.82 993.312 2930.54 L 1208.73 2901.58 C 1218.2 2900.34 1226.93 2906.96 1228.21 2916.44 C 1229.48 2925.92 1222.83 2934.64 1213.35 2935.92 L 997.926 2964.88 C 997.145 2964.98 996.366 2965.03 995.597 2965.03 Z " fill="rgb(55,26,69)"/><path d=" M 1014.6 3062.49 C 1005.97 3062.49 998.505 3056.05 997.431 3047.27 C 996.268 3037.77 1003.02 3029.14 1012.52 3027.97 L 1231.2 3001.21 C 1240.67 3000.04 1249.33 3006.8 1250.49 3016.29 C 1251.66 3025.79 1244.9 3034.43 1235.41 3035.59 L 1016.73 3062.36 C 1016.02 3062.45 1015.3 3062.49 1014.6 3062.49 Z " fill="rgb(55,26,69)"/><path d=" M 1049.28 3168.75 C 1040.42 3168.75 1032.86 3161.99 1032.05 3152.99 C 1031.19 3143.47 1038.22 3135.04 1047.74 3134.18 L 1243.26 3116.54 C 1252.85 3115.69 1261.2 3122.71 1262.06 3132.24 C 1262.92 3141.76 1255.9 3150.19 1246.37 3151.04 L 1050.86 3168.69 C 1050.33 3168.74 1049.8 3168.75 1049.28 3168.75 Z " fill="rgb(55,26,69)"/><path d=" M 1227.02 3230.19 C 1227.03 3230.18 1227.03 3230.17 1227.04 3230.15 C 1227.03 3230.17 1227.02 3230.18 1227.02 3230.19 Z  M 1227.1 3230.05 C 1227.11 3230.02 1227.12 3230 1227.14 3229.97 C 1227.13 3229.99 1227.11 3230.03 1227.1 3230.05 Z  M 1227.17 3229.91 C 1227.19 3229.87 1227.21 3229.83 1227.24 3229.79 C 1227.21 3229.83 1227.19 3229.87 1227.17 3229.91 Z  M 1227.25 3229.76 C 1237.87 3209.88 1243.16 3182.65 1244.48 3151.22 L 1244.48 3151.22 C 1243.16 3182.66 1237.88 3209.88 1227.25 3229.76 Z " fill="rgb(140,123,148)"/><path d=" M 1185.3 3263.2 L 1155.27 3263.2 C 1120.03 3263.2 1088.07 3242.53 1073.72 3210.35 L 1073.72 3210.35 C 1068.22 3197.99 1062.15 3183.83 1055.88 3168.23 L 1143 3160.37 L 1165.38 3160.37 C 1169.72 3159.62 1173.82 3158.57 1177.7 3157.24 L 1244.48 3151.22 C 1243.16 3182.65 1237.87 3209.88 1227.25 3229.76 C 1227.25 3229.77 1227.24 3229.78 1227.24 3229.79 C 1227.21 3229.83 1227.19 3229.87 1227.17 3229.91 C 1227.16 3229.93 1227.15 3229.95 1227.14 3229.97 C 1227.12 3230 1227.11 3230.02 1227.1 3230.05 C 1227.08 3230.09 1227.06 3230.12 1227.04 3230.15 C 1227.03 3230.17 1227.03 3230.18 1227.02 3230.19 C 1217.58 3247.63 1203.99 3259.34 1185.3 3263.2 L 1185.3 3263.2 Z  M 1043.18 3135.23 C 1040.36 3127.54 1037.54 3119.62 1034.76 3111.5 C 1039.75 3119.78 1046.17 3127.22 1053.69 3133.65 L 1047.74 3134.18 C 1046.15 3134.33 1044.62 3134.69 1043.18 3135.23 Z  M 1220.05 3118.64 C 1230.99 3096.97 1235.84 3068.45 1236.22 3036.15 C 1240.53 3063.8 1243.46 3091.02 1244.45 3116.48 C 1244.05 3116.49 1243.66 3116.51 1243.26 3116.54 L 1220.05 3118.64 Z " fill="rgb(133,123,140)"/><path d=" M 1055.88 3168.23 C 1051.7 3157.83 1047.43 3146.79 1043.18 3135.23 C 1044.62 3134.69 1046.15 3134.33 1047.74 3134.18 L 1053.69 3133.65 C 1073.33 3150.45 1100.53 3160.37 1129.6 3160.37 L 1143 3160.37 L 1055.88 3168.23 Z  M 1177.7 3157.24 C 1196.93 3150.65 1210.71 3137.14 1220.05 3118.64 L 1243.26 3116.54 C 1243.66 3116.51 1244.05 3116.49 1244.45 3116.48 C 1244.91 3128.49 1244.94 3140.11 1244.48 3151.22 L 1244.48 3151.22 L 1177.7 3157.24 Z " fill="rgb(55,26,69)"/><path d=" M 1043.71 2754.06 C 1041.95 2756.68 1040.25 2759.42 1038.67 2762.22 C 964.801 2892.09 1049.63 3113.94 1089.54 3203.29 C 1101.08 3229.16 1126.88 3245.88 1155.27 3245.88 L 1183.38 3245.88 C 1196.76 3242.58 1206.86 3233.14 1214.22 3217.06 C 1257.54 3122.35 1184.46 2854.19 1142.23 2778.55 C 1128.59 2754.12 1112.74 2740.22 1095.14 2737.28 C 1071.49 2733.28 1049.32 2749.55 1043.71 2754.06 Z  M 1185.3 3280.52 L 1155.27 3280.52 C 1113.22 3280.52 1075 3255.74 1057.9 3217.4 C 1005.67 3100.44 929.804 2883.56 1008.54 2745.12 C 1011.02 2740.75 1013.72 2736.46 1016.55 2732.41 C 1017.29 2731.35 1018.14 2730.38 1019.1 2729.51 C 1020.61 2728.13 1056.67 2695.9 1100.53 2703.05 C 1129.16 2707.72 1153.37 2727.45 1172.48 2761.67 C 1213.19 2834.59 1297.42 3118.45 1245.72 3231.46 C 1233.51 3258.15 1213.83 3275 1188.8 3280.16 C 1187.65 3280.4 1186.47 3280.52 1185.3 3280.52 Z " fill="rgb(55,26,69)"/><path d=" M 1524.16 3250.86 C 1522.13 3250.86 1520.07 3250.39 1518.15 3249.38 C 1511.79 3246.05 1509.33 3238.2 1512.66 3231.85 C 1638.82 2990.79 1422.66 2740.97 1420.46 2738.48 C 1415.72 2733.09 1416.24 2724.89 1421.62 2720.14 C 1426.99 2715.4 1435.2 2715.91 1439.94 2721.28 C 1442.31 2723.96 1498.3 2787.98 1538.64 2884.33 C 1592.5 3012.95 1591.47 3137.29 1535.68 3243.9 C 1533.36 3248.33 1528.84 3250.86 1524.16 3250.86 Z " fill="rgb(55,26,69)"/><path d=" M 2390.61 3250.86 C 2385.93 3250.86 2381.41 3248.33 2379.09 3243.9 C 2323.3 3137.29 2322.27 3012.95 2376.13 2884.33 C 2416.47 2787.98 2472.46 2723.96 2474.82 2721.28 C 2479.56 2715.91 2487.76 2715.4 2493.15 2720.14 C 2498.53 2724.89 2499.05 2733.09 2494.31 2738.48 C 2492.1 2740.97 2275.95 2990.79 2402.11 3231.85 C 2405.44 3238.2 2402.98 3246.05 2396.62 3249.38 C 2394.7 3250.39 2392.64 3250.86 2390.61 3250.86 Z " fill="rgb(55,26,69)"/><path d=" M 1625 1985 C 1625 1985 1559.45 2207.44 1625.58 2332.81 C 1657.52 2393.36 1778.12 2366.58 1856.67 2379.37 C 2147.14 2426.65 2070.82 2696.25 1901.33 2747.17 C 1683.18 2812.72 1194.35 2742.67 1330.35 2288.83 C 1411.53 2017.91 1757.84 1790.26 1757.84 1790.26 L 1625 1985 Z " fill="rgb(255,255,255)"/><path d=" M 1761.02 1795.07 C 1721.04 1832.95 1679.71 1868.29 1639.05 1904.28 C 1618.79 1922.35 1598.84 1940.75 1579.15 1959.39 C 1559.37 1977.93 1540.17 1997.04 1521.49 2016.62 C 1502.71 2036.13 1485.2 2056.73 1468.04 2077.56 C 1451.1 2098.58 1435.3 2120.4 1420.32 2142.71 C 1390.97 2187.61 1365.69 2235.25 1349.64 2285.68 C 1348.63 2288.83 1347.47 2291.91 1346.58 2295.12 L 1343.98 2304.8 L 1338.77 2324.15 L 1337.47 2328.98 L 1336.48 2333.87 L 1334.48 2343.65 L 1330.52 2363.2 L 1327.83 2382.87 L 1326.47 2392.71 C 1326.07 2395.99 1325.99 2399.28 1325.73 2402.57 L 1324.42 2422.28 C 1324.23 2428.85 1324.48 2435.39 1324.48 2441.95 L 1324.56 2451.78 L 1325.4 2461.52 C 1326.06 2468 1326.37 2474.54 1327.29 2480.97 L 1330.62 2500.15 C 1331.06 2503.38 1331.92 2506.5 1332.77 2509.61 L 1335.25 2518.99 C 1342.21 2543.84 1352.36 2567.72 1366.11 2589.49 C 1393.95 2632.85 1434.58 2667.6 1481.13 2691.97 C 1504.09 2704.77 1528.96 2714.2 1554.02 2722.78 L 1573.14 2728.42 C 1576.34 2729.33 1579.48 2730.39 1582.72 2731.17 L 1592.45 2733.44 L 1611.91 2737.99 L 1631.62 2741.51 C 1684.22 2750.84 1738.23 2752.63 1791.5 2748.98 C 1818.07 2746.62 1844.6 2743.27 1870.37 2737.31 C 1883.06 2734.13 1896.23 2730.97 1907.73 2726.61 C 1910.73 2725.71 1913.55 2724.27 1916.44 2723.05 C 1919.3 2721.75 1922.22 2720.58 1925.04 2719.2 L 1933.36 2714.72 L 1937.52 2712.5 L 1941.51 2709.93 C 1962.88 2696.58 1982.01 2679.26 1997 2658.85 C 2004.8 2648.85 2011.01 2637.79 2016.77 2626.61 C 2019.2 2620.82 2022.16 2615.22 2024.02 2609.23 C 2025.04 2606.27 2026.2 2603.35 2027.11 2600.37 L 2029.53 2591.34 C 2030.46 2588.35 2030.94 2585.29 2031.49 2582.23 C 2031.98 2579.18 2032.73 2576.14 2033.04 2573.07 C 2033.55 2566.93 2034.44 2560.79 2034.19 2554.67 C 2034.48 2548.51 2033.73 2542.45 2033.21 2536.38 C 2033.02 2533.33 2032.15 2530.4 2031.67 2527.4 C 2031.08 2524.43 2030.69 2521.4 2029.67 2518.54 L 2027.09 2509.84 C 2026.14 2506.97 2024.81 2504.24 2023.7 2501.43 C 2021.7 2495.7 2018.27 2490.63 2015.55 2485.23 C 2008.95 2475.06 2001.64 2465.2 1992.49 2456.84 C 1974.69 2439.69 1952.56 2426.53 1928.69 2416.87 C 1904.8 2407.18 1879.17 2400.83 1853.22 2396.36 C 1828.18 2392.49 1801.06 2392.6 1773.68 2392.41 C 1746.18 2392.18 1718.08 2392.36 1688.81 2387.79 C 1674.19 2385.33 1659.1 2381.62 1644.32 2373.99 C 1636.99 2370.07 1629.83 2365.09 1623.55 2358.83 C 1622.02 2357.21 1620.46 2355.63 1619.02 2353.93 L 1614.96 2348.59 C 1612.57 2344.94 1610.03 2340.72 1608.65 2337.63 L 1603.76 2327.58 C 1602.2 2324.21 1600.95 2320.75 1599.5 2317.35 C 1596.48 2310.57 1594.44 2303.57 1591.96 2296.66 C 1587.76 2282.72 1583.96 2268.65 1581.62 2254.46 C 1576.44 2226.1 1575.42 2197.51 1576.9 2169.35 C 1577.71 2155.25 1579.39 2141.26 1582.04 2127.43 C 1584.63 2113.6 1588.03 2099.93 1592.86 2086.56 C 1593.97 2083.47 1597.38 2081.88 1600.46 2082.99 C 1602.6 2083.76 1604.03 2085.64 1604.32 2087.75 L 1604.33 2087.84 C 1606.27 2101.77 1607.08 2115.44 1608.07 2129.02 C 1609.07 2142.6 1609.72 2156.05 1610.56 2169.41 C 1611.98 2196.13 1614.08 2222.57 1618.09 2248.37 C 1619.92 2261.33 1622.73 2273.97 1625.99 2286.43 C 1629.66 2298.7 1633.84 2310.82 1639.58 2321.95 C 1640.97 2325.13 1642.15 2326.73 1643.43 2328.86 L 1645.6 2331.72 C 1646.38 2332.63 1647.27 2333.46 1648.07 2334.36 C 1651.53 2337.78 1655.7 2340.77 1660.46 2343.34 C 1670.14 2348.37 1681.97 2351.55 1694.39 2353.6 C 1719.44 2357.56 1746.5 2357.59 1773.85 2357.77 C 1801.31 2358.02 1829.35 2357.69 1858.67 2362.15 C 1886.81 2366.98 1914.77 2373.85 1941.79 2384.8 C 1968.72 2395.72 1994.75 2410.93 2016.55 2431.92 C 2027.65 2442.16 2036.97 2454.43 2045.19 2467.3 C 2048.75 2474.09 2052.92 2480.59 2055.56 2487.83 C 2056.99 2491.4 2058.61 2494.89 2059.83 2498.53 L 2063.13 2509.56 C 2064.36 2513.21 2064.93 2517 2065.67 2520.76 C 2066.3 2524.53 2067.29 2528.26 2067.58 2532.07 C 2068.3 2539.67 2069.13 2547.27 2068.83 2554.86 C 2069.07 2562.49 2068.08 2569.99 2067.4 2577.52 C 2067 2581.27 2066.14 2584.94 2065.53 2588.66 C 2064.86 2592.36 2064.23 2596.08 2063.16 2599.67 L 2060.23 2610.52 C 2059.14 2614.09 2057.79 2617.57 2056.57 2621.1 C 2054.29 2628.24 2050.89 2634.87 2047.95 2641.71 C 2041.2 2654.92 2033.83 2667.87 2024.75 2679.57 C 2007.19 2703.42 1984.95 2723.64 1959.78 2739.36 L 1955.09 2742.35 L 1950.19 2745 L 1940.37 2750.27 C 1937.03 2751.9 1933.58 2753.32 1930.18 2754.84 C 1926.76 2756.3 1923.42 2757.95 1919.85 2759.06 C 1912.82 2761.49 1905.7 2764.13 1898.86 2765.73 C 1891.94 2767.5 1885.06 2769.59 1878.1 2771.08 C 1850.33 2777.5 1822.25 2781.04 1794.16 2783.52 C 1737.94 2787.38 1681.36 2785.48 1625.77 2775.65 L 1604.94 2771.92 L 1584.3 2767.11 L 1573.98 2764.68 C 1570.54 2763.86 1567.17 2762.73 1563.77 2761.77 L 1543.39 2755.75 C 1516.55 2746.59 1489.86 2736.44 1464.78 2722.51 C 1414.21 2696.03 1368.45 2657.36 1336.86 2608.04 C 1321.23 2583.34 1309.68 2556.2 1301.87 2528.24 L 1299.09 2517.7 C 1298.14 2514.19 1297.19 2510.68 1296.68 2507.1 L 1292.97 2485.7 C 1291.95 2478.55 1291.57 2471.35 1290.86 2464.18 C 1290.56 2460.59 1290.18 2457 1289.95 2453.41 L 1289.85 2442.65 C 1289.84 2435.48 1289.59 2428.29 1289.8 2421.14 L 1291.2 2399.76 C 1291.48 2396.21 1291.59 2392.62 1292.02 2389.09 L 1293.46 2378.53 L 1296.37 2357.41 C 1297.67 2350.44 1299.17 2343.53 1300.56 2336.59 L 1302.7 2326.19 L 1303.77 2320.99 L 1305.13 2315.88 L 1310.62 2295.46 L 1313.37 2285.25 C 1314.32 2281.85 1315.57 2278.49 1316.65 2275.11 C 1333.99 2220.75 1360.76 2170.53 1391.42 2123.62 C 1422.59 2076.97 1457.7 2033.39 1495.26 1992.26 C 1532.68 1950.98 1572.69 1912.23 1615.64 1876.97 C 1637.07 1859.33 1659.03 1842.29 1682.16 1826.91 C 1705.33 1811.55 1728.98 1797.02 1754.68 1785.42 C 1757.62 1784.09 1761.09 1785.4 1762.42 1788.34 C 1763.46 1790.67 1762.87 1793.32 1761.12 1794.99 L 1761.02 1795.07 Z " fill="rgb(55,26,69)"/><path d=" M 2737.06 1870.23 C 2729.72 1867.46 2726.01 1859.27 2728.78 1851.93 L 2873.16 1469.16 C 2875.93 1461.82 2884.13 1458.11 2891.47 1460.88 C 2968.46 1489.92 3007.33 1575.88 2978.29 1652.88 L 2929.06 1783.4 C 2900.01 1860.4 2814.05 1899.27 2737.06 1870.23 Z " fill="rgb(255,255,255)"/><path d=" M 2738.16 1867.32 C 2774.62 1881.07 2814.25 1879.8 2849.76 1863.74 C 2885.26 1847.69 2912.39 1818.76 2926.15 1782.3 L 2975.38 1651.78 C 2989.13 1615.32 2987.86 1575.68 2971.81 1540.18 C 2955.75 1504.67 2926.83 1477.54 2890.37 1463.79 C 2884.66 1461.64 2878.23 1464.53 2876.07 1470.25 L 2731.69 1853.03 C 2730.65 1855.8 2730.75 1858.81 2731.97 1861.51 C 2733.19 1864.21 2735.39 1866.27 2738.16 1867.32 Z  M 2789.71 1883.01 C 2771.59 1883.01 2753.43 1879.73 2735.96 1873.14 C 2727.03 1869.77 2722.5 1859.76 2725.87 1850.83 L 2870.25 1468.06 C 2873.62 1459.13 2883.63 1454.59 2892.56 1457.97 C 2930.58 1472.31 2960.74 1500.59 2977.48 1537.61 C 2994.22 1574.63 2995.54 1615.96 2981.2 1653.97 L 2931.97 1784.5 C 2917.63 1822.52 2889.34 1852.68 2852.32 1869.42 C 2832.31 1878.47 2811.04 1883.01 2789.71 1883.01 Z " fill="rgb(55,26,69)"/><path d=" M 2789.69 1862.56 C 2778.1 1862.56 2766.5 1861.01 2755.13 1857.91 C 2770.14 1837.2 2783.92 1815.56 2796.4 1793.06 C 2800.4 1786.33 2804.31 1779.51 2808.12 1772.6 C 2818.04 1774.64 2828 1775.63 2837.87 1775.63 C 2868.82 1775.63 2898.85 1765.91 2923.77 1748.33 L 2912.85 1777.29 C 2900.44 1810.2 2875.95 1836.31 2843.9 1850.8 C 2826.57 1858.63 2808.16 1862.56 2789.69 1862.56 Z " fill="rgb(185,175,190)"/><path d=" M 2746.1 1855.09 C 2778.19 1866.35 2812.8 1864.85 2843.9 1850.8 C 2875.95 1836.31 2900.44 1810.2 2912.85 1777.29 L 2962.08 1646.76 C 2974.5 1613.85 2973.35 1578.08 2958.86 1546.03 C 2944.8 1514.93 2919.8 1490.96 2888.26 1478.22 L 2746.1 1855.09 Z  M 2789.72 1897.23 C 2769.9 1897.23 2750.04 1893.64 2730.95 1886.44 C 2714.68 1880.3 2706.44 1862.08 2712.58 1845.82 L 2856.96 1463.04 C 2863.09 1446.79 2881.31 1438.55 2897.57 1444.67 C 2939.15 1460.35 2972.12 1491.28 2990.42 1531.76 C 3008.73 1572.24 3010.17 1617.42 2994.5 1658.99 L 2945.26 1789.52 C 2929.58 1831.08 2898.66 1864.06 2858.18 1882.36 C 2836.3 1892.26 2813.04 1897.23 2789.72 1897.23 Z " fill="rgb(55,26,69)"/><path d=" M 1628.03 984.311 C 1635.37 987.08 1639.08 995.274 1636.31 1002.61 L 1491.93 1385.38 C 1489.16 1392.72 1480.96 1396.43 1473.62 1393.66 C 1396.63 1364.62 1357.76 1278.66 1386.8 1201.66 L 1436.03 1071.14 C 1465.08 994.141 1551.04 955.27 1628.03 984.311 Z " fill="rgb(255,255,255)"/><path d=" M 1575.38 977.759 C 1554.93 977.759 1534.53 982.114 1515.33 990.796 C 1479.83 1006.85 1452.7 1035.78 1438.94 1072.24 L 1389.71 1202.76 C 1361.32 1278.02 1399.46 1362.35 1474.72 1390.75 C 1480.44 1392.9 1486.85 1390.01 1489.01 1384.28 L 1633.4 1001.51 C 1634.44 998.741 1634.34 995.727 1633.12 993.032 C 1631.9 990.332 1629.71 988.266 1626.93 987.222 C 1610.18 980.903 1592.76 977.759 1575.38 977.759 Z  M 1478.64 1397.69 C 1476.58 1397.69 1474.51 1397.32 1472.53 1396.57 C 1394.05 1366.97 1354.29 1279.04 1383.89 1200.56 L 1433.12 1070.04 C 1447.46 1032.02 1475.75 1001.86 1512.77 985.122 C 1549.79 968.378 1591.11 967.056 1629.13 981.401 C 1638.06 984.771 1642.59 994.78 1639.22 1003.71 L 1494.84 1386.48 C 1493.2 1390.81 1489.98 1394.24 1485.77 1396.14 C 1483.49 1397.17 1481.07 1397.69 1478.64 1397.69 Z " fill="rgb(55,26,69)"/><path d=" M 1470.17 1373.41 C 1408.63 1344.52 1378.61 1272.44 1403.01 1207.77 L 1413.54 1179.86 C 1424.68 1216.93 1450.14 1249.34 1485.97 1268.46 C 1478.01 1303.32 1472.78 1338.37 1470.17 1373.41 Z " fill="rgb(185,175,190)"/><path d=" M 1575.39 991.972 C 1556.92 991.972 1538.51 995.908 1521.19 1003.74 C 1489.14 1018.23 1464.65 1044.34 1452.24 1077.25 L 1403.01 1207.77 C 1377.75 1274.74 1410.83 1349.64 1476.83 1376.32 L 1618.99 999.449 C 1604.77 994.458 1590.06 991.972 1575.39 991.972 Z  M 1478.65 1411.91 C 1474.89 1411.91 1471.13 1411.23 1467.51 1409.86 C 1381.7 1377.5 1338.23 1281.35 1370.59 1195.55 L 1419.83 1065.02 C 1435.51 1023.46 1466.43 990.483 1506.91 972.178 C 1547.39 953.877 1592.58 952.432 1634.14 968.105 C 1650.41 974.243 1658.65 992.461 1652.51 1008.73 L 1508.13 1391.49 C 1505.16 1399.37 1499.3 1405.62 1491.63 1409.09 C 1487.48 1410.97 1483.07 1411.91 1478.65 1411.91 Z " fill="rgb(55,26,69)"/><path d=" M 1874.61 2148.44 C 1873.44 2147.91 1872.26 2147.37 1871.09 2146.83 C 1778.06 2103.97 1698.06 2044.34 1633.05 1973.2 L 1667.62 1922.52 C 1727.7 1985.15 1800.23 2037.76 1883.69 2076.21 C 1884.86 2076.75 1886.03 2077.28 1887.2 2077.81 L 1874.61 2148.44 Z " fill="rgb(185,175,190)"/><path d=" M 1633.05 1973.2 C 1626.73 1966.29 1620.56 1959.27 1614.53 1952.15 C 1610.44 1947.32 1606.43 1942.45 1602.49 1937.53 C 1614.57 1926.34 1626.75 1915.25 1639.05 1904.28 C 1641.23 1902.35 1643.42 1900.42 1645.6 1898.49 C 1652.74 1906.65 1660.09 1914.67 1667.62 1922.52 L 1633.05 1973.2 Z " fill="rgb(185,175,190)"/><path d=" M 1602.49 1937.53 C 1598.58 1932.66 1594.74 1927.75 1590.97 1922.79 C 1605.77 1909.28 1620.22 1896.63 1634.03 1884.92 C 1637.83 1889.49 1641.69 1894.01 1645.6 1898.49 C 1643.42 1900.42 1641.23 1902.35 1639.05 1904.28 C 1626.75 1915.25 1614.57 1926.34 1602.49 1937.53 Z " fill="rgb(55,26,69)"/><path d=" M 2815.8 1718.98 C 2654.71 2068.68 2240.64 2221.57 1890.94 2060.48 C 1541.25 1899.39 1388.35 1485.31 1549.45 1135.62 C 1710.54 785.923 2124.61 633.031 2474.31 794.123 C 2824 955.216 2976.89 1369.29 2815.8 1718.98 Z " fill="rgb(255,255,255)"/><path d=" M 2183.67 733.311 C 1920.97 733.311 1669.2 883.086 1552.27 1136.92 C 1392.16 1484.5 1544.67 1897.53 1892.24 2057.65 C 2239.82 2217.76 2652.86 2065.25 2812.97 1717.68 L 2815.8 1718.98 L 2812.97 1717.68 C 2973.09 1370.1 2820.58 957.065 2473.01 796.951 C 2379.26 753.764 2280.69 733.311 2183.67 733.311 Z  M 2181.57 2127.51 C 2083.65 2127.51 1984.25 2106.88 1889.64 2063.31 C 1538.95 1901.75 1385.07 1485.01 1546.62 1134.31 C 1708.17 783.618 2124.92 629.754 2475.61 791.297 C 2826.3 952.846 2980.18 1369.59 2818.63 1720.29 C 2700.66 1976.37 2446.6 2127.51 2181.57 2127.51 Z " fill="rgb(55,26,69)"/><path d=" M 1893.48 2042.56 C 1748.74 1974.55 1638.98 1861.56 1573.21 1727.92 C 1646.09 1822.57 1759.18 1927.53 1902.08 1994.35 L 1893.48 2042.56 Z " fill="rgb(185,175,190)"/><path d=" M 2815.8 1718.98 L 2815.85 1718.98 L 2815.8 1718.98 Z  M 2182.99 747.127 C 2103.55 747.127 2023.9 761.233 1947.15 789.573 C 1776.81 852.47 1641.16 977.939 1565.18 1142.86 C 1408.34 1483.32 1557.73 1887.91 1898.19 2044.75 C 2238.65 2201.58 2643.23 2052.2 2800.07 1711.74 C 2956.91 1371.27 2807.52 966.689 2467.06 809.856 C 2376.44 768.111 2279.87 747.127 2182.99 747.127 Z  M 2181.54 2141.72 C 2081.64 2141.72 1980.22 2120.68 1883.69 2076.21 C 1525.89 1911.38 1368.89 1486.18 1533.72 1128.37 C 1613.56 955.039 1756.13 823.178 1935.15 757.078 C 2114.18 690.971 2308.22 698.547 2481.55 778.392 C 2839.36 943.222 2996.36 1368.42 2831.53 1726.23 C 2711.17 1987.51 2451.96 2141.72 2181.54 2141.72 Z " fill="rgb(55,26,69)"/><path d=" M 2806.29 1734.31 C 2751.09 1859.06 2659.34 1956.97 2547.68 2022.15 C 2463.97 2071.02 2194.89 2102.3 1930.28 1988.05 C 1684.93 1882.11 1520.23 1653.43 1500.09 1558.61 C 1473.24 1432.14 1483.99 1298.4 1539.19 1173.65 C 1685.26 843.52 2029.45 832.166 2379.37 986.995 C 2729.28 1141.83 2952.36 1404.18 2806.29 1734.31 Z " fill="rgb(55,26,69)"/><path d=" M 2806.29 1734.31 L 2806.34 1734.31 L 2806.29 1734.31 Z  M 1976.81 908.052 C 1813.17 908.052 1647.99 970.551 1555.03 1180.65 C 1503.09 1298.03 1489.95 1427.48 1517.04 1555.02 C 1536.27 1645.59 1697.51 1868.68 1937.14 1972.14 C 2202.7 2086.81 2464.17 2050.84 2538.95 2007.19 C 2651.54 1941.47 2738.51 1844.68 2790.45 1727.3 C 2856.97 1576.95 2848.16 1434.63 2764.26 1304.29 C 2688.85 1187.15 2553.33 1082.91 2372.36 1002.84 C 2282.47 963.061 2130.31 908.052 1976.81 908.052 Z  M 2307.55 2083.97 C 2195.87 2083.97 2060.85 2063.29 1923.41 2003.95 C 1669.44 1894.29 1504.27 1661.64 1483.15 1562.21 C 1454.54 1427.51 1468.45 1290.72 1523.35 1166.64 C 1594.89 1004.96 1714.88 908.98 1879.98 881.381 C 2024.09 857.298 2199.19 888.335 2386.38 971.157 C 2573.56 1053.98 2714.3 1162.69 2793.39 1285.54 C 2883.99 1426.29 2893.67 1579.64 2822.12 1741.32 C 2767.22 1865.41 2675.34 1967.69 2556.42 2037.1 C 2514.4 2061.64 2423.57 2083.97 2307.55 2083.97 Z " fill="rgb(55,26,69)"/><path d=" M 2590.63 1712.15 C 2576.28 1712.15 2562.68 1708.4 2550.99 1700.47 C 2510.12 1672.76 2507.99 1604.58 2546.23 1548.19 C 2573.53 1507.93 2614.01 1484.56 2649.81 1484.56 C 2664.16 1484.56 2677.77 1488.32 2689.46 1496.25 C 2722.48 1518.64 2730.21 1567.47 2711.77 1615.14 C 2694.77 1640.61 2676.41 1664.89 2656.82 1687.91 C 2635.68 1703.59 2612.3 1712.15 2590.63 1712.15 Z " fill="rgb(175,163,181)"/><path d=" M 1893.78 1951.73 C 1834.91 1921.69 1781.45 1884.81 1734.47 1845.34 C 1782.42 1862.57 1830.17 1876.24 1876.98 1886.84 L 1875.61 1889.6 L 1872.69 1895.5 C 1872.23 1896.44 1871.86 1897.41 1871.57 1898.41 C 1866.89 1914.78 1874.2 1932.46 1893.78 1951.73 Z  M 2727.62 1836.82 C 2719.82 1816.22 2691.66 1794.02 2641.41 1768.47 C 2628.43 1761.87 2614.33 1755.25 2599.3 1748.68 C 2619.46 1729.52 2638.66 1709.25 2656.82 1687.91 C 2670.61 1677.68 2683.44 1664.42 2694.22 1648.53 C 2701.55 1637.71 2707.4 1626.46 2711.77 1615.14 C 2736.6 1577.96 2758.53 1538.23 2777.17 1496.08 C 2791.5 1463.76 2802.98 1431.92 2811.86 1400.63 C 2848.04 1503.74 2840.93 1613.21 2790.45 1727.3 C 2773.24 1766.2 2752.18 1802.83 2727.62 1836.82 Z " fill="rgb(42,26,59)"/><path d=" M 1905.22 1976.71 C 1822.17 1937.21 1749.1 1884.03 1688.61 1827.8 C 1703.89 1834.01 1719.2 1839.86 1734.47 1845.34 C 1781.45 1884.81 1834.91 1921.69 1893.78 1951.73 C 1897.83 1955.71 1902.4 1959.76 1907.51 1963.89 L 1905.22 1976.71 Z  M 2708.48 1888.89 L 2709.47 1878.52 C 2721.92 1872.46 2726.55 1864.41 2728.67 1857.03 C 2730.55 1850.43 2730.23 1843.72 2727.62 1836.82 C 2752.18 1802.83 2773.24 1766.2 2790.45 1727.3 C 2840.93 1613.21 2848.04 1503.74 2811.86 1400.63 C 2814.6 1390.97 2817.09 1381.36 2819.34 1371.81 C 2864.09 1479.99 2864.94 1601.69 2806.29 1734.29 C 2780.88 1791.71 2747.74 1843.42 2708.48 1888.89 Z " fill="rgb(42,26,59)"/><path d=" M 2656.82 1687.91 C 2676.41 1664.89 2694.77 1640.61 2711.77 1615.14 C 2707.4 1626.46 2701.55 1637.71 2694.22 1648.53 C 2683.44 1664.42 2670.61 1677.68 2656.82 1687.91 Z " fill="rgb(120,115,132)"/><path d=" M 2879.91 1438.02 C 2873.78 1438.02 2867.84 1434.76 2864.69 1429 C 2864.5 1428.64 2864.26 1428.17 2864.1 1427.81 C 2863.55 1426.62 2863.14 1425.37 2862.88 1424.08 C 2822.09 1225.84 2652.7 1047.55 2398.16 934.917 C 2142.2 821.668 1895.29 819.111 1720.76 927.905 C 1720.2 928.252 1719.62 928.569 1719.03 928.853 C 1710.63 932.915 1700.47 929.59 1696.13 921.27 C 1691.8 912.974 1694.85 902.783 1702.93 898.203 C 1887.33 783.555 2145.8 785.381 2412.18 903.237 C 2676.68 1020.28 2853.19 1207.18 2896.61 1416.14 C 2898.68 1423.71 2895.38 1431.99 2888.19 1435.9 C 2885.56 1437.34 2882.71 1438.02 2879.91 1438.02 Z " fill="rgb(55,26,69)"/><path d=" M 1594.57 1433 C 1594.57 1433 1636.43 1062.08 1869.37 1009.96 C 1912.76 1000.26 1956.84 996.251 1999.74 996.251 C 2187.11 996.251 2352.16 1072.63 2341.53 1083.69 C 2341.53 1083.69 2293.56 1075.01 2222.79 1075.01 C 2113.73 1075.01 1950.49 1095.6 1824.85 1200.27 C 1665.1 1333.37 1594.57 1433 1594.57 1433 Z " fill="rgb(195,186,199)"/><path d=" M 1926.39 1956.61 L 1909.99 2048.65 L 1775.75 2801.68 C 1770.29 2820.72 1811.84 2850.97 1880.71 2882.35 C 1930.09 2904.92 1993.55 2928.05 2063.91 2948.2 C 2134.23 2968.33 2200.33 2982.23 2254.1 2989.21 C 2329.21 2999 2380.39 2995.28 2385.82 2976.22 L 2676.87 2249.53 L 2704.96 2179.36 L 1926.39 1956.61 Z " fill="rgb(35,181,116)"/><path d=" M 2704.95 2179.35 L 2676.94 2249.54 L 2674.47 2255.69 L 2644.59 2330.21 L 2632.42 2360.56 L 2591.64 2462.32 L 2589.3 2468.29 L 2530.28 2615.52 L 2529.63 2617.21 L 2499.4 2692.59 L 2487.93 2721.17 L 2472.43 2759.93 L 2427.44 2872.29 L 2401.85 2936.2 L 2385.78 2976.21 C 2380.37 2995.27 2329.19 2999.03 2254.06 2989.2 C 2200.33 2982.19 2134.25 2968.33 2063.93 2948.16 C 2036.61 2940.36 2010.24 2932.09 1985.47 2923.56 C 1952.73 2912.34 1922.59 2900.7 1895.96 2889.14 C 1892.02 2887.4 1888.21 2885.71 1884.45 2884.03 C 1883.19 2883.46 1881.98 2882.9 1880.77 2882.34 C 1834.22 2861.16 1800.18 2840.51 1784.64 2823.45 C 1779.14 2817.39 1775.98 2811.84 1775.41 2806.82 C 1775.15 2805 1775.28 2803.27 1775.76 2801.62 L 1787.93 2733.43 L 1800.57 2662.46 L 1841.93 2430.54 L 1855.26 2355.71 L 1871.98 2261.88 L 1909.99 2048.67 L 1912.03 2037.28 L 1915.67 2016.93 L 1926.4 1956.61 L 2704.95 2179.35 Z " fill="rgb(22,183,103)"/><path d=" M 2026.2 2380.74 L 2001.27 2376.69 C 1982.63 2373.67 1969.97 2356.09 1973 2337.45 L 1994.95 2202.3 C 1997.68 2185.52 2012.2 2173.58 2028.67 2173.58 C 2030.49 2173.58 2032.34 2173.73 2034.2 2174.03 L 2070.9 2179.99 C 2089.55 2183.02 2102.21 2200.59 2099.18 2219.24 L 2089.15 2281 C 2075.02 2292.18 2063.55 2305.83 2053.77 2321.11 C 2049.35 2328.02 2045.28 2335.19 2041.6 2342.57 C 2041.41 2342.87 2041.29 2343.18 2041.16 2343.49 C 2035.23 2355.41 2030.25 2367.89 2026.2 2380.74 Z " fill="rgb(115,212,164)"/><path d=" M 1889.85 2386.1 C 1882.9 2384.39 1875.71 2382.82 1868.26 2381.41 L 1931.3 2027.82 C 1937.88 2032.33 1944.57 2036.82 1951.32 2041.27 L 1949.99 2048.67 L 1911.97 2261.88 L 1895.26 2355.71 L 1889.85 2386.1 Z " fill="rgb(162,226,194)"/><path d=" M 2323.91 2977.12 C 2307.15 2977.12 2285.04 2975.77 2256.34 2972.02 C 2201.17 2964.88 2136.27 2950.88 2068.65 2931.54 C 2002.6 2912.64 1941.4 2890.77 1891.35 2868.18 C 1859.86 2852.06 1836.69 2836.67 1824.64 2823.45 C 1819.14 2817.39 1815.98 2811.84 1815.41 2806.82 C 1815.15 2805 1815.28 2803.27 1815.76 2801.63 L 1822.6 2763.32 C 1851.23 2759.71 1877.85 2754.23 1901.33 2747.17 C 1902.31 2746.88 1903.28 2746.58 1904.26 2746.27 C 1905.86 2747.39 1907.52 2748.43 1909.24 2749.39 C 1914.18 2752.12 1919.02 2753.38 1923.71 2753.39 C 1940.27 2753.39 1954.95 2737.55 1965.73 2714.55 C 2002.69 2687.02 2030.3 2648.25 2043.34 2606.64 C 2055.15 2630.99 2070.31 2653.32 2088.69 2672.35 C 2091.22 2674.96 2093.8 2677.47 2096.43 2679.88 C 2078.76 2721.73 2046.43 2759.26 2005.13 2783.31 C 2041.46 2786.48 2078.03 2787.9 2112.14 2787.9 C 2180.5 2787.9 2239.05 2782.22 2266.49 2773.61 C 2330.27 2753.65 2370.42 2719.35 2399.47 2677.62 C 2406.56 2685.11 2414.6 2692.21 2423.67 2698.83 C 2439.47 2710.37 2455.04 2716.79 2470.1 2719.24 L 2369.77 2969.78 C 2369.71 2969.94 2369.65 2970.09 2369.59 2970.25 C 2366.21 2972.98 2353.23 2977.12 2323.91 2977.12 Z  M 2598.21 2374.42 C 2594.35 2374.42 2590.17 2374.22 2585.63 2373.77 C 2566.9 2371.89 2537.68 2361.78 2505.4 2361.78 C 2499.2 2361.78 2492.89 2362.15 2486.52 2363.03 C 2482.47 2363.58 2478.4 2364.5 2474.33 2365.76 C 2453.41 2309.69 2409.28 2262.48 2348.8 2239.32 C 2210.73 2186.39 2068.65 2118.61 1951.32 2041.27 L 1952.03 2037.28 L 1955.67 2016.93 L 1959.02 1998.08 C 1969.03 2003.79 1979.91 2009.63 1991.64 2015.6 C 2070.86 2055.88 2179.58 2096.68 2297.79 2130.5 C 2416 2164.32 2529.86 2187.19 2618.4 2194.91 C 2639.88 2196.78 2659.22 2197.71 2676.45 2197.71 C 2677.29 2197.71 2678.13 2197.71 2678.96 2197.71 L 2608.4 2373.9 C 2605.29 2374.24 2601.9 2374.42 2598.21 2374.42 Z " fill="rgb(34,128,91)"/><path d=" M 1891.35 2868.18 C 1890.2 2867.66 1889.04 2867.13 1887.9 2866.61 C 1815.49 2833.61 1794.96 2811.66 1792.71 2805.21 C 1792.74 2805.04 1792.77 2804.88 1792.8 2804.72 L 1799.75 2765.75 C 1807.49 2765.07 1815.11 2764.26 1822.6 2763.32 L 1815.76 2801.63 C 1815.28 2803.27 1815.15 2805 1815.41 2806.82 C 1815.98 2811.84 1819.14 2817.39 1824.64 2823.45 C 1836.69 2836.67 1859.86 2852.06 1891.35 2868.18 Z  M 1951.32 2041.27 C 1944.57 2036.82 1937.88 2032.33 1931.3 2027.82 L 1938.76 1985.95 C 1945.07 1989.93 1951.82 1993.97 1959.02 1998.08 L 1955.67 2016.93 L 1952.03 2037.28 L 1951.32 2041.27 Z " fill="rgb(125,156,150)"/><path d=" M 1775.75 2801.68 L 1775.8 2801.68 L 1775.75 2801.68 Z  M 1792.41 2806.43 L 1792.4 2806.45 L 1792.41 2806.43 Z  M 1792.71 2805.21 C 1794.96 2811.66 1815.49 2833.61 1887.9 2866.61 C 1938.57 2889.76 2001.07 2912.21 2068.65 2931.54 C 2136.27 2950.88 2201.17 2964.88 2256.34 2972.02 C 2335.25 2982.32 2364.27 2974.54 2369.59 2970.25 C 2369.65 2970.09 2369.71 2969.94 2369.77 2969.78 L 2681.76 2190.73 L 1940.08 1978.55 L 1792.8 2804.72 C 1792.77 2804.88 1792.74 2805.04 1792.71 2805.21 Z  M 2324.14 3011.85 C 2305.09 3011.85 2281.4 3010.22 2251.88 3006.37 C 2195.04 2999.02 2128.37 2984.65 2059.12 2964.84 C 1989.91 2945.04 1925.73 2921.97 1873.52 2898.13 C 1761.81 2847.21 1754.01 2816.62 1758.83 2797.9 L 1909.34 1953.58 C 1910.2 1948.76 1913.07 1944.52 1917.23 1941.93 C 1921.39 1939.34 1926.45 1938.62 1931.16 1939.97 L 2709.73 2162.71 C 2714.45 2164.06 2718.36 2167.34 2720.52 2171.74 C 2722.68 2176.14 2722.87 2181.25 2721.05 2185.8 L 2402.21 2981.96 C 2397.8 2995.93 2383.65 3011.85 2324.14 3011.85 Z " fill="rgb(55,26,69)"/><path d=" M 1950.84 1777.14 C 1943.44 1803 1999.79 1844.02 2093.34 1886.69 C 2160.36 1917.27 2246.52 1948.7 2342.01 1976.02 C 2437.49 2003.33 2527.24 2022.23 2600.29 2031.72 C 2702.26 2044.99 2771.74 2039.97 2779.14 2014.1 C 2791.83 1969.73 2616.71 1880.7 2388 1815.27 C 2159.25 1749.82 1963.53 1732.77 1950.84 1777.14 Z " fill="rgb(155,86,57)"/><path d=" M 2779.15 2014.1 C 2771.75 2039.97 2702.25 2044.97 2600.3 2031.72 C 2527.25 2022.22 2437.48 2003.34 2342 1976.02 C 2301.66 1964.49 2262.98 1952.21 2226.74 1939.59 C 2194.87 1928.49 2164.87 1917.12 2137.25 1905.7 C 2121.84 1899.36 2107.19 1893 2093.35 1886.69 C 2049.1 1866.51 2013.19 1846.7 1988.39 1828.68 C 1960.76 1808.62 1946.94 1790.79 1950.84 1777.14 C 1956.11 1758.72 1992.9 1750.88 2050.5 1752.71 L 2050.52 1752.72 C 2131.69 1755.26 2254.18 1776.99 2388.01 1815.26 C 2616.71 1880.69 2791.83 1969.74 2779.15 2014.1 Z " fill="rgb(155,86,57)"/><path d=" M 2779.15 2014.1 C 2771.75 2039.97 2702.25 2044.97 2600.3 2031.72 C 2527.25 2022.22 2437.48 2003.34 2342 1976.02 C 2301.66 1964.49 2262.98 1952.21 2226.74 1939.59 C 2194.87 1928.49 2164.87 1917.12 2137.25 1905.7 C 2121.84 1899.36 2107.19 1893 2093.35 1886.69 C 2049.1 1866.51 2013.19 1846.7 1988.39 1828.68 C 1960.76 1808.62 1946.94 1790.79 1950.84 1777.14 C 1954.64 1763.86 1974.84 1756.08 2007.42 1753.47 C 2020.02 1752.44 2034.46 1752.19 2050.5 1752.71 L 2050.52 1752.72 C 2131.69 1755.26 2254.18 1776.99 2388.01 1815.26 C 2524.59 1854.34 2642.07 1901.83 2711.84 1943.2 C 2758.9 1971.11 2784.26 1996.24 2779.15 2014.1 Z " fill="rgb(163,79,49)"/><path d=" M 2628.5 1995.89 C 2608.64 1995.89 2586.09 1994.55 2561.37 1991.89 C 2497.77 1985.04 2419.89 1969.49 2337.27 1945.78 C 2302.38 1935.78 2268.97 1924.97 2237.67 1913.74 C 2210.17 1903.87 2184.34 1893.66 2160.56 1883.33 C 2147.29 1877.59 2134.69 1871.8 2122.81 1866.04 C 2084.79 1847.61 2054.06 1829.25 2032.97 1812.27 C 2014.33 1797.27 2003.26 1783.34 2001.45 1771.42 C 2010.41 1770.41 2021.46 1769.77 2034.95 1769.77 C 2038.61 1769.77 2042.47 1769.82 2046.51 1769.92 C 2044.31 1778.91 2051.63 1790.14 2066.74 1802.76 C 2066.77 1802.79 2066.81 1802.82 2066.85 1802.85 C 2066.85 1802.85 2066.85 1802.85 2066.85 1802.85 C 2074.15 1808.94 2083.26 1815.35 2093.99 1821.98 L 2093.99 1821.98 C 2118.68 1837.21 2151.87 1853.63 2191.29 1870 L 2191.29 1870 C 2207.55 1876.74 2224.87 1883.49 2243.08 1890.14 C 2268.73 1899.52 2296.15 1908.73 2324.87 1917.52 C 2333.96 1920.31 2343.18 1923.05 2352.52 1925.74 C 2353.71 1926.08 2354.89 1926.42 2356.08 1926.76 C 2367.04 1929.89 2377.91 1932.89 2388.65 1935.74 C 2488.51 1962.26 2577.81 1976.45 2635.37 1976.45 C 2673.35 1976.45 2697.51 1970.27 2701.78 1957.39 C 2707.96 1961.03 2713.55 1964.5 2718.6 1967.8 C 2718.57 1967.93 2718.54 1968.05 2718.5 1968.18 C 2713.18 1986.85 2679.93 1995.89 2628.5 1995.89 Z " fill="rgb(125,61,56)"/><path d=" M 1950.84 1777.14 L 1950.89 1777.14 L 1950.84 1777.14 Z  M 1967.51 1781.91 C 1967.08 1789.19 1990.43 1820.71 2100.53 1870.93 C 2169.64 1902.47 2254.79 1933.05 2346.77 1959.37 C 2438.74 1985.68 2527.18 2004.76 2602.53 2014.54 C 2723.07 2030.23 2759.33 2015.61 2762.52 2009.25 C 2762.98 2003.65 2745.52 1977.66 2661.41 1935.59 C 2588.9 1899.31 2490.11 1862.49 2383.23 1831.91 C 2276.34 1801.34 2173.01 1780.33 2092.28 1772.76 C 1999.17 1764.04 1970.41 1776.66 1967.51 1781.91 Z  M 2694.82 2056.16 C 2667.61 2056.16 2635.22 2053.73 2598.06 2048.9 C 2521.03 2038.89 2430.84 2019.45 2337.24 1992.67 C 2243.63 1965.89 2156.81 1934.69 2086.15 1902.45 C 2037.53 1880.27 1999.72 1859.06 1973.78 1839.42 C 1961.83 1830.37 1925.47 1802.84 1934.19 1772.37 C 1939.96 1752.2 1962.38 1726.65 2089.9 1737.77 C 2173.55 1745.06 2281.1 1766.67 2392.76 1798.61 C 2504.4 1830.55 2607.1 1869.1 2681.94 1907.14 C 2796.04 1965.15 2801.57 1998.69 2795.79 2018.87 C 2787.07 2049.34 2741.67 2053.47 2726.75 2054.83 C 2717.07 2055.72 2706.41 2056.16 2694.82 2056.16 Z " fill="rgb(55,26,69)"/><path d=" M 1888.22 1903.18 C 1874.77 1950.21 2060.28 2044.54 2302.56 2113.85 C 2544.84 2183.16 2752.17 2201.22 2765.62 2154.19 L 2766.27 2147.64 L 2779.12 2014.1 C 2771.72 2039.96 2702.24 2044.98 2600.28 2031.72 C 2527.22 2022.23 2437.48 2003.33 2341.99 1976.01 C 2246.51 1948.69 2160.34 1917.27 2093.32 1886.68 C 1999.77 1844.02 1943.42 1803 1950.82 1777.13 L 1891.14 1897.27 L 1888.22 1903.18 Z " fill="rgb(155,86,57)"/><path d=" M 2765.61 2154.19 C 2752.21 2201.21 2544.83 2183.18 2302.59 2113.85 C 2259.42 2101.5 2218.07 2088.37 2179.31 2074.83 C 2143.18 2062.22 2109.32 2049.3 2078.39 2036.35 C 2040.45 2020.49 2006.89 2004.6 1978.94 1989.33 C 1963.36 1980.83 1949.5 1972.5 1937.57 1964.49 C 1901.94 1940.49 1883.66 1919.13 1888.23 1903.17 L 1891.12 1897.28 L 1922.71 1833.75 L 1950.85 1777.12 C 1946.53 1792.17 1963.79 1812.36 1997.35 1834.98 C 2009.19 1842.96 2023.08 1851.25 2038.76 1859.73 C 2055.08 1868.55 2073.35 1877.58 2093.33 1886.68 C 2106.58 1892.73 2120.56 1898.79 2135.24 1904.87 C 2163.84 1916.73 2195 1928.55 2228.14 1940.05 C 2263.98 1952.54 2302.18 1964.63 2342 1976.02 C 2437.47 2003.31 2527.22 2022.22 2600.3 2031.72 C 2702.25 2044.99 2771.71 2039.94 2779.15 2014.1 L 2772.67 2081.16 L 2766.29 2147.63 L 2765.61 2154.19 Z " fill="rgb(163,79,49)"/><path d=" M 2677.06 2163.1 C 2661.87 2163.1 2643.53 2162.32 2621.4 2160.4 C 2535.01 2152.87 2423.46 2130.42 2307.32 2097.2 C 2265.72 2085.3 2225.36 2072.54 2187.13 2059.25 C 2253.49 2080.47 2322.9 2099.82 2385.25 2110.74 C 2408.47 2114.8 2433.33 2116.96 2457.62 2116.96 C 2531.75 2116.96 2600.86 2096.89 2603.85 2049.63 C 2638.59 2053.97 2669.03 2056.15 2694.82 2056.15 C 2706.4 2056.15 2717.05 2055.71 2726.73 2054.83 C 2733.28 2054.23 2745.7 2053.1 2758.32 2049.44 L 2749.03 2145.94 L 2748.65 2149.86 C 2746.62 2152.19 2733.92 2163.1 2677.06 2163.1 Z " fill="rgb(125,61,56)"/><path d=" M 2184.22 2058.24 C 2149.18 2046 2115.95 2033.32 2085.25 2020.48 L 2128.36 1920.79 C 2155.58 1932.08 2184.63 1943.16 2215.07 1953.87 L 2184.22 2058.24 Z " fill="rgb(199,124,101)"/><path d=" M 1944.91 1948.6 C 1909.42 1924.31 1905.36 1911.21 1904.92 1908.48 L 1949.8 1818.13 C 1958.57 1827.91 1968.52 1835.44 1973.76 1839.41 C 1978.74 1843.18 1984.16 1847.01 1990 1850.89 L 1944.91 1948.6 Z " fill="rgb(216,147,128)"/><path d=" M 1904.92 1908.48 C 1905.54 1912.34 1913.42 1936.97 2007.34 1984.72 C 2084.64 2024.02 2191.18 2063.97 2307.32 2097.2 C 2423.46 2130.42 2535.01 2152.87 2621.4 2160.4 C 2726.37 2169.55 2746.08 2152.81 2748.65 2149.86 L 2749.03 2145.94 L 2758.32 2049.44 C 2745.7 2053.1 2733.28 2054.23 2726.73 2054.83 C 2694.33 2057.78 2651.03 2055.78 2598.05 2048.89 C 2521.02 2038.89 2430.83 2019.44 2337.23 1992.66 C 2243.61 1965.88 2156.79 1934.69 2086.13 1902.44 C 2037.51 1880.26 1999.71 1859.06 1973.76 1839.41 C 1968.52 1835.44 1958.57 1827.91 1949.8 1818.13 L 1904.92 1908.48 Z  M 2676.45 2197.71 C 2659.22 2197.71 2639.88 2196.78 2618.4 2194.91 C 2529.86 2187.19 2416 2164.32 2297.79 2130.5 C 2179.58 2096.68 2070.86 2055.88 1991.64 2015.6 C 1901.41 1969.72 1862.13 1931.39 1871.57 1898.41 C 1871.86 1897.41 1872.23 1896.44 1872.69 1895.5 L 1875.61 1889.6 L 1935.31 1769.43 C 1939.3 1761.41 1948.74 1757.75 1957.09 1760.99 C 1965.44 1764.22 1969.94 1773.29 1967.48 1781.9 C 1966.85 1788.89 1989.9 1820.47 2100.51 1870.93 C 2169.62 1902.47 2254.77 1933.05 2346.75 1959.36 C 2438.73 1985.67 2527.17 2004.76 2602.51 2014.54 C 2723.08 2030.23 2759.32 2015.6 2762.5 2009.24 C 2764.97 2000.63 2773.59 1995.35 2782.36 1997.04 C 2791.16 1998.7 2797.22 2006.85 2796.36 2015.76 L 2782.86 2155.89 C 2782.76 2156.93 2782.56 2157.96 2782.28 2158.96 C 2774.85 2184.91 2740.07 2197.71 2676.45 2197.71 Z " fill="rgb(55,26,69)"/><path d=" M 2093.41 1675.29 C 2087.88 1694.61 2129.96 1725.24 2199.83 1757.11 C 2249.88 1779.95 2314.23 1803.42 2385.54 1823.82 C 2456.86 1844.22 2523.88 1858.33 2578.44 1865.42 C 2654.59 1875.33 2706.48 1871.58 2712.01 1852.26 C 2721.49 1819.13 2590.7 1752.63 2419.89 1703.76 C 2249.05 1654.89 2102.89 1642.15 2093.41 1675.29 Z " fill="rgb(155,86,57)"/><path d=" M 2712 1852.26 C 2709.13 1862.33 2693.66 1868.17 2668.68 1870.05 C 2645.8 1871.76 2614.88 1870.15 2578.44 1865.42 C 2523.88 1858.35 2456.86 1844.23 2385.54 1823.81 C 2314.23 1803.43 2249.88 1779.94 2199.82 1757.11 C 2166.53 1741.92 2139.54 1727.02 2121.01 1713.47 C 2100.66 1698.61 2090.5 1685.4 2093.41 1675.29 C 2102.9 1642.15 2249.06 1654.88 2419.89 1703.77 C 2590.7 1752.63 2721.49 1819.12 2712 1852.26 Z " fill="rgb(163,79,49)"/><path d=" M 2693.44 1847.73 C 2655.83 1812.42 2547.46 1763.94 2415.04 1726.05 C 2308.47 1695.56 2211.5 1679.13 2151.33 1679.13 C 2135.72 1679.13 2122.59 1680.23 2112.41 1682.49 C 2111.79 1681.64 2111.31 1680.89 2110.95 1680.23 C 2116.83 1676.48 2131.42 1674.15 2153.84 1674.15 C 2204.48 1674.15 2295.04 1686.06 2415.13 1720.42 C 2588.37 1769.98 2684.74 1826.68 2694.51 1847.18 C 2694.19 1847.36 2693.83 1847.55 2693.44 1847.73 Z " fill="rgb(216,147,128)"/><path d=" M 2649.22 1853.4 C 2643.96 1853.4 2638.17 1853.27 2631.84 1852.98 C 2622.44 1839.92 2602.55 1825.85 2571.46 1810.04 C 2528.9 1788.41 2470.55 1766.5 2407.13 1748.36 C 2343.71 1730.22 2282.59 1717.94 2235.02 1713.79 C 2223.32 1712.77 2212.79 1712.26 2203.41 1712.26 C 2184.97 1712.26 2170.95 1714.25 2161.08 1718.3 C 2150.24 1712.22 2141.53 1706.74 2134.61 1701.91 C 2144.24 1698.47 2158.58 1696.79 2176.68 1696.79 C 2229.95 1696.79 2315.8 1711.33 2410.15 1738.32 C 2536.42 1774.45 2637.98 1821.45 2663.18 1853.06 C 2659 1853.28 2654.36 1853.4 2649.22 1853.4 Z " fill="rgb(125,61,56)"/><path d=" M 2093.41 1675.29 L 2093.46 1675.29 L 2093.41 1675.29 Z  M 2110.95 1680.23 C 2115.22 1688.12 2137.67 1709.72 2207.02 1741.35 C 2258.45 1764.81 2321.82 1787.57 2390.31 1807.17 C 2458.81 1826.76 2524.64 1840.97 2580.68 1848.24 C 2656.26 1858.08 2686.73 1851.62 2694.51 1847.18 C 2684.74 1826.68 2588.37 1769.98 2415.13 1720.42 C 2241.88 1670.85 2130.1 1668.01 2110.95 1680.23 Z  M 2649.45 1888.14 C 2630.15 1888.14 2606.13 1886.49 2576.21 1882.6 C 2518.49 1875.1 2450.92 1860.53 2380.78 1840.47 C 2310.67 1820.41 2245.61 1797.03 2192.64 1772.86 C 2077.54 1720.37 2071.38 1689.32 2076.75 1670.52 C 2084.28 1644.2 2122.7 1634.99 2197.64 1641.52 C 2260.39 1646.99 2341.01 1663.18 2424.65 1687.11 C 2508.29 1711.04 2585.27 1739.94 2641.41 1768.47 C 2708.47 1802.56 2736.2 1830.7 2728.67 1857.03 C 2724.57 1871.33 2711.04 1888.14 2649.45 1888.14 Z " fill="rgb(55,26,69)"/><path d=" M 2156 1738.78 C 2151.81 1753.43 2183.73 1776.67 2236.74 1800.85 C 2274.71 1818.18 2323.53 1835.99 2377.63 1851.46 C 2431.73 1866.94 2482.58 1877.65 2523.98 1883.02 C 2581.75 1890.54 2621.12 1887.7 2625.31 1873.04 C 2632.5 1847.9 2533.28 1797.45 2403.69 1760.38 C 2274.08 1723.3 2163.19 1713.64 2156 1738.78 Z " fill="rgb(155,86,57)"/><path d=" M 2156 1738.78 L 2156.05 1738.78 L 2156 1738.78 Z  M 2168.02 1742.22 L 2168.02 1742.22 L 2168.02 1742.22 Z  M 2168.47 1742.31 C 2171.05 1748 2187.53 1764.67 2241.92 1789.48 C 2280.98 1807.3 2329.09 1824.57 2381.07 1839.45 C 2433.06 1854.32 2483.03 1865.1 2525.59 1870.63 C 2584.87 1878.35 2607.67 1872.91 2612.86 1869.44 C 2606.95 1854.22 2533.97 1810.65 2400.25 1772.4 C 2266.53 1734.14 2181.54 1732.5 2168.47 1742.31 Z  M 2577.98 1899.64 C 2563.36 1899.64 2545.13 1898.38 2522.37 1895.42 C 2478.6 1889.73 2427.36 1878.69 2374.2 1863.48 C 2321.04 1848.28 2271.71 1830.55 2231.55 1812.22 C 2144.68 1772.6 2139.97 1749.37 2143.98 1735.34 C 2149.6 1715.71 2178.54 1708.88 2235.02 1713.79 C 2282.59 1717.94 2343.71 1730.22 2407.13 1748.36 C 2470.55 1766.5 2528.9 1788.41 2571.46 1810.04 C 2622.01 1835.75 2642.94 1856.86 2637.33 1876.48 C 2634.28 1887.13 2624.15 1899.63 2577.98 1899.64 Z " fill="rgb(55,26,69)"/><path d=" M 2046.64 1769.42 C 2036.59 1804.54 2175.14 1874.99 2356.08 1926.76 C 2537.03 1978.53 2691.87 1992.01 2701.92 1956.89 L 2702.4 1951.99 L 2712 1852.26 C 2706.47 1871.58 2654.58 1875.32 2578.43 1865.42 C 2523.87 1858.33 2456.84 1844.22 2385.53 1823.82 C 2314.22 1803.41 2249.87 1779.94 2199.82 1757.1 C 2129.95 1725.23 2087.87 1694.6 2093.39 1675.29 L 2048.82 1765.01 L 2046.64 1769.42 Z " fill="rgb(155,86,57)"/><path d=" M 2701.93 1956.88 C 2691.86 1992.02 2537.03 1978.53 2356.08 1926.76 C 2333.05 1920.18 2310.7 1913.28 2289.27 1906.17 C 2253.78 1894.47 2220.8 1882.24 2191.29 1870 C 2151.87 1853.63 2118.68 1837.21 2093.99 1821.98 C 2060.56 1801.32 2042.83 1782.82 2046.66 1769.43 L 2048.82 1765.01 L 2070.88 1720.56 L 2093.35 1675.32 C 2089.77 1688.11 2106.94 1705.81 2139.19 1725.59 C 2155.7 1735.68 2176.16 1746.35 2199.82 1757.13 C 2210.43 1761.96 2221.67 1766.81 2233.49 1771.67 C 2259.37 1782.31 2287.98 1792.91 2318.63 1803.13 C 2340.03 1810.27 2362.41 1817.21 2385.54 1823.81 C 2456.86 1844.23 2523.87 1858.32 2578.41 1865.43 C 2654.58 1875.32 2706.49 1871.57 2711.98 1852.26 L 2707.66 1897.51 L 2702.43 1952 L 2701.93 1956.88 Z " fill="rgb(163,79,49)"/><path d=" M 2660.7 1870.5 C 2682.69 1869.62 2698.54 1866.11 2706.55 1859.83 C 2698.54 1866.12 2682.69 1869.62 2660.7 1870.5 Z  M 2706.58 1859.8 C 2706.58 1859.8 2706.59 1859.8 2706.59 1859.8 C 2706.59 1859.8 2706.58 1859.8 2706.58 1859.8 Z " fill="rgb(55,26,69)"/><path d=" M 2635.37 1976.45 C 2571.62 1976.45 2468.93 1959.05 2356.08 1926.76 C 2333.05 1920.18 2310.7 1913.28 2289.27 1906.17 L 2290.03 1903.52 C 2397.55 1933.37 2494.68 1949.42 2555.9 1949.42 C 2594.38 1949.42 2618.67 1943.09 2622.46 1929.86 L 2622.96 1924.97 L 2628.19 1870.49 L 2628.21 1870.15 C 2635.55 1870.53 2642.51 1870.72 2649.02 1870.72 C 2653.09 1870.72 2656.98 1870.65 2660.7 1870.5 C 2682.69 1869.62 2698.54 1866.12 2706.55 1859.83 C 2706.56 1859.82 2706.57 1859.81 2706.58 1859.8 C 2706.58 1859.8 2706.59 1859.8 2706.59 1859.8 C 2709.35 1857.62 2711.17 1855.11 2711.98 1852.26 L 2707.66 1897.51 L 2705.54 1919.63 L 2702.43 1952 L 2701.93 1956.88 C 2701.88 1957.05 2701.83 1957.22 2701.78 1957.39 C 2697.51 1970.27 2673.35 1976.45 2635.37 1976.45 Z " fill="rgb(125,61,56)"/><path d=" M 2289.27 1906.17 C 2253.78 1894.47 2220.8 1882.24 2191.29 1870 L 2233.49 1771.67 C 2259.37 1782.31 2287.98 1792.91 2318.63 1803.13 L 2290.03 1903.52 C 2285.57 1902.28 2281.1 1901.02 2276.61 1899.73 C 2263.17 1895.89 2249.98 1891.95 2237.08 1887.92 C 2253.74 1894.1 2271.19 1900.2 2289.27 1906.17 Z " fill="rgb(199,124,101)"/><path d=" M 2289.27 1906.17 L 2289.27 1906.17 L 2289.27 1906.17 C 2271.19 1900.2 2253.74 1894.1 2237.08 1887.92 C 2249.98 1891.95 2263.17 1895.89 2276.61 1899.73 C 2281.1 1901.02 2285.57 1902.28 2290.03 1903.52 L 2289.27 1906.17 Z " fill="rgb(176,113,106)"/><path d=" M 2093.99 1821.98 L 2093.99 1821.98 C 2063.57 1803.17 2046.15 1786.16 2046.15 1773.16 C 2046.15 1771.88 2046.32 1770.63 2046.66 1769.43 L 2048.82 1765.01 L 2070.88 1720.56 L 2093.35 1675.32 C 2093.04 1676.45 2092.88 1677.61 2092.88 1678.8 C 2092.9 1691.23 2109.77 1707.55 2139.19 1725.59 L 2093.99 1821.98 Z " fill="rgb(216,147,128)"/><path d=" M 2695.35 1847.49 L 2695.35 1847.5 L 2695.35 1847.49 Z  M 2063.7 1773.99 C 2070.41 1794.79 2172.37 1856.19 2360.85 1910.11 C 2549.32 1964.03 2668.33 1965.85 2685.02 1951.74 L 2691.5 1884.44 C 2669.18 1889.27 2633.53 1890.05 2576.2 1882.6 C 2518.44 1875.09 2450.86 1860.52 2380.77 1840.46 C 2310.63 1820.4 2245.57 1797.02 2192.63 1772.86 C 2140.02 1748.86 2110.17 1729.35 2093.78 1713.44 L 2063.7 1773.99 Z  M 2635.72 1993.8 C 2622.63 1993.8 2607.94 1993.09 2591.58 1991.66 C 2525.19 1985.88 2439.86 1968.74 2351.32 1943.41 C 2262.78 1918.08 2181.29 1887.5 2121.89 1857.29 C 2051.37 1821.44 2022.16 1792 2029.98 1764.66 C 2030.27 1763.66 2030.65 1762.69 2031.11 1761.75 L 2077.88 1667.58 C 2081.86 1659.56 2091.3 1655.9 2099.66 1659.14 C 2107.63 1662.23 2112.1 1670.63 2110.34 1678.88 C 2112.51 1685.39 2133.21 1707.69 2207.01 1741.34 C 2258.41 1764.8 2321.79 1787.56 2390.3 1807.16 C 2458.76 1826.75 2524.59 1840.96 2580.66 1848.24 C 2661.08 1858.71 2690.43 1850.72 2695.72 1846.36 C 2698.59 1838.42 2706.85 1833.66 2715.23 1835.24 C 2724.02 1836.91 2730.1 1845.01 2729.24 1853.92 L 2719.15 1958.59 C 2719.05 1959.63 2718.86 1960.65 2718.57 1961.66 C 2712.37 1983.32 2685.73 1993.8 2635.72 1993.8 Z " fill="rgb(55,26,69)"/><path d=" M 2259.07 2597.25 C 2250.39 2552.05 2229.52 2512.05 2207.39 2472.25 C 2195.76 2451.39 2186.3 2430.17 2179.46 2408.48 C 2170.14 2378.95 2165.63 2348.63 2167.23 2317.4 C 2167.59 2309.58 2168.34 2301.66 2169.57 2293.74 C 2171.09 2283.19 2173.31 2272.61 2176.28 2261.9 C 2179.37 2250.69 2184.01 2246.59 2195.83 2247.32 C 2217.61 2248.67 2237.29 2254.5 2254.97 2264.3 L 2254.99 2264.33 C 2267.97 2271.48 2279.86 2280.85 2290.73 2292.11 C 2370.35 2374.71 2392.08 2518.38 2340.34 2620.91 C 2321.75 2657.82 2296.44 2688.89 2254.46 2705.3 C 2265.21 2668.53 2265.97 2633.03 2259.07 2597.25 Z " fill="rgb(252,247,251)"/><path d=" M 2128.34 2259.49 C 2114.74 2311.85 2116.17 2360.69 2128.45 2407.22 C 2138.12 2444.01 2154.61 2479.33 2175.68 2513.78 C 2186.58 2531.57 2194.67 2550.91 2201.3 2570.79 C 2215.77 2614.23 2220.49 2657.99 2206.86 2702.84 C 2203.24 2714.78 2197.32 2718.78 2185.18 2718.04 C 2146.73 2715.72 2114.83 2699.38 2088.69 2672.35 C 2035.47 2617.25 2009.26 2534.5 2013.2 2454.92 C 2015.1 2415.81 2024.28 2377.43 2041.16 2343.49 C 2041.29 2343.18 2041.41 2342.87 2041.6 2342.57 C 2045.28 2335.19 2049.35 2328.02 2053.77 2321.11 C 2071.32 2293.7 2094.29 2271.52 2128.34 2259.49 Z " fill="rgb(252,247,251)"/><path d=" M 1878.39 2226 C 1878.56 2221.26 1879.45 2216.78 1880.76 2212.58 L 1878.39 2226 Z " fill="rgb(71,25,72)"/><path d=" M 2715.19 2182.24 L 2659.03 2166.16 L 2715.2 2182.22 L 2715.19 2182.24 Z " fill="rgb(46,24,75)"/><path d=" M 1923.71 2753.39 C 1919.02 2753.38 1914.18 2752.12 1909.24 2749.39 C 1907.52 2748.43 1905.86 2747.39 1904.26 2746.27 C 1926.63 2739.17 1947.34 2728.25 1965.73 2714.55 C 1954.95 2737.55 1940.27 2753.39 1923.71 2753.39 Z " fill="rgb(186,211,203)"/><path d=" M 2640.96 2358.53 C 2640.96 2358.53 2630.22 2378.22 2585.63 2373.77 C 2563.3 2371.53 2526.08 2357.59 2486.52 2363.03 C 2390.13 2376.27 2282.24 2595.52 2423.66 2698.81 C 2517.38 2767.27 2603.23 2655.4 2620.33 2606.66 C 2651.86 2516.75 2640.96 2358.53 2640.96 2358.53 Z " fill="rgb(255,255,255)"/><path d=" M 2535.87 2706.17 L 2535.87 2706.17 C 2536.42 2705.86 2536.98 2705.55 2537.53 2705.23 C 2536.98 2705.55 2536.43 2705.86 2535.87 2706.17 Z " fill="rgb(116,137,188)"/><path d=" M 2520 2713.62 L 2520 2713.61 C 2525.44 2711.53 2530.73 2709.03 2535.87 2706.17 L 2535.87 2706.17 C 2530.73 2709.02 2525.43 2711.53 2520 2713.62 Z " fill="rgb(55,26,69)"/><path d=" M 2508.16 2717.4 L 2508.16 2717.39 C 2512.17 2716.37 2516.12 2715.1 2520 2713.61 L 2520 2713.62 C 2516.12 2715.1 2512.17 2716.37 2508.16 2717.4 Z " fill="rgb(55,26,69)"/><path d=" M 2399.47 2677.62 C 2381.82 2658.96 2370.1 2637.87 2363.25 2615.66 C 2370.1 2637.86 2381.83 2658.96 2399.47 2677.61 L 2399.47 2677.62 Z " fill="rgb(34,128,91)"/><path d=" M 2470.1 2719.24 C 2455.04 2716.79 2439.47 2710.37 2423.67 2698.83 C 2414.6 2692.21 2406.56 2685.11 2399.47 2677.62 L 2399.47 2677.61 C 2406.56 2685.1 2414.6 2692.19 2423.66 2698.81 C 2439.46 2710.35 2455.05 2716.77 2470.11 2719.23 L 2470.1 2719.24 Z " fill="rgb(41,92,83)"/><path d=" M 2484.65 2720.42 C 2479.86 2720.42 2475.01 2720.04 2470.1 2719.24 L 2470.11 2719.23 C 2475.02 2720.03 2479.87 2720.41 2484.66 2720.41 C 2492.69 2720.41 2500.54 2719.34 2508.16 2717.39 L 2508.16 2717.4 C 2500.53 2719.35 2492.68 2720.42 2484.65 2720.42 Z " fill="rgb(55,26,69)"/><path d=" M 2611.48 2626.2 C 2615.32 2619.07 2618.31 2612.42 2620.33 2606.66 C 2621.6 2603.02 2622.81 2599.26 2623.96 2595.4 C 2622.82 2599.25 2621.61 2603 2620.34 2606.64 C 2618.31 2612.41 2615.33 2619.06 2611.48 2626.2 Z " fill="rgb(116,137,188)"/><path d=" M 2484.66 2720.41 C 2479.87 2720.41 2475.02 2720.03 2470.11 2719.23 C 2455.05 2716.77 2439.46 2710.35 2423.66 2698.81 C 2414.6 2692.19 2406.56 2685.1 2399.47 2677.61 C 2381.83 2658.96 2370.1 2637.86 2363.25 2615.66 C 2350.27 2573.55 2354.79 2527.41 2369.58 2486.18 C 2374.43 2528.87 2394.44 2569.75 2436.44 2600.45 C 2457.38 2615.75 2477.94 2622.04 2497.42 2622.04 C 2565.1 2622.05 2619.83 2546.13 2633.11 2508.3 C 2636.23 2499.47 2638.92 2489.95 2641.21 2479.99 C 2639.03 2519.08 2634.12 2561.08 2623.96 2595.4 C 2622.81 2599.26 2621.6 2603.02 2620.33 2606.66 C 2618.31 2612.42 2615.32 2619.07 2611.48 2626.2 C 2597.1 2652.84 2570.69 2686.2 2537.53 2705.23 C 2536.98 2705.55 2536.42 2705.86 2535.87 2706.17 C 2530.73 2709.03 2525.44 2711.53 2520 2713.61 C 2516.12 2715.1 2512.17 2716.37 2508.16 2717.39 C 2500.54 2719.34 2492.69 2720.41 2484.66 2720.41 Z " fill="rgb(185,175,190)"/><path d=" M 2625.75 2350.24 M 2505.32 2379.11 C 2499.87 2379.11 2494.37 2379.43 2488.87 2380.19 C 2445.51 2386.14 2396.36 2445.96 2379.31 2513.52 C 2370.89 2546.89 2359.35 2630.39 2433.88 2684.83 C 2458.21 2702.6 2482.5 2707.36 2508.14 2699.4 C 2556.76 2684.29 2594.55 2627.81 2603.98 2600.93 C 2626.12 2537.81 2626.36 2437.21 2624.93 2388.29 C 2614.6 2391.23 2601.18 2392.72 2583.91 2391 C 2576.25 2390.23 2567.9 2388.44 2558.22 2386.37 C 2542.75 2383.06 2524.34 2379.11 2505.32 2379.11 Z  M 2484.85 2737.68 C 2460.27 2737.68 2436.05 2729.31 2413.44 2712.8 C 2348.97 2665.71 2324.29 2589.99 2345.72 2505.04 C 2366.61 2422.27 2426.12 2353.84 2484.16 2345.87 C 2514.87 2341.64 2544.13 2347.92 2565.48 2352.5 C 2574.14 2354.36 2581.62 2355.96 2587.35 2356.53 C 2614.46 2359.25 2624.07 2351.54 2625.99 2349.64 C 2628.98 2342.41 2636.09 2339.15 2643.95 2340.27 C 2652.02 2341.44 2657.67 2349.2 2658.24 2357.34 C 2658.69 2363.95 2669.01 2520.18 2636.67 2612.39 C 2623.05 2651.23 2577.36 2714.17 2518.42 2732.48 C 2507.24 2735.96 2496.01 2737.68 2484.85 2737.68 Z " fill="rgb(55,26,69)"/><path d=" M 1733.78 2819.42 C 1732.91 2819.42 1732.05 2819.38 1731.18 2819.38 C 1637.47 2817.09 1536.39 2794.91 1458.4 2744.38 C 1457.65 2743.38 1456.91 2742.4 1456.19 2741.46 C 1468.83 2739.01 1481.56 2737.55 1494.39 2737.08 C 1510.44 2744.11 1526.89 2750.12 1543.39 2755.75 L 1563.77 2761.77 C 1567.17 2762.73 1570.54 2763.86 1573.98 2764.68 L 1584.3 2767.11 L 1604.94 2771.92 L 1625.77 2775.65 C 1635.61 2777.39 1645.48 2778.88 1655.37 2780.14 C 1663.07 2784.43 1670.8 2789.04 1678.53 2793.96 C 1681.42 2795.8 1684.64 2796.68 1687.82 2796.68 C 1693.46 2796.68 1698.98 2793.93 1702.3 2788.89 C 1709.15 2793.58 1715.78 2798.36 1722.17 2803.18 C 1728.76 2808.12 1734.99 2813.1 1741.01 2818.04 C 1739.32 2818.64 1736.94 2819.08 1733.78 2819.42 Z " fill="rgb(185,175,190)"/><path d=" M 1687.82 2796.68 C 1684.64 2796.68 1681.42 2795.8 1678.53 2793.96 C 1670.8 2789.04 1663.07 2784.43 1655.37 2780.14 C 1668.51 2781.8 1681.69 2783.05 1694.9 2783.91 C 1697.39 2785.56 1699.86 2787.22 1702.3 2788.89 C 1698.98 2793.93 1693.46 2796.68 1687.82 2796.68 Z  M 1456.19 2741.46 C 1451.17 2734.85 1447.07 2729.76 1444.23 2726.34 C 1451.12 2724.77 1457.96 2723.5 1464.77 2722.51 C 1464.78 2722.51 1464.78 2722.51 1464.78 2722.51 C 1474.44 2727.88 1484.34 2732.68 1494.39 2737.08 C 1481.56 2737.55 1468.83 2739.01 1456.19 2741.46 Z " fill="rgb(55,26,69)"/><path d=" M 1458.4 2744.38 C 1450.63 2739.34 1443.07 2734.02 1435.78 2728.4 C 1438.6 2727.67 1441.43 2726.98 1444.23 2726.34 C 1447.07 2729.76 1451.17 2734.85 1456.19 2741.46 C 1456.91 2742.4 1457.65 2743.38 1458.4 2744.38 Z " fill="rgb(55,26,69)"/><path d=" M 1694.9 2783.91 C 1681.69 2783.05 1668.51 2781.8 1655.37 2780.14 C 1645.48 2778.88 1635.61 2777.39 1625.77 2775.65 L 1604.94 2771.92 L 1584.3 2767.11 L 1573.98 2764.68 C 1570.54 2763.86 1567.17 2762.73 1563.77 2761.77 L 1543.39 2755.75 C 1526.89 2750.12 1510.44 2744.11 1494.39 2737.08 C 1484.34 2732.68 1474.44 2727.88 1464.78 2722.51 C 1464.78 2722.51 1464.78 2722.51 1464.77 2722.51 C 1475.89 2720.88 1486.89 2719.99 1497.75 2719.76 C 1548.48 2742.72 1604.83 2756.74 1660.95 2763.45 C 1672.75 2769.89 1684.08 2776.77 1694.9 2783.91 Z " fill="rgb(55,26,69)"/><path d=" M 1635.18 2346.04 C 1677.07 2389.22 1784.58 2367.63 1856.67 2379.37 C 2147.14 2426.65 2070.82 2696.25 1901.33 2747.17 C 1696.81 2808.63 1254.4 2750.89 1311.95 2369.49 L 1635.18 2346.04 Z " fill="rgb(255,255,255)"/><path d=" M 2051.38 2563.74 C 2051.38 2563.7 2051.39 2563.66 2051.39 2563.62 C 2051.39 2563.66 2051.38 2563.7 2051.38 2563.74 Z  M 2051.4 2563.51 C 2052.62 2542.95 2050.02 2522.39 2043.03 2502.78 C 2043.03 2502.77 2043.03 2502.77 2043.03 2502.76 C 2050.03 2522.38 2052.62 2542.94 2051.4 2563.51 Z " fill="rgb(183,170,187)"/><path d=" M 1741.87 2768.23 C 1530.87 2768.23 1273.57 2670.56 1310.38 2380.83 C 1340.67 2589.75 1558.72 2663.35 1741.87 2663.35 C 1801.21 2663.35 1856.87 2655.63 1901.31 2642.28 C 1969.72 2621.71 2022.93 2565.56 2043.03 2502.78 C 2050.02 2522.39 2052.62 2542.95 2051.4 2563.51 C 2051.39 2563.54 2051.39 2563.59 2051.39 2563.62 C 2051.39 2563.66 2051.38 2563.7 2051.38 2563.74 C 2046.57 2642.8 1985.43 2721.88 1901.31 2747.15 C 1856.88 2760.5 1801.18 2768.23 1741.87 2768.23 Z " fill="rgb(185,175,190)"/><path d=" M 1741.78 2785.51 C 1707.87 2785.51 1673.48 2783.08 1640.12 2778.13 C 1563.36 2766.75 1455.66 2736.99 1378.5 2659.89 C 1316.21 2597.65 1254.42 2481.88 1313.75 2283.86 C 1316.5 2274.7 1326.17 2269.48 1335.32 2272.24 C 1344.48 2274.99 1349.68 2284.64 1346.94 2293.8 C 1303.24 2439.63 1322.1 2554.56 1402.98 2635.39 C 1530.76 2763.07 1772.91 2767.67 1896.34 2730.59 C 1978.77 2705.82 2039.27 2624.08 2034.07 2544.5 C 2029.08 2468.25 1963.41 2414.29 1853.89 2396.46 C 1830.73 2392.69 1802.3 2392.55 1774.8 2392.42 C 1707.1 2392.09 1637.09 2391.75 1610.26 2340.89 C 1605.8 2332.43 1609.04 2321.95 1617.5 2317.49 C 1625.96 2313.02 1636.44 2316.26 1640.9 2324.73 C 1658.04 2357.21 1717.48 2357.5 1774.97 2357.78 C 1803.8 2357.92 1833.62 2358.07 1859.45 2362.27 C 2039.55 2391.59 2065.74 2497.9 2068.63 2542.24 C 2074.84 2637.24 2003.54 2734.55 1906.31 2763.76 C 1858.55 2778.11 1800.93 2785.51 1741.78 2785.51 Z " fill="rgb(55,26,69)"/><path d=" M 1463.58 2715.4 C 1459.54 2715.4 1455.57 2713.52 1453.03 2709.99 C 1394.99 2629.28 1403.31 2528.57 1477.08 2418.75 C 1531.41 2337.87 1601.17 2281.1 1604.11 2278.73 C 1609.69 2274.23 1617.87 2275.08 1622.38 2280.67 C 1626.88 2286.25 1626.02 2294.43 1620.44 2298.94 C 1617.71 2301.14 1349.36 2521.31 1474.12 2694.82 C 1478.31 2700.64 1476.98 2708.76 1471.16 2712.95 C 1468.86 2714.6 1466.21 2715.4 1463.58 2715.4 Z " fill="rgb(55,26,69)"/><path d=" M 1308.08 2835.96 C 1313.57 2849.59 1316.91 2863.23 1319.73 2877.23 C 1322.54 2891.17 1324.07 2905.38 1325.28 2919.58 C 1326.46 2933.8 1326.81 2948.13 1326.55 2962.42 C 1326.08 2976.72 1324.84 2991.05 1322.11 3005.11 C 1321.88 3006.29 1320.74 3007.07 1319.55 3006.84 C 1318.67 3006.66 1318.02 3005.98 1317.84 3005.15 L 1317.83 3005.11 C 1314.84 2991.25 1312.03 2977.69 1308.77 2964.22 C 1305.52 2950.76 1302.16 2937.41 1298.62 2924.11 C 1295.1 2910.81 1291.24 2897.63 1287.97 2884.32 C 1284.68 2871.09 1281.38 2857.61 1279.28 2844.37 L 1279.21 2843.96 C 1277.91 2835.74 1283.52 2828.02 1291.74 2826.71 C 1298.81 2825.59 1305.51 2829.59 1308.08 2835.96 Z " fill="rgb(55,26,69)"/><path d=" M 2633.2 2844.37 C 2631.1 2857.61 2627.8 2871.09 2624.51 2884.32 C 2621.25 2897.63 2617.38 2910.81 2613.87 2924.11 C 2610.32 2937.41 2606.96 2950.76 2603.71 2964.22 C 2600.45 2977.69 2597.64 2991.25 2594.66 3005.11 L 2594.65 3005.15 C 2594.39 3006.33 2593.23 3007.08 2592.05 3006.83 C 2591.18 3006.64 2590.54 3005.94 2590.37 3005.11 C 2587.64 2991.05 2586.4 2976.72 2585.94 2962.42 C 2585.67 2948.13 2586.02 2933.8 2587.2 2919.58 C 2588.41 2905.38 2589.95 2891.17 2592.76 2877.23 C 2595.58 2863.23 2598.92 2849.59 2604.41 2835.96 C 2607.51 2828.25 2616.29 2824.51 2624.01 2827.62 C 2630.66 2830.29 2634.35 2837.17 2633.27 2843.95 L 2633.2 2844.37 Z " fill="rgb(55,26,69)"/></svg>