<?xml version="1.0" encoding="UTF-8"?>
<svg xmlns="http://www.w3.org/2000/svg" xmlns:xlink="http://www.w3.org/1999/xlink" width="96pt" height="96pt" viewBox="0 0 96 96" version="1.1">
<g id="surface6837680">
<path style=" stroke:none;fill-rule:nonzero;fill:rgb(60.784316%,34.901962%,71.372551%);fill-opacity:1;" d="M 45.804688 6.570312 C 47.164062 5.808594 48.835938 5.808594 50.191406 6.570312 C 56.902344 10.339844 77.09375 21.675781 83.804688 25.441406 C 85.164062 26.199219 86 27.609375 86 29.132812 C 86 36.664062 86 59.335938 86 66.867188 C 86 68.390625 85.164062 69.796875 83.804688 70.558594 C 77.097656 74.324219 56.902344 85.660156 50.191406 89.429688 C 48.835938 90.191406 47.160156 90.191406 45.804688 89.429688 C 39.097656 85.660156 18.902344 74.324219 12.191406 70.558594 C 10.835938 69.796875 10 68.390625 10 66.867188 C 10 59.335938 10 36.664062 10 29.132812 C 10 27.609375 10.835938 26.203125 12.195312 25.441406 C 18.902344 21.675781 39.097656 10.339844 45.804688 6.570312 Z M 45.804688 6.570312 "/>
<path style=" stroke:none;fill-rule:nonzero;fill:rgb(74.901962%,58.431375%,81.568629%);fill-opacity:1;" d="M 10.609375 68.808594 C 10.074219 68.097656 10 67.421875 10 66.511719 C 10 59.023438 10 36.480469 10 28.992188 C 10 27.476562 10.835938 26.074219 12.1875 25.320312 C 18.875 21.574219 38.996094 10.304688 45.683594 6.558594 C 47.039062 5.800781 48.871094 5.816406 50.226562 6.574219 C 56.910156 10.320312 76.96875 21.492188 83.652344 25.238281 C 84.195312 25.542969 84.605469 25.90625 84.972656 26.390625 Z M 10.609375 68.808594 "/>
<path style=" stroke:none;fill-rule:nonzero;fill:rgb(100%,100%,100%);fill-opacity:1;" d="M 48 20 C 32.539062 20 20 32.539062 20 48 C 20 63.460938 32.539062 76 48 76 C 63.460938 76 76 63.460938 76 48 C 76 32.539062 63.460938 20 48 20 Z M 48 62 C 40.28125 62 34 55.71875 34 48 C 34 40.28125 40.28125 34 48 34 C 55.71875 34 62 40.28125 62 48 C 62 55.71875 55.71875 62 48 62 Z M 48 62 "/>
<path style=" stroke:none;fill-rule:nonzero;fill:rgb(66.666669%,44.313726%,75.686276%);fill-opacity:1;" d="M 84.96875 26.410156 C 86.003906 27.375 85.980469 28.832031 85.980469 29.976562 C 85.980469 37.566406 85.917969 59.15625 86 66.746094 C 86.007812 67.539062 85.746094 68.371094 85.355469 69 L 47.1875 48 Z M 84.96875 26.410156 "/>
<path style=" stroke:none;fill-rule:nonzero;fill:rgb(100%,100%,100%);fill-opacity:1;" d="M 68 40 L 70 40 L 70 56 L 68 56 Z M 74 40 L 76 40 L 76 56 L 74 56 Z M 74 40 "/>
<path style=" stroke:none;fill-rule:nonzero;fill:rgb(100%,100%,100%);fill-opacity:1;" d="M 64 50 L 80 50 L 80 52 L 64 52 Z M 64 44 L 80 44 L 80 46 L 64 46 Z M 64 44 "/>
</g>
</svg>
