<?xml version="1.0" encoding="UTF-8" standalone="no"?><!-- Generator: Gravit.io --><svg xmlns="http://www.w3.org/2000/svg" xmlns:xlink="http://www.w3.org/1999/xlink" style="isolation:isolate" viewBox="0 0 4000 4000" width="4000pt" height="4000pt"><path d=" M 2318.25 2276.99 L 2318.25 2276.99 L 2318.25 2276.99 L 2318.25 2276.99 L 2318.25 2276.99 Z " fill="rgb(156,128,186)"/><g><path d=" M 0 0 L 0 4000 L 4000 4000 L 4000 0 L 0 0 Z " fill="none"/><g><g><g opacity="0"><path d=" M 4000 4000 L 0 4000 L 0 0 L 4000 0 L 4000 4000 Z " fill="rgb(255,255,255)"/></g></g></g><path d=" M 1624.13 3157.24 C 1562.99 3218.38 1463.86 3218.38 1402.72 3157.24 C 1341.58 3096.09 1341.58 2996.97 1402.72 2935.83 C 1463.86 2874.69 1562.99 2874.69 1624.13 2935.83 C 1685.27 2996.97 1685.27 3096.09 1624.13 3157.24 Z " fill="rgb(255,255,255)"/><path d=" M 1513.43 2892.47 C 1472.27 2892.47 1433.59 2908.5 1404.49 2937.59 C 1375.4 2966.69 1359.37 3005.38 1359.37 3046.53 C 1359.37 3087.68 1375.4 3126.37 1404.49 3155.47 C 1433.59 3184.56 1472.27 3200.59 1513.43 3200.59 C 1554.58 3200.59 1593.27 3184.56 1622.36 3155.47 C 1651.46 3126.37 1667.48 3087.68 1667.48 3046.53 C 1667.48 3005.38 1651.46 2966.69 1622.36 2937.59 C 1593.27 2908.5 1554.58 2892.47 1513.43 2892.47 Z  M 1513.43 3205.59 C 1470.94 3205.59 1431 3189.04 1400.96 3159 C 1370.91 3128.96 1354.37 3089.02 1354.37 3046.53 C 1354.37 3004.04 1370.91 2964.1 1400.96 2934.06 C 1431 2904.02 1470.94 2887.47 1513.43 2887.47 C 1555.91 2887.47 1595.86 2904.02 1625.9 2934.06 C 1655.94 2964.1 1672.48 3004.04 1672.48 3046.53 C 1672.48 3089.02 1655.94 3128.96 1625.9 3159 C 1595.86 3189.04 1555.91 3205.59 1513.43 3205.59 Z " fill="rgb(57,0,117)"/><path d=" M 1503.43 3178.1 C 1478.45 3178.1 1453.46 3172.15 1430.78 3160.26 C 1424.89 3155.96 1419.29 3151.18 1414.04 3145.92 C 1401.63 3133.51 1391.82 3119.18 1384.9 3103.61 C 1413.2 3125.91 1447.42 3137.06 1481.63 3137.06 C 1518.7 3137.06 1555.76 3123.98 1585.31 3097.82 C 1600.29 3102.89 1615.56 3107.69 1631.06 3112.21 C 1626.06 3119.23 1620.41 3125.93 1614.11 3132.23 C 1583.55 3162.81 1543.49 3178.1 1503.43 3178.1 Z " fill="rgb(195,178,213)"/><path d=" M 1513.43 2905.97 C 1475.88 2905.97 1440.59 2920.59 1414.04 2947.14 C 1387.49 2973.69 1372.87 3008.99 1372.87 3046.53 C 1372.87 3084.08 1387.49 3119.37 1414.04 3145.92 C 1440.59 3172.47 1475.88 3187.09 1513.43 3187.09 C 1550.97 3187.09 1586.27 3172.47 1612.82 3145.92 C 1639.36 3119.37 1653.99 3084.08 1653.99 3046.53 C 1653.99 3008.99 1639.36 2973.69 1612.82 2947.14 C 1586.27 2920.59 1550.97 2905.97 1513.43 2905.97 Z  M 1513.43 3219.09 C 1467.33 3219.09 1424 3201.14 1391.41 3168.55 C 1358.82 3135.96 1340.87 3092.62 1340.87 3046.53 C 1340.87 3000.44 1358.82 2957.11 1391.41 2924.51 C 1424 2891.92 1467.33 2873.97 1513.43 2873.97 C 1559.52 2873.97 1602.85 2891.92 1635.44 2924.51 C 1668.04 2957.11 1685.99 3000.44 1685.99 3046.53 C 1685.99 3092.62 1668.04 3135.96 1635.44 3168.55 C 1602.85 3201.14 1559.52 3219.09 1513.43 3219.09 Z " fill="rgb(57,0,117)"/><path d=" M 2372.02 3157.24 C 2433.16 3218.38 2532.29 3218.38 2593.43 3157.24 C 2654.57 3096.09 2654.57 2996.97 2593.43 2935.83 C 2532.29 2874.69 2433.16 2874.69 2372.02 2935.83 C 2310.88 2996.97 2310.88 3096.09 2372.02 3157.24 Z " fill="rgb(255,255,255)"/><path d=" M 2373.79 3155.47 C 2433.87 3215.54 2531.61 3215.53 2591.66 3155.47 C 2651.73 3095.4 2651.73 2997.66 2591.66 2937.59 C 2531.6 2877.53 2433.86 2877.53 2373.79 2937.59 C 2313.73 2997.66 2313.73 3095.4 2373.79 3155.47 Z  M 2482.72 3205.51 C 2442 3205.51 2401.26 3190.01 2370.25 3159 C 2308.24 3096.99 2308.24 2996.08 2370.25 2934.06 C 2432.27 2872.05 2533.18 2872.04 2595.2 2934.06 C 2657.22 2996.08 2657.22 3096.99 2595.2 3159 C 2564.19 3190.01 2523.46 3205.51 2482.72 3205.51 Z " fill="rgb(57,0,117)"/><path d=" M 2496.91 3178.1 C 2456.84 3178.1 2416.78 3162.81 2386.22 3132.23 C 2379.9 3125.91 2374.23 3119.17 2369.21 3112.12 C 2384.69 3107.61 2399.96 3102.8 2414.93 3097.73 C 2444.5 3123.95 2481.6 3137.06 2518.7 3137.06 C 2550.33 3137.06 2581.95 3127.54 2608.9 3108.49 C 2602.28 3122.02 2593.35 3134.69 2582.12 3145.92 C 2574 3154.04 2565.12 3160.96 2555.71 3166.67 C 2536.9 3174.29 2516.9 3178.1 2496.91 3178.1 Z " fill="rgb(195,178,213)"/><path d=" M 2383.33 3145.92 C 2438.14 3200.73 2527.32 3200.72 2582.12 3145.92 C 2636.92 3091.12 2636.92 3001.94 2582.12 2947.14 C 2527.31 2892.33 2438.13 2892.34 2383.33 2947.14 C 2328.53 3001.94 2328.53 3091.12 2383.33 3145.92 Z  M 2482.72 3219.01 C 2438.54 3219.01 2394.35 3202.19 2360.71 3168.55 C 2293.43 3101.27 2293.43 2991.79 2360.71 2924.51 C 2427.99 2857.24 2537.46 2857.23 2604.75 2924.51 C 2672.03 2991.79 2672.03 3101.27 2604.75 3168.55 C 2571.1 3202.19 2526.91 3219.01 2482.72 3219.01 Z " fill="rgb(57,0,117)"/><path d=" M 2802.36 2033.96 C 2709.32 2012.19 2609.15 1994.53 2503.65 1981.18 C 2503.64 1981.18 2503.61 1981.18 2503.6 1981.18 C 2503.38 1981.15 2503.16 1981.12 2502.95 1981.09 C 2502.9 1981.09 2502.86 1981.08 2502.81 1981.08 C 2502.6 1981.05 2502.36 1981.02 2502.14 1980.99 C 2502.1 1980.99 2502.09 1980.99 2502.04 1980.98 C 2501.83 1980.95 2501.6 1980.92 2501.39 1980.9 C 2501.34 1980.89 2501.31 1980.89 2501.26 1980.88 C 2501.03 1980.85 2500.84 1980.83 2500.61 1980.8 C 2500.56 1980.79 2500.54 1980.79 2500.49 1980.78 C 2500.27 1980.76 2500.06 1980.73 2499.84 1980.7 C 2499.8 1980.7 2499.76 1980.69 2499.71 1980.69 C 2499.5 1980.66 2499.27 1980.63 2499.06 1980.61 C 2499.01 1980.6 2498.98 1980.6 2498.93 1980.59 C 2498.75 1980.57 2498.53 1980.54 2498.35 1980.52 C 2498.27 1980.51 2498.2 1980.5 2498.12 1980.49 C 2497.96 1980.47 2497.78 1980.45 2497.62 1980.43 C 2497.51 1980.41 2497.39 1980.4 2497.28 1980.38 C 2497.17 1980.37 2497.02 1980.35 2496.91 1980.34 C 2496.78 1980.32 2496.64 1980.3 2496.51 1980.29 C 2496.36 1980.27 2496.22 1980.25 2496.08 1980.23 C 2495.96 1980.22 2495.83 1980.2 2495.72 1980.19 C 2495.59 1980.17 2495.48 1980.16 2495.35 1980.14 C 2495.21 1980.13 2495.04 1980.11 2494.9 1980.09 C 2494.8 1980.07 2494.69 1980.06 2494.59 1980.05 C 2494.43 1980.03 2494.23 1980 2494.07 1979.98 C 2494.01 1979.98 2493.91 1979.96 2493.84 1979.96 C 2493.67 1979.93 2493.49 1979.91 2493.32 1979.89 C 2493.22 1979.88 2493.11 1979.87 2493.02 1979.85 C 2492.84 1979.83 2492.68 1979.81 2492.5 1979.79 C 2492.42 1979.78 2492.36 1979.77 2492.28 1979.76 C 2492.08 1979.74 2491.87 1979.71 2491.68 1979.69 C 2491.63 1979.68 2491.56 1979.68 2491.51 1979.67 C 2491.27 1979.64 2491.04 1979.61 2490.8 1979.58 L 2490.78 1979.58 C 2490.54 1979.55 2490.31 1979.52 2490.07 1979.49 C 2490.02 1979.49 2489.99 1979.48 2489.94 1979.48 C 2489.71 1979.45 2489.48 1979.42 2489.26 1979.39 C 2489.22 1979.39 2489.21 1979.39 2489.17 1979.38 C 2488.95 1979.35 2488.69 1979.32 2488.46 1979.3 C 2488.43 1979.29 2488.41 1979.29 2488.38 1979.29 C 2487.88 1979.22 2487.38 1979.16 2486.87 1979.1 C 2486.84 1979.1 2486.83 1979.1 2486.79 1979.09 C 2444.63 1973.97 2401.6 1969.52 2357.9 1965.78 C 2399.55 1894.83 2421.35 1813.78 2421.35 1728.58 C 2421.35 1481 2232.32 1279.57 1999.97 1279.57 C 1767.66 1279.57 1578.65 1481 1578.65 1728.58 C 1578.65 1813.81 1600.45 1894.86 1642.08 1965.77 C 1482.6 1979.44 1332.59 2002.37 1197.63 2033.96 C 1186.53 1979.85 1180.92 1924.28 1180.92 1868.51 C 1180.92 1772.27 1197.61 1679.82 1228.24 1593.97 C 1353.68 1291.3 1651.98 1078.39 1999.99 1078.39 C 2348.01 1078.39 2646.3 1291.29 2771.75 1593.96 C 2802.39 1679.83 2819.07 1772.24 2819.07 1868.51 C 2819.07 1924.28 2813.45 1979.85 2802.36 2033.96 Z  M 2664.06 1732.31 C 2659.52 1732.31 2655.11 1733.68 2650.95 1736.25 C 2633.87 1746.82 2651.43 1818.68 2656.58 1844.05 C 2661.73 1869.42 2674.11 1945.92 2694.12 1949.02 C 2695.5 1949.24 2696.84 1949.34 2698.16 1949.34 C 2722.13 1949.34 2734.93 1913.49 2720.57 1832.89 C 2707.68 1760.53 2684.62 1732.31 2664.06 1732.31 Z  M 2434.33 1268.54 C 2424.25 1268.54 2415.64 1271.86 2409.2 1279.12 C 2381.27 1310.59 2467.07 1444.51 2492.64 1492.33 C 2517.72 1539.22 2579.18 1680.27 2621.17 1680.27 C 2622.01 1680.27 2622.83 1680.22 2623.65 1680.1 C 2679.35 1672.42 2674.86 1573.81 2606.95 1431.2 C 2566.51 1346.26 2483.12 1268.54 2434.33 1268.54 Z " fill="rgb(73,183,250)"/><path d=" M 1228.24 1593.97 C 1341.34 1276.9 1644.59 1049.39 1999.99 1049.39 C 2355.37 1049.39 2658.63 1276.93 2771.75 1593.96 C 2646.3 1291.29 2348.01 1078.39 1999.99 1078.39 C 1651.98 1078.39 1353.68 1291.3 1228.24 1593.97 Z " fill="rgb(164,219,253)"/><path d=" M 1999.99 1950.86 C 2293 1950.86 2569.97 1979.58 2802.36 2033.96 C 2813.45 1979.85 2819.07 1924.28 2819.07 1868.51 C 2819.07 1416.84 2451.64 1049.39 1999.99 1049.39 C 1548.35 1049.39 1180.92 1416.84 1180.92 1868.51 C 1180.92 1924.28 1186.53 1979.85 1197.63 2033.96 C 1429.98 1979.58 1706.95 1950.86 1999.99 1950.86 Z  M 1173.41 2072.67 L 1169.83 2056.83 C 1155.95 1995.46 1148.92 1932.1 1148.92 1868.51 C 1148.92 1399.2 1530.71 1017.39 1999.99 1017.39 C 2469.28 1017.39 2851.07 1399.2 2851.07 1868.51 C 2851.07 1932.1 2844.04 1995.46 2830.16 2056.83 L 2826.58 2072.67 L 2810.8 2068.86 C 2577.62 2012.6 2297.24 1982.87 1999.99 1982.87 C 1702.71 1982.87 1422.33 2012.6 1189.19 2068.86 L 1173.41 2072.67 Z " fill="rgb(57,0,117)"/><path d=" M 1999.99 1950.86 C 2293 1950.86 2569.97 1979.58 2802.36 2033.96 C 2813.45 1979.85 2819.07 1924.28 2819.07 1868.51 C 2819.07 1416.84 2451.64 1049.39 1999.99 1049.39 C 1548.35 1049.39 1180.92 1416.84 1180.92 1868.51 C 1180.92 1924.28 1186.53 1979.85 1197.63 2033.96 C 1429.98 1979.58 1706.95 1950.86 1999.99 1950.86 Z  M 1173.41 2072.67 L 1169.83 2056.83 C 1155.95 1995.46 1148.92 1932.1 1148.92 1868.51 C 1148.92 1399.2 1530.71 1017.39 1999.99 1017.39 C 2469.28 1017.39 2851.07 1399.2 2851.07 1868.51 C 2851.07 1932.1 2844.04 1995.46 2830.16 2056.83 L 2826.58 2072.67 L 2810.8 2068.86 C 2577.62 2012.6 2297.24 1982.87 1999.99 1982.87 C 1702.71 1982.87 1422.33 2012.6 1189.19 2068.86 L 1173.41 2072.67 Z " fill="rgb(57,0,117)"/><path d=" M 2821.68 2662.98 C 2821.68 2730.07 2798.52 2793.98 2756.63 2852.12 C 2631.61 3025.43 2339.89 3146.98 2000 3146.98 C 1660.08 3146.98 1368.36 3025.43 1243.37 2852.12 C 1201.48 2793.98 1178.32 2730.07 1178.32 2662.98 C 1178.32 2395.59 1546.18 2178.88 2000 2178.88 C 2453.78 2178.88 2821.68 2395.59 2821.68 2662.98 Z " fill="rgb(255,255,255)"/><path d=" M 1999.99 3111.99 C 1689.85 3111.99 1419.95 3010.77 1280.08 2861.39 C 1285.83 2862.89 1291.63 2864.39 1297.44 2865.86 C 1441.54 2959.64 1702.23 3022.31 1999.99 3022.31 C 2297.74 3022.31 2558.43 2959.64 2702.56 2865.85 C 2708.39 2864.37 2714.13 2862.89 2719.91 2861.38 C 2580.01 3010.76 2310.1 3111.99 1999.99 3111.99 Z " fill="rgb(195,178,213)"/><path d=" M 3319.22 2477.63 C 3319.22 2533.79 3282.03 2587.28 3214.78 2635.94 C 3014.04 2781 2545.69 2935.73 2000 2935.73 C 1454.25 2935.73 985.894 2781 785.222 2635.94 C 717.968 2587.28 680.78 2533.79 680.78 2477.63 C 680.78 2253.83 1271.39 2072.44 2000 2072.44 C 2728.55 2072.44 3319.22 2253.83 3319.22 2477.63 Z " fill="rgb(178,34,61)"/><path d=" M 2000 2074.94 C 1273.96 2074.94 683.281 2255.59 683.281 2477.63 C 683.281 2531.69 718.071 2584.27 786.689 2633.92 C 986.112 2778.07 1450.86 2933.23 2000 2933.23 C 2549.05 2933.23 3013.83 2778.07 3213.32 2633.92 C 3281.93 2584.27 3316.72 2531.69 3316.72 2477.63 C 3316.72 2255.59 2726.04 2074.94 2000 2074.94 Z  M 2000 2938.23 C 1449.75 2938.23 983.813 2782.58 783.759 2637.97 C 713.769 2587.33 678.281 2533.39 678.281 2477.63 C 678.281 2368.2 816.128 2265.6 1066.43 2188.72 C 1315.81 2112.12 1647.36 2069.94 2000 2069.94 C 2352.61 2069.94 2684.15 2112.12 2933.55 2188.72 C 3183.87 2265.6 3321.72 2368.2 3321.72 2477.63 C 3321.72 2533.38 3286.23 2587.33 3216.24 2637.97 C 3016.13 2782.58 2550.17 2938.23 2000 2938.23 Z " fill="rgb(57,0,117)"/><path d=" M 2000 2194.88 C 1555.74 2194.88 1194.32 2404.87 1194.32 2662.98 C 1194.32 2725.15 1215.19 2785.64 1256.35 2842.76 C 1382.62 3017.85 1674.52 3130.98 2000 3130.98 C 2325.45 3130.98 2617.35 3017.85 2743.65 2842.76 C 2784.81 2785.64 2805.68 2725.15 2805.68 2662.98 C 2805.68 2404.87 2444.26 2194.88 2000 2194.88 Z  M 2000 3162.98 C 1664.57 3162.98 1362.48 3044.63 1230.39 2861.48 C 1185.22 2798.78 1162.31 2732 1162.31 2662.98 C 1162.31 2527.76 1250.58 2401.3 1410.85 2306.88 C 1568.47 2214.02 1777.7 2162.88 2000 2162.88 C 2222.29 2162.88 2431.51 2214.02 2589.13 2306.88 C 2749.41 2401.3 2837.68 2527.77 2837.68 2662.98 C 2837.68 2732 2814.78 2798.78 2769.61 2861.47 C 2637.49 3044.63 2335.39 3162.98 2000 3162.98 Z " fill="rgb(57,0,117)"/><path d=" M 3319.22 2477.63 C 3319.22 2533.79 3282.03 2587.28 3214.78 2635.94 C 3014.04 2781 2545.69 2935.73 2000 2935.73 C 1454.25 2935.73 985.894 2781 785.222 2635.94 C 717.968 2587.28 680.78 2533.79 680.78 2477.63 C 680.78 2253.83 1271.39 2072.44 2000 2072.44 C 2728.55 2072.44 3319.22 2253.83 3319.22 2477.63 Z " fill="rgb(148,92,198)"/><path d=" M 2000 2074.94 C 1273.96 2074.94 683.281 2255.59 683.281 2477.63 C 683.281 2531.69 718.071 2584.27 786.689 2633.92 C 986.112 2778.07 1450.86 2933.23 2000 2933.23 C 2549.05 2933.23 3013.83 2778.07 3213.32 2633.92 C 3281.93 2584.27 3316.72 2531.69 3316.72 2477.63 C 3316.72 2255.59 2726.04 2074.94 2000 2074.94 Z  M 2000 2938.23 C 1449.75 2938.23 983.813 2782.58 783.759 2637.97 C 713.769 2587.33 678.281 2533.39 678.281 2477.63 C 678.281 2368.2 816.128 2265.6 1066.43 2188.72 C 1315.81 2112.12 1647.36 2069.94 2000 2069.94 C 2352.61 2069.94 2684.15 2112.12 2933.55 2188.72 C 3183.87 2265.6 3321.72 2368.2 3321.72 2477.63 C 3321.72 2533.38 3286.23 2587.33 3216.24 2637.97 C 3016.13 2782.58 2550.17 2938.23 2000 2938.23 Z " fill="rgb(16,39,112)"/><path d=" M 2000 2919.73 C 1523.86 2919.73 1112.01 2802.8 883.245 2678.12 C 983.448 2725.92 1113.49 2766.22 1263.8 2797.06 C 1474.06 2853.78 1727.38 2892.39 1999.99 2892.39 C 2272.53 2892.39 2525.81 2853.79 2736.07 2797.07 C 2886.41 2766.23 3016.53 2725.92 3116.77 2678.1 C 2887.96 2802.8 2476.09 2919.73 2000 2919.73 Z " fill="rgb(121,64,174)"/><path d=" M 2000 2088.44 C 1649.15 2088.44 1319.54 2130.34 1071.86 2206.41 C 833.49 2279.62 696.782 2378.48 696.782 2477.63 C 696.782 2527.11 729.692 2576.02 794.604 2622.98 C 992.314 2765.9 1453.86 2919.73 2000 2919.73 C 2546.05 2919.73 3007.63 2765.9 3205.41 2622.97 C 3270.31 2576.01 3303.22 2527.11 3303.22 2477.63 C 3303.22 2378.48 3166.5 2279.62 2928.12 2206.41 C 2680.43 2130.34 2350.82 2088.44 2000 2088.44 Z  M 2000 2951.73 C 1446.75 2951.73 977.612 2794.76 775.849 2648.91 C 702.148 2595.59 664.78 2537.96 664.78 2477.63 C 664.78 2361.77 806.015 2254.58 1062.46 2175.82 C 1313.1 2098.83 1646.06 2056.44 2000 2056.44 C 2353.92 2056.44 2686.87 2098.83 2937.51 2175.82 C 3193.98 2254.58 3335.22 2361.77 3335.22 2477.63 C 3335.22 2537.96 3297.85 2595.58 3224.16 2648.91 C 3022.33 2794.76 2553.16 2951.73 2000 2951.73 Z " fill="rgb(57,0,117)"/><path d=" M 3319.22 2444.51 C 3319.22 2500.67 3282.03 2554.16 3214.78 2602.82 C 3014.04 2747.88 2545.69 2849.61 2000 2849.61 C 1454.25 2849.61 985.894 2747.88 785.222 2602.82 C 717.968 2554.16 680.78 2500.67 680.78 2444.51 C 680.78 2220.71 1271.39 2039.32 2000 2039.32 C 2728.55 2039.32 3319.22 2220.71 3319.22 2444.51 Z " fill="rgb(255,255,255)"/><path d=" M 2000 2041.82 C 1273.96 2041.82 683.281 2222.46 683.281 2444.51 C 683.281 2498.57 718.071 2551.15 786.689 2600.79 C 993.686 2750.43 1469.94 2847.12 2000 2847.12 C 2530 2847.12 3006.25 2750.43 3213.32 2600.79 C 3281.93 2551.15 3316.72 2498.57 3316.72 2444.51 C 3316.72 2222.46 2726.04 2041.82 2000 2041.82 Z  M 2000 2852.12 C 1468.95 2852.12 991.552 2755.05 783.759 2604.84 C 713.769 2554.21 678.281 2500.26 678.281 2444.51 C 678.281 2335.08 816.128 2232.47 1066.43 2155.6 C 1315.81 2079 1647.36 2036.82 2000 2036.82 C 2352.61 2036.82 2684.15 2079 2933.55 2155.6 C 3183.87 2232.48 3321.72 2335.08 3321.72 2444.51 C 3321.72 2500.26 3286.23 2554.21 3216.24 2604.84 C 3008.38 2755.05 2530.98 2852.12 2000 2852.12 Z " fill="rgb(57,0,117)"/><path d=" M 3319.22 2444.51 C 3319.22 2500.67 3282.03 2554.16 3214.78 2602.82 C 3014.04 2747.88 2545.69 2849.61 2000 2849.61 C 1454.25 2849.61 985.894 2747.88 785.222 2602.82 C 717.968 2554.16 680.78 2500.67 680.78 2444.51 C 680.78 2220.71 1271.39 2039.32 2000 2039.32 C 2728.55 2039.32 3319.22 2220.71 3319.22 2444.51 Z " fill="rgb(255,255,255)"/><path d=" M 2000 2041.82 C 1273.96 2041.82 683.281 2222.46 683.281 2444.51 C 683.281 2498.57 718.071 2551.15 786.689 2600.79 C 993.686 2750.43 1469.94 2847.12 2000 2847.12 C 2530 2847.12 3006.25 2750.43 3213.32 2600.79 C 3281.93 2551.15 3316.72 2498.57 3316.72 2444.51 C 3316.72 2222.46 2726.04 2041.82 2000 2041.82 Z  M 2000 2852.12 C 1468.95 2852.12 991.552 2755.05 783.759 2604.84 C 713.769 2554.21 678.281 2500.26 678.281 2444.51 C 678.281 2335.08 816.128 2232.47 1066.43 2155.6 C 1315.81 2079 1647.36 2036.82 2000 2036.82 C 2352.61 2036.82 2684.15 2079 2933.55 2155.6 C 3183.87 2232.48 3321.72 2335.08 3321.72 2444.51 C 3321.72 2500.26 3286.23 2554.21 3216.24 2604.84 C 3008.38 2755.05 2530.98 2852.12 2000 2852.12 Z " fill="rgb(57,0,117)"/><path d=" M 2000 2833.61 C 1472.59 2833.61 999.443 2737.93 794.604 2589.85 C 745.508 2554.34 714.72 2517.71 702.631 2480.56 C 720.227 2509.94 748.153 2538.23 785.234 2565.07 C 985.874 2710.11 1454.23 2811.87 1999.99 2811.87 C 2545.67 2811.87 3014.03 2710.11 3214.79 2565.07 C 3251.83 2538.24 3279.74 2509.99 3297.35 2480.62 C 3285.24 2517.75 3254.46 2554.36 3205.41 2589.85 C 3000.5 2737.93 2527.34 2833.61 2000 2833.61 Z " fill="rgb(195,178,213)"/><path d=" M 2000 2055.32 C 1649.15 2055.32 1319.54 2097.21 1071.86 2173.28 C 833.49 2246.49 696.782 2345.35 696.782 2444.51 C 696.782 2493.99 729.692 2542.89 794.604 2589.85 C 999.443 2737.93 1472.59 2833.61 2000 2833.61 C 2527.34 2833.61 3000.5 2737.93 3205.41 2589.85 C 3270.31 2542.89 3303.22 2493.99 3303.22 2444.51 C 3303.22 2345.35 3166.5 2246.5 2928.12 2173.28 C 2680.43 2097.21 2350.82 2055.32 2000 2055.32 Z  M 2000 2865.62 C 1466.3 2865.62 985.795 2767.55 775.849 2615.78 C 702.148 2562.46 664.78 2504.84 664.78 2444.51 C 664.78 2328.65 806.015 2221.46 1062.46 2142.69 C 1313.1 2065.71 1646.06 2023.32 2000 2023.32 C 2353.92 2023.32 2686.87 2065.71 2937.51 2142.69 C 3193.98 2221.46 3335.22 2328.65 3335.22 2444.51 C 3335.22 2504.84 3297.85 2562.46 3224.16 2615.78 C 3014.14 2767.55 2533.63 2865.62 2000 2865.62 Z " fill="rgb(57,0,117)"/><path d=" M 3319.22 2372.07 C 3319.22 2428.23 3282.03 2481.72 3214.78 2530.38 C 3014.04 2675.44 2545.69 2777.17 2000 2777.17 C 1454.25 2777.17 985.894 2675.44 785.222 2530.38 C 717.968 2481.72 680.78 2428.23 680.78 2372.07 C 680.78 2148.27 1271.39 1966.88 2000 1966.88 C 2728.55 1966.88 3319.22 2148.27 3319.22 2372.07 Z " fill="rgb(184,197,211)"/><path d=" M 1999.99 2761.19 C 1472.6 2761.19 999.453 2665.5 794.614 2517.42 C 739.064 2477.23 706.951 2435.62 698.846 2393.43 C 716.085 2425.2 745.371 2455.72 785.234 2484.55 C 985.874 2629.59 1454.23 2731.35 1999.99 2731.35 C 2545.67 2731.35 3014.03 2629.59 3214.79 2484.55 C 3254.65 2455.71 3283.94 2425.16 3301.19 2393.37 C 3293.1 2435.56 3260.99 2477.19 3205.42 2517.42 C 3000.45 2665.5 2527.29 2761.19 1999.99 2761.19 Z " fill="rgb(227,232,237)"/><path d=" M 3302.22 2357.25 C 3217.47 2196.33 2824.19 2067.19 2314.84 2028.88 C 2319.64 2021.94 2324.57 2015.07 2329.66 2008.27 C 2332.62 2004.31 2335.52 2000.3 2338.35 1996.25 C 2508.8 2010.1 2668.58 2034.55 2810.8 2068.86 C 3105.93 2140.13 3287.23 2247.02 3302.22 2357.25 Z  M 697.808 2357.23 C 712.821 2247.01 894.098 2140.12 1189.19 2068.86 C 1331.39 2034.55 1491.18 2010.1 1661.64 1996.25 C 1664.47 2000.3 1667.37 2004.31 1670.34 2008.28 C 1675.42 2015.07 1680.36 2021.94 1685.16 2028.88 C 1175.83 2067.18 782.572 2196.33 697.808 2357.23 Z " fill="rgb(227,232,237)"/><path d=" M 2666.48 2342.78 C 2556.35 2400.45 2299.39 2440.89 2000 2440.89 C 1700.58 2440.89 1443.62 2400.45 1333.52 2342.78 C 1443.62 2285.08 1700.58 2244.64 2000 2244.64 C 2299.39 2244.64 2556.35 2285.08 2666.48 2342.78 Z " fill="rgb(57,0,117)"/><path d=" M 1371.83 2342.78 C 1495.96 2393.14 1735.41 2424.91 1999.99 2424.91 C 2264.57 2424.91 2504.02 2393.14 2628.16 2342.78 C 2504.11 2292.4 2264.67 2260.63 1999.99 2260.63 C 1735.31 2260.63 1495.88 2292.4 1371.83 2342.78 Z  M 1999.99 2456.91 C 1706.6 2456.91 1442.08 2417.68 1326.09 2356.96 L 1299.03 2342.8 L 1326.09 2328.61 C 1441.97 2267.87 1706.49 2228.63 1999.99 2228.63 C 2293.49 2228.63 2558.02 2267.87 2673.9 2328.61 L 2700.96 2342.8 L 2673.9 2356.96 C 2557.9 2417.68 2293.38 2456.91 1999.99 2456.91 Z " fill="rgb(57,0,117)"/><path d=" M 2000 2134.78 C 1807.79 2134.78 1627.27 2151.39 1491.67 2181.57 C 1344.61 2214.3 1292.22 2253.79 1292.22 2279.85 C 1292.22 2294.82 1309.52 2312.14 1340.95 2328.61 C 1452.61 2387.09 1711.31 2424.89 2000 2424.89 C 2288.66 2424.89 2547.36 2387.09 2659.06 2328.6 C 2690.48 2312.13 2707.78 2294.82 2707.78 2279.85 C 2707.78 2253.8 2655.38 2214.3 2508.31 2181.57 C 2372.71 2151.39 2192.19 2134.78 2000 2134.78 Z  M 2000 2456.89 C 1706.52 2456.89 1442 2417.66 1326.1 2356.95 C 1282.38 2334.04 1260.21 2308.1 1260.21 2279.85 C 1260.21 2227.06 1335.75 2183.49 1484.73 2150.33 C 1622.53 2119.66 1805.53 2102.77 2000 2102.77 C 2194.46 2102.77 2377.45 2119.66 2515.26 2150.33 C 2664.24 2183.49 2739.78 2227.06 2739.78 2279.85 C 2739.78 2308.1 2717.62 2334.04 2673.91 2356.95 C 2557.96 2417.66 2293.44 2456.89 2000 2456.89 Z " fill="rgb(57,0,117)"/><path d=" M 2723.79 2279.87 C 2723.79 2302.19 2703.39 2323.43 2666.47 2342.79 C 2556.35 2285.07 2299.39 2244.63 1999.99 2244.63 C 1700.59 2244.63 1443.63 2285.07 1333.51 2342.79 C 1296.63 2323.43 1276.23 2302.19 1276.23 2279.87 C 1276.23 2190.87 1600.23 2118.79 1999.99 2118.79 C 2399.71 2118.79 2723.79 2190.87 2723.79 2279.87 Z " fill="rgb(153,153,153)"/><path d=" M 1999.99 2228.63 C 2287.17 2228.63 2546.6 2266.2 2666.2 2324.72 C 2693.1 2309.42 2707.79 2293.64 2707.79 2279.87 C 2707.79 2253.8 2655.39 2214.3 2508.31 2181.57 C 2372.73 2151.4 2192.21 2134.79 1999.99 2134.79 C 1807.77 2134.79 1627.25 2151.4 1491.68 2181.57 C 1344.63 2214.29 1292.24 2253.8 1292.24 2279.87 C 1292.24 2293.64 1306.92 2309.42 1333.8 2324.71 C 1453.4 2266.2 1712.83 2228.63 1999.99 2228.63 Z  M 1333.51 2360.85 L 1326.08 2356.95 C 1282.39 2334.02 1260.23 2308.08 1260.23 2279.87 C 1260.23 2227.06 1335.77 2183.48 1484.73 2150.34 C 1622.51 2119.67 1805.5 2102.79 1999.99 2102.79 C 2194.47 2102.79 2377.47 2119.67 2515.26 2150.34 C 2664.25 2183.49 2739.79 2227.07 2739.79 2279.87 C 2739.79 2308.09 2717.63 2334.03 2673.91 2356.96 L 2666.47 2360.85 L 2659.05 2356.96 C 2547.4 2298.44 2288.71 2260.63 1999.99 2260.63 C 1711.28 2260.63 1452.58 2298.44 1340.94 2356.96 L 1333.51 2360.85 Z " fill="rgb(57,0,117)"/><path d=" M 1371.83 2342.78 C 1495.96 2393.14 1735.41 2424.91 1999.99 2424.91 C 2264.57 2424.91 2504.02 2393.14 2628.16 2342.78 C 2504.11 2292.4 2264.67 2260.63 1999.99 2260.63 C 1735.31 2260.63 1495.88 2292.4 1371.83 2342.78 Z  M 1999.99 2456.91 C 1706.6 2456.91 1442.08 2417.68 1326.09 2356.96 L 1299.03 2342.8 L 1326.09 2328.61 C 1441.97 2267.87 1706.49 2228.63 1999.99 2228.63 C 2293.49 2228.63 2558.02 2267.87 2673.9 2328.61 L 2700.96 2342.8 L 2673.9 2356.96 C 2557.9 2417.68 2293.38 2456.91 1999.99 2456.91 Z " fill="rgb(57,0,117)"/><path d=" M 1999.99 1982.87 C 1702.7 1982.87 1422.33 2012.6 1189.19 2068.86 C 880.869 2143.31 696.796 2256.66 696.796 2372.07 C 696.796 2421.56 729.707 2470.46 794.614 2517.42 C 999.453 2665.5 1472.6 2761.19 1999.99 2761.19 C 2527.29 2761.19 3000.45 2665.5 3205.42 2517.42 C 3270.32 2470.44 3303.23 2421.53 3303.23 2372.07 C 3303.23 2256.67 3119.14 2143.32 2810.8 2068.86 C 2577.62 2012.6 2297.24 1982.87 1999.99 1982.87 Z  M 1999.99 2793.19 C 1466.3 2793.19 985.805 2695.12 775.859 2543.35 C 702.162 2490.03 664.795 2432.4 664.795 2372.07 C 664.795 2238.93 853.193 2117.08 1181.68 2037.75 C 1417.25 1980.91 1700.22 1950.86 1999.99 1950.86 C 2299.73 1950.86 2582.7 1980.91 2818.31 2037.75 C 3146.82 2117.08 3335.23 2238.93 3335.23 2372.07 C 3335.23 2432.37 3297.87 2490 3224.18 2543.35 C 3014.1 2695.12 2533.58 2793.19 1999.99 2793.19 Z " fill="rgb(57,0,117)"/><path d=" M 2280.27 2393.84 C 2284.89 2408.23 2275.23 2423.26 2260.21 2424.88 C 2231.46 2427.99 2201.65 2430.67 2170.94 2432.91 C 2099.96 2438.11 2024.11 2440.89 1945.38 2440.89 C 1906.63 2440.89 1868.57 2440.23 1831.44 2438.9 C 1817.5 2438.4 1803.69 2437.84 1790.04 2437.15 C 1772.8 2436.31 1755.78 2435.35 1739.03 2434.24 C 1724.17 2433.26 1713.94 2419.08 1717.5 2404.62 C 1730.04 2353.77 1751.92 2295.63 1790.04 2243.41 C 1797.36 2233.38 1805.3 2223.56 1813.88 2214.06 C 1820.3 2206.95 1830.45 2204.5 1839.46 2207.75 C 1943.82 2245.39 2058.07 2245.53 2162.51 2208.14 C 2172.23 2204.66 2183.12 2207.79 2189.42 2215.98 C 2234 2273.91 2262.31 2338.05 2280.27 2393.84 Z " fill="rgb(255,255,255)"/><path d=" M 1831.31 2208.82 C 1825.46 2208.82 1819.79 2211.24 1815.73 2215.74 C 1807.47 2224.89 1799.51 2234.69 1792.06 2244.89 C 1759.4 2289.62 1735.14 2343.56 1719.93 2405.22 C 1718.4 2411.44 1719.68 2417.95 1723.44 2423.09 C 1727.16 2428.18 1732.9 2431.33 1739.19 2431.75 C 1755.89 2432.85 1773.04 2433.82 1790.16 2434.65 C 1803.8 2435.34 1817.6 2435.91 1831.53 2436.4 C 1868.44 2437.72 1906.74 2438.39 1945.38 2438.39 C 2022.7 2438.39 2098.53 2435.7 2170.76 2430.41 C 2201.22 2428.19 2231.23 2425.5 2259.95 2422.4 C 2266.32 2421.71 2271.97 2418.23 2275.47 2412.86 C 2278.99 2407.43 2279.87 2400.78 2277.89 2394.61 C 2256.03 2326.67 2225.6 2267.09 2187.44 2217.5 C 2181.79 2210.17 2172.11 2207.35 2163.36 2210.49 C 2058.6 2247.99 1943.28 2247.86 1838.61 2210.1 C 1836.22 2209.24 1833.75 2208.82 1831.31 2208.82 Z  M 1945.38 2443.39 C 1906.68 2443.39 1868.32 2442.72 1831.35 2441.4 C 1817.4 2440.9 1803.57 2440.34 1789.91 2439.64 C 1772.77 2438.82 1755.6 2437.84 1738.86 2436.74 C 1731.09 2436.22 1724 2432.32 1719.4 2426.04 C 1714.76 2419.71 1713.19 2411.68 1715.08 2404.02 C 1730.44 2341.73 1754.98 2287.2 1788.02 2241.94 C 1795.57 2231.61 1803.65 2221.66 1812.02 2212.39 C 1819.13 2204.51 1830.22 2201.76 1840.31 2205.4 C 1943.89 2242.76 2058.02 2242.89 2161.67 2205.78 C 2172.49 2201.91 2184.44 2205.4 2191.41 2214.45 C 2229.91 2264.5 2260.61 2324.59 2282.65 2393.08 L 2282.65 2393.08 C 2285.1 2400.69 2284 2408.89 2279.66 2415.58 C 2275.35 2422.22 2268.35 2426.52 2260.48 2427.37 C 2231.7 2430.47 2201.64 2433.18 2171.12 2435.4 C 2098.78 2440.7 2022.83 2443.39 1945.38 2443.39 Z " fill="rgb(57,0,117)"/><path d=" M 1945.38 2424.89 C 1917.49 2424.89 1889.78 2424.54 1862.65 2423.85 L 1862.65 2370.98 C 1889.81 2371.67 1917.42 2372.03 1945.39 2372.03 C 2014.45 2372.03 2081.3 2369.87 2144.6 2365.83 L 2144.6 2418.68 C 2080.33 2422.8 2013.44 2424.89 1945.38 2424.89 Z  M 1741.55 2418.37 C 1741.48 2418.37 1741.41 2418.36 1741.34 2418.36 C 1737.75 2418.12 1735.7 2416 1734.79 2414.76 C 1733.86 2413.49 1732.45 2410.84 1733.33 2407.26 C 1733.71 2405.76 1734.09 2404.25 1734.48 2402.75 C 1736.79 2403.77 1739.15 2404.68 1741.55 2405.47 L 1741.55 2418.37 Z " fill="rgb(186,166,207)"/><path d=" M 1829.19 2221.03 C 1819.92 2231 1811.13 2241.67 1802.96 2252.85 C 1771.56 2295.85 1748.14 2347.81 1733.33 2407.26 C 1732.45 2410.84 1733.86 2413.49 1734.79 2414.76 C 1735.7 2416 1737.75 2418.12 1741.34 2418.36 C 1757.62 2419.42 1774.26 2420.37 1790.8 2421.16 C 1804.42 2421.86 1818.15 2422.42 1832.01 2422.91 C 1868.76 2424.22 1906.9 2424.89 1945.38 2424.89 C 2022.38 2424.89 2097.88 2422.22 2169.77 2416.95 C 2196.39 2415.01 2222.71 2412.7 2248.03 2410.08 C 2252.97 2409.57 2257.34 2406.88 2260.02 2402.71 C 2262.7 2398.53 2263.32 2393.44 2261.73 2388.73 L 2261.73 2388.73 C 2239.88 2324.27 2210.15 2267.99 2173.25 2221.26 C 2061.87 2262.63 1940.56 2262.55 1829.19 2221.03 Z  M 1945.38 2456.89 C 1906.52 2456.89 1868 2456.21 1830.87 2454.89 C 1816.85 2454.39 1802.95 2453.82 1789.22 2453.12 C 1772.54 2452.32 1755.71 2451.37 1739.25 2450.29 C 1727.14 2449.5 1716.1 2443.43 1708.94 2433.63 C 1701.76 2423.8 1699.34 2411.37 1702.28 2399.54 C 1718.09 2336.04 1743.27 2280.34 1777.12 2233.98 C 1788.31 2218.66 1800.6 2204.2 1813.65 2191.02 L 1821.1 2183.5 L 1830.93 2187.41 C 1941.07 2231.21 2062.35 2231.16 2172.44 2187.28 L 2183.24 2182.98 L 2190.67 2191.92 C 2233.42 2243.37 2267.52 2306.13 2292.03 2378.46 L 2292.03 2378.46 C 2296.77 2392.44 2294.92 2407.57 2286.96 2419.99 C 2278.99 2432.4 2266.01 2440.39 2251.32 2441.91 C 2225.68 2444.56 2199.03 2446.9 2172.1 2448.86 C 2099.44 2454.19 2023.15 2456.89 1945.38 2456.89 Z " fill="rgb(57,0,117)"/><path d=" M 2405.35 1728.59 C 2405.35 1830.77 2372.22 1924.62 2316.85 1998.69 C 2262.28 2071.68 2223.32 2154.08 2202.21 2240.74 L 2202.17 2240.78 C 2072.34 2292.51 1927.66 2292.56 1797.83 2240.93 C 1776.72 2154.22 1737.77 2071.72 1683.15 1998.69 C 1627.78 1924.67 1594.65 1830.77 1594.65 1728.59 C 1594.65 1489.43 1776.11 1295.57 1999.98 1295.57 C 2223.84 1295.57 2405.35 1489.43 2405.35 1728.59 Z " fill="rgb(129,239,54)"/><path d=" M 1999.81 2263.78 C 1964.71 2263.78 1929.6 2260.27 1894.96 2253.24 C 1887.59 2239.08 1876.16 2228.86 1862.65 2225.13 L 1862.65 2178.64 C 1902.96 2201.43 1949 2214.09 1996.91 2214.09 C 2001.13 2214.09 2005.36 2214 2009.61 2213.8 C 2011.81 2213.7 2014.01 2213.59 2016.2 2213.47 C 2062.45 2211.07 2106.35 2197.16 2144.6 2174.05 L 2144.6 2225.13 C 2131.67 2228.7 2120.65 2238.21 2113.26 2251.42 C 2075.84 2259.66 2037.83 2263.78 1999.81 2263.78 Z  M 1770.84 2114.76 C 1750.63 2070.75 1725.62 2028.75 1695.97 1989.11 C 1664.65 1947.25 1641.62 1900.51 1627.43 1850.63 C 1641.85 1886.46 1660.68 1919.8 1683.15 1949.87 C 1708.72 1984.06 1730.85 2020.33 1749.33 2058.13 C 1758.38 2076.64 1769.31 2093.85 1781.81 2109.57 C 1779.98 2110.22 1778.18 2110.95 1776.42 2111.78 C 1774.5 2112.68 1772.64 2113.68 1770.84 2114.76 Z  M 2230.59 2111.67 C 2226.99 2110 2223.28 2108.7 2219.48 2107.78 C 2231.48 2092.5 2241.98 2075.83 2250.72 2057.97 C 2269.18 2020.22 2291.3 1984.01 2316.83 1949.87 C 2339.31 1919.81 2358.12 1886.51 2372.53 1850.71 C 2358.34 1900.55 2335.32 1947.26 2304.03 1989.11 C 2275.08 2027.84 2250.54 2068.79 2230.59 2111.67 Z " fill="rgb(107,167,73)"/><path d=" M 2381.37 1644.36 C 2325 1477.6 2175.51 1358.39 1999.99 1358.39 C 1824.51 1358.39 1675.05 1477.51 1618.66 1644.18 C 1655.2 1454.57 1812.29 1311.57 1999.97 1311.57 C 2187.75 1311.57 2344.9 1454.64 2381.37 1644.36 Z " fill="rgb(192,247,155)"/><path d=" M 2202.22 2240.74 L 2202.26 2240.74 L 2202.22 2240.74 Z  M 1811.35 2229.01 C 1933.36 2275.42 2066.71 2275.36 2188.69 2228.86 C 2210.85 2142.48 2249.64 2061.86 2304.03 1989.11 C 2359.85 1914.45 2389.35 1824.36 2389.35 1728.58 C 2389.35 1498.64 2214.68 1311.57 1999.97 1311.57 C 1785.3 1311.57 1610.65 1498.64 1610.65 1728.58 C 1610.65 1824.41 1640.15 1914.5 1695.97 1989.11 C 1750.37 2061.85 1789.16 2142.52 1811.35 2229.01 Z  M 1999.81 2295.78 C 1929.37 2295.78 1858.95 2282.45 1791.92 2255.79 L 1784.24 2252.74 L 1782.28 2244.71 C 1761.51 2159.36 1723.84 2079.81 1670.34 2008.28 C 1610.36 1928.09 1578.65 1831.38 1578.65 1728.58 C 1578.65 1481 1767.66 1279.57 1999.97 1279.57 C 2232.32 1279.57 2421.35 1481 2421.35 1728.58 C 2421.35 1831.32 2389.64 1928.04 2329.66 2008.27 C 2276.17 2079.81 2238.52 2159.3 2217.76 2244.52 L 2216.65 2249.1 L 2211 2254.46 L 2208.09 2255.65 C 2140.94 2282.4 2070.37 2295.78 1999.81 2295.78 Z " fill="rgb(57,0,117)"/><path d=" M 1905.46 1800.1 C 1937.56 1869.86 1923.64 1944.79 1874.37 1967.46 C 1825.1 1990.14 1759.13 1951.96 1727.03 1882.2 C 1694.93 1812.44 1708.85 1737.51 1758.13 1714.84 C 1807.4 1692.17 1873.36 1730.34 1905.46 1800.1 Z " fill="rgb(57,0,117)"/><path d=" M 1838.76 1807.75 C 1837.24 1838.76 1814.72 1862.86 1788.46 1861.57 C 1762.2 1860.28 1742.15 1834.09 1743.68 1803.08 C 1745.2 1772.06 1767.72 1747.97 1793.98 1749.26 C 1820.24 1750.55 1840.29 1776.74 1838.76 1807.75 Z " fill="rgb(255,255,255)"/><path d=" M 1791.96 1751.71 C 1780.69 1751.71 1769.89 1756.65 1761.38 1765.76 C 1752.28 1775.49 1746.88 1788.79 1746.17 1803.2 C 1744.72 1832.79 1763.74 1857.85 1788.58 1859.07 C 1813.57 1860.3 1834.81 1837.21 1836.26 1807.63 C 1836.97 1793.22 1832.9 1779.45 1824.8 1768.88 C 1816.8 1758.42 1805.81 1752.34 1793.86 1751.76 C 1793.22 1751.72 1792.59 1751.71 1791.96 1751.71 Z  M 1790.46 1864.12 C 1789.76 1864.12 1789.05 1864.1 1788.34 1864.07 C 1760.75 1862.71 1739.59 1835.29 1741.18 1802.96 C 1741.94 1787.36 1747.82 1772.94 1757.73 1762.35 C 1767.73 1751.64 1780.6 1746.13 1794.1 1746.76 C 1807.55 1747.42 1819.86 1754.2 1828.77 1765.84 C 1837.59 1777.35 1842.03 1792.28 1841.25 1807.87 C 1839.71 1839.38 1817.14 1864.12 1790.46 1864.12 Z " fill="rgb(57,0,117)"/><path d=" M 1874.08 1905.33 C 1873.4 1919.15 1863.37 1929.89 1851.67 1929.31 C 1839.97 1928.74 1831.03 1917.07 1831.71 1903.25 C 1832.39 1889.43 1842.42 1878.69 1854.13 1879.27 C 1865.83 1879.84 1874.76 1891.51 1874.08 1905.33 Z " fill="rgb(255,255,255)"/><path d=" M 1853.23 1881.11 C 1842.92 1881.11 1834.18 1890.89 1833.57 1903.34 C 1833.27 1909.58 1835.03 1915.54 1838.53 1920.11 C 1841.96 1924.59 1846.65 1927.2 1851.76 1927.45 C 1856.85 1927.68 1861.79 1925.57 1865.64 1921.44 C 1869.57 1917.24 1871.91 1911.48 1872.22 1905.24 C 1872.84 1892.47 1864.69 1881.66 1854.03 1881.13 C 1853.76 1881.12 1853.5 1881.11 1853.23 1881.11 Z  M 1852.57 1931.2 C 1852.24 1931.2 1851.91 1931.2 1851.57 1931.18 C 1845.36 1930.88 1839.67 1927.75 1835.56 1922.38 C 1831.52 1917.11 1829.49 1910.28 1829.84 1903.16 C 1830.57 1888.33 1841.31 1876.68 1854.22 1877.4 C 1866.93 1878.03 1876.67 1890.6 1875.95 1905.42 C 1875.6 1912.55 1872.91 1919.14 1868.37 1924 C 1864 1928.67 1858.43 1931.2 1852.57 1931.2 Z " fill="rgb(57,0,117)"/><path d=" M 2094.54 1800.1 C 2062.44 1869.86 2076.36 1944.79 2125.63 1967.46 C 2174.9 1990.14 2240.87 1951.96 2272.97 1882.2 C 2305.07 1812.44 2291.15 1737.51 2241.88 1714.84 C 2192.6 1692.17 2126.64 1730.34 2094.54 1800.1 Z " fill="rgb(57,0,117)"/><path d=" M 2161.24 1807.75 C 2162.76 1838.76 2185.28 1862.86 2211.54 1861.57 C 2237.8 1860.28 2257.85 1834.09 2256.32 1803.08 C 2254.8 1772.06 2232.28 1747.97 2206.02 1749.26 C 2179.76 1750.55 2159.71 1776.74 2161.24 1807.75 Z " fill="rgb(255,255,255)"/><path d=" M 2208.04 1751.71 C 2207.41 1751.71 2206.78 1751.72 2206.14 1751.76 C 2194.19 1752.34 2183.2 1758.42 2175.2 1768.88 C 2167.1 1779.45 2163.03 1793.22 2163.73 1807.63 C 2165.19 1837.21 2186.47 1860.27 2211.42 1859.07 C 2236.25 1857.85 2255.28 1832.79 2253.83 1803.2 C 2253.12 1788.79 2247.72 1775.49 2238.62 1765.76 C 2230.11 1756.65 2219.32 1751.71 2208.04 1751.71 Z  M 2209.54 1864.12 C 2182.86 1864.12 2160.29 1839.38 2158.74 1807.87 C 2157.98 1792.28 2162.41 1777.35 2171.23 1765.84 C 2180.14 1754.2 2192.45 1747.42 2205.9 1746.76 C 2219.25 1746.11 2232.26 1751.63 2242.27 1762.35 C 2252.18 1772.94 2258.06 1787.36 2258.82 1802.96 C 2260.41 1835.29 2239.25 1862.71 2211.66 1864.07 C 2210.95 1864.1 2210.24 1864.12 2209.54 1864.12 Z " fill="rgb(57,0,117)"/><path d=" M 2125.92 1905.33 C 2126.6 1919.15 2136.63 1929.89 2148.33 1929.31 C 2160.03 1928.74 2168.97 1917.07 2168.29 1903.25 C 2167.61 1889.43 2157.58 1878.69 2145.88 1879.27 C 2134.17 1879.84 2125.24 1891.51 2125.92 1905.33 Z " fill="rgb(255,255,255)"/><path d=" M 2127.78 1905.24 C 2128.41 1918.01 2137.47 1927.94 2148.24 1927.45 C 2153.34 1927.2 2158.04 1924.59 2161.47 1920.11 C 2164.97 1915.54 2166.73 1909.58 2166.43 1903.34 C 2165.8 1890.57 2156.44 1880.6 2145.97 1881.13 C 2135.31 1881.66 2127.16 1892.47 2127.78 1905.24 Z  M 2147.44 1931.2 C 2135.16 1931.2 2124.77 1919.87 2124.05 1905.42 C 2123.32 1890.6 2133.07 1878.03 2145.78 1877.4 C 2158.47 1876.7 2169.43 1888.33 2170.16 1903.16 C 2170.51 1910.28 2168.48 1917.11 2164.44 1922.38 C 2160.33 1927.75 2154.64 1930.88 2148.43 1931.18 C 2148.1 1931.2 2147.77 1931.2 2147.44 1931.2 Z " fill="rgb(57,0,117)"/><path d=" M 1933.17 1996.94 C 1941.88 2014.48 1949.26 2026.55 1959.99 2035.77 C 1965.28 2040.34 1971.21 2044.45 1978.02 2047.37 C 1984.81 2050.28 1992.42 2051.83 2000 2051.65 C 2015.33 2051.46 2029.55 2044.77 2039.91 2035.66 C 2041.26 2034.54 2042.58 2033.38 2043.7 2032.03 C 2044.27 2031.38 2044.93 2030.78 2045.56 2030.16 L 2047.23 2028.1 L 2048.92 2026.03 C 2049.41 2025.29 2049.85 2024.51 2050.39 2023.78 C 2051.47 2022.32 2052.52 2020.81 2053.44 2019.18 C 2057.58 2012.85 2061.4 2005.7 2066.83 1996.94 L 2066.88 1996.86 C 2067.58 1995.74 2069.05 1995.39 2070.18 1996.08 C 2070.53 1996.3 2070.81 1996.6 2071 1996.94 C 2076.24 2006.16 2077.25 2017.04 2074.87 2027.5 L 2073.88 2031.41 L 2072.38 2035.19 C 2071.88 2036.45 2071.31 2037.68 2070.74 2038.92 L 2068.7 2042.47 C 2067.38 2044.88 2065.87 2047.18 2064.12 2049.3 C 2062.49 2051.53 2060.61 2053.53 2058.65 2055.47 C 2050.85 2063.23 2041.17 2068.82 2031.05 2072.13 C 2020.92 2075.5 2010.41 2076.88 2000 2076.8 C 1989.59 2076.59 1979.18 2075.06 1969.09 2071.76 C 1959.03 2068.48 1949.2 2063.18 1941.44 2055.36 C 1933.68 2047.63 1928.06 2037.63 1925.88 2027.21 C 1923.74 2016.78 1924.66 2006.15 1929 1996.94 C 1929.55 1995.79 1930.92 1995.29 1932.07 1995.83 C 1932.56 1996.07 1932.92 1996.45 1933.15 1996.89 L 1933.17 1996.94 Z " fill="rgb(57,0,117)"/><path d=" M 1846.65 2166.64 L 1846.65 2437.15 C 1819.85 2435.85 1793.58 2434.23 1768.01 2432.28 C 1764.5 2432.01 1761.03 2431.75 1757.55 2431.45 L 1757.55 2166.64 C 1757.55 2148.79 1768.05 2133.38 1783.22 2126.26 C 1788.95 2123.58 1795.34 2122.09 1802.1 2122.09 C 1806.87 2122.09 1811.44 2122.82 1815.71 2124.21 C 1822.53 2126.39 1828.66 2130.17 1833.6 2135.14 C 1841.64 2143.19 1846.65 2154.35 1846.65 2166.64 Z " fill="rgb(219,219,219)"/><path d=" M 1760.05 2429.15 C 1762.76 2429.37 1765.47 2429.58 1768.2 2429.78 C 1792.66 2431.65 1818.2 2433.25 1844.15 2434.52 L 1844.15 2166.64 C 1844.15 2155.41 1839.77 2144.85 1831.83 2136.91 C 1827.15 2132.2 1821.31 2128.63 1814.95 2126.59 C 1805.12 2123.39 1793.84 2124.06 1784.28 2128.53 C 1769.56 2135.43 1760.05 2150.39 1760.05 2166.64 L 1760.05 2429.15 Z  M 1849.15 2439.77 L 1846.52 2439.64 C 1819.63 2438.35 1793.15 2436.7 1767.82 2434.77 C 1764.31 2434.5 1760.82 2434.24 1757.33 2433.94 L 1755.05 2433.74 L 1755.05 2166.64 C 1755.05 2148.47 1765.69 2131.73 1782.15 2124 C 1792.87 2118.98 1805.49 2118.25 1816.48 2121.83 C 1823.6 2124.11 1830.14 2128.11 1835.37 2133.37 C 1844.25 2142.26 1849.15 2154.07 1849.15 2166.64 L 1849.15 2439.77 Z " fill="rgb(57,0,117)"/><path d=" M 1846.63 2166.63 L 1846.63 2437.15 C 1819.83 2435.87 1793.59 2434.23 1767.99 2432.27 C 1764.51 2432.03 1761.03 2431.75 1757.55 2431.47 L 1757.55 2166.63 C 1757.55 2148.79 1768.03 2133.39 1783.23 2126.27 C 1788.95 2123.59 1795.35 2122.11 1802.11 2122.11 C 1806.87 2122.11 1811.43 2122.83 1815.71 2124.23 C 1822.51 2126.39 1828.67 2130.19 1833.59 2135.15 C 1841.63 2143.19 1846.63 2154.35 1846.63 2166.63 Z " fill="rgb(255,255,255)"/><path d=" M 1760.05 2429.16 C 1762.76 2429.38 1765.46 2429.59 1768.16 2429.77 C 1793.21 2431.69 1818.75 2433.29 1844.14 2434.52 L 1844.14 2166.63 C 1844.14 2155.4 1839.77 2144.85 1831.83 2136.92 C 1827.14 2132.19 1821.31 2128.63 1814.96 2126.61 C 1805.18 2123.41 1793.81 2124.08 1784.29 2128.53 C 1769.57 2135.43 1760.05 2150.38 1760.05 2166.63 L 1760.05 2429.16 Z  M 1849.14 2439.77 L 1846.52 2439.64 C 1820.22 2438.39 1793.74 2436.75 1767.8 2434.76 C 1764.53 2434.53 1761.23 2434.27 1757.94 2434.01 L 1755.05 2433.77 L 1755.05 2166.63 C 1755.05 2148.45 1765.7 2131.72 1782.17 2124 C 1792.83 2119.01 1805.55 2118.27 1816.49 2121.85 C 1823.59 2124.11 1830.13 2128.1 1835.37 2133.39 C 1844.24 2142.26 1849.14 2154.07 1849.14 2166.63 L 1849.14 2439.77 Z " fill="rgb(57,0,117)"/><path d=" M 1830.64 2420.31 C 1811.21 2419.26 1792.08 2418.04 1773.55 2416.65 L 1773.55 2409.18 C 1796.23 2408.97 1816.73 2407.11 1830.64 2390.68 L 1830.64 2420.31 Z  M 1825.08 2232.2 C 1811.97 2220.09 1793.87 2218.59 1773.55 2218.4 L 1773.55 2195.6 C 1776.48 2193.15 1779.73 2191.07 1783.23 2189.43 C 1788.95 2186.71 1795.35 2185.23 1802.11 2185.23 C 1806.87 2185.23 1811.43 2185.95 1815.71 2187.35 C 1821.22 2189.13 1826.3 2191.93 1830.64 2195.56 L 1830.64 2228.74 C 1828.73 2229.76 1826.87 2230.91 1825.08 2232.2 Z " fill="rgb(195,178,213)"/><path d=" M 1773.55 2416.65 C 1792.08 2418.04 1811.21 2419.26 1830.64 2420.31 L 1830.64 2166.64 C 1830.64 2159.01 1827.67 2151.84 1822.28 2146.45 C 1819.09 2143.24 1815.14 2140.83 1810.82 2139.44 C 1804.13 2137.26 1796.47 2137.72 1789.99 2140.76 C 1780.01 2145.44 1773.55 2155.6 1773.55 2166.64 L 1773.55 2416.65 Z  M 1862.65 2453.93 L 1845.87 2453.13 C 1818.85 2451.83 1792.25 2450.18 1766.79 2448.23 C 1763.24 2447.96 1759.71 2447.69 1756.18 2447.39 L 1741.55 2446.14 L 1741.55 2166.64 C 1741.55 2143.26 1755.23 2121.72 1776.42 2111.78 C 1790.25 2105.3 1806.43 2104.36 1820.66 2108.99 C 1829.77 2111.92 1838.19 2117.06 1844.95 2123.86 C 1856.35 2135.26 1862.65 2150.47 1862.65 2166.64 L 1862.65 2453.93 Z " fill="rgb(57,0,117)"/><path d=" M 1891.37 2291.52 C 1891.37 2322.14 1873.37 2346.97 1851.16 2346.97 C 1828.96 2346.97 1810.95 2322.14 1810.95 2291.52 C 1810.95 2260.9 1828.96 2236.08 1851.16 2236.08 C 1873.37 2236.08 1891.37 2260.9 1891.37 2291.52 Z " fill="rgb(129,239,54)"/><path d=" M 1851.16 2334.46 C 1850.24 2334.46 1849.32 2334.39 1848.42 2334.24 C 1848.92 2327.62 1849.17 2320.4 1849.17 2312.55 C 1849.17 2303.77 1848.89 2296.1 1848.29 2289.1 L 1845.78 2289.1 C 1844.56 2274.33 1842.11 2262.65 1838.62 2253.4 C 1842.41 2250.33 1846.68 2248.58 1851.16 2248.58 C 1866.18 2248.58 1878.87 2268.25 1878.87 2291.52 C 1878.87 2314.8 1866.18 2334.46 1851.16 2334.46 Z " fill="rgb(104,156,76)"/><path d=" M 1851.16 2248.58 C 1836.14 2248.58 1823.46 2268.25 1823.46 2291.52 C 1823.46 2314.8 1836.14 2334.46 1851.16 2334.46 C 1866.18 2334.46 1878.87 2314.8 1878.87 2291.52 C 1878.87 2268.25 1866.18 2248.58 1851.16 2248.58 Z  M 1851.16 2359.46 C 1821.61 2359.46 1798.46 2329.62 1798.46 2291.52 C 1798.46 2253.42 1821.61 2223.58 1851.16 2223.58 C 1880.72 2223.58 1903.87 2253.42 1903.87 2291.52 C 1903.87 2329.62 1880.72 2359.46 1851.16 2359.46 Z " fill="rgb(57,0,117)"/><path d=" M 1846.66 2312.55 C 1846.66 2406.73 1810.01 2406.73 1764.81 2406.73 C 1719.6 2406.73 1682.96 2364.56 1682.96 2312.55 C 1682.96 2260.54 1719.6 2218.37 1764.81 2218.37 C 1810.01 2218.37 1846.66 2218.37 1846.66 2312.55 Z " fill="rgb(129,239,54)"/><path d=" M 1845.77 2289.1 C 1844.55 2274.33 1842.1 2262.65 1838.61 2253.41 C 1838.61 2253.41 1838.61 2253.41 1838.62 2253.4 C 1842.11 2262.65 1844.56 2274.33 1845.78 2289.1 L 1845.77 2289.1 Z " fill="rgb(180,206,166)"/><path d=" M 1838.61 2253.41 C 1836.79 2248.58 1834.69 2244.43 1832.34 2240.84 C 1834.69 2244.42 1836.8 2248.58 1838.62 2253.4 C 1838.61 2253.41 1838.61 2253.41 1838.61 2253.41 Z " fill="rgb(156,128,186)"/><path d=" M 1686.83 2283.85 L 1686.83 2283.84 C 1687.55 2281.23 1688.37 2278.68 1689.28 2276.18 L 1689.29 2276.18 C 1688.37 2278.68 1687.55 2281.24 1686.83 2283.85 Z " fill="rgb(156,128,186)"/><path d=" M 1689.28 2276.18 L 1689.28 2276.17 L 1689.29 2276.17 L 1689.29 2276.18 L 1689.28 2276.18 Z " fill="rgb(156,128,186)"/><path d=" M 1689.28 2276.17 C 1692.05 2268.59 1695.65 2261.51 1699.96 2255.08 C 1695.65 2261.51 1692.05 2268.59 1689.29 2276.17 L 1689.28 2276.17 Z " fill="rgb(156,128,186)"/><path d=" M 1691.43 2301.04 C 1690.03 2297.09 1688.85 2293 1687.91 2288.77 L 1686.83 2283.85 C 1687.55 2281.24 1688.37 2278.68 1689.29 2276.18 L 1689.29 2276.17 C 1692.05 2268.59 1695.65 2261.51 1699.96 2255.08 C 1714.92 2232.76 1738.4 2218.39 1764.79 2218.39 C 1792.82 2218.39 1817.57 2218.39 1832.34 2240.84 C 1834.69 2244.43 1836.79 2248.58 1838.61 2253.41 C 1842.1 2262.65 1844.55 2274.33 1845.77 2289.1 L 1843.31 2289.11 C 1843.08 2291.83 1842.82 2294.44 1842.51 2296.96 C 1831.7 2248.63 1800.99 2248.63 1764.79 2248.63 C 1732.63 2248.63 1704.79 2269.99 1691.43 2301.04 Z " fill="rgb(192,247,155)"/><path d=" M 1764.79 2404.21 C 1722.88 2404.21 1688.46 2366.47 1685.64 2318.87 C 1686.49 2315.14 1687.53 2311.5 1688.75 2307.97 C 1702.54 2340.98 1731.84 2362.77 1764.79 2362.77 C 1764.8 2362.77 1764.8 2362.77 1764.8 2362.77 C 1800.64 2362.77 1832.28 2362.76 1844.16 2315.86 C 1843.32 2404.2 1808.6 2404.21 1764.79 2404.21 Z " fill="rgb(121,164,62)"/><path d=" M 1685.64 2318.87 C 1685.52 2316.78 1685.45 2314.67 1685.45 2312.55 C 1685.45 2308.65 1685.67 2304.76 1686.09 2300.91 C 1686.9 2303.31 1687.79 2305.67 1688.75 2307.97 C 1687.53 2311.5 1686.49 2315.14 1685.64 2318.87 Z " fill="rgb(162,169,128)"/><path d=" M 1706.76 2382.63 C 1690.57 2365 1680.45 2340.1 1680.45 2312.55 C 1680.45 2304.53 1681.32 2296.53 1683.03 2288.77 L 1685.47 2277.7 L 1686.83 2283.84 C 1684.31 2292.89 1682.95 2302.54 1682.95 2312.55 C 1682.95 2315.08 1683.04 2317.58 1683.21 2320.05 C 1684.82 2343.42 1693.83 2364.39 1707.55 2379.85 C 1707.29 2380.77 1707.02 2381.7 1706.76 2382.63 Z " fill="rgb(57,0,117)"/><path d=" M 1741.55 2405.47 C 1739.15 2404.68 1736.79 2403.77 1734.48 2402.75 C 1734.69 2401.94 1734.9 2401.14 1735.11 2400.33 C 1737.21 2401.28 1739.36 2402.13 1741.55 2402.87 L 1741.55 2405.47 Z " fill="rgb(141,108,176)"/><path d=" M 1734.48 2402.75 C 1724.1 2398.15 1714.7 2391.26 1706.76 2382.63 C 1707.02 2381.7 1707.29 2380.77 1707.55 2379.85 C 1715.38 2388.66 1724.73 2395.68 1735.11 2400.33 C 1734.9 2401.14 1734.69 2401.94 1734.48 2402.75 Z " fill="rgb(57,0,117)"/><path d=" M 1773.55 2409.18 L 1773.55 2406.7 C 1796.93 2406.49 1817.37 2404.53 1830.64 2386.68 L 1830.64 2390.68 C 1816.73 2407.11 1796.23 2408.97 1773.55 2409.18 Z " fill="rgb(147,116,179)"/><path d=" M 1764.79 2409.21 C 1756.73 2409.21 1748.94 2407.91 1741.55 2405.47 L 1741.55 2402.87 C 1748.92 2405.38 1756.73 2406.73 1764.81 2406.73 C 1767.76 2406.73 1770.68 2406.73 1773.55 2406.7 L 1773.55 2409.18 C 1770.66 2409.21 1767.74 2409.21 1764.79 2409.21 Z  M 1830.64 2390.68 L 1830.64 2386.68 C 1835.7 2379.88 1839.72 2370.78 1842.47 2358.58 C 1843.27 2358.75 1844.09 2358.89 1844.91 2359.01 C 1841.71 2373.2 1836.82 2383.38 1830.64 2390.68 Z " fill="rgb(57,0,117)"/><path d=" M 1848.42 2334.24 C 1847.58 2334.11 1846.76 2333.92 1845.95 2333.67 C 1846.09 2331.7 1846.21 2329.68 1846.31 2327.61 C 1846.31 2327.63 1846.31 2327.65 1846.31 2327.67 C 1846.55 2322.91 1846.67 2317.87 1846.67 2312.55 C 1846.67 2303.97 1846.37 2296.18 1845.78 2289.1 L 1848.29 2289.1 C 1848.89 2296.1 1849.17 2303.77 1849.17 2312.55 C 1849.17 2320.4 1848.92 2327.62 1848.42 2334.24 Z " fill="rgb(88,102,90)"/><path d=" M 1844.91 2359.01 C 1844.09 2358.89 1843.27 2358.75 1842.47 2358.58 C 1844.09 2351.4 1845.26 2343.15 1845.95 2333.67 C 1846.76 2333.92 1847.58 2334.11 1848.42 2334.24 C 1847.71 2343.63 1846.53 2351.83 1844.91 2359.01 Z " fill="rgb(57,0,117)"/><path d=" M 1764.81 2406.73 C 1756.73 2406.73 1748.92 2405.38 1741.55 2402.87 C 1739.36 2402.13 1737.21 2401.28 1735.11 2400.33 C 1724.73 2395.68 1715.38 2388.66 1707.55 2379.85 C 1693.83 2364.39 1684.82 2343.42 1683.21 2320.05 C 1683.39 2322.62 1683.67 2325.16 1684.03 2327.67 C 1684.45 2324.68 1684.99 2321.75 1685.64 2318.87 C 1688.46 2366.47 1722.88 2404.21 1764.79 2404.21 C 1808.6 2404.21 1843.32 2404.2 1844.16 2315.86 C 1832.28 2362.76 1800.64 2362.77 1764.8 2362.77 C 1764.8 2362.77 1764.8 2362.77 1764.79 2362.77 C 1731.84 2362.77 1702.54 2340.98 1688.75 2307.97 C 1689.56 2305.61 1690.46 2303.3 1691.43 2301.04 C 1703.51 2334.99 1732.27 2357.77 1764.79 2357.77 C 1803.91 2357.77 1835.12 2357.77 1842.51 2296.96 C 1844.44 2305.55 1845.73 2315.68 1846.31 2327.61 C 1846.21 2329.68 1846.09 2331.7 1845.95 2333.67 C 1845.26 2343.15 1844.09 2351.4 1842.47 2358.58 C 1839.72 2370.78 1835.7 2379.88 1830.64 2386.68 C 1817.37 2404.53 1796.93 2406.49 1773.55 2406.7 C 1770.68 2406.73 1767.76 2406.73 1764.81 2406.73 Z " fill="rgb(104,156,76)"/><path d=" M 1846.31 2327.67 C 1846.31 2327.65 1846.31 2327.63 1846.31 2327.61 C 1846.54 2322.88 1846.66 2317.87 1846.66 2312.55 C 1846.66 2303.98 1846.35 2296.18 1845.77 2289.1 L 1845.78 2289.1 C 1846.37 2296.18 1846.67 2303.97 1846.67 2312.55 C 1846.67 2317.87 1846.55 2322.91 1846.31 2327.67 Z " fill="rgb(137,134,149)"/><path d=" M 1683.21 2320.05 C 1683.04 2317.58 1682.95 2315.08 1682.95 2312.55 C 1682.95 2302.54 1684.31 2292.89 1686.83 2283.84 L 1686.83 2283.85 C 1684.31 2292.9 1682.96 2302.54 1682.96 2312.55 C 1682.96 2315.08 1683.04 2317.58 1683.21 2320.05 Z " fill="rgb(121,83,162)"/><path d=" M 1684.03 2327.67 C 1683.67 2325.16 1683.39 2322.62 1683.21 2320.05 C 1683.04 2317.58 1682.96 2315.08 1682.96 2312.55 C 1682.96 2302.54 1684.31 2292.9 1686.83 2283.85 L 1687.91 2288.77 C 1688.85 2293 1690.03 2297.09 1691.43 2301.04 C 1690.46 2303.3 1689.56 2305.61 1688.75 2307.97 C 1687.79 2305.67 1686.9 2303.31 1686.09 2300.91 C 1685.67 2304.76 1685.45 2308.65 1685.45 2312.55 C 1685.45 2314.67 1685.52 2316.78 1685.64 2318.87 C 1684.99 2321.75 1684.45 2324.68 1684.03 2327.67 Z  M 1846.31 2327.61 C 1845.73 2315.68 1844.44 2305.55 1842.51 2296.96 C 1842.82 2294.44 1843.08 2291.83 1843.31 2289.11 L 1845.77 2289.1 C 1846.35 2296.18 1846.66 2303.98 1846.66 2312.55 C 1846.66 2317.87 1846.54 2322.88 1846.31 2327.61 Z " fill="rgb(145,161,142)"/><path d=" M 1764.81 2234.37 C 1728.5 2234.37 1698.96 2269.44 1698.96 2312.55 C 1698.96 2355.66 1728.5 2390.72 1764.81 2390.72 C 1808.65 2390.72 1830.65 2390.72 1830.65 2312.55 C 1830.65 2234.37 1808.65 2234.37 1764.81 2234.37 Z  M 1764.81 2422.73 C 1710.85 2422.73 1666.96 2373.3 1666.96 2312.55 C 1666.96 2251.8 1710.85 2202.37 1764.81 2202.37 C 1820.25 2202.37 1862.66 2210.48 1862.66 2312.55 C 1862.66 2414.61 1820.25 2422.73 1764.81 2422.73 Z " fill="rgb(57,0,117)"/><path d=" M 2160.6 2166.64 L 2160.6 2437.15 C 2187.39 2435.85 2213.66 2434.23 2239.23 2432.28 C 2242.74 2432.01 2246.22 2431.75 2249.7 2431.45 L 2249.7 2166.64 C 2249.7 2148.79 2239.2 2133.38 2224.03 2126.26 C 2218.3 2123.58 2211.91 2122.09 2205.15 2122.09 C 2200.38 2122.09 2195.81 2122.82 2191.53 2124.21 C 2184.71 2126.39 2178.58 2130.17 2173.65 2135.14 C 2165.6 2143.19 2160.6 2154.35 2160.6 2166.64 Z " fill="rgb(219,219,219)"/><path d=" M 2205.15 2124.59 C 2200.7 2124.59 2196.38 2125.26 2192.3 2126.59 C 2185.93 2128.63 2180.1 2132.2 2175.42 2136.9 C 2167.47 2144.85 2163.1 2155.41 2163.1 2166.64 L 2163.1 2434.52 C 2189.05 2433.25 2214.58 2431.65 2239.04 2429.78 C 2241.78 2429.58 2244.49 2429.37 2247.2 2429.15 L 2247.2 2166.64 C 2247.2 2150.39 2237.68 2135.43 2222.96 2128.52 C 2217.38 2125.91 2211.39 2124.59 2205.15 2124.59 Z  M 2158.1 2439.77 L 2158.1 2166.64 C 2158.1 2154.07 2162.99 2142.26 2171.88 2133.37 C 2177.11 2128.11 2183.64 2124.11 2190.77 2121.83 C 2201.75 2118.26 2214.37 2118.98 2225.09 2123.99 C 2241.56 2131.73 2252.2 2148.47 2252.2 2166.64 L 2252.2 2433.74 L 2249.91 2433.94 C 2246.42 2434.24 2242.94 2434.5 2239.42 2434.77 C 2214.1 2436.7 2187.62 2438.35 2160.72 2439.64 L 2158.1 2439.77 Z " fill="rgb(57,0,117)"/><path d=" M 2160.61 2166.63 L 2160.61 2437.15 C 2187.41 2435.87 2213.65 2434.23 2239.25 2432.27 C 2242.73 2432.03 2246.21 2431.75 2249.69 2431.47 L 2249.69 2166.63 C 2249.69 2148.79 2239.21 2133.39 2224.01 2126.27 C 2218.29 2123.59 2211.89 2122.11 2205.13 2122.11 C 2200.37 2122.11 2195.81 2122.83 2191.53 2124.23 C 2184.73 2126.39 2178.57 2130.19 2173.65 2135.15 C 2165.61 2143.19 2160.61 2154.35 2160.61 2166.63 Z " fill="rgb(255,255,255)"/><path d=" M 2205.13 2124.61 C 2200.67 2124.61 2196.36 2125.28 2192.31 2126.6 C 2185.93 2128.63 2180.1 2132.19 2175.43 2136.91 C 2167.48 2144.85 2163.11 2155.4 2163.11 2166.63 L 2163.11 2434.52 C 2188.49 2433.29 2214.03 2431.69 2239.06 2429.77 C 2241.78 2429.59 2244.49 2429.38 2247.19 2429.16 L 2247.19 2166.63 C 2247.19 2150.38 2237.67 2135.43 2222.95 2128.53 C 2217.39 2125.93 2211.4 2124.61 2205.13 2124.61 Z  M 2158.11 2439.77 L 2158.11 2166.63 C 2158.11 2154.07 2163 2142.26 2171.88 2133.38 C 2177.12 2128.1 2183.65 2124.11 2190.78 2121.84 C 2201.67 2118.28 2214.41 2119.01 2225.07 2124 C 2241.55 2131.72 2252.19 2148.45 2252.19 2166.63 L 2252.19 2433.77 L 2249.31 2434.01 C 2246.01 2434.27 2242.71 2434.53 2239.42 2434.76 C 2213.51 2436.75 2187.02 2438.39 2160.73 2439.64 L 2158.11 2439.77 Z " fill="rgb(57,0,117)"/><path d=" M 2176.6 2420.31 L 2176.6 2390.68 C 2190.52 2407.11 2211.02 2408.97 2233.7 2409.18 L 2233.7 2416.65 C 2215.17 2418.04 2196.03 2419.26 2176.6 2420.31 Z  M 2182.16 2232.2 C 2180.37 2230.91 2178.52 2229.76 2176.6 2228.74 L 2176.6 2195.56 C 2180.95 2191.93 2186.03 2189.13 2191.53 2187.35 C 2195.81 2185.95 2200.37 2185.23 2205.13 2185.23 C 2211.89 2185.23 2218.29 2186.71 2224.01 2189.43 C 2227.51 2191.07 2230.76 2193.15 2233.7 2195.6 L 2233.7 2218.4 C 2213.37 2218.59 2195.27 2220.09 2182.16 2232.2 Z " fill="rgb(195,178,213)"/><path d=" M 2205.15 2138.09 C 2202.12 2138.09 2199.2 2138.54 2196.48 2139.42 C 2192.1 2140.83 2188.15 2143.24 2184.99 2146.42 C 2179.57 2151.84 2176.6 2159.01 2176.6 2166.64 L 2176.6 2420.31 C 2196.03 2419.26 2215.17 2418.04 2233.7 2416.65 L 2233.7 2166.64 C 2233.7 2155.6 2227.23 2145.44 2217.23 2140.74 C 2213.47 2138.99 2209.39 2138.09 2205.15 2138.09 Z  M 2144.6 2453.93 L 2144.6 2166.64 C 2144.6 2150.47 2150.9 2135.26 2162.33 2123.83 C 2169.05 2117.06 2177.47 2111.92 2186.64 2108.97 C 2192.51 2107.06 2198.75 2106.09 2205.15 2106.09 C 2214.12 2106.09 2222.75 2108 2230.8 2111.77 C 2252.01 2121.72 2265.7 2143.26 2265.7 2166.64 L 2265.7 2446.14 L 2251.06 2447.39 C 2247.53 2447.69 2244 2447.96 2240.44 2448.23 C 2215 2450.18 2188.39 2451.83 2161.37 2453.13 L 2144.6 2453.93 Z " fill="rgb(57,0,117)"/><path d=" M 2115.87 2291.52 C 2115.87 2322.14 2133.87 2346.97 2156.08 2346.97 C 2178.29 2346.97 2196.29 2322.14 2196.29 2291.52 C 2196.29 2260.9 2178.29 2236.08 2156.08 2236.08 C 2133.87 2236.08 2115.87 2260.9 2115.87 2291.52 Z " fill="rgb(129,239,54)"/><path d=" M 2156.08 2334.46 C 2141.06 2334.46 2128.37 2314.8 2128.37 2291.52 C 2128.37 2268.25 2141.06 2248.58 2156.08 2248.58 C 2160.56 2248.58 2164.84 2250.33 2168.63 2253.4 C 2165.14 2262.65 2162.68 2274.33 2161.46 2289.1 L 2158.96 2289.1 C 2158.36 2296.1 2158.07 2303.77 2158.07 2312.55 C 2158.07 2320.4 2158.33 2327.62 2158.83 2334.24 C 2157.92 2334.39 2157.01 2334.46 2156.08 2334.46 Z " fill="rgb(104,156,76)"/><path d=" M 2156.08 2248.58 C 2141.06 2248.58 2128.37 2268.25 2128.37 2291.52 C 2128.37 2314.8 2141.06 2334.46 2156.08 2334.46 C 2171.1 2334.46 2183.79 2314.8 2183.79 2291.52 C 2183.79 2268.25 2171.1 2248.58 2156.08 2248.58 Z  M 2156.08 2359.46 C 2126.53 2359.46 2103.37 2329.62 2103.37 2291.52 C 2103.37 2253.42 2126.53 2223.58 2156.08 2223.58 C 2185.64 2223.58 2208.79 2253.42 2208.79 2291.52 C 2208.79 2329.62 2185.64 2359.46 2156.08 2359.46 Z " fill="rgb(57,0,117)"/><path d=" M 2160.59 2312.55 C 2160.59 2406.73 2197.23 2406.73 2242.44 2406.73 C 2287.64 2406.73 2324.29 2364.56 2324.29 2312.55 C 2324.29 2260.54 2287.64 2218.37 2242.44 2218.37 C 2197.23 2218.37 2160.59 2218.37 2160.59 2312.55 Z " fill="rgb(129,239,54)"/><path d=" M 2161.48 2289.1 L 2161.46 2289.1 C 2162.68 2274.33 2165.14 2262.65 2168.63 2253.4 C 2168.63 2253.41 2168.63 2253.41 2168.63 2253.41 C 2165.15 2262.65 2162.7 2274.33 2161.48 2289.1 Z " fill="rgb(180,206,166)"/><path d=" M 2320.42 2283.85 C 2319.77 2281.52 2319.05 2279.23 2318.25 2276.99 L 2318.25 2276.99 C 2319.05 2279.23 2319.77 2281.52 2320.42 2283.84 L 2320.42 2283.85 Z " fill="rgb(156,128,186)"/><path d=" M 2318.25 2276.99 L 2318.25 2276.99 C 2315.42 2269 2311.66 2261.57 2307.13 2254.85 C 2311.66 2261.57 2315.42 2269 2318.25 2276.99 Z " fill="rgb(156,128,186)"/><path d=" M 2168.63 2253.41 C 2168.63 2253.41 2168.63 2253.41 2168.63 2253.4 C 2170.36 2248.82 2172.35 2244.83 2174.56 2241.37 C 2172.35 2244.84 2170.36 2248.82 2168.63 2253.41 Z " fill="rgb(156,128,186)"/><path d=" M 2315.82 2301.04 C 2302.46 2269.99 2274.61 2248.63 2242.45 2248.63 C 2206.26 2248.63 2175.54 2248.63 2164.73 2296.96 C 2164.43 2294.44 2164.16 2291.83 2163.94 2289.11 L 2161.48 2289.1 C 2162.7 2274.33 2165.15 2262.65 2168.63 2253.41 C 2170.36 2248.82 2172.35 2244.84 2174.56 2241.37 C 2189.28 2218.38 2214.2 2218.39 2242.45 2218.39 C 2268.76 2218.39 2292.16 2232.67 2307.13 2254.85 C 2311.66 2261.57 2315.42 2269 2318.25 2276.99 L 2318.25 2276.99 C 2319.05 2279.23 2319.77 2281.52 2320.42 2283.85 L 2319.33 2288.77 C 2318.4 2293 2317.22 2297.09 2315.82 2301.04 Z " fill="rgb(192,247,155)"/><path d=" M 2242.45 2404.21 C 2198.64 2404.21 2163.92 2404.2 2163.09 2315.86 C 2174.97 2362.77 2206.61 2362.77 2242.45 2362.77 C 2275.41 2362.77 2304.7 2340.99 2318.5 2307.97 C 2319.72 2311.5 2320.76 2315.14 2321.6 2318.87 C 2318.78 2366.48 2284.36 2404.21 2242.45 2404.21 Z " fill="rgb(121,164,62)"/><path d=" M 2321.6 2318.87 C 2320.76 2315.14 2319.72 2311.5 2318.5 2307.97 C 2319.46 2305.67 2320.35 2303.31 2321.15 2300.91 C 2321.58 2304.76 2321.79 2308.65 2321.79 2312.55 C 2321.79 2314.67 2321.73 2316.78 2321.6 2318.87 Z " fill="rgb(162,169,128)"/><path d=" M 2294.32 2388.72 C 2294.21 2387.74 2294.07 2386.76 2293.9 2385.79 C 2310.8 2370.05 2322.14 2346.72 2324.01 2320.31 C 2324.2 2317.75 2324.29 2315.17 2324.29 2312.55 C 2324.29 2302.54 2322.93 2292.89 2320.42 2283.84 L 2321.77 2277.7 L 2324.21 2288.77 C 2325.92 2296.53 2326.79 2304.53 2326.79 2312.55 C 2326.79 2343.45 2314.07 2371.01 2294.32 2388.72 Z " fill="rgb(57,0,117)"/><path d=" M 2265.7 2405.47 L 2265.7 2402.87 C 2276.12 2399.32 2285.67 2393.45 2293.9 2385.79 C 2294.07 2386.76 2294.21 2387.74 2294.32 2388.72 C 2285.91 2396.26 2276.22 2402.01 2265.7 2405.47 Z " fill="rgb(57,0,117)"/><path d=" M 2233.7 2409.18 C 2211.02 2408.97 2190.52 2407.11 2176.6 2390.68 L 2176.6 2386.68 C 2189.88 2404.53 2210.32 2406.49 2233.7 2406.7 L 2233.7 2409.18 Z " fill="rgb(147,116,179)"/><path d=" M 2242.45 2409.21 C 2239.5 2409.21 2236.58 2409.21 2233.7 2409.18 L 2233.7 2406.7 C 2236.57 2406.73 2239.49 2406.73 2242.44 2406.73 C 2250.52 2406.73 2258.32 2405.38 2265.7 2402.87 L 2265.7 2405.47 C 2258.31 2407.91 2250.51 2409.21 2242.45 2409.21 Z  M 2176.6 2390.68 C 2170.42 2383.38 2165.54 2373.2 2162.34 2359.01 C 2163.16 2358.89 2163.97 2358.75 2164.78 2358.58 C 2167.52 2370.78 2171.54 2379.89 2176.6 2386.68 L 2176.6 2390.68 Z " fill="rgb(57,0,117)"/><path d=" M 2158.83 2334.24 C 2158.33 2327.62 2158.07 2320.4 2158.07 2312.55 C 2158.07 2303.77 2158.36 2296.1 2158.96 2289.1 L 2161.46 2289.1 C 2160.87 2296.18 2160.57 2303.97 2160.57 2312.55 C 2160.57 2317.87 2160.69 2322.91 2160.93 2327.67 C 2160.93 2327.65 2160.93 2327.64 2160.93 2327.62 C 2161.03 2329.7 2161.15 2331.7 2161.3 2333.67 C 2160.48 2333.92 2159.66 2334.11 2158.83 2334.24 Z " fill="rgb(88,102,90)"/><path d=" M 2162.34 2359.01 C 2160.72 2351.83 2159.53 2343.63 2158.83 2334.24 C 2159.66 2334.11 2160.48 2333.92 2161.3 2333.67 C 2161.98 2343.15 2163.16 2351.4 2164.78 2358.58 C 2163.97 2358.75 2163.16 2358.89 2162.34 2359.01 Z " fill="rgb(57,0,117)"/><path d=" M 2242.44 2406.73 C 2239.49 2406.73 2236.57 2406.73 2233.7 2406.7 C 2210.32 2406.49 2189.88 2404.53 2176.6 2386.68 C 2171.54 2379.89 2167.52 2370.78 2164.78 2358.58 C 2163.16 2351.4 2161.98 2343.15 2161.3 2333.67 C 2161.15 2331.7 2161.03 2329.7 2160.93 2327.62 C 2161.51 2315.69 2162.81 2305.56 2164.73 2296.96 C 2172.12 2357.77 2203.34 2357.77 2242.45 2357.77 C 2274.97 2357.77 2303.74 2334.99 2315.82 2301.04 C 2316.79 2303.3 2317.68 2305.61 2318.5 2307.97 C 2304.7 2340.99 2275.41 2362.77 2242.45 2362.77 C 2206.61 2362.77 2174.97 2362.77 2163.09 2315.86 C 2163.92 2404.2 2198.64 2404.21 2242.45 2404.21 C 2284.36 2404.21 2318.78 2366.48 2321.6 2318.87 C 2322.26 2321.75 2322.79 2324.69 2323.21 2327.67 C 2323.56 2325.24 2323.83 2322.79 2324.01 2320.31 C 2322.14 2346.72 2310.8 2370.05 2293.9 2385.79 C 2285.67 2393.45 2276.12 2399.32 2265.7 2402.87 C 2258.32 2405.38 2250.52 2406.73 2242.44 2406.73 Z " fill="rgb(104,156,76)"/><path d=" M 2324.01 2320.31 C 2324.19 2317.75 2324.29 2315.16 2324.29 2312.55 C 2324.29 2302.54 2322.93 2292.9 2320.42 2283.85 L 2320.42 2283.84 C 2322.93 2292.89 2324.29 2302.54 2324.29 2312.55 C 2324.29 2315.17 2324.2 2317.75 2324.01 2320.31 Z " fill="rgb(121,83,162)"/><path d=" M 2323.21 2327.67 C 2322.79 2324.69 2322.26 2321.75 2321.6 2318.87 C 2321.73 2316.78 2321.79 2314.67 2321.79 2312.55 C 2321.79 2308.65 2321.58 2304.76 2321.15 2300.91 C 2320.35 2303.31 2319.46 2305.67 2318.5 2307.97 C 2317.68 2305.61 2316.79 2303.3 2315.82 2301.04 C 2317.22 2297.09 2318.4 2293 2319.33 2288.77 L 2320.42 2283.85 C 2322.93 2292.9 2324.29 2302.54 2324.29 2312.55 C 2324.29 2315.16 2324.19 2317.75 2324.01 2320.31 C 2323.83 2322.79 2323.56 2325.24 2323.21 2327.67 Z " fill="rgb(145,161,142)"/><path d=" M 2160.93 2327.67 C 2160.69 2322.91 2160.57 2317.87 2160.57 2312.55 C 2160.57 2303.97 2160.87 2296.18 2161.46 2289.1 L 2161.48 2289.1 C 2160.89 2296.18 2160.59 2303.98 2160.59 2312.55 C 2160.59 2317.87 2160.7 2322.89 2160.93 2327.62 C 2160.93 2327.64 2160.93 2327.65 2160.93 2327.67 Z " fill="rgb(137,134,149)"/><path d=" M 2160.93 2327.62 C 2160.7 2322.89 2160.59 2317.87 2160.59 2312.55 C 2160.59 2303.98 2160.89 2296.18 2161.48 2289.1 L 2163.94 2289.11 C 2164.16 2291.83 2164.43 2294.44 2164.73 2296.96 C 2162.81 2305.56 2161.51 2315.69 2160.93 2327.62 Z " fill="rgb(145,161,142)"/><path d=" M 2242.44 2234.37 C 2198.59 2234.37 2176.59 2234.37 2176.59 2312.55 C 2176.59 2390.72 2198.59 2390.72 2242.44 2390.72 C 2278.74 2390.72 2308.29 2355.66 2308.29 2312.55 C 2308.29 2269.44 2278.74 2234.37 2242.44 2234.37 Z  M 2242.44 2422.73 C 2187 2422.73 2144.58 2414.61 2144.58 2312.55 C 2144.58 2210.48 2187 2202.37 2242.44 2202.37 C 2296.39 2202.37 2340.29 2251.8 2340.29 2312.55 C 2340.29 2373.3 2296.39 2422.73 2242.44 2422.73 Z " fill="rgb(57,0,117)"/><path d=" M 1259.98 2219.98 C 1260.04 2220.12 1260.11 2220.25 1260.18 2220.38 C 1260.11 2220.24 1260.05 2220.11 1259.98 2219.98 Z  M 1999.99 2456.91 C 1961.5 2456.91 1922.98 2456.23 1885.5 2454.9 C 1871.45 2454.37 1857.59 2453.81 1843.84 2453.13 C 1817.35 2451.86 1790.75 2450.21 1764.81 2448.22 C 1761.52 2448 1758.12 2447.73 1754.74 2447.46 C 1562.74 2432.15 1406.67 2399.18 1326.09 2356.96 C 1308.72 2347.81 1294.66 2338.19 1284.3 2328.35 C 1272.19 2316.9 1264.58 2304.67 1261.64 2291.99 C 1259.81 2288.82 1258.03 2285.65 1256.25 2282.44 C 1254.04 2278.55 1251.85 2274.5 1249.7 2270.45 C 1247.83 2266.98 1245.95 2263.43 1244.07 2259.83 C 1243.63 2259.03 1243.22 2258.23 1242.82 2257.38 C 1241.03 2253.92 1239.27 2250.45 1237.52 2246.94 L 1236.92 2245.74 C 1235 2241.82 1233.14 2238.01 1231.32 2234.21 C 1231.27 2234.13 1231.13 2233.82 1230.94 2233.4 C 1229.18 2229.72 1227.46 2226.04 1225.77 2222.32 C 1225.28 2221.32 1224.83 2220.32 1224.39 2219.28 C 1221.42 2212.79 1218.23 2205.48 1214.56 2196.68 C 1213.55 2194.35 1212.51 2191.85 1211.52 2189.31 C 1210.41 2186.63 1209.33 2184.03 1208.33 2181.43 C 1207.72 2179.94 1207.01 2178.13 1206.33 2176.27 C 1205.13 2173.27 1203.97 2170.26 1202.89 2167.26 C 1202.39 2166.02 1201.92 2164.75 1201.46 2163.48 C 1200.1 2159.82 1198.87 2156.4 1197.65 2152.97 C 1197.01 2151.18 1196.36 2149.34 1195.77 2147.54 C 1194.69 2144.54 1193.52 2141.09 1192.4 2137.69 C 1188.42 2125.82 1184.67 2113.66 1181.27 2101.61 C 1180.16 2097.79 1179.09 2093.84 1178.02 2089.85 C 1177.73 2088.91 1177.35 2087.46 1176.98 2086 C 1175.92 2081.97 1174.84 2077.82 1173.84 2073.67 C 1173.6 2072.81 1173.39 2071.98 1173.22 2071.16 C 1172.22 2067.18 1171.29 2063.2 1170.4 2059.22 C 1170.24 2058.64 1170.11 2058.06 1169.98 2057.48 C 1167.82 2048.91 1172.99 2040.08 1181.56 2037.92 C 1190.11 2035.77 1198.79 2040.83 1200.95 2049.4 L 1201.53 2051.77 C 1202.42 2055.75 1203.34 2059.73 1204.35 2063.71 L 1204.88 2065.86 C 1205.84 2069.91 1206.9 2073.96 1207.95 2077.97 C 1208.24 2079.08 1208.5 2080.1 1208.79 2081.09 C 1209.94 2085.34 1210.95 2089.06 1212.04 2092.79 C 1215.33 2104.48 1218.93 2116.14 1222.76 2127.58 C 1223.83 2130.8 1224.9 2133.99 1226.02 2137.11 C 1226.66 2139.04 1227.22 2140.64 1227.78 2142.2 C 1228.96 2145.5 1230.14 2148.79 1231.35 2152.05 C 1231.88 2153.5 1232.25 2154.51 1232.65 2155.5 L 1232.89 2156.13 C 1233.91 2158.96 1235 2161.78 1236.13 2164.6 L 1236.31 2165.08 C 1236.88 2166.65 1237.48 2168.18 1238.1 2169.68 C 1239.11 2172.31 1240.08 2174.63 1241.04 2176.96 L 1241.35 2177.71 C 1242.2 2179.89 1243.08 2182.03 1244.01 2184.17 C 1247.62 2192.81 1250.66 2199.81 1253.67 2206.37 C 1254.07 2207.31 1254.29 2207.81 1254.55 2208.31 L 1254.81 2208.87 C 1256.48 2212.57 1258.2 2216.23 1259.95 2219.89 L 1260.2 2220.45 C 1262.1 2224.4 1263.86 2227.98 1265.6 2231.55 L 1266.15 2232.63 C 1267.88 2236.09 1269.6 2239.51 1271.37 2242.93 L 1271.62 2243.42 C 1271.77 2243.75 1271.91 2244.05 1272.08 2244.36 L 1272.34 2244.82 C 1274.18 2248.36 1276.03 2251.86 1277.91 2255.36 C 1279.98 2259.24 1282.03 2263.03 1284.15 2266.78 C 1286.32 2270.68 1288.43 2274.42 1290.61 2278.16 L 1292.07 2280.67 L 1292.57 2283.52 C 1293.73 2290.33 1298.36 2297.6 1306.31 2305.13 C 1314.56 2312.96 1326.22 2320.87 1340.97 2328.63 C 1417.84 2368.91 1569.43 2400.58 1756.83 2415.52 C 1760.55 2415.82 1763.82 2416.08 1767.12 2416.3 C 1792.9 2418.28 1819.18 2419.91 1845.4 2421.17 C 1859.04 2421.84 1872.78 2422.4 1886.67 2422.92 C 1923.74 2424.24 1961.88 2424.91 1999.99 2424.91 C 2076.84 2424.91 2152.33 2422.23 2224.39 2416.95 C 2265.13 2413.97 2304.45 2410.2 2341.27 2405.74 C 2483.86 2388.69 2596.7 2361.3 2659.05 2328.62 C 2673.73 2320.9 2685.38 2313.01 2693.65 2305.15 C 2701.63 2297.6 2706.27 2290.31 2707.47 2283.47 L 2707.96 2280.67 L 2709.38 2278.21 C 2715.06 2268.4 2720.51 2258.52 2725.57 2248.82 C 2727.21 2245.74 2728.74 2242.78 2730.25 2239.78 C 2730.93 2238.49 2731.41 2237.59 2731.84 2236.66 L 2732.16 2236.01 C 2733.68 2233.07 2735.13 2230.14 2736.54 2227.2 L 2737.15 2225.96 C 2737.62 2224.98 2738.1 2224.02 2738.55 2223.04 C 2740.04 2219.97 2741.39 2217.16 2742.63 2214.35 L 2742.85 2213.86 C 2745.61 2208.1 2748.22 2202.26 2750.79 2196.42 C 2752.8 2191.82 2754.79 2187.18 2756.7 2182.51 C 2758.52 2178.2 2760.18 2174.08 2761.8 2169.91 C 2762.49 2168.2 2763.1 2166.66 2763.68 2165.08 L 2763.86 2164.6 C 2764.99 2161.78 2766.08 2158.96 2767.1 2156.13 L 2767.34 2155.5 C 2767.78 2154.43 2768.17 2153.33 2768.57 2152.23 C 2769.86 2148.78 2771.03 2145.49 2772.21 2142.2 C 2772.77 2140.64 2773.32 2139.04 2773.85 2137.47 C 2775.09 2134 2776.16 2130.82 2777.19 2127.67 C 2781.05 2116.16 2784.65 2104.51 2787.91 2092.93 C 2789.04 2089.06 2790.05 2085.34 2791.06 2081.57 C 2791.47 2080.18 2791.7 2079.25 2791.95 2078.31 C 2793.09 2073.96 2794.14 2069.9 2795.12 2065.85 L 2795.64 2063.73 C 2796.65 2059.7 2797.59 2055.67 2798.53 2051.63 L 2798.67 2051.01 C 2798.79 2050.47 2798.91 2049.93 2799.04 2049.4 C 2801.2 2040.83 2809.91 2035.65 2818.46 2037.79 C 2827.03 2039.95 2832.23 2048.64 2830.07 2057.2 L 2829.66 2059.06 C 2828.74 2062.99 2827.79 2067.07 2826.77 2071.15 C 2826.6 2071.98 2826.39 2072.81 2826.15 2073.68 C 2825.14 2077.83 2824.07 2081.97 2822.99 2086.08 C 2822.57 2087.69 2822.22 2089.03 2821.83 2090.32 C 2820.9 2093.84 2819.83 2097.79 2818.68 2101.74 C 2815.31 2113.69 2811.56 2125.85 2807.56 2137.76 C 2806.47 2141.08 2805.3 2144.53 2804.1 2147.91 C 2803.63 2149.34 2802.98 2151.18 2802.34 2152.97 C 2801.11 2156.41 2799.89 2159.83 2798.62 2163.23 C 2798.14 2164.54 2797.64 2165.92 2797.1 2167.26 C 2796.02 2170.26 2794.86 2173.27 2793.66 2176.27 C 2792.98 2178.12 2792.27 2179.93 2791.55 2181.7 C 2789.89 2185.98 2788.1 2190.41 2786.24 2194.81 C 2784.32 2199.51 2782.23 2204.39 2780.1 2209.27 C 2777.4 2215.39 2774.69 2221.47 2771.81 2227.47 C 2770.44 2230.58 2768.95 2233.69 2767.46 2236.75 C 2767.05 2237.65 2766.48 2238.82 2765.9 2240.01 L 2765.35 2241.13 C 2763.87 2244.22 2762.32 2247.34 2760.71 2250.46 C 2760.07 2251.81 2759.39 2253.13 2758.67 2254.48 C 2757.24 2257.35 2755.58 2260.55 2753.88 2263.75 C 2749.04 2273.01 2743.82 2282.53 2738.38 2291.99 C 2735.4 2304.69 2727.78 2316.91 2715.67 2328.37 C 2705.28 2338.24 2691.22 2347.86 2673.92 2356.95 C 2608.2 2391.4 2491.43 2420.01 2345.09 2437.51 C 2307.8 2442.03 2267.96 2445.85 2226.72 2448.86 C 2153.9 2454.2 2077.61 2456.91 1999.99 2456.91 Z " fill="rgb(57,0,117)"/><path d=" M 2095.03 2597.03 C 2095.03 2648.36 2052.48 2689.97 2000 2689.97 C 1947.52 2689.97 1904.97 2648.36 1904.97 2597.03 C 1904.97 2545.7 1947.52 2504.09 2000 2504.09 C 2052.48 2504.09 2095.03 2545.7 2095.03 2597.03 Z " fill="rgb(255,206,0)"/><path d=" M 2093.91 2611.37 C 2094.63 2606.79 2095.02 2602.1 2095.03 2597.33 C 2095.02 2602.11 2094.64 2606.8 2093.91 2611.37 Z  M 2095.03 2597.33 C 2095.03 2597.23 2095.03 2597.13 2095.03 2597.03 C 2095.03 2597.13 2095.03 2597.23 2095.03 2597.33 Z  M 2095.03 2596.75 C 2095.03 2596.74 2095.03 2596.72 2095.03 2596.71 C 2095.03 2596.72 2095.03 2596.74 2095.03 2596.75 Z  M 2095.03 2596.43 C 2095.03 2596.43 2095.03 2596.42 2095.03 2596.42 C 2095.03 2596.43 2095.03 2596.43 2095.03 2596.43 Z  M 2092.39 2575.17 C 2092.34 2574.96 2092.29 2574.75 2092.23 2574.55 C 2092.23 2574.55 2092.23 2574.56 2092.23 2574.56 C 2081.96 2534.09 2044.56 2504.09 2000 2504.09 C 1973.76 2504.09 1950 2514.49 1932.8 2531.31 C 1949.99 2514.48 1973.75 2504.07 1999.99 2504.07 C 2044.78 2504.07 2082.34 2534.39 2092.39 2575.17 Z " fill="rgb(227,232,237)"/><path d=" M 1906.04 2610.88 C 1905.36 2606.47 1905.01 2601.94 1904.99 2597.33 C 1905.01 2601.94 1905.37 2606.46 1906.04 2610.88 Z  M 1904.99 2597.32 C 1904.99 2597.22 1904.99 2597.12 1904.99 2597.03 C 1904.99 2597.12 1904.99 2597.22 1904.99 2597.32 Z  M 1904.99 2596.75 C 1904.99 2596.74 1904.99 2596.73 1904.99 2596.71 C 1904.99 2596.72 1904.99 2596.74 1904.99 2596.75 Z  M 1905 2596.43 C 1905 2596.43 1905 2596.42 1905 2596.42 C 1905 2596.42 1905 2596.43 1905 2596.43 Z  M 2084.44 2594.75 C 2068.65 2564.86 2036.76 2544.43 1999.99 2544.43 C 1963.23 2544.43 1931.35 2564.86 1915.58 2594.74 C 1912.22 2588.4 1909.59 2581.63 1907.79 2574.55 C 1907.61 2575.28 1907.43 2576.01 1907.26 2576.74 C 1911.25 2559.23 1920.29 2543.57 1932.8 2531.31 C 1950 2514.49 1973.76 2504.09 2000 2504.09 C 2044.56 2504.09 2081.96 2534.09 2092.23 2574.56 C 2090.43 2581.65 2087.8 2588.41 2084.44 2594.75 Z " fill="rgb(255,235,153)"/><path d=" M 1999.99 2689.99 C 1976.33 2689.99 1954.69 2681.52 1938.06 2667.52 C 1954.69 2681.51 1976.33 2689.97 2000 2689.97 C 2046.64 2689.97 2085.44 2657.1 2093.49 2613.75 C 2093.64 2612.96 2093.78 2612.17 2093.91 2611.37 C 2086.86 2655.89 2047.49 2689.99 1999.99 2689.99 Z  M 2095.03 2597.33 C 2095.03 2597.33 2095.03 2597.33 2095.03 2597.33 L 2095.03 2597.33 Z  M 2095.03 2597.03 C 2095.03 2596.93 2095.03 2596.84 2095.03 2596.75 C 2095.03 2596.84 2095.03 2596.93 2095.03 2597.03 Z  M 2095.03 2596.71 C 2095.03 2596.62 2095.03 2596.52 2095.03 2596.43 C 2095.03 2596.52 2095.03 2596.62 2095.03 2596.71 Z  M 2095.03 2596.42 C 2094.98 2589.11 2094.07 2581.99 2092.39 2575.17 C 2094.08 2581.99 2094.99 2589.1 2095.03 2596.42 Z " fill="rgb(140,128,178)"/><path d=" M 2000 2689.97 C 1976.33 2689.97 1954.69 2681.51 1938.06 2667.52 C 1921.19 2653.31 1909.48 2633.42 1906.04 2610.88 C 1906.37 2613.03 1906.78 2615.14 1907.27 2617.23 C 1909.05 2609.31 1911.87 2601.76 1915.58 2594.74 C 1931.38 2624.61 1963.23 2645.03 1999.99 2645.03 C 2036.75 2645.03 2068.63 2624.62 2084.44 2594.75 C 2088.15 2601.77 2090.97 2609.31 2092.75 2617.23 C 2093.02 2616.08 2093.27 2614.92 2093.49 2613.75 C 2085.44 2657.1 2046.64 2689.97 2000 2689.97 Z  M 1904.99 2597.33 C 1904.99 2597.33 1904.99 2597.32 1904.99 2597.32 C 1904.99 2597.32 1904.99 2597.33 1904.99 2597.33 Z  M 1904.99 2597.03 C 1904.99 2596.94 1904.99 2596.84 1904.99 2596.75 C 1904.99 2596.84 1904.99 2596.94 1904.99 2597.03 Z  M 1904.99 2596.71 C 1904.99 2596.62 1904.99 2596.53 1905 2596.43 C 1904.99 2596.52 1904.99 2596.62 1904.99 2596.71 Z  M 1905 2596.42 C 1905.04 2589.66 1905.81 2583.08 1907.26 2576.74 C 1905.82 2583.08 1905.04 2589.66 1905 2596.42 Z " fill="rgb(186,134,41)"/><path d=" M 2093.49 2613.75 C 2094.5 2608.32 2095.03 2602.74 2095.03 2597.03 C 2095.03 2589.28 2094.06 2581.76 2092.23 2574.56 C 2092.23 2574.56 2092.23 2574.55 2092.23 2574.55 C 2092.29 2574.75 2092.34 2574.96 2092.39 2575.17 C 2094.07 2581.99 2094.98 2589.11 2095.03 2596.42 C 2095.03 2596.42 2095.03 2596.43 2095.03 2596.43 C 2095.03 2596.52 2095.03 2596.62 2095.03 2596.71 C 2095.03 2596.72 2095.03 2596.74 2095.03 2596.75 C 2095.03 2596.84 2095.03 2596.93 2095.03 2597.03 L 2095.03 2597.03 L 2095.03 2597.03 C 2095.03 2597.13 2095.03 2597.23 2095.03 2597.33 C 2095.03 2597.33 2095.03 2597.33 2095.03 2597.33 C 2095.02 2602.1 2094.63 2606.79 2093.91 2611.37 C 2093.78 2612.17 2093.64 2612.96 2093.49 2613.75 Z " fill="rgb(168,151,195)"/><path d=" M 2092.75 2617.23 C 2090.97 2609.31 2088.15 2601.77 2084.44 2594.75 C 2087.8 2588.41 2090.43 2581.65 2092.23 2574.56 C 2094.06 2581.76 2095.03 2589.28 2095.03 2597.03 C 2095.03 2602.74 2094.5 2608.32 2093.49 2613.75 C 2093.27 2614.92 2093.02 2616.08 2092.75 2617.23 Z  M 1907.27 2617.23 C 1906.78 2615.14 1906.37 2613.03 1906.04 2610.88 C 1905.37 2606.46 1905.01 2601.94 1904.99 2597.33 C 1904.99 2597.33 1904.99 2597.32 1904.99 2597.32 C 1904.99 2597.22 1904.99 2597.12 1904.99 2597.03 L 1904.99 2597.03 L 1904.99 2597.03 C 1904.99 2596.94 1904.99 2596.84 1904.99 2596.75 C 1904.99 2596.74 1904.99 2596.72 1904.99 2596.71 C 1904.99 2596.62 1904.99 2596.52 1905 2596.43 C 1905 2596.43 1905 2596.42 1905 2596.42 C 1905.04 2589.66 1905.82 2583.08 1907.26 2576.74 C 1907.43 2576.01 1907.61 2575.28 1907.79 2574.55 C 1909.59 2581.63 1912.22 2588.4 1915.58 2594.74 C 1911.87 2601.76 1909.05 2609.31 1907.27 2617.23 Z " fill="rgb(186,153,140)"/><path d=" M 2000 2520.09 C 1956.43 2520.09 1920.98 2554.6 1920.98 2597.03 C 1920.98 2639.46 1956.43 2673.97 2000 2673.97 C 2043.57 2673.97 2079.02 2639.46 2079.02 2597.03 C 2079.02 2554.6 2043.57 2520.09 2000 2520.09 Z  M 2000 2705.97 C 1938.78 2705.97 1888.97 2657.1 1888.97 2597.03 C 1888.97 2536.96 1938.78 2488.08 2000 2488.08 C 2061.22 2488.08 2111.02 2536.96 2111.02 2597.03 C 2111.02 2657.1 2061.22 2705.97 2000 2705.97 Z " fill="rgb(57,0,117)"/><path d=" M 3020.98 2279.8 C 3071.42 2289.36 3106.95 2325.31 3100.36 2360.08 C 3093.77 2394.85 3047.54 2415.29 2997.1 2405.73 C 2946.67 2396.16 2911.13 2360.22 2917.73 2325.45 C 2924.32 2290.67 2970.55 2270.24 3020.98 2279.8 Z " fill="rgb(255,206,0)"/><path d=" M 2918.57 2346.08 C 2918.57 2346.08 2918.57 2346.08 2918.56 2346.08 C 2916.77 2339.3 2916.41 2332.36 2917.71 2325.47 C 2923.21 2296.47 2956.25 2277.44 2996.3 2277.44 C 3004.31 2277.44 3012.59 2278.19 3020.99 2279.79 C 3051.84 2285.63 3077.09 2301.35 3090.55 2320.61 C 3087.43 2316.15 3083.67 2311.87 3079.35 2307.87 C 3079.35 2307.87 3079.35 2307.87 3079.35 2307.87 C 3065.06 2294.6 3044.66 2284.29 3020.98 2279.8 C 3012.58 2278.21 3004.29 2277.45 2996.29 2277.45 C 2956.25 2277.45 2923.22 2296.47 2917.73 2325.45 C 2916.42 2332.35 2916.77 2339.3 2918.57 2346.08 Z " fill="rgb(227,232,237)"/><path d=" M 2932.25 2356.67 C 2927.23 2353.43 2922.65 2349.88 2918.57 2346.08 C 2916.77 2339.3 2916.42 2332.35 2917.73 2325.45 C 2923.22 2296.47 2956.25 2277.45 2996.29 2277.45 C 3004.29 2277.45 3012.58 2278.21 3020.98 2279.8 C 3044.66 2284.29 3065.06 2294.6 3079.35 2307.87 C 3081.09 2314.41 3081.48 2321.1 3080.34 2327.72 C 3067.81 2319.61 3052.58 2313.43 3035.67 2310.23 C 3027.27 2308.64 3018.99 2307.88 3010.98 2307.88 C 2970.93 2307.88 2937.89 2326.9 2932.39 2355.87 C 2932.34 2356.14 2932.29 2356.4 2932.25 2356.67 Z " fill="rgb(255,235,153)"/><path d=" M 3021.8 2408.1 C 3013.8 2408.1 3005.52 2407.34 2997.11 2405.75 C 2991.8 2404.73 2986.65 2403.43 2981.7 2401.86 C 2986.65 2403.42 2991.79 2404.72 2997.1 2405.73 C 3005.51 2407.32 3013.79 2408.08 3021.8 2408.08 C 3049.1 2408.08 3073.15 2399.23 3087.43 2384.41 C 3073.16 2399.25 3049.12 2408.1 3021.8 2408.1 Z  M 2935.96 2374.97 C 2935.93 2374.94 2935.91 2374.91 2935.88 2374.88 C 2935.91 2374.91 2935.93 2374.94 2935.96 2374.97 Z  M 2935.86 2374.87 C 2927.28 2366.14 2921.26 2356.3 2918.55 2346.07 C 2918.56 2346.07 2918.56 2346.07 2918.56 2346.08 C 2919.55 2349.81 2920.99 2353.49 2922.82 2357.09 C 2926.01 2363.34 2930.42 2369.33 2935.86 2374.87 Z  M 3101.08 2354.1 C 3101.53 2345.67 3099.61 2337.27 3095.69 2329.28 C 3094.24 2326.33 3092.53 2323.43 3090.55 2320.61 C 3097.87 2331.06 3101.71 2342.56 3101.08 2354.1 Z " fill="rgb(140,128,178)"/><path d=" M 3021.8 2408.08 C 3013.79 2408.08 3005.51 2407.32 2997.1 2405.73 C 2991.79 2404.72 2986.65 2403.42 2981.7 2401.86 C 2963.12 2395.99 2947.31 2386.46 2935.96 2374.97 C 2935.93 2374.94 2935.91 2374.91 2935.88 2374.88 C 2935.87 2374.88 2935.86 2374.87 2935.86 2374.87 C 2930.42 2369.33 2926.01 2363.34 2922.82 2357.09 C 2925.23 2361.81 2928.34 2366.38 2932.07 2370.71 C 2931.39 2366.05 2931.43 2361.36 2932.25 2356.67 C 2944.77 2364.77 2960.01 2370.95 2976.91 2374.15 C 2985.32 2375.74 2993.61 2376.5 3001.61 2376.5 C 3041.66 2376.5 3074.69 2357.48 3080.19 2328.51 C 3080.24 2328.25 3080.29 2327.99 3080.34 2327.72 C 3088.29 2332.87 3095.16 2338.8 3100.67 2345.23 L 3100.67 2345.23 L 3100.67 2345.23 C 3099.92 2339.81 3098.22 2334.46 3095.69 2329.28 C 3099.61 2337.27 3101.53 2345.67 3101.08 2354.1 C 3100.98 2356.09 3100.73 2358.08 3100.35 2360.07 C 3098.61 2369.29 3094.08 2377.5 3087.43 2384.41 C 3073.15 2399.23 3049.1 2408.08 3021.8 2408.08 Z " fill="rgb(186,134,41)"/><path d=" M 2922.82 2357.09 C 2920.99 2353.49 2919.55 2349.81 2918.56 2346.08 C 2918.57 2346.08 2918.57 2346.08 2918.57 2346.08 C 2919.56 2349.81 2920.99 2353.5 2922.82 2357.09 Z  M 3095.69 2329.28 C 3091.95 2321.65 3086.39 2314.4 3079.35 2307.87 C 3079.35 2307.87 3079.35 2307.87 3079.35 2307.87 C 3083.67 2311.87 3087.43 2316.15 3090.55 2320.61 C 3092.53 2323.43 3094.24 2326.33 3095.69 2329.28 Z " fill="rgb(168,151,195)"/><path d=" M 2932.07 2370.71 C 2928.34 2366.38 2925.23 2361.81 2922.82 2357.09 C 2920.99 2353.5 2919.56 2349.81 2918.57 2346.08 C 2922.65 2349.88 2927.23 2353.43 2932.25 2356.67 C 2931.43 2361.36 2931.39 2366.05 2932.07 2370.71 Z  M 3100.67 2345.23 C 3095.16 2338.8 3088.29 2332.87 3080.34 2327.72 C 3081.48 2321.1 3081.09 2314.41 3079.35 2307.87 C 3086.39 2314.4 3091.95 2321.65 3095.69 2329.28 C 3098.22 2334.46 3099.92 2339.81 3100.67 2345.23 Z " fill="rgb(186,153,140)"/><path d=" M 2996.43 2293.47 C 2964.27 2293.47 2937.44 2307.4 2933.45 2328.43 C 2928.59 2354.04 2959.11 2382.24 3000.09 2390.01 C 3041.05 2397.78 3079.78 2382.7 3084.64 2357.1 C 3089.5 2331.49 3058.98 2303.29 3018 2295.52 C 3010.68 2294.13 3003.43 2293.47 2996.43 2293.47 Z  M 3022.29 2424.14 C 3013.17 2424.14 3003.73 2423.27 2994.13 2421.45 C 2934.11 2410.06 2893.65 2366.59 2902.01 2322.47 C 2910.38 2278.35 2963.94 2252.7 3023.97 2264.08 C 3083.98 2275.46 3124.44 2318.94 3116.08 2363.06 C 3109.05 2400.12 3070.14 2424.14 3022.29 2424.14 Z " fill="rgb(57,0,117)"/><path d=" M 993.285 2279.8 C 942.854 2289.36 907.316 2325.31 913.911 2360.08 C 920.504 2394.85 966.733 2415.29 1017.17 2405.73 C 1067.6 2396.16 1103.14 2360.22 1096.54 2325.45 C 1089.95 2290.67 1043.72 2270.24 993.285 2279.8 Z " fill="rgb(255,206,0)"/><path d=" M 1095.7 2346.08 C 1097.5 2339.3 1097.85 2332.35 1096.54 2325.45 C 1091.05 2296.47 1058.02 2277.45 1017.98 2277.45 C 1009.98 2277.45 1001.69 2278.21 993.285 2279.8 C 969.605 2284.29 949.208 2294.6 934.916 2307.87 C 934.916 2307.87 934.916 2307.87 934.916 2307.87 C 930.593 2311.88 926.828 2316.16 923.699 2320.64 C 937.155 2301.36 962.42 2285.63 993.276 2279.79 C 1001.68 2278.19 1009.96 2277.44 1017.97 2277.44 C 1058.02 2277.44 1091.06 2296.47 1096.56 2325.47 C 1097.86 2332.36 1097.5 2339.3 1095.71 2346.08 C 1095.7 2346.08 1095.7 2346.08 1095.7 2346.08 Z " fill="rgb(227,232,237)"/><path d=" M 1082.02 2356.67 C 1081.98 2356.4 1081.93 2356.14 1081.88 2355.87 C 1076.37 2326.9 1043.34 2307.88 1003.29 2307.88 C 995.284 2307.88 986.997 2308.64 978.595 2310.23 C 961.69 2313.43 946.461 2319.62 933.933 2327.72 C 932.786 2321.1 933.184 2314.41 934.916 2307.87 C 949.208 2294.6 969.605 2284.29 993.285 2279.8 C 1001.69 2278.21 1009.98 2277.45 1017.98 2277.45 C 1058.02 2277.45 1091.05 2296.47 1096.54 2325.45 C 1097.85 2332.35 1097.5 2339.3 1095.7 2346.08 C 1091.62 2349.88 1087.04 2353.43 1082.02 2356.67 Z " fill="rgb(255,235,153)"/><path d=" M 992.468 2408.1 C 965.014 2408.1 940.868 2399.16 926.626 2384.19 C 940.87 2399.14 965.024 2408.08 992.469 2408.08 C 1000.48 2408.08 1008.76 2407.32 1017.17 2405.73 C 1022.46 2404.72 1027.59 2403.43 1032.53 2401.87 C 1027.59 2403.43 1022.45 2404.74 1017.16 2405.75 C 1008.75 2407.34 1000.47 2408.1 992.468 2408.1 Z  M 1078.59 2374.69 C 1084.11 2369.03 1088.56 2362.91 1091.73 2356.52 C 1091.75 2356.48 1091.77 2356.44 1091.79 2356.4 C 1091.8 2356.4 1091.8 2356.39 1091.8 2356.39 C 1093.47 2353.02 1094.78 2349.57 1095.71 2346.08 C 1095.71 2346.07 1095.71 2346.07 1095.72 2346.07 C 1093.03 2356.23 1087.08 2366.01 1078.59 2374.69 Z  M 913.213 2354.54 C 912.459 2342.86 916.299 2331.21 923.699 2320.64 C 921.772 2323.4 920.088 2326.23 918.663 2329.12 C 918.649 2329.14 918.636 2329.17 918.622 2329.2 C 918.615 2329.21 918.607 2329.23 918.601 2329.24 C 914.602 2337.38 912.67 2345.96 913.213 2354.54 Z " fill="rgb(140,128,178)"/><path d=" M 992.469 2408.08 C 965.024 2408.08 940.87 2399.14 926.626 2384.19 C 920.095 2377.32 915.645 2369.19 913.916 2360.07 C 913.565 2358.23 913.332 2356.38 913.213 2354.54 C 912.67 2345.96 914.602 2337.38 918.601 2329.24 C 916.055 2334.43 914.352 2339.8 913.596 2345.23 C 919.111 2338.8 925.978 2332.87 933.933 2327.72 C 933.978 2327.99 934.026 2328.25 934.076 2328.51 C 939.577 2357.48 972.607 2376.5 1012.66 2376.5 C 1020.66 2376.5 1028.95 2375.74 1037.35 2374.15 C 1054.26 2370.95 1069.5 2364.77 1082.02 2356.67 C 1082.84 2361.36 1082.88 2366.05 1082.2 2370.71 C 1086.08 2366.21 1089.28 2361.45 1091.73 2356.52 C 1088.56 2362.91 1084.11 2369.03 1078.59 2374.69 C 1067.21 2386.31 1051.29 2395.95 1032.53 2401.87 C 1027.59 2403.43 1022.46 2404.72 1017.17 2405.73 C 1008.76 2407.32 1000.48 2408.08 992.469 2408.08 Z  M 1091.79 2356.4 C 1091.8 2356.4 1091.8 2356.39 1091.8 2356.39 C 1091.8 2356.39 1091.8 2356.4 1091.79 2356.4 Z  M 918.622 2329.2 C 918.636 2329.17 918.649 2329.14 918.663 2329.12 C 918.65 2329.14 918.636 2329.17 918.622 2329.2 Z " fill="rgb(186,134,41)"/><path d=" M 1091.73 2356.52 C 1091.75 2356.48 1091.77 2356.44 1091.79 2356.4 C 1091.77 2356.44 1091.75 2356.48 1091.73 2356.52 Z  M 1091.8 2356.39 C 1093.46 2353.02 1094.77 2349.57 1095.7 2346.08 C 1095.7 2346.08 1095.7 2346.08 1095.71 2346.08 C 1094.78 2349.57 1093.47 2353.02 1091.8 2356.39 Z  M 918.601 2329.24 C 918.607 2329.23 918.615 2329.21 918.622 2329.2 C 918.615 2329.21 918.608 2329.23 918.601 2329.24 Z  M 918.663 2329.12 C 920.088 2326.23 921.772 2323.4 923.699 2320.64 C 926.828 2316.16 930.593 2311.88 934.916 2307.87 C 934.916 2307.87 934.916 2307.87 934.916 2307.87 C 927.93 2314.35 922.404 2321.55 918.663 2329.12 Z " fill="rgb(168,151,195)"/><path d=" M 1082.2 2370.71 C 1082.88 2366.05 1082.84 2361.36 1082.02 2356.67 C 1087.04 2353.43 1091.62 2349.88 1095.7 2346.08 C 1094.77 2349.57 1093.46 2353.02 1091.8 2356.39 C 1091.8 2356.39 1091.8 2356.4 1091.79 2356.4 C 1091.77 2356.44 1091.75 2356.48 1091.73 2356.52 C 1089.28 2361.45 1086.08 2366.21 1082.2 2370.71 Z  M 913.596 2345.23 C 914.352 2339.8 916.055 2334.43 918.601 2329.24 C 918.608 2329.23 918.615 2329.21 918.622 2329.2 C 918.636 2329.17 918.65 2329.14 918.663 2329.12 C 922.404 2321.55 927.93 2314.35 934.916 2307.87 C 933.184 2314.41 932.786 2321.1 933.933 2327.72 C 925.978 2332.87 919.111 2338.8 913.596 2345.23 Z " fill="rgb(186,153,140)"/><path d=" M 993.286 2279.8 L 993.334 2279.8 L 993.286 2279.8 Z  M 1017.84 2293.47 C 1010.84 2293.47 1003.59 2294.13 996.269 2295.52 C 975.034 2299.55 956.323 2308.86 943.588 2321.74 C 937.114 2328.29 926.689 2341.59 929.628 2357.1 C 932.573 2372.61 947.143 2381.17 955.566 2384.9 C 972.133 2392.22 992.939 2394.04 1014.19 2390.01 C 1055.16 2382.24 1085.68 2354.04 1080.82 2328.43 C 1076.84 2307.4 1050 2293.47 1017.84 2293.47 Z  M 992.426 2424.09 C 974.575 2424.09 957.49 2420.73 942.626 2414.16 C 918.168 2403.35 902.387 2385.2 898.193 2363.06 C 893.989 2340.92 902.031 2318.25 920.834 2299.24 C 938.085 2281.79 962.758 2269.31 990.302 2264.08 C 1050.32 2252.72 1103.9 2278.34 1112.26 2322.47 C 1120.62 2366.59 1080.17 2410.06 1020.15 2421.45 C 1010.84 2423.21 1001.53 2424.09 992.426 2424.09 Z " fill="rgb(57,0,117)"/><path d=" M 1630.38 3111.38 C 1623.5 3111.38 1617.15 3106.92 1615.06 3099.99 C 1612.51 3091.53 1617.3 3082.61 1625.77 3080.06 C 1746.31 3043.74 1775.88 2929.37 1777.08 2924.52 C 1779.2 2915.95 1787.86 2910.68 1796.43 2912.8 C 1804.99 2914.9 1810.25 2923.53 1808.17 2932.1 C 1806.82 2937.67 1773.45 3068.98 1634.99 3110.7 C 1633.46 3111.16 1631.9 3111.38 1630.38 3111.38 Z " fill="rgb(57,0,117)"/><path d=" M 2371.44 3110.83 C 2369.92 3110.83 2368.36 3110.61 2366.83 3110.15 C 2228.43 3068.45 2194.44 2937.65 2193.07 2932.1 C 2190.93 2923.52 2196.16 2914.84 2204.74 2912.71 C 2213.26 2910.58 2221.96 2915.79 2224.11 2924.35 C 2225.34 2929.18 2255.46 3043.17 2376.05 3079.51 C 2384.52 3082.06 2389.31 3090.98 2386.76 3099.44 C 2384.67 3106.37 2378.32 3110.83 2371.44 3110.83 Z " fill="rgb(57,0,117)"/><path d=" M 2000.01 2456.91 C 1991.18 2456.91 1984.01 2449.74 1984.01 2440.91 L 1984.01 2279.6 C 1984.01 2270.77 1991.18 2263.6 2000.01 2263.6 C 2008.85 2263.6 2016.02 2270.77 2016.02 2279.6 L 2016.02 2440.91 C 2016.02 2449.74 2008.85 2456.91 2000.01 2456.91 Z " fill="rgb(57,0,117)"/><path d=" M 2943.81 2670.13 C 2940.1 2670.13 2936.39 2668.76 2933.49 2666.01 C 2745.52 2487.66 2516.5 2407.04 2514.21 2406.25 C 2506.39 2403.54 2502.24 2394.99 2504.95 2387.16 C 2507.65 2379.34 2516.19 2375.19 2524.03 2377.9 C 2526.38 2378.71 2761.51 2461.49 2954.14 2644.25 C 2960.15 2649.95 2960.4 2659.44 2954.7 2665.45 C 2951.75 2668.56 2947.78 2670.13 2943.81 2670.13 Z " fill="rgb(57,0,117)"/><path d=" M 1048.26 2670.13 C 1044.28 2670.13 1040.32 2668.56 1037.37 2665.45 C 1031.67 2659.44 1031.92 2649.95 1037.93 2644.25 C 1230.56 2461.49 1465.69 2378.71 1468.04 2377.9 C 1475.87 2375.19 1484.41 2379.34 1487.12 2387.16 C 1489.83 2394.99 1485.69 2403.53 1477.86 2406.25 C 1475.57 2407.04 1246.34 2487.86 1058.57 2666.01 C 1055.67 2668.76 1051.96 2670.13 1048.26 2670.13 Z " fill="rgb(57,0,117)"/><path d=" M 2621.17 1680.27 C 2579.18 1680.27 2517.72 1539.22 2492.64 1492.33 C 2467.07 1444.51 2381.27 1310.59 2409.2 1279.12 C 2415.64 1271.86 2424.25 1268.54 2434.33 1268.54 C 2483.12 1268.54 2566.51 1346.26 2606.95 1431.2 C 2674.86 1573.81 2679.35 1672.42 2623.65 1680.1 C 2622.83 1680.22 2622.01 1680.27 2621.17 1680.27 Z " fill="rgb(164,219,253)"/><path d=" M 2698.16 1949.34 C 2696.84 1949.34 2695.5 1949.24 2694.12 1949.02 C 2674.11 1945.92 2661.73 1869.42 2656.58 1844.05 C 2651.43 1818.68 2633.87 1746.82 2650.95 1736.25 C 2655.11 1733.68 2659.52 1732.31 2664.06 1732.31 C 2684.62 1732.31 2707.68 1760.53 2720.57 1832.89 C 2734.93 1913.49 2722.13 1949.34 2698.16 1949.34 Z " fill="rgb(164,219,253)"/></g></svg>