<?xml version="1.0" encoding="UTF-8" standalone="no"?><!-- Generator: Gravit.io --><svg xmlns="http://www.w3.org/2000/svg" xmlns:xlink="http://www.w3.org/1999/xlink" style="isolation:isolate" viewBox="0 0 2900 2900" width="2900pt" height="2900pt"><g><path d=" M -550 -550 L -550 3450 L 3450 3450 L 3450 -550 L -550 -550 Z " fill="none"/><g><g opacity="0"><path d=" M 3450 3450 L -550 3450 L -550 -550 L 3450 -550 L 3450 3450 Z " fill="rgb(255,255,255)"/></g></g><path d=" M 1303.89 1237.09 C 1296.98 1354.25 1258.09 1476.14 1129.62 1493.11 C 873.78 1526.83 894.94 1203.77 894.94 1203.77 C 894.94 1203.77 833.37 1190 806.6 1142.38 C 795.73 1123 788.51 1104.56 783.79 1087.9 C 770.74 1041.97 776.57 1009.67 776.57 1009.67 L 1286.11 1009.67 C 1286.11 1009.67 1310.7 1121.04 1303.89 1237.09 Z " fill="rgb(255,255,255)"/><path d=" M 793.14 1027.5 C 792.94 1048.15 796.6 1088.29 822.13 1133.65 C 844.58 1173.57 898.34 1186.27 898.88 1186.4 C 907.41 1188.35 913.3 1196.22 912.73 1204.95 C 912.63 1206.5 903.59 1362.89 983.75 1437.83 C 1018.91 1470.71 1067.19 1483.36 1127.28 1475.43 C 1174.44 1469.21 1210.24 1447.81 1236.71 1410.02 C 1314.68 1298.74 1281.91 1084.15 1271.47 1027.5 L 793.14 1027.5 Z  M 1093.44 1513.39 C 1039.56 1513.39 994.56 1496.78 959.31 1463.77 C 881.4 1390.82 876.13 1260.39 876.69 1216.92 C 854.72 1209.34 813.19 1190.46 791.06 1151.13 C 747.51 1073.71 758.54 1009.21 759.03 1006.5 C 760.57 998.03 767.95 991.86 776.56 991.86 L 1286.12 991.86 C 1294.48 991.86 1301.72 997.67 1303.52 1005.84 C 1306.06 1017.35 1364.67 1289.49 1265.9 1430.47 C 1233.82 1476.26 1188.75 1503.27 1131.94 1510.77 C 1118.64 1512.52 1105.81 1513.39 1093.44 1513.39 Z " fill="rgb(55,26,69)"/><path d=" M 2005.61 1197.94 C 2006.42 1193.67 2061.03 1053.9 2052.83 976.6 C 2045.68 909.2 1939.13 748.19 1794.74 700.65 C 1649.83 652.95 1593.5 988.48 1593.5 988.48 L 2005.61 1197.94 Z " fill="rgb(255,255,255)"/><path d=" M 2018.22 1161.36 C 2011.18 1182.52 2005.88 1196.64 2005.61 1197.93 L 1593.5 988.47 C 1593.5 988.47 1603.92 926.63 1627.22 859.81 C 1658.22 770.98 1712.08 673.42 1794.76 700.64 C 1939.15 748.17 2045.66 909.21 2052.83 976.62 C 2058.49 1030.16 2034.03 1113.65 2018.22 1161.36 Z " fill="rgb(255,255,255)"/><path d=" M 2008.94 1131.66 C 2002.44 1124.32 1994.76 1114.85 1987.58 1106.01 C 1982.48 1099.73 1977.02 1093.01 1971.17 1085.95 C 1972.12 1085.62 1973.04 1085.26 1973.94 1084.85 C 1978.04 1083.04 1981.75 1080.48 1984.97 1077.07 C 1996.6 1094.8 2005.34 1111.3 2010.8 1125.54 C 2010.2 1127.55 2009.57 1129.6 2008.94 1131.66 Z  M 1828.08 952.15 C 1796.49 931.09 1760.48 912.05 1719.33 897.32 C 1727.2 890.5 1734.61 882.8 1741.49 874.34 C 1774.66 888.33 1805.93 906.13 1834.68 926.07 C 1834.4 926.95 1834.13 927.82 1833.87 928.71 C 1831.53 936.5 1829.61 944.44 1828.08 952.15 Z " fill="rgb(185,175,190)"/><path d=" M 1613.41 978.62 L 1995.47 1172.8 C 2033.44 1062.93 2038.09 1006.57 2035.11 978.48 C 2029.07 921.53 1929.89 763.91 1789.17 717.58 C 1769.25 711.02 1750.9 713.07 1733.07 723.83 C 1667.33 763.51 1626.65 910.66 1613.41 978.62 Z  M 2023.11 1201.26 L 2023.06 1201.54 C 2023.08 1201.43 2023.1 1201.34 2023.11 1201.26 Z  M 2018.69 1224.58 L 1573.76 998.44 L 1575.93 985.54 C 1577.52 976.06 1616.01 752.88 1714.63 693.34 C 1741.52 677.09 1770.35 673.87 1800.31 683.73 C 1951.75 733.58 2062.93 902.84 2070.55 974.71 C 2075.6 1022.36 2060.26 1096.98 2024.93 1196.51 C 2024 1199.15 2023.31 1201.07 2022.94 1202.17 L 2018.69 1224.58 Z " fill="rgb(55,26,69)"/><path d=" M 1823.59 989.78 C 1824.56 949.07 1844.67 861.81 1888.84 866.24 C 1933.02 870.68 2022.24 934.01 1996.43 1053.29 C 1976.42 1145.81 1822.62 1030.48 1823.59 989.78 Z " fill="rgb(255,255,255)"/><path d=" M 1984.97 1077.07 L 1984.97 1077.07 C 1990.21 1071.51 1994.18 1063.72 1996.43 1053.29 C 1996.45 1053.23 1996.46 1053.16 1996.47 1053.1 C 1996.46 1053.16 1996.45 1053.22 1996.43 1053.28 C 1994.18 1063.72 1990.21 1071.52 1984.97 1077.07 Z " fill="rgb(185,175,190)"/><path d=" M 1973.94 1084.85 C 1978.04 1083.04 1981.75 1080.47 1984.97 1077.07 L 1984.97 1077.07 C 1981.75 1080.48 1978.04 1083.04 1973.94 1084.85 Z  M 1828.09 952.15 L 1828.08 952.15 C 1829.61 944.44 1831.53 936.5 1833.87 928.71 C 1831.54 936.5 1829.61 944.44 1828.09 952.15 Z " fill="rgb(140,123,148)"/><path d=" M 1971.17 1085.95 C 1970.47 1085.1 1969.77 1084.26 1969.06 1083.4 C 1970.03 1061.77 1968.65 1041.31 1965.07 1023.41 C 1976.7 1029.78 1988.16 1035.17 1998.97 1039.16 C 1998.31 1043.69 1997.48 1048.35 1996.47 1053.1 C 1996.46 1053.16 1996.45 1053.23 1996.43 1053.29 C 1994.18 1063.72 1990.21 1071.51 1984.97 1077.07 C 1981.75 1080.47 1978.04 1083.04 1973.94 1084.85 C 1973.04 1085.25 1972.11 1085.62 1971.17 1085.95 Z  M 1835.98 957.52 C 1833.38 955.72 1830.75 953.93 1828.09 952.15 C 1829.61 944.44 1831.54 936.5 1833.87 928.71 C 1835.65 922.77 1837.67 916.91 1839.94 911.31 C 1844.08 921.39 1852.97 933.59 1864.93 946.47 C 1854.03 948.77 1844.11 952.91 1835.98 957.52 Z " fill="rgb(185,175,190)"/><path d=" M 1841.4 990.2 L 1841.4 990.2 L 1841.4 990.2 L 1841.4 990.2 Z  M 1841.41 990.15 C 1842.14 1006.16 1905.51 1066.38 1952 1070.35 C 1967.88 1071.7 1975.48 1065.86 1979.01 1049.52 C 1991.25 992.97 1974.26 954.22 1957.86 931.67 C 1934.5 899.54 1902.72 885.54 1887.06 883.97 C 1884.38 883.71 1880.13 883.91 1874.52 888.87 C 1854.34 906.69 1842.13 960.04 1841.41 990.15 Z  M 1956.07 1106.17 C 1952.81 1106.17 1949.45 1105.96 1945.99 1105.55 C 1888.69 1098.73 1804.83 1029.23 1805.78 989.35 L 1805.78 989.35 C 1806.6 954.86 1819.59 889.83 1850.93 862.15 C 1862.65 851.8 1876.37 847.07 1890.62 848.51 C 1917.92 851.25 1958.2 871.54 1986.69 910.7 C 2007.37 939.14 2028.87 987.62 2013.85 1057.05 C 2007.01 1088.68 1986.19 1106.17 1956.07 1106.17 Z " fill="rgb(55,26,69)"/><path d=" M 1914.46 889.31 C 1912.07 900.45 1910 911.98 1908.26 923.35 C 1906.53 934.76 1905.12 946.18 1904.27 957.49 C 1903.42 968.76 1903.07 980.04 1903.93 990.5 C 1904.36 995.68 1905.12 1000.71 1906.34 1004.8 C 1907.42 1008.9 1909.59 1011.77 1909.82 1011.38 C 1916.78 1018.34 1916.77 1029.63 1909.81 1036.58 C 1902.85 1043.54 1891.57 1043.54 1884.61 1036.57 C 1880.77 1032.23 1878.06 1027.5 1876.66 1023.4 C 1875 1019.15 1874.22 1015.29 1873.62 1011.57 C 1872.5 1004.15 1872.48 997.41 1872.74 990.87 C 1873.37 977.84 1875.38 965.69 1877.81 953.73 C 1880.25 941.78 1883.22 930.12 1886.5 918.59 C 1889.8 907.04 1893.34 895.76 1897.35 884.32 C 1898.98 879.67 1904.08 877.22 1908.73 878.85 C 1913.01 880.36 1915.43 884.8 1914.5 889.14 L 1914.46 889.31 Z " fill="rgb(55,26,69)"/><path d=" M 2348.59 1194.19 C 2345.25 1207.73 2338.61 1219.14 2329.97 1227.78 C 2291.08 1266.58 2225.41 1232.95 2212.05 1225.46 C 2210.49 1224.62 2209.64 1224.08 2209.64 1224.08 C 2209.64 1224.08 2206.97 1239.81 2200.02 1263.77 C 2191.38 1293.4 2176.23 1335.72 2151.55 1376.66 C 2049.13 1546.39 1860.74 1398.84 1860.74 1398.84 L 1307.1 1341.33 L 1184.5 1328.59 C 1184.5 1328.59 1080.66 1288.19 1076.65 1032.92 C 1074.11 871.57 1419.49 873.53 1581.82 886.36 C 1899.14 911.49 1995.72 1195.75 2025.97 1158.28 C 2049.36 1129.28 2055.1 1028.92 2086.24 996.57 C 2114.44 967.26 2194.9 978.26 2272.99 1043.7 C 2341.68 1101.35 2357.99 1156.19 2348.59 1194.19 Z " fill="rgb(255,255,255)"/><path d=" M 2282.06 1228.38 C 2251.6 1228.38 2219.5 1209.25 2218.89 1208.89 L 2210.51 1203.76 C 2206.87 1164.62 2200.01 1129.72 2211.65 1128.7 C 2211.75 1128.69 2211.86 1128.69 2211.97 1128.69 C 2219.15 1128.69 2226.57 1148.79 2239.53 1168.9 C 2252.49 1189 2270.99 1209.11 2300.34 1209.11 C 2307.94 1209.11 2316.26 1207.76 2325.41 1204.71 C 2323.19 1208.56 2320.51 1212.07 2317.4 1215.17 C 2307.6 1224.94 2294.98 1228.38 2282.06 1228.38 Z " fill="rgb(185,175,190)"/><path d=" M 2032.36 1439.81 C 1982.84 1384.98 1926.73 1338.05 1865.88 1299.49 C 1878.95 1289.11 1890.99 1277.33 1901.89 1264.28 C 1939.55 1302.12 1979.32 1339.38 2027.53 1369.84 C 2042.42 1379.25 2056.67 1383.25 2070.13 1383.25 C 2106.29 1383.25 2136.81 1354.42 2158.93 1324.03 C 2152.53 1338.27 2145.03 1352.98 2136.29 1367.46 C 2112.12 1407.5 2080.8 1431.33 2043.22 1438.28 C 2039.61 1438.95 2035.99 1439.45 2032.36 1439.81 Z  M 1727.65 1229.38 C 1712.64 1223.48 1697.44 1218.03 1682.12 1213.04 C 1692.15 1186.34 1699.1 1159.13 1703.88 1133.22 L 1703.88 1133.22 C 1703.88 1133.21 1703.89 1133.19 1703.89 1133.18 C 1705.82 1122.69 1707.4 1112.41 1708.68 1102.47 C 1738.72 1117.24 1765.49 1135.85 1790.61 1156.7 C 1772.95 1188.47 1747.78 1213.06 1727.65 1229.38 Z " fill="rgb(185,175,190)"/><path d=" M 1189.47 1311.19 L 1867.7 1381.67 L 1871.73 1384.84 C 1872.6 1385.51 1960.94 1453.49 2043.22 1438.28 C 2080.8 1431.33 2112.12 1407.5 2136.29 1367.46 C 2178.6 1297.33 2191.92 1221.85 2192.06 1221.1 L 2196.51 1195.2 L 2218.89 1208.89 C 2219.76 1209.41 2284.49 1247.98 2317.4 1215.17 C 2328.33 1204.27 2333.92 1188.36 2333.15 1170.35 C 2331.62 1134.94 2306.18 1094.82 2261.53 1057.38 C 2189.84 997.27 2118.59 988.65 2099.09 1008.91 C 2085.44 1023.1 2076.33 1059.55 2068.3 1091.71 C 2060.06 1124.7 2052.95 1153.2 2039.83 1169.46 C 2034.62 1175.92 2027.43 1179.48 2019.6 1179.49 L 2019.56 1179.49 C 2001.33 1179.49 1987.49 1162.43 1959.91 1128.48 C 1900.99 1055.91 1791.31 920.83 1580.44 904.14 C 1407.34 890.45 1195.99 900.58 1121.91 970.12 C 1103.05 987.82 1094.07 1008.27 1094.46 1032.63 C 1097.91 1251.51 1176.68 1304.1 1189.47 1311.19 Z  M 2018.24 1476.14 C 1941.77 1476.14 1871.86 1429.08 1854.01 1416.08 L 1180.27 1346.07 L 1178.04 1345.2 C 1173.34 1343.37 1062.99 1297.42 1058.83 1033.19 C 1058.28 998.71 1071.3 968.75 1097.52 944.13 C 1198.57 849.28 1470.87 859.72 1583.25 868.62 C 1809.36 886.51 1925.29 1029.3 1987.58 1106.01 C 1997.83 1118.64 2009.12 1132.55 2016.51 1139.72 C 2022.88 1126.5 2028.58 1103.67 2033.73 1083.07 C 2043.28 1044.8 2053.16 1005.24 2073.41 984.2 C 2112.54 943.52 2205.24 963.68 2284.43 1030.07 C 2351.6 1086.39 2367.36 1136.6 2368.75 1168.81 C 2369.96 1196.94 2360.66 1222.36 2342.57 1240.41 C 2305.39 1277.46 2251.84 1262.88 2222.13 1250.24 C 2214.74 1279.91 2198.31 1333.65 2166.79 1385.87 C 2137.1 1435.08 2097.64 1464.51 2049.52 1473.35 C 2039.05 1475.28 2028.59 1476.14 2018.24 1476.14 Z " fill="rgb(55,26,69)"/><path d=" M 2220.51 1127.97 C 2221.88 1136.18 2222.99 1144.13 2223.97 1152.25 C 2224.94 1160.34 2225.74 1168.47 2226.38 1176.66 C 2227.63 1193.02 2228.16 1209.58 2227.25 1226.67 L 2227.25 1226.73 C 2226.73 1236.6 2218.3 1244.18 2208.43 1243.66 C 2198.56 1243.13 2190.98 1234.71 2191.5 1224.84 C 2191.56 1223.74 2191.74 1222.57 2191.99 1221.53 C 2195.52 1207.06 2197.95 1191.76 2199.65 1176.28 C 2200.5 1168.53 2201.18 1160.73 2201.7 1152.89 C 2202.22 1145.1 2202.59 1137.13 2202.75 1129.46 L 2202.75 1129.25 C 2202.86 1124.32 2206.94 1120.4 2211.88 1120.5 C 2216.25 1120.59 2219.82 1123.81 2220.51 1127.97 Z " fill="rgb(55,26,69)"/><path d=" M 2010.58 1133.5 C 2016.42 1140.69 2021.58 1147.58 2026.83 1154.78 C 2032.01 1161.93 2037.04 1169.18 2041.88 1176.58 C 2051.51 1191.43 2060.57 1206.77 2067.63 1223.53 C 2069.55 1228.08 2067.42 1233.31 2062.88 1235.23 C 2058.81 1236.94 2054.2 1235.43 2051.9 1231.84 L 2051.77 1231.64 C 2042.97 1217.98 2032.17 1205.23 2020.81 1193.02 C 2015.1 1186.93 2009.21 1180.97 2003.21 1175.15 C 1997.25 1169.38 1990.99 1163.51 1984.99 1158.3 C 1977.52 1151.84 1976.71 1140.54 1983.17 1133.07 C 1989.64 1125.6 2000.94 1124.79 2008.41 1131.26 C 2009.18 1131.93 2009.95 1132.74 2010.58 1133.5 Z " fill="rgb(55,26,69)"/><path d=" M 1934.33 1170.31 C 1911.93 1234.55 1865.95 1296.12 1786.79 1322.22 L 1703.22 1268.14 C 1703.22 1268.14 1777.03 1227.6 1812.18 1153.69 C 1816.55 1144.47 1820.38 1135.56 1823.63 1126.97 C 1857.98 1036.67 1835.39 979.33 1835.39 979.33 C 1835.39 979.33 1885.95 938.84 1928.59 983.25 C 1953.89 1009.63 1961.64 1091.95 1934.33 1170.31 Z " fill="rgb(255,255,255)"/><path d=" M 1833.12 1279.79 C 1810.75 1267.05 1787.86 1255.42 1764.46 1244.88 C 1786.81 1224.61 1811.5 1196.62 1828.29 1161.36 C 1831.23 1155.18 1833.92 1149.12 1836.38 1143.18 C 1847.55 1155.52 1861.02 1165.79 1876.64 1169.69 C 1887.1 1172.31 1897.15 1173.42 1906.69 1173.42 C 1909.25 1173.42 1911.77 1173.34 1914.26 1173.19 C 1900.63 1208.51 1876.28 1250.27 1833.12 1279.79 Z " fill="rgb(185,175,190)"/><path d=" M 1786.8 1340.03 C 1779.32 1340.03 1772.35 1335.28 1769.88 1327.79 C 1766.8 1318.44 1771.88 1308.37 1781.23 1305.28 C 1878.34 1273.27 1913.02 1187.36 1925.05 1139 C 1942.28 1069.73 1930.69 1011.19 1915.71 995.57 C 1893.93 972.87 1869.41 980.24 1856.08 987.2 C 1862.06 1014.21 1868.38 1077.19 1828.29 1161.36 C 1791.06 1239.54 1715 1281.98 1711.78 1283.75 C 1703.16 1288.49 1692.33 1285.34 1687.58 1276.71 C 1682.85 1268.09 1685.99 1257.26 1694.61 1252.52 C 1695.75 1251.88 1764.05 1213.37 1796.11 1146.04 C 1841.97 1049.76 1818.99 986.35 1818.76 985.72 L 1814.19 973.61 L 1824.25 965.4 C 1846.14 947.88 1898.81 926.48 1941.42 970.9 C 1970.03 1000.72 1977.69 1075.03 1959.63 1147.6 C 1936.14 1242.02 1875.19 1311.84 1792.39 1339.13 C 1790.53 1339.74 1788.65 1340.03 1786.8 1340.03 Z " fill="rgb(55,26,69)"/><path d=" M 1811.39 2676.37 C 1429.11 2888.78 947.06 2751.1 734.65 2368.82 C 697.82 2302.55 671.52 2233.31 655.21 2162.98 C 648.09 2132.38 642.86 2101.56 639.51 2070.74 C 605.85 1763.45 754.98 1451.69 1042.16 1292.11 C 1177.04 1217.19 1324.3 1185.81 1467.8 1193.38 C 1731.03 1207.26 1981.42 1352.21 2118.91 1599.62 C 2162.19 1677.49 2190.92 1759.5 2206.03 1842.55 C 2265.05 2167.12 2115.77 2507.24 1811.39 2676.37 Z " fill="rgb(255,167,38)"/><path d=" M 1432.04 2756.69 C 1360.76 2756.69 1289.02 2746.73 1218.59 2726.62 C 1020.02 2669.9 855.41 2539.25 755.1 2358.73 C 716.77 2289.75 690.15 2217.36 674.58 2143.9 C 822.34 2307.79 1024.61 2406.79 1237.39 2428.36 L 1233.77 2424.55 C 1227.65 2399.97 1228.28 2374 1236.94 2349.11 C 1256.01 2294.33 1294.31 2252.36 1361.23 2252.36 C 1382.82 2252.36 1407.38 2256.72 1435.24 2266.43 C 1500.39 2289.12 1543.07 2345.34 1546.28 2404.48 C 1616.09 2386.24 1684.74 2359 1750.74 2322.32 C 1754.21 2320.38 1757.65 2318.44 1761.08 2316.46 C 1749.51 2270.57 1762.16 2215.58 1798.95 2171.55 C 1833.45 2130.29 1881.17 2108.21 1925.89 2108.21 C 1949.11 2108.21 1971.53 2114.16 1990.87 2126.48 C 2079.57 2022.91 2141.89 1900.85 2174.73 1771.14 C 2214.19 1908.58 2214.59 2054.62 2174.35 2195.53 C 2117.63 2394.1 1986.98 2558.71 1806.47 2659.01 C 1689.97 2723.75 1561.74 2756.7 1432.04 2756.69 Z " fill="rgb(185,118,49)"/><path d=" M 657.9 1985.83 C 657.43 1713.48 800.94 1448.76 1055.38 1307.37 C 1095.16 1285.27 1136.06 1267.06 1177.64 1252.62 C 1186.82 1252.55 1195.97 1252.25 1205.12 1251.75 C 1221.43 1250.81 1237.69 1249.21 1253.77 1246.85 C 1253.9 1250.63 1254.08 1254.28 1254.35 1257.85 C 1259.65 1333.98 1294 1363.38 1325.18 1383.16 C 1328.22 1385.09 1332.21 1387.13 1337.02 1389.21 C 1326.89 1393.68 1316.02 1397.44 1304.55 1400.32 C 1288.07 1404.46 1271.81 1406.42 1256.42 1406.42 C 1234.38 1406.43 1214.11 1402.4 1197.49 1394.99 C 1197.48 1394.5 1197.46 1394.02 1197.42 1393.53 C 1197.83 1392.41 1197.96 1391.17 1197.74 1389.91 C 1197.25 1387.09 1196.25 1384.39 1195.06 1381.79 C 1193.75 1379.27 1192.2 1376.88 1190.45 1374.69 C 1186.92 1370.35 1182.63 1366.89 1178.17 1363.95 C 1171.47 1359.77 1164.23 1356.99 1156.86 1355.24 C 1156.23 1353.48 1155.67 1351.67 1155.21 1349.83 C 1154.68 1347.69 1154.25 1345.53 1153.98 1343.36 C 1146.49 1346.41 1139.02 1349.58 1131.59 1352.87 C 1117.41 1353.39 1103.56 1356.84 1090.83 1362.24 C 1072.83 1369.9 1056.72 1381.64 1044.22 1396.65 C 1043.48 1397.56 1042.75 1398.48 1042.03 1399.41 C 823.91 1530.45 689.05 1749.81 657.9 1985.83 Z  M 2113.89 1620.8 C 1999.24 1460.4 1833.59 1352.67 1651.98 1307.64 C 1654.72 1303.34 1657.33 1298.98 1659.83 1294.6 C 1667.83 1280.63 1674.67 1266.27 1680.5 1251.81 C 1855.61 1311.47 2010.03 1433.61 2106.74 1607.66 C 2109.17 1612.02 2111.55 1616.41 2113.89 1620.8 Z " fill="rgb(255,202,125)"/><path d=" M 1429.62 1210.17 C 1302.65 1210.17 1174.02 1241.45 1055.38 1307.37 C 682.74 1514.45 548.03 1986.08 755.1 2358.73 C 855.41 2539.25 1020.02 2669.9 1218.59 2726.62 C 1417.16 2783.32 1625.94 2759.32 1806.47 2659.01 C 1986.98 2558.71 2117.63 2394.1 2174.35 2195.53 C 2231.06 1996.95 2207.06 1788.17 2106.74 1607.66 C 1965.6 1353.64 1701.48 1210.17 1429.62 1210.17 Z  M 1432.11 2794.02 C 1357.36 2794.02 1282.2 2783.58 1208.35 2762.48 C 1000.19 2703.03 827.65 2566.08 722.5 2376.85 C 505.44 1986.22 646.64 1491.83 1037.27 1274.76 C 1427.88 1057.71 1922.28 1198.9 2139.35 1589.53 C 2244.5 1778.76 2269.67 1997.61 2210.22 2205.77 C 2150.77 2413.93 2013.81 2586.47 1824.58 2691.62 C 1702.49 2759.46 1568.03 2794.01 1432.11 2794.02 Z " fill="rgb(55,26,69)"/><path d=" M 1543.82 2353.97 C 1547.7 2361.81 1551.07 2370.02 1553.49 2378.58 C 1555.85 2387.15 1557.46 2396 1558.14 2404.99 C 1558.85 2413.98 1558.5 2423.07 1557.38 2432.09 C 1556.19 2440.91 1554.61 2449.52 1552.27 2458.15 C 1547.64 2475.34 1540.47 2492.36 1529.86 2507.76 C 1519.2 2523.07 1504.87 2536.38 1488.36 2545.87 C 1471.85 2555.39 1453.46 2560.92 1435.28 2563.39 C 1417.03 2566.03 1398.91 2565.71 1381.22 2564.05 C 1372.35 2563 1363.79 2561.75 1354.94 2559.97 C 1345.94 2558.23 1337.09 2555.7 1328.42 2552.67 C 1319.74 2549.67 1311.27 2545.98 1303.12 2541.68 C 1294.95 2537.41 1287.04 2532.59 1279.67 2526.99 C 1264.87 2515.92 1251.57 2502.69 1240.81 2487.47 C 1229.99 2472.34 1221.51 2455.29 1216.77 2437.06 C 1206.74 2400.76 1211.48 2360.46 1230.13 2328.16 C 1248.32 2295.46 1279.06 2271.85 1312.5 2259.71 C 1346.12 2247.62 1382.79 2246.4 1415.97 2255.53 C 1418.94 2256.35 1420.69 2259.42 1419.87 2262.39 C 1419.13 2265.06 1416.56 2266.74 1413.89 2266.45 C 1381.74 2263.02 1349.35 2267.86 1321.39 2281.22 C 1293.41 2294.31 1270.18 2316.13 1257.29 2342.55 C 1244.49 2368.96 1241.89 2399.78 1250.66 2427.38 C 1259.13 2455.1 1277.59 2479.85 1301.63 2497.07 C 1313.69 2505.59 1326.76 2512.9 1340.84 2517.84 C 1347.85 2520.36 1355.02 2522.49 1362.35 2523.97 C 1369.8 2525.54 1377.71 2526.77 1385.35 2527.74 C 1400.71 2529.61 1416.1 2530.39 1430.89 2528.69 C 1445.71 2527.16 1459.82 2523.21 1472.64 2516.94 C 1498.2 2504.21 1516.95 2479.57 1527.23 2450.35 C 1529.81 2443.09 1532.14 2435.49 1533.93 2427.94 C 1535.71 2420.58 1536.74 2413.01 1537.1 2405.36 C 1537.92 2390.06 1535.75 2374.4 1531.06 2359.23 L 1531.02 2359.08 C 1529.89 2355.44 1531.93 2351.56 1535.58 2350.44 C 1538.87 2349.42 1542.34 2350.98 1543.82 2353.97 Z " fill="rgb(55,26,69)"/><path d=" M 1563.78 1953.07 C 1542.16 1953.07 1520.95 1947.29 1502.4 1936.51 C 1503.25 1936.79 1504.09 1937.06 1504.95 1937.32 C 1504.96 1937.32 1504.97 1937.32 1504.98 1937.33 C 1505.01 1937.34 1505.04 1937.34 1505.06 1937.35 C 1515.23 1940.43 1525.91 1942.05 1536.81 1942.05 C 1545.71 1942.05 1554.75 1940.97 1563.76 1938.71 C 1593.42 1931.25 1617.23 1912.45 1631.71 1888.09 C 1646.11 1863.89 1651.32 1834.21 1643.91 1804.75 C 1633.59 1763.65 1601.47 1733.78 1562.99 1724.38 C 1554.56 1722.32 1545.82 1721.24 1536.94 1721.24 C 1528.04 1721.24 1519 1722.32 1509.97 1724.59 C 1508.6 1724.94 1507.25 1725.31 1505.91 1725.7 C 1503.87 1726.29 1501.85 1726.95 1499.87 1727.65 C 1503.12 1725.65 1506.45 1723.82 1509.92 1722.1 C 1527.22 1713.59 1545.57 1709.55 1563.63 1709.55 C 1608.55 1709.55 1651.73 1734.5 1672.91 1777.52 C 1702.62 1837.88 1677.79 1910.83 1617.46 1940.52 C 1600.17 1949.04 1581.83 1953.07 1563.78 1953.07 Z " fill="rgb(255,202,125)"/><path d=" M 998.91 2157.61 C 937.64 2157.61 879.91 2123.52 851.05 2067.65 C 846.97 2058.66 843.63 2049.17 841.14 2039.25 C 818.73 1950.06 872.87 1859.59 962.06 1837.18 C 975.67 1833.76 989.33 1832.12 1002.76 1832.12 C 1064.51 1832.12 1121.66 1866.71 1150.25 1921.55 C 1152.48 1926.41 1154.49 1931.42 1156.27 1936.57 C 1186.36 2023.48 1140.31 2118.31 1053.4 2148.4 C 1035.36 2154.64 1016.99 2157.61 998.91 2157.61 Z " fill="rgb(185,118,49)"/><path d=" M 1041.55 2202.84 C 957.18 2202.85 878.33 2150.01 849.18 2065.83 C 848.45 2063.71 847.77 2061.62 847.12 2059.51 C 848.36 2062.28 849.67 2064.99 851.05 2067.65 C 878.06 2127.2 937.75 2165.23 1002.51 2165.23 C 1015.94 2165.23 1029.59 2163.59 1043.21 2160.17 C 1132.4 2137.76 1186.54 2047.29 1164.13 1958.1 C 1160.87 1945.13 1156.17 1932.91 1150.25 1921.55 C 1122.75 1861.47 1062.77 1824.48 998.93 1824.48 C 980.86 1824.48 962.48 1827.45 944.44 1833.69 C 920.75 1841.9 900.11 1854.93 883.18 1871.29 C 906.32 1842.55 937.53 1819.78 974.97 1806.82 C 997.02 1799.18 1019.48 1795.56 1041.57 1795.56 C 1125.92 1795.56 1204.79 1848.4 1233.95 1932.61 C 1270.73 2038.84 1214.42 2154.8 1108.18 2191.58 C 1086.13 2199.21 1063.65 2202.84 1041.55 2202.84 Z " fill="rgb(255,202,125)"/><path d=" M 1002.51 2165.23 C 937.75 2165.23 878.06 2127.2 851.05 2067.65 C 879.91 2123.52 937.64 2157.61 998.91 2157.61 C 1016.99 2157.61 1035.36 2154.64 1053.4 2148.4 C 1140.31 2118.31 1186.36 2023.48 1156.27 1936.57 C 1154.49 1931.42 1152.48 1926.41 1150.25 1921.55 C 1156.17 1932.91 1160.87 1945.13 1164.13 1958.1 C 1186.54 2047.29 1132.4 2137.76 1043.21 2160.17 C 1029.59 2163.59 1015.94 2165.23 1002.51 2165.23 Z " fill="rgb(213,173,131)"/><path d=" M 875.98 1869.36 C 902.2 1839.57 939.91 1819.29 980.24 1813.1 C 1020.67 1806.44 1063.5 1814.52 1099.78 1834.83 C 1117.89 1845.08 1134.2 1858.51 1148.04 1874.18 L 1153.14 1880.14 L 1155.68 1883.14 L 1157.95 1886.34 C 1160.94 1890.64 1164.02 1894.89 1166.89 1899.27 L 1174.59 1913 C 1177.12 1917.59 1178.97 1922.53 1181.09 1927.33 C 1188.74 1946.84 1193.77 1967.45 1194.9 1988.49 C 1195.9 2009.49 1193.77 2030.7 1187.92 2050.91 C 1182.28 2071.18 1172.96 2090.35 1160.92 2107.5 C 1148.92 2124.69 1134.18 2139.97 1117.25 2152.32 C 1100.26 2164.61 1081.19 2173.79 1061.35 2179.96 C 1056.33 2181.3 1051.43 2183.1 1046.31 2184.01 L 1030.97 2186.69 C 1020.63 2187.61 1010.29 2188.6 999.93 2187.92 C 979.3 2187.06 958.75 2183.19 939.67 2175.57 C 920.65 2167.89 902.93 2157.32 887.51 2144.16 C 856.3 2118.09 835.73 2080.96 828.41 2042.45 C 827.83 2039.43 829.82 2036.51 832.84 2035.94 C 835.59 2035.42 838.26 2037.02 839.14 2039.59 L 839.19 2039.74 C 851.19 2074.57 872.61 2105.54 901.92 2125.93 C 916.35 2136.25 932.19 2144.39 948.89 2149.75 C 965.64 2154.92 983.05 2157.46 1000.35 2157.22 C 1009.03 2157.38 1017.61 2156.02 1026.14 2154.87 L 1038.76 2152 C 1042.98 2151.14 1046.98 2149.44 1051.1 2148.23 C 1067.31 2142.57 1082.67 2134.57 1096.19 2124.11 C 1122.81 2102.92 1143.61 2073.83 1152.22 2040.82 C 1156.56 2024.42 1158.69 2007.46 1157.96 1990.48 C 1157.2 1973.5 1153.17 1956.72 1147.13 1940.86 C 1135.47 1908.74 1111.82 1881.81 1083.02 1863.1 C 1068.42 1853.91 1052.21 1847.31 1035.38 1843.14 C 1018.57 1838.95 1000.9 1837.09 983.38 1838.87 C 948.11 1841.12 913.6 1855.65 885.64 1879.21 C 882.73 1881.68 878.36 1881.32 875.89 1878.4 C 873.65 1875.75 873.76 1871.89 875.98 1869.36 Z " fill="rgb(55,26,69)"/><path d=" M 1951.68 2105.76 C 1959.98 2106.65 1968.32 2108.19 1976.46 2110.69 C 1984.58 2113.25 1992.51 2116.65 2000.05 2120.9 C 2015.16 2129.38 2028.35 2141.49 2038.61 2155.84 C 2048.77 2170.27 2055.86 2186.86 2059.71 2204.09 C 2063.54 2221.35 2063.95 2239.21 2061.58 2256.53 C 2059.35 2273.9 2054.34 2290.8 2047.22 2306.68 C 2039.86 2322.46 2030.57 2337.25 2019.69 2350.79 C 2008.33 2363.91 1995.68 2375.85 1981.61 2386.13 C 1967.33 2396.08 1951.95 2404.62 1935.43 2410.61 C 1918.89 2416.53 1901.41 2420.01 1883.66 2420.88 C 1865.95 2421.67 1847.75 2419.89 1830.59 2413.91 C 1813.43 2408.15 1797.29 2398.9 1783.8 2386.76 C 1770.25 2374.71 1759.42 2359.61 1752.36 2343.13 C 1738.11 2310.01 1738.48 2273.12 1748.54 2240.87 C 1753.8 2224.73 1761.08 2209.47 1770.26 2195.58 C 1779.67 2181.82 1790.87 2169.58 1803.11 2158.8 C 1805.42 2156.76 1808.94 2156.99 1810.97 2159.29 C 1812.8 2161.37 1812.8 2164.43 1811.1 2166.5 L 1810.97 2166.66 C 1801.18 2178.62 1792.68 2191.31 1785.71 2204.68 C 1779.17 2218.26 1773.99 2232.32 1771.03 2246.75 C 1764.9 2275.52 1767.92 2305.5 1780.17 2330.14 C 1792.81 2354.6 1815.15 2372.78 1841.13 2380.31 C 1867.22 2387.9 1896.3 2385.56 1922.66 2375.78 C 1935.77 2370.59 1948.42 2364.07 1960.16 2355.99 C 1971.74 2347.67 1982.28 2337.89 1991.78 2327.19 C 2000.99 2316.26 2009.11 2304.44 2015.6 2291.73 C 2021.85 2278.92 2026.3 2265.34 2029.11 2251.48 C 2029.61 2248 2030.46 2244.51 2030.74 2241.01 L 2031.54 2230.46 L 2031.32 2219.92 C 2031.29 2216.39 2030.5 2212.98 2030.24 2209.47 C 2028.35 2195.61 2023.92 2182.13 2016.86 2170.01 C 2003.27 2145.21 1978.25 2127.21 1949.26 2119.34 L 1949.13 2119.31 C 1945.44 2118.31 1943.27 2114.51 1944.27 2110.82 C 1945.17 2107.49 1948.36 2105.4 1951.68 2105.76 Z " fill="rgb(55,26,69)"/><path d=" M 1536.79 1942.04 C 1525.9 1942.04 1515.22 1940.42 1505.06 1937.35 C 1505.04 1937.34 1505.01 1937.34 1504.98 1937.33 C 1504.97 1937.32 1504.96 1937.32 1504.95 1937.32 C 1504.09 1937.06 1503.24 1936.79 1502.39 1936.51 C 1502.39 1936.51 1502.4 1936.51 1502.4 1936.51 C 1467.67 1925.06 1439.39 1896.62 1429.82 1858.54 C 1415.83 1802.86 1446.84 1746.44 1499.87 1727.65 C 1499.85 1727.66 1499.84 1727.67 1499.82 1727.68 C 1501.83 1726.97 1503.85 1726.3 1505.91 1725.7 C 1507.25 1725.31 1508.6 1724.94 1509.97 1724.6 C 1519 1722.33 1528.05 1721.24 1536.95 1721.24 C 1545.83 1721.24 1554.56 1722.32 1562.99 1724.38 C 1601.46 1733.8 1633.58 1763.67 1643.9 1804.74 C 1651.3 1834.21 1646.11 1863.89 1631.71 1888.09 C 1617.22 1912.44 1593.42 1931.24 1563.76 1938.69 C 1554.74 1940.96 1545.69 1942.04 1536.79 1942.04 Z " fill="rgb(185,118,49)"/><path d=" M 1505.06 1937.35 C 1505.04 1937.34 1505.01 1937.34 1504.98 1937.33 C 1505.01 1937.34 1505.04 1937.34 1505.06 1937.35 Z  M 1504.95 1937.32 C 1504.09 1937.06 1503.25 1936.79 1502.4 1936.51 C 1502.4 1936.51 1502.39 1936.51 1502.39 1936.51 C 1503.24 1936.79 1504.09 1937.06 1504.95 1937.32 Z  M 1631.71 1888.09 C 1646.11 1863.89 1651.3 1834.21 1643.9 1804.74 C 1633.58 1763.67 1601.46 1733.8 1562.99 1724.38 C 1601.47 1733.78 1633.59 1763.65 1643.91 1804.75 C 1651.32 1834.21 1646.11 1863.89 1631.71 1888.09 Z  M 1499.82 1727.68 C 1499.84 1727.67 1499.85 1727.66 1499.87 1727.65 C 1501.85 1726.95 1503.87 1726.29 1505.91 1725.7 C 1503.85 1726.3 1501.83 1726.97 1499.82 1727.68 Z " fill="rgb(185,141,105)"/><path d=" M 1442.92 1900.27 C 1426.79 1880.92 1418.07 1854.83 1418.6 1828.57 C 1418.72 1815.38 1421.47 1802.17 1426.08 1789.63 C 1430.84 1777.13 1437.71 1765.36 1446.35 1754.95 C 1463.75 1734.31 1488.46 1719.21 1515.52 1714.1 C 1528.98 1711.62 1542.84 1710.85 1556.51 1712.84 C 1570.13 1714.88 1583.47 1718.99 1595.7 1725.3 C 1620.35 1737.7 1640.05 1758.91 1651.54 1783.68 C 1657.23 1796.14 1660.58 1809.56 1661.83 1823.02 C 1663.28 1836.49 1661.95 1850.14 1658.66 1863.15 C 1655.33 1876.13 1650.16 1888.64 1642.72 1899.63 C 1635.26 1910.58 1626.21 1920.31 1615.83 1928.15 C 1595.16 1944.06 1569.09 1951.7 1544.36 1950.5 C 1541.28 1950.35 1538.91 1947.73 1539.06 1944.65 C 1539.18 1942.01 1541.12 1939.89 1543.6 1939.43 L 1543.8 1939.39 C 1565.81 1935.28 1586.01 1925.64 1600.73 1910.48 C 1608.14 1903.06 1614.45 1894.7 1619.17 1885.58 C 1623.77 1876.4 1627.03 1866.7 1628.63 1856.77 C 1629.6 1851.84 1629.67 1846.79 1629.89 1841.82 L 1629.52 1834.34 C 1629.47 1831.85 1628.89 1829.4 1628.63 1826.93 C 1627.03 1817.15 1624.11 1807.66 1619.68 1798.91 C 1610.55 1781.64 1596.33 1766.96 1578.83 1758.43 C 1570.12 1754.18 1560.85 1751.14 1551.26 1749.67 C 1541.67 1748.25 1531.8 1748.49 1522.21 1750.06 C 1502.87 1752.94 1485.01 1762.97 1470.83 1776.88 C 1463.83 1783.99 1458.11 1792.36 1453.62 1801.39 C 1449.08 1810.4 1445.73 1820.22 1444.48 1830.49 C 1441.07 1851.03 1444.78 1872.85 1454.46 1892.7 L 1454.5 1892.78 C 1456.18 1896.23 1454.75 1900.38 1451.3 1902.07 C 1448.37 1903.49 1444.92 1902.67 1442.92 1900.27 Z " fill="rgb(55,26,69)"/><path d=" M 1996.01 1777.22 C 1992.76 1777.22 1989.43 1776.86 1986.05 1776.15 C 1991.8 1775.49 1997.26 1773.65 2002.25 1770.66 C 2004.69 1771.02 2007.11 1771.2 2009.51 1771.2 C 2012.83 1771.2 2016.11 1770.85 2019.31 1770.13 C 2012.41 1774.82 2004.48 1777.22 1996.01 1777.22 Z  M 1933.51 1614.39 C 1934.9 1613.12 1936.35 1611.97 1937.84 1610.92 C 1937.26 1611.72 1936.71 1612.53 1936.17 1613.37 C 1935.27 1613.68 1934.38 1614.02 1933.51 1614.39 Z " fill="rgb(255,194,104)"/><path d=" M 1996.09 1781.37 C 1987.97 1781.37 1979.41 1779.35 1970.79 1775.23 L 1955.25 1767.81 L 1957.54 1768.29 C 1965.34 1772.27 1973.34 1774.38 1981.06 1774.38 C 1987.32 1774.38 1993.4 1772.99 1999.03 1770.09 C 2000.11 1770.31 2001.18 1770.5 2002.25 1770.66 C 1997.26 1773.65 1991.8 1775.49 1986.05 1776.15 C 1989.43 1776.86 1992.76 1777.22 1996.01 1777.22 C 2004.48 1777.22 2012.41 1774.82 2019.31 1770.13 C 2023.06 1769.29 2026.71 1767.95 2030.19 1766.07 C 2020.98 1776.18 2009.09 1781.37 1996.09 1781.37 Z  M 1913.52 1634.73 L 1921.66 1622.11 C 1922.87 1620.24 1924.16 1618.47 1925.61 1616.72 C 1931.36 1609.77 1938.23 1604.87 1945.96 1602.11 C 1942.94 1604.67 1940.22 1607.63 1937.84 1610.92 C 1936.35 1611.97 1934.9 1613.12 1933.51 1614.39 C 1934.38 1614.02 1935.27 1613.68 1936.17 1613.37 C 1936.02 1613.61 1935.86 1613.85 1935.71 1614.09 C 1938.43 1613.52 1941.21 1613.24 1944.03 1613.24 C 1944.93 1613.24 1945.84 1613.27 1946.75 1613.33 C 1940.06 1613.8 1933.63 1615.91 1927.78 1619.82 C 1922.48 1623.37 1918.07 1628.13 1914.56 1633.8 L 1913.52 1634.73 Z " fill="rgb(195,124,47)"/><path d=" M 1981.05 1772.32 C 1978.13 1772.32 1975.14 1772 1972.1 1771.36 L 1957.54 1768.29 C 1942.38 1760.57 1927.94 1745.79 1917.73 1725.68 C 1901.15 1693.06 1900.68 1656.27 1914.56 1633.8 L 1924.75 1624.77 C 1926.14 1623.54 1927.5 1622.48 1928.92 1621.53 C 1935.12 1617.38 1942.16 1615.28 1949.67 1615.28 C 1953.33 1615.28 1957.1 1615.77 1960.94 1616.78 C 1962.08 1617.08 1963.21 1617.42 1964.34 1617.8 C 1980.66 1624.99 1996.42 1640.4 2007.35 1661.93 C 2028.09 1702.78 2023.62 1750.16 1997.31 1767.77 C 1996.56 1768.26 1995.85 1768.71 1995.11 1769.12 C 1995.36 1769.19 1995.6 1769.26 1995.85 1769.32 C 1991.23 1771.31 1986.25 1772.32 1981.05 1772.32 Z " fill="rgb(185,118,49)"/><path d=" M 1981.06 1774.38 C 1973.34 1774.38 1965.34 1772.27 1957.54 1768.29 L 1972.1 1771.36 C 1975.14 1772 1978.13 1772.32 1981.05 1772.32 C 1986.25 1772.32 1991.23 1771.31 1995.85 1769.32 C 1996.91 1769.61 1997.97 1769.86 1999.03 1770.09 C 1993.4 1772.99 1987.32 1774.38 1981.06 1774.38 Z  M 1914.56 1633.8 C 1918.07 1628.13 1922.48 1623.37 1927.78 1619.82 C 1933.63 1615.91 1940.06 1613.8 1946.75 1613.33 C 1952.55 1613.69 1958.49 1615.22 1964.34 1617.8 C 1963.21 1617.42 1962.08 1617.08 1960.94 1616.78 C 1957.1 1615.77 1953.33 1615.28 1949.67 1615.28 C 1942.16 1615.28 1935.12 1617.38 1928.92 1621.53 C 1927.5 1622.48 1926.14 1623.54 1924.75 1624.77 L 1914.56 1633.8 Z " fill="rgb(146,90,55)"/><path d=" M 2030.19 1766.07 C 2030.76 1765.45 2031.32 1764.8 2031.88 1764.14 C 2055.97 1735.07 2052.03 1678.36 2023.1 1637.72 C 2006.38 1614.24 1984.57 1600.33 1963.26 1599.54 C 1962.66 1599.52 1962.06 1599.51 1961.46 1599.51 C 1955.99 1599.51 1950.81 1600.39 1945.96 1602.11 C 1947.29 1600.99 1948.67 1599.95 1950.11 1598.98 C 1957.57 1594 1965.87 1591.64 1974.5 1591.64 C 1999.79 1591.64 2027.82 1611.94 2045.07 1645.92 C 2068.2 1691.44 2063.16 1744.23 2033.87 1763.86 C 2032.67 1764.67 2031.44 1765.4 2030.19 1766.07 Z " fill="rgb(255,202,125)"/><path d=" M 2009.51 1771.2 C 2007.11 1771.2 2004.69 1771.02 2002.25 1770.66 C 2002.88 1770.29 2003.49 1769.9 2004.09 1769.5 C 2031.2 1751.36 2036.01 1702.68 2014.83 1660.98 C 2002.22 1636.16 1982.46 1618.15 1961.98 1612.8 C 1957.78 1611.7 1953.66 1611.16 1949.65 1611.16 C 1944.97 1611.16 1940.46 1611.9 1936.17 1613.37 C 1936.71 1612.53 1937.26 1611.72 1937.84 1610.92 C 1944.72 1606.11 1952.65 1603.63 1961.43 1603.63 C 1961.99 1603.63 1962.55 1603.64 1963.11 1603.66 C 1983.14 1604.39 2003.78 1617.68 2019.75 1640.11 C 2047.67 1679.33 2051.69 1733.79 2028.71 1761.51 C 2025.87 1764.94 2022.72 1767.82 2019.31 1770.13 C 2016.11 1770.85 2012.83 1771.2 2009.51 1771.2 Z " fill="rgb(255,218,164)"/><path d=" M 2002.25 1770.66 C 2001.18 1770.5 2000.11 1770.31 1999.03 1770.09 C 2000.36 1769.4 2001.67 1768.63 2002.95 1767.78 C 2029.26 1750.17 2033.76 1702.77 2013 1661.92 C 1997.53 1631.45 1972.38 1613.22 1949.67 1613.22 C 1948.7 1613.22 1947.72 1613.26 1946.75 1613.33 C 1945.84 1613.27 1944.93 1613.24 1944.03 1613.24 C 1941.21 1613.24 1938.43 1613.52 1935.71 1614.09 C 1935.86 1613.85 1936.02 1613.61 1936.17 1613.37 C 1940.46 1611.9 1944.97 1611.16 1949.65 1611.16 C 1953.66 1611.16 1957.78 1611.7 1961.98 1612.8 C 1982.46 1618.15 2002.22 1636.16 2014.83 1660.98 C 2036.01 1702.68 2031.2 1751.36 2004.09 1769.5 C 2003.49 1769.9 2002.88 1770.29 2002.25 1770.66 Z  M 2019.31 1770.13 C 2022.72 1767.82 2025.87 1764.94 2028.71 1761.51 C 2051.69 1733.79 2047.67 1679.33 2019.75 1640.11 C 2003.78 1617.68 1983.14 1604.39 1963.11 1603.66 C 1962.55 1603.64 1961.99 1603.63 1961.43 1603.63 C 1952.65 1603.63 1944.72 1606.11 1937.84 1610.92 C 1940.22 1607.63 1942.94 1604.67 1945.96 1602.11 C 1950.81 1600.39 1955.99 1599.51 1961.46 1599.51 C 1962.06 1599.51 1962.66 1599.52 1963.26 1599.54 C 1984.57 1600.33 2006.38 1614.24 2023.1 1637.72 C 2052.03 1678.36 2055.97 1735.07 2031.88 1764.14 C 2031.32 1764.8 2030.76 1765.45 2030.19 1766.07 C 2026.71 1767.95 2023.06 1769.29 2019.31 1770.13 Z " fill="rgb(219,176,130)"/><path d=" M 1995.85 1769.32 C 1995.6 1769.26 1995.36 1769.19 1995.11 1769.12 C 1995.85 1768.71 1996.56 1768.26 1997.31 1767.77 C 2023.62 1750.16 2028.09 1702.78 2007.35 1661.93 C 1996.42 1640.4 1980.66 1624.99 1964.34 1617.8 C 1982.48 1623.88 1999.78 1640.45 2011.16 1662.84 C 2031.43 1702.75 2027.23 1749.06 2001.81 1766.08 C 1999.9 1767.36 1997.91 1768.44 1995.85 1769.32 Z " fill="rgb(213,173,131)"/><path d=" M 1999.03 1770.09 C 1997.97 1769.86 1996.91 1769.61 1995.85 1769.32 C 1997.91 1768.44 1999.9 1767.36 2001.81 1766.08 C 2027.23 1749.06 2031.43 1702.75 2011.16 1662.84 C 1999.78 1640.45 1982.48 1623.88 1964.34 1617.8 C 1958.49 1615.22 1952.55 1613.69 1946.75 1613.33 C 1947.72 1613.26 1948.7 1613.22 1949.67 1613.22 C 1972.38 1613.22 1997.53 1631.45 2013 1661.92 C 2033.76 1702.77 2029.26 1750.17 2002.95 1767.78 C 2001.67 1768.63 2000.36 1769.4 1999.03 1770.09 Z " fill="rgb(190,156,135)"/><path d=" M 1930.5 1755.32 C 1917.76 1744.73 1908.16 1730.51 1901.57 1714.99 C 1894.99 1699.42 1891.49 1682.02 1892.96 1663.86 C 1893.67 1654.79 1895.66 1645.5 1899.8 1636.43 C 1903.88 1627.42 1910.24 1618.54 1919.22 1611.82 C 1928.2 1605.15 1939.54 1601.18 1950.65 1600.91 C 1961.78 1600.57 1972.24 1603.31 1981.12 1607.62 C 1998.99 1616.31 2011.94 1629.9 2021.39 1644.78 C 2030.95 1659.71 2036.75 1676.29 2039.5 1693.33 C 2041.98 1710.43 2040.92 1728.32 2034.56 1744.98 C 2031.25 1753.2 2026.64 1761.22 2019.96 1767.58 C 2013.44 1773.98 2004.93 1778.62 1996.15 1779.89 C 1993.07 1780.33 1990.22 1778.2 1989.77 1775.12 C 1989.43 1772.76 1990.61 1770.53 1992.57 1769.42 L 1992.82 1769.28 C 2004.44 1762.74 2010.34 1751.06 2012.27 1738.38 C 2013.27 1732.05 2013.51 1725.52 2012.94 1719 C 2012.31 1712.47 2011.03 1705.97 2009.25 1699.63 C 2005.56 1686.94 1999.7 1674.84 1992.14 1664.55 C 1984.64 1654.29 1975.11 1645.75 1965.4 1641.31 C 1955.54 1636.84 1947.19 1637.11 1940.56 1641.53 C 1933.72 1645.8 1927.91 1656.06 1925.65 1668.15 C 1923.19 1680.21 1923.62 1693.75 1926.31 1707.11 C 1928.73 1720.65 1933.93 1733.75 1940.96 1746.32 L 1941.08 1746.53 C 1942.96 1749.9 1941.76 1754.16 1938.39 1756.04 C 1935.79 1757.49 1932.66 1757.1 1930.5 1755.32 Z " fill="rgb(55,26,69)"/><path d=" M 1497.18 1532.73 C 1494.12 1532.73 1491.08 1532.58 1488.05 1532.29 C 1488.23 1532.29 1488.41 1532.29 1488.59 1532.29 C 1506.05 1532.29 1524.15 1526.61 1538.94 1515.62 C 1547.27 1509.54 1554.55 1501.9 1560.59 1493.27 C 1566.63 1484.6 1570.91 1474.69 1573.7 1464.35 C 1576.38 1453.97 1577.48 1443.07 1576.41 1432.29 C 1575.48 1421.51 1572.86 1410.74 1568.34 1400.73 C 1566.97 1397.75 1565.46 1394.84 1563.81 1392 C 1567.46 1390.3 1571.05 1388.47 1574.56 1386.51 C 1576.96 1390.05 1579.15 1393.81 1581.09 1397.75 C 1603.93 1444.16 1584.84 1500.25 1538.46 1523.09 C 1525.16 1529.63 1511.06 1532.73 1497.18 1532.73 Z  M 1479.57 1531.06 C 1469.17 1529.07 1459.15 1525.33 1449.98 1520 C 1450.6 1520.21 1451.23 1520.4 1451.85 1520.59 C 1459.72 1522.99 1468 1524.26 1476.45 1524.26 C 1476.83 1524.26 1477.22 1524.26 1477.6 1524.26 C 1477.37 1524.8 1477.22 1525.39 1477.17 1526.01 C 1477.01 1528.07 1477.98 1529.96 1479.57 1531.06 Z " fill="rgb(255,202,125)"/><path d=" M 1476.42 1524.25 C 1467.99 1524.25 1459.72 1522.99 1451.85 1520.59 C 1451.22 1520.4 1450.6 1520.2 1449.98 1520 C 1449.98 1520 1449.98 1520 1449.98 1520 C 1435.2 1515.13 1421.94 1506.25 1411.79 1494.32 C 1414.71 1492.53 1415.93 1488.82 1414.52 1485.59 L 1414.46 1485.44 C 1407.76 1470.12 1405.49 1453.83 1408.45 1438.71 C 1409.53 1431.15 1412.18 1423.98 1415.67 1417.47 C 1417.11 1414.72 1418.71 1412.08 1420.47 1409.55 C 1433.74 1411.09 1447.67 1411.99 1461.83 1411.99 C 1477.55 1411.99 1493.56 1410.88 1509.3 1408.29 C 1515.8 1407.22 1522.26 1405.91 1528.63 1404.32 C 1531.61 1407.93 1534.24 1411.84 1536.48 1415.96 C 1542.79 1428.52 1545.8 1443.42 1543.48 1457.94 C 1539.94 1487.32 1515.26 1514.2 1481.75 1520.94 L 1481.65 1520.95 C 1479.84 1521.32 1478.33 1522.56 1477.61 1524.25 C 1477.21 1524.25 1476.82 1524.25 1476.42 1524.25 Z " fill="rgb(185,118,49)"/><path d=" M 1451.85 1520.59 C 1451.23 1520.4 1450.6 1520.21 1449.98 1520 C 1449.98 1520 1449.98 1520 1449.98 1520 C 1450.6 1520.2 1451.22 1520.4 1451.85 1520.59 Z " fill="rgb(185,141,105)"/><path d=" M 1402.92 1493.01 C 1389.77 1478.19 1382.48 1457.64 1382.56 1436.78 C 1382.59 1415.83 1390.23 1394.53 1404.02 1377.83 C 1417.86 1361.26 1437.59 1349.01 1459.3 1344.84 C 1470.1 1342.82 1481.22 1342.17 1492.2 1343.77 C 1503.13 1345.4 1513.86 1348.68 1523.67 1353.78 C 1543.45 1363.76 1559.23 1380.82 1568.34 1400.73 C 1572.86 1410.74 1575.48 1421.51 1576.41 1432.29 C 1577.48 1443.07 1576.38 1453.97 1573.7 1464.35 C 1570.91 1474.69 1566.63 1484.6 1560.59 1493.27 C 1554.55 1501.9 1547.27 1509.54 1538.94 1515.62 C 1522.36 1527.94 1501.64 1533.58 1482.32 1532.04 C 1479.23 1531.79 1476.93 1529.09 1477.17 1526.01 C 1477.38 1523.46 1479.26 1521.44 1481.65 1520.95 L 1481.75 1520.94 C 1515.26 1514.2 1539.94 1487.32 1543.48 1457.94 C 1545.8 1443.42 1542.79 1428.52 1536.48 1415.96 C 1529.73 1403.55 1519.43 1393.02 1506.81 1386.9 C 1500.51 1383.88 1493.86 1381.66 1486.95 1380.6 C 1480.05 1379.57 1472.92 1379.7 1465.99 1380.8 C 1452.03 1382.77 1439.03 1389.84 1428.58 1399.83 C 1423.47 1404.97 1419.1 1410.92 1415.67 1417.47 C 1412.18 1423.98 1409.53 1431.15 1408.45 1438.71 C 1405.49 1453.83 1407.76 1470.12 1414.46 1485.44 L 1414.52 1485.59 C 1416.06 1489.12 1414.46 1493.23 1410.93 1494.77 C 1408.09 1496.01 1404.87 1495.2 1402.92 1493.01 Z " fill="rgb(55,26,69)"/><path d=" M 1033.18 1452.19 C 1029.4 1430.02 1057.51 1392.18 1101.13 1375.67 C 1144.76 1359.16 1183.16 1371.25 1191.16 1392.4 L 1033.18 1452.19 Z " fill="rgb(255,167,38)"/><path d=" M 1026.87 1453.27 C 1024.94 1447.9 1024.72 1442.25 1025.32 1437.03 C 1025.84 1431.73 1027.34 1426.8 1029.07 1422.05 C 1032.7 1412.61 1038.05 1404.22 1044.22 1396.65 C 1056.72 1381.64 1072.83 1369.9 1090.83 1362.24 C 1108.74 1354.64 1128.87 1350.91 1149.02 1353.75 C 1159.04 1355.2 1169.09 1358.3 1178.17 1363.95 C 1182.63 1366.89 1186.92 1370.35 1190.45 1374.69 C 1192.2 1376.88 1193.75 1379.27 1195.06 1381.79 C 1196.25 1384.39 1197.25 1387.09 1197.74 1389.91 C 1198.41 1393.78 1195.82 1397.46 1191.95 1398.13 C 1189.39 1398.58 1186.92 1397.6 1185.34 1395.77 L 1184.59 1394.89 C 1180.39 1390 1174.56 1386.97 1167.92 1385.14 C 1161.3 1383.3 1154.11 1382.57 1146.84 1382.71 C 1132.27 1383.05 1117.47 1386.6 1103.38 1392.3 C 1089.35 1398.05 1076.05 1406.09 1064.38 1416.04 C 1058.57 1421 1053.19 1426.48 1048.67 1432.39 C 1044.13 1438.28 1040.61 1444.7 1039.5 1451.11 L 1039.31 1452.19 C 1038.7 1455.7 1035.36 1458.05 1031.84 1457.44 C 1029.48 1457.03 1027.64 1455.38 1026.87 1453.27 Z " fill="rgb(55,26,69)"/><path d=" M 1068.7 1479.51 C 1048.98 1479.51 1033.95 1473.56 1028.58 1461.79 C 1027.21 1458.79 1026.54 1455.57 1026.51 1452.19 C 1026.62 1452.55 1026.74 1452.91 1026.87 1453.27 C 1027.64 1455.38 1029.48 1457.03 1031.84 1457.44 C 1032.22 1457.51 1032.59 1457.54 1032.96 1457.54 C 1036.04 1457.54 1038.76 1455.33 1039.31 1452.19 L 1039.5 1451.11 C 1039.58 1450.64 1039.67 1450.17 1039.78 1449.69 L 1184.59 1394.89 C 1184.59 1394.89 1184.59 1394.89 1184.59 1394.89 L 1185.34 1395.77 C 1186.66 1397.3 1188.62 1398.24 1190.72 1398.24 C 1191.13 1398.24 1191.54 1398.21 1191.95 1398.13 C 1194.1 1397.76 1195.85 1396.46 1196.87 1394.71 C 1197.08 1394.81 1197.29 1394.9 1197.49 1394.99 C 1197.9 1417.08 1170.72 1446.2 1130.61 1464.5 C 1108.62 1474.54 1086.7 1479.51 1068.7 1479.51 Z " fill="rgb(185,118,49)"/><path d=" M 1197.49 1394.99 C 1197.29 1394.9 1197.08 1394.81 1196.87 1394.71 C 1197.09 1394.34 1197.28 1393.94 1197.42 1393.53 C 1197.46 1394.02 1197.48 1394.5 1197.49 1394.99 Z " fill="rgb(185,141,105)"/><path d=" M 1039.78 1449.69 C 1041.13 1443.76 1044.46 1437.84 1048.67 1432.39 C 1053.19 1426.48 1058.57 1421 1064.38 1416.04 C 1076.05 1406.09 1089.35 1398.05 1103.38 1392.3 C 1117.47 1386.6 1132.27 1383.05 1146.84 1382.71 C 1147.45 1382.7 1148.05 1382.7 1148.65 1382.7 C 1155.3 1382.7 1161.85 1383.45 1167.92 1385.14 C 1174.56 1386.96 1180.39 1389.99 1184.59 1394.89 L 1039.78 1449.69 Z " fill="rgb(185,118,49)"/><path d=" M 1032.96 1457.54 C 1032.59 1457.54 1032.22 1457.51 1031.84 1457.44 C 1029.48 1457.03 1027.64 1455.38 1026.87 1453.27 C 1026.74 1452.91 1026.62 1452.55 1026.51 1452.19 C 1026.31 1430.13 1053.44 1401.17 1093.39 1382.94 C 1115.39 1372.9 1137.3 1367.93 1155.31 1367.93 C 1175.02 1367.93 1190.06 1373.88 1195.43 1385.65 C 1196.56 1388.13 1197.22 1390.77 1197.42 1393.53 C 1197.28 1393.94 1197.09 1394.34 1196.87 1394.71 C 1195.85 1396.46 1194.1 1397.76 1191.95 1398.13 C 1191.54 1398.21 1191.13 1398.24 1190.72 1398.24 C 1188.62 1398.24 1186.66 1397.3 1185.34 1395.77 L 1184.59 1394.89 C 1184.59 1394.89 1184.59 1394.89 1184.59 1394.89 C 1180.39 1389.99 1174.56 1386.96 1167.92 1385.14 C 1161.85 1383.45 1155.3 1382.7 1148.65 1382.7 C 1148.05 1382.7 1147.45 1382.7 1146.84 1382.71 C 1132.27 1383.05 1117.47 1386.6 1103.38 1392.3 C 1089.35 1398.05 1076.05 1406.09 1064.38 1416.04 C 1058.57 1421 1053.19 1426.48 1048.67 1432.39 C 1044.46 1437.84 1041.13 1443.76 1039.78 1449.69 C 1039.67 1450.17 1039.58 1450.64 1039.5 1451.11 L 1039.31 1452.19 C 1038.76 1455.33 1036.04 1457.54 1032.96 1457.54 Z " fill="rgb(55,26,69)"/><path d=" M 853.53 1621.2 C 854.96 1619.24 856.39 1617.29 857.85 1615.35 C 856.4 1617.3 854.96 1619.25 853.53 1621.2 Z  M 857.85 1615.35 C 859.79 1612.75 861.76 1610.16 863.78 1607.58 C 861.78 1610.16 859.8 1612.75 857.85 1615.35 Z " fill="rgb(190,133,52)"/><path d=" M 1388.59 1404.48 C 1367.45 1400.18 1349.48 1394.59 1337.02 1389.21 C 1359.75 1379.16 1378.72 1365.52 1392.13 1350.17 C 1401.22 1353.6 1412.02 1356.91 1424.01 1359.7 C 1416.52 1364.82 1409.76 1370.95 1404.02 1377.83 C 1397.41 1385.84 1392.21 1394.9 1388.59 1404.48 Z  M 1574.56 1386.51 C 1567.3 1375.78 1558.07 1366.96 1547.61 1360.28 C 1571.97 1353.66 1594.96 1341.97 1613.78 1323.16 C 1620.24 1316.7 1626.29 1309.95 1631.95 1302.94 C 1638.65 1304.42 1645.33 1305.99 1651.98 1307.64 C 1646.19 1316.77 1639.85 1325.7 1632.92 1334.29 C 1623.48 1346.05 1612.92 1357.28 1601.16 1367.7 C 1592.94 1375.01 1584.01 1381.24 1574.56 1386.51 Z " fill="rgb(185,118,49)"/><path d=" M 1093.17 1246.44 C 1091.12 1246.13 1089.07 1245.8 1087.03 1245.46 C 1063.1 1241.54 1039.23 1236.02 1015.62 1228.76 C 988.18 1220.43 961.13 1209.78 934.54 1196.77 C 925.76 1192.41 917.12 1187.95 908.7 1183.23 C 891.42 1173.61 874.84 1163.14 858.94 1151.91 C 842.84 1140.55 827.49 1128.41 812.93 1115.57 C 809.25 1107.52 806.24 1099.72 803.77 1092.24 C 812.26 1099.01 820.95 1105.54 829.83 1111.8 C 846.41 1123.49 863.7 1134.36 881.18 1144.09 C 889.21 1148.58 897.92 1153.15 907.9 1158.1 C 934.9 1171.32 963.06 1182.43 991.54 1191.12 C 1015.43 1198.46 1040.24 1204.26 1065.28 1208.37 C 1071.39 1209.38 1077.54 1210.29 1083.71 1211.09 C 1087.58 1223.5 1091.75 1234.81 1096.09 1245.1 C 1095.12 1245.55 1094.14 1245.99 1093.17 1246.44 Z " fill="rgb(185,175,190)"/><path d=" M 812.93 1115.57 C 802.83 1106.67 793.11 1097.44 783.79 1087.9 C 782.23 1082.42 780.94 1077.14 779.88 1072.08 C 787.65 1079.02 795.62 1085.74 803.77 1092.24 C 806.24 1099.72 809.25 1107.52 812.93 1115.57 Z " fill="rgb(55,26,69)"/><path d=" M 1128.91 1231.05 C 1126.74 1225.93 1124.61 1220.51 1122.55 1214.76 C 1133.3 1215.4 1144.08 1215.73 1154.87 1215.76 C 1160.15 1215.76 1165.47 1215.68 1170.78 1215.54 C 1156.75 1220.3 1142.77 1225.47 1128.91 1231.05 Z " fill="rgb(185,175,190)"/><path d=" M 1096.09 1245.1 C 1091.75 1234.81 1087.58 1223.5 1083.71 1211.09 C 1096.56 1212.76 1109.53 1213.98 1122.55 1214.76 C 1124.61 1220.51 1126.74 1225.93 1128.91 1231.05 C 1117.9 1235.48 1106.98 1240.15 1096.09 1245.1 Z " fill="rgb(55,26,69)"/><path d=" M 1337.02 1389.21 C 1332.21 1387.13 1328.22 1385.09 1325.18 1383.16 C 1294 1363.38 1259.65 1333.98 1254.35 1257.85 C 1254.08 1254.28 1253.9 1250.63 1253.77 1246.85 C 1237.69 1249.21 1221.43 1250.81 1205.12 1251.75 C 1195.97 1252.25 1186.82 1252.55 1177.64 1252.62 C 1219.95 1237.93 1262.96 1227.14 1306.23 1220.11 C 1307.15 1230.84 1308.6 1240.59 1310.5 1249.49 C 1310.5 1249.52 1310.51 1249.55 1310.52 1249.58 C 1310.52 1249.62 1310.53 1249.66 1310.54 1249.7 C 1310.56 1249.77 1310.57 1249.84 1310.59 1249.91 L 1310.59 1249.91 C 1311.97 1256.32 1313.58 1262.28 1315.39 1267.84 C 1315.4 1267.85 1315.4 1267.87 1315.4 1267.88 C 1315.41 1267.9 1315.42 1267.93 1315.43 1267.95 C 1327.67 1305.43 1348.9 1324.47 1368.69 1338.61 C 1371.53 1340.64 1375.32 1342.8 1379.91 1345 C 1383.51 1346.72 1387.61 1348.46 1392.13 1350.17 C 1378.72 1365.52 1359.75 1379.16 1337.02 1389.21 Z  M 1651.98 1307.64 C 1645.33 1305.99 1638.65 1304.42 1631.95 1302.94 C 1645.92 1285.68 1657.56 1266.91 1667.24 1247.42 C 1671.66 1248.84 1676.1 1250.31 1680.5 1251.81 C 1674.67 1266.27 1667.83 1280.63 1659.83 1294.6 C 1657.33 1298.98 1654.72 1303.34 1651.98 1307.64 Z " fill="rgb(185,141,105)"/><path d=" M 1173.67 1252.64 C 1146.89 1252.55 1120 1250.55 1093.17 1246.44 C 1094.14 1245.99 1095.12 1245.55 1096.09 1245.1 C 1106.98 1240.15 1117.9 1235.48 1128.91 1231.05 C 1142.77 1225.47 1156.75 1220.3 1170.78 1215.54 C 1176.29 1215.39 1181.8 1215.16 1187.28 1214.87 C 1227.58 1212.6 1267.04 1206.06 1305.11 1195.61 C 1305.19 1204.3 1305.57 1212.46 1306.23 1220.11 C 1262.96 1227.14 1219.95 1237.93 1177.64 1252.62 C 1176.32 1252.63 1175 1252.64 1173.67 1252.64 Z  M 1680.5 1251.81 C 1676.1 1250.31 1671.66 1248.84 1667.24 1247.42 C 1671.96 1237.9 1676.22 1228.21 1680.05 1218.44 C 1681.49 1218.92 1682.93 1219.4 1684.37 1219.89 L 1684.42 1219.89 C 1686.65 1220.65 1688.83 1221.41 1691.06 1222.21 C 1687.97 1232.06 1684.47 1241.96 1680.5 1251.81 Z " fill="rgb(55,26,69)"/><path d=" M 1563.81 1392 C 1557.21 1380.67 1548.37 1370.58 1537.87 1362.64 C 1541.14 1361.94 1544.38 1361.15 1547.61 1360.28 C 1558.07 1366.96 1567.3 1375.78 1574.56 1386.51 C 1571.05 1388.47 1567.46 1390.3 1563.81 1392 Z " fill="rgb(185,141,105)"/><path d=" M 1461.83 1411.99 C 1447.67 1411.99 1433.74 1411.09 1420.47 1409.55 C 1422.9 1406.07 1425.62 1402.82 1428.58 1399.83 C 1439.03 1389.84 1452.03 1382.77 1465.99 1380.8 C 1469.71 1380.2 1473.49 1379.9 1477.26 1379.9 C 1480.51 1379.9 1483.76 1380.13 1486.95 1380.6 C 1493.86 1381.66 1500.51 1383.88 1506.81 1386.9 C 1515.24 1390.99 1522.64 1397.04 1528.63 1404.32 C 1522.26 1405.91 1515.8 1407.22 1509.3 1408.29 C 1493.56 1410.88 1477.55 1411.99 1461.83 1411.99 Z " fill="rgb(140,86,56)"/><path d=" M 1420.47 1409.55 C 1409.3 1408.26 1398.59 1406.51 1388.59 1404.48 C 1392.21 1394.9 1397.41 1385.84 1404.02 1377.83 C 1409.76 1370.95 1416.52 1364.82 1424.01 1359.7 C 1443.69 1364.28 1466.54 1367.46 1490.14 1367.46 C 1499.91 1367.46 1509.81 1366.91 1519.66 1365.7 C 1525.76 1364.95 1531.85 1363.94 1537.87 1362.64 C 1548.37 1370.58 1557.21 1380.67 1563.81 1392 C 1552.59 1397.23 1540.77 1401.28 1528.63 1404.32 C 1522.64 1397.04 1515.24 1390.99 1506.81 1386.9 C 1500.51 1383.88 1493.86 1381.66 1486.95 1380.6 C 1483.76 1380.13 1480.51 1379.9 1477.26 1379.9 C 1473.49 1379.9 1469.71 1380.2 1465.99 1380.8 C 1452.03 1382.77 1439.03 1389.84 1428.58 1399.83 C 1425.62 1402.82 1422.9 1406.07 1420.47 1409.55 Z " fill="rgb(55,26,69)"/><path d=" M 662.67 886.66 C 702.02 969.19 762.14 1042.23 840.1 1097.24 C 856 1108.45 872.58 1118.91 889.89 1128.54 C 898.29 1133.25 906.94 1137.74 915.73 1142.1 C 942.28 1155.09 969.36 1165.73 996.78 1174.08 C 1020.39 1181.34 1044.27 1186.87 1068.18 1190.79 C 1097.05 1195.55 1126.04 1197.87 1154.85 1197.94 C 1165.36 1197.93 1175.84 1197.64 1186.28 1197.08 C 1377.42 1186.33 1557.29 1075.47 1647.4 891.28 C 1780.2 619.97 1667.88 292.406 1396.62 159.607 C 1344.36 134.069 1289.98 117.515 1235.33 109.579 C 1228.95 108.589 1222.52 107.783 1216.08 107.113 C 1198.87 105.202 1181.67 104.119 1164.52 103.863 C 1124.85 103.284 1085.43 107.075 1047.02 114.953 C 1008.61 122.784 971.1 134.743 935.3 150.545 C 923.91 155.562 912.69 160.954 901.64 166.768 C 885.07 175.489 868.93 185.009 853.25 195.47 C 775.05 247.321 709.17 320.037 664.95 410.428 C 588.55 566.49 593.29 741.14 662.67 886.66 Z " fill="rgb(255,255,255)"/><path d=" M 1156.66 105.587 C 1120.08 105.587 1083.37 109.32 1047.37 116.697 C 1009.17 124.488 971.71 136.424 936.02 152.176 C 924.55 157.227 913.26 162.67 902.47 168.345 C 885.64 177.208 869.41 186.832 854.24 196.952 C 774 250.155 709.1 324.244 666.55 411.212 C 592.96 561.55 592.13 734.56 664.28 885.89 C 704.27 969.78 765.43 1042.36 841.12 1095.78 C 857.14 1107.07 873.83 1117.57 890.75 1126.98 C 898.5 1131.32 906.93 1135.74 916.52 1140.5 C 942.59 1153.26 969.77 1163.99 997.3 1172.38 C 1020.34 1179.46 1044.28 1185.06 1068.47 1189.03 C 1096.77 1193.69 1125.83 1196.09 1154.86 1196.16 C 1165.27 1196.15 1175.81 1195.86 1186.18 1195.3 C 1383.12 1184.22 1559.23 1067.43 1645.8 890.49 C 1777.95 620.53 1665.81 293.378 1395.84 161.21 C 1344.61 136.173 1290.52 119.396 1235.08 111.341 C 1229.03 110.407 1222.58 109.581 1215.9 108.886 C 1198.83 106.991 1181.53 105.9 1164.49 105.645 C 1161.88 105.606 1159.27 105.587 1156.66 105.587 Z  M 1154.86 1199.72 C 1125.63 1199.65 1096.38 1197.24 1067.89 1192.55 C 1043.55 1188.56 1019.45 1182.92 996.26 1175.79 C 968.55 1167.34 941.19 1156.54 914.95 1143.7 C 905.28 1138.9 896.81 1134.46 889.01 1130.09 C 871.99 1120.62 855.19 1110.06 839.07 1098.7 C 762.87 1044.92 701.32 971.87 661.07 887.43 C 588.44 735.11 589.27 560.96 663.35 409.645 C 706.17 322.108 771.5 247.535 852.26 193.985 C 867.53 183.8 883.86 174.112 900.81 165.191 C 911.68 159.476 923.04 154 934.58 148.915 C 970.5 133.062 1008.21 121.046 1046.66 113.206 C 1085.47 105.25 1125.14 101.552 1164.54 102.081 C 1181.7 102.338 1199.11 103.436 1216.28 105.343 C 1223.01 106.041 1229.52 106.876 1235.61 107.818 C 1291.4 115.921 1345.84 132.808 1397.4 158.006 C 1669.14 291.039 1782.01 620.33 1649 892.06 C 1561.87 1070.15 1384.61 1187.71 1186.38 1198.86 C 1175.94 1199.42 1165.33 1199.71 1154.86 1199.72 Z " fill="rgb(55,26,69)"/><path d=" M 1216.69 1176.58 C 1248.07 1168.78 1278.53 1158.34 1307.66 1145.36 C 1307.28 1148.74 1306.94 1152.24 1306.64 1155.86 C 1306.58 1156.63 1306.52 1157.4 1306.46 1158.17 C 1277.36 1166.82 1247.33 1173.03 1216.69 1176.58 Z  M 1076.96 1165.71 C 1059.31 1165.71 1041.56 1164.89 1023.77 1163.21 C 1016.43 1161.31 1009.16 1159.25 1001.97 1157.04 C 975.26 1148.9 948.88 1138.48 923.65 1126.13 C 914.29 1121.49 906.09 1117.19 898.55 1112.97 C 895.88 1111.48 893.22 1109.97 890.57 1108.44 C 951.41 1130.34 1014.71 1141.51 1077.51 1141.51 C 1145.05 1141.51 1212.03 1128.57 1274.69 1102.13 C 1293.7 1094.11 1311.89 1085.04 1329.21 1074.96 C 1323.06 1084.8 1317.79 1096.7 1313.78 1111.76 C 1242.01 1147.12 1160.64 1165.72 1076.96 1165.71 Z  M 1499.06 898.26 C 1504.76 887.43 1510.04 876.33 1514.9 864.96 C 1519.86 872.21 1525.25 879.02 1531.04 885.35 C 1520.33 888.38 1509.53 892.67 1499.06 898.26 Z " fill="rgb(185,175,190)"/><path d=" M 1156.66 115.902 C 1120.78 115.902 1084.75 119.561 1049.45 126.8 C 1011.95 134.446 975.2 146.158 940.18 161.61 C 928.93 166.571 917.85 171.908 907.27 177.474 C 890.75 186.167 874.84 195.609 859.96 205.531 C 781.22 257.738 717.56 330.421 675.82 415.743 C 603.61 563.24 602.8 732.98 673.59 881.46 C 712.82 963.75 772.81 1034.95 847.07 1087.36 C 862.78 1098.44 879.17 1108.74 895.76 1117.97 C 903.38 1122.23 911.66 1126.58 921.11 1131.26 C 946.63 1143.76 973.3 1154.28 1000.3 1162.51 C 1022.93 1169.47 1046.41 1174.96 1070.14 1178.86 C 1097.9 1183.43 1126.41 1185.78 1154.88 1185.85 C 1165.08 1185.84 1175.44 1185.55 1185.63 1185 C 1378.83 1174.13 1551.61 1059.55 1636.53 885.96 C 1766.18 621.1 1656.17 300.14 1391.3 170.472 C 1341.04 145.909 1287.98 129.447 1233.6 121.549 C 1227.62 120.624 1221.35 119.82 1214.83 119.144 C 1198.01 117.276 1181.05 116.207 1164.33 115.958 C 1161.77 115.919 1159.22 115.902 1156.66 115.902 Z  M 1154.86 1210.04 C 1125.06 1209.96 1095.25 1207.51 1066.22 1202.73 C 1041.42 1198.66 1016.86 1192.91 993.22 1185.65 C 965.02 1177.05 937.15 1166.05 910.41 1152.96 C 900.55 1148.07 891.92 1143.54 883.98 1139.09 C 866.66 1129.46 849.54 1118.7 833.13 1107.12 C 755.48 1052.33 692.77 977.9 651.75 891.87 C 577.77 736.69 578.61 559.27 654.09 405.11 C 697.72 315.931 764.27 239.952 846.56 185.389 C 862.11 175.023 878.75 165.152 896 156.066 C 907.09 150.238 918.66 144.657 930.42 139.476 C 967.01 123.328 1005.43 111.09 1044.6 103.102 C 1084.12 94.999 1124.54 91.181 1164.69 91.768 C 1182.18 92.03 1199.92 93.148 1217.41 95.091 C 1224.25 95.802 1230.93 96.656 1237.18 97.625 C 1293.94 105.868 1349.41 123.072 1401.94 148.741 C 1678.78 284.276 1793.77 619.76 1658.26 896.59 C 1569.5 1078.03 1388.91 1197.79 1186.96 1209.15 C 1176.32 1209.73 1165.52 1210.03 1154.86 1210.04 Z " fill="rgb(55,26,69)"/><path d=" M 1156.66 121.625 C 1121.17 121.625 1085.52 125.248 1050.6 132.409 C 1013.5 139.974 977.14 151.559 942.5 166.846 C 931.35 171.756 920.4 177.035 909.93 182.54 C 893.59 191.141 877.85 200.48 863.14 210.294 C 785.23 261.947 722.25 333.851 680.96 418.258 C 609.52 564.18 608.72 732.11 678.76 878.99 C 717.57 960.4 776.92 1030.84 850.37 1082.68 C 865.91 1093.64 882.13 1103.83 898.55 1112.97 C 906.09 1117.19 914.29 1121.49 923.65 1126.13 C 948.88 1138.48 975.26 1148.9 1001.97 1157.04 C 1024.36 1163.92 1047.59 1169.36 1071.07 1173.21 C 1098.53 1177.73 1126.73 1180.05 1154.9 1180.12 C 1164.97 1180.11 1175.23 1179.83 1185.32 1179.29 C 1376.44 1168.53 1547.38 1055.17 1631.39 883.44 C 1759.65 621.42 1650.82 303.892 1388.79 175.611 C 1339.06 151.312 1286.57 135.025 1232.77 127.212 C 1226.84 126.295 1220.67 125.504 1214.24 124.837 C 1197.57 122.985 1180.79 121.927 1164.24 121.681 C 1161.72 121.644 1159.19 121.625 1156.66 121.625 Z  M 1154.87 1215.76 C 1124.74 1215.69 1094.62 1213.2 1065.28 1208.37 C 1040.24 1204.26 1015.43 1198.46 991.54 1191.12 C 963.06 1182.43 934.9 1171.32 907.9 1158.1 C 897.92 1153.15 889.21 1148.58 881.18 1144.09 C 863.7 1134.36 846.41 1123.49 829.83 1111.8 C 751.39 1056.44 688.02 981.24 646.59 894.33 C 571.84 737.57 572.7 558.34 648.95 402.594 C 693.02 312.501 760.26 235.743 843.4 180.619 C 859.09 170.153 875.9 160.179 893.34 151.002 C 904.54 145.111 916.24 139.473 928.12 134.239 C 965.07 117.926 1003.88 105.562 1043.46 97.491 C 1083.38 89.305 1124.15 85.448 1164.77 86.046 C 1182.45 86.31 1200.37 87.44 1218.05 89.403 C 1224.94 90.118 1231.71 90.984 1238.06 91.969 C 1295.35 100.289 1351.39 117.667 1404.44 143.597 C 1684.14 280.523 1800.3 619.44 1663.4 899.11 C 1573.73 1082.4 1391.29 1203.39 1187.28 1214.87 C 1176.52 1215.45 1165.63 1215.75 1154.87 1215.76 Z " fill="rgb(55,26,69)"/><path d=" M 738.71 1004.39 C 1047.18 1244.47 1490.68 1107.48 1533.53 722.7 C 1562.68 460.93 1328.89 230.273 1075.67 218.372 C 891.38 209.71 707.67 281.875 616.03 564.23 C 616.03 564.23 594.77 695.49 626.02 785.21 C 657.27 874.94 702.81 956.93 702.81 956.93 L 738.71 1004.39 Z " fill="rgb(55,26,69)"/><path d=" M 1077.47 1105.89 C 964.1 1105.88 848.74 1066.8 751.5 991.75 L 717.8 947.22 C 716.51 944.84 713.13 938.6 708.35 929.35 C 804.03 993.34 910.11 1023.56 1012.06 1023.55 C 1236.18 1023.54 1440.16 877.43 1468.53 622.71 C 1474.74 566.96 1469 512.63 1453.71 461.52 C 1479.77 502.96 1498.2 547.15 1508.5 592.59 C 1486.93 630.21 1474.24 677.15 1474.73 727.36 C 1475.06 761.75 1481.35 794.36 1492.81 823.17 C 1453.78 934.97 1372.74 1022.09 1260.84 1069.3 C 1202.61 1093.87 1140.35 1105.89 1077.47 1105.89 Z " fill="rgb(42,26,59)"/><path d=" M 999.79 1160.44 C 1144.48 1180.24 1289 1143.7 1396.5 1060.11 C 1499.16 980.29 1561.54 865.29 1576.89 727.55 C 1590.93 601.52 1549.49 474.48 1460.19 369.833 C 1362.42 255.26 1218.59 182.843 1075.44 176.117 C 995.43 172.355 922.84 183.038 859.73 207.875 C 781.85 259.825 718.84 331.951 677.46 416.546 C 605.49 563.54 604.69 732.7 675.24 880.67 C 714.34 962.68 774.12 1033.64 848.13 1085.86 C 863.78 1096.91 880.11 1107.17 896.65 1116.37 C 904.25 1120.63 912.5 1124.95 921.92 1129.63 C 947.02 1141.91 973.23 1152.29 999.79 1160.44 Z  M 1076.91 1193.55 C 1049.71 1193.55 1022.28 1191.68 994.86 1187.87 L 992.72 1187.4 C 964.4 1178.77 936.43 1167.73 909.61 1154.6 C 899.71 1149.69 891.06 1145.15 883.08 1140.69 C 865.71 1131.02 848.54 1120.23 832.08 1108.62 C 754.18 1053.64 691.26 978.96 650.1 892.65 C 575.88 736.97 576.73 558.97 652.45 404.307 C 696.22 314.837 762.99 238.61 845.56 183.868 L 846.76 183.067 L 848.11 182.533 C 915.23 155.84 992.15 144.323 1076.75 148.304 C 1227.44 155.387 1378.7 231.444 1481.37 351.759 C 1575.72 462.32 1619.47 596.88 1604.57 730.64 C 1588.36 876.02 1522.32 997.55 1413.59 1082.09 C 1320.37 1154.58 1200.94 1193.55 1076.91 1193.55 Z " fill="rgb(55,26,69)"/><path d=" M 751.5 991.75 C 902.67 1108.43 1097.61 1138.17 1260.84 1069.3 C 1404.98 1008.48 1497.92 881.43 1515.82 720.73 C 1528.14 610.11 1491.71 498.55 1413.25 406.605 C 1327.22 305.802 1200.71 242.088 1074.84 236.173 C 857.19 225.916 708.72 337.701 633.42 568.36 C 631.39 581.98 615.07 699.61 642.84 779.35 C 671.31 861.07 712.42 937.37 717.8 947.22 L 751.5 991.75 Z  M 1077.51 1141.51 C 955.58 1141.51 831.75 1099.38 727.77 1018.45 L 725.91 1017.01 L 687.23 965.58 C 685.34 962.18 640.59 881.21 609.19 791.07 C 576.83 698.15 597.54 566.92 598.44 561.38 L 599.08 558.73 C 679.82 309.976 840.41 189.459 1076.51 200.572 C 1212.04 206.945 1348.06 275.316 1440.36 383.47 C 1525.28 482.98 1564.66 604.16 1551.24 724.68 C 1531.87 898.58 1431.07 1036.16 1274.69 1102.13 C 1212.03 1128.57 1145.05 1141.51 1077.51 1141.51 Z " fill="rgb(55,26,69)"/><path d=" M 1492.56 727.17 C 1492.56 727.95 1492.56 728.78 1492.61 729.56 C 1494.56 836.28 1558.73 918.87 1636.69 914.49 C 1715.23 910.1 1778.03 819.02 1777.01 711.13 C 1776.18 627.9 1737.56 558.91 1683.83 533.85 C 1667.99 526.39 1650.78 522.78 1632.88 523.81 C 1554.34 528.24 1491.49 619.32 1492.56 727.17 Z " fill="rgb(255,255,255)"/><path d=" M 1630.75 896.85 C 1627.05 896.85 1623.38 896.62 1619.74 896.15 C 1610.77 886.95 1596.14 881.48 1578.75 880.09 C 1573.95 876.8 1569.28 873.04 1564.77 868.82 C 1535.86 841.76 1516.76 798.59 1511.69 750.37 C 1516.86 753.61 1522.54 755.49 1528.79 755.49 C 1542.53 755.49 1553.92 751.19 1563.12 745.21 C 1563.35 752.67 1563.99 760.05 1565.02 767.29 C 1565.85 776.91 1567.45 786.44 1569.89 795.74 C 1581.44 839.95 1610.72 871.68 1644.91 881.88 C 1653.53 885.02 1662.44 886.81 1671.42 887.26 C 1660.11 892.74 1648.11 896.01 1635.66 896.72 C 1634.02 896.81 1632.38 896.85 1630.75 896.85 Z " fill="rgb(185,175,190)"/><path d=" M 1638.78 541.48 C 1637.15 541.48 1635.52 541.53 1633.87 541.62 C 1564.82 545.52 1509.41 628.68 1510.36 727.02 C 1510.92 784.44 1531.26 837.45 1564.77 868.82 C 1585.79 888.49 1610.19 898.14 1635.66 896.72 C 1704.72 892.82 1760.13 809.65 1759.17 711.32 C 1758.61 653.9 1738.28 600.89 1704.77 569.52 C 1685.1 551.12 1662.38 541.48 1638.78 541.48 Z  M 1630.61 932.5 C 1597.88 932.5 1566.84 919.56 1540.42 894.83 C 1499.33 856.38 1475.39 795.34 1474.73 727.36 C 1473.59 610.27 1544.09 510.99 1631.87 506.04 C 1667.17 504.02 1700.81 517 1729.12 543.5 C 1770.21 581.96 1794.15 643.01 1794.81 710.98 C 1795.95 828.06 1725.45 927.35 1637.66 932.3 C 1635.31 932.43 1632.95 932.5 1630.61 932.5 Z " fill="rgb(55,26,69)"/><path d=" M 1787.59 786.78 C 1762.37 865.71 1694.16 905.52 1635.23 875.69 C 1576.31 845.87 1548.99 757.71 1574.21 678.78 C 1599.44 599.85 1667.65 560.04 1726.57 589.86 C 1785.5 619.68 1812.82 707.85 1787.59 786.78 Z " fill="rgb(255,255,255)"/><path d=" M 1685.95 581.74 C 1674.27 581.74 1662.5 584.17 1650.9 589.02 C 1617.1 603.18 1589.78 636.09 1575.96 679.34 C 1551.05 757.32 1578 844.67 1636.06 874.05 C 1659.98 886.16 1685.87 887.02 1710.9 876.54 C 1744.71 862.38 1772.03 829.46 1785.85 786.22 C 1810.77 708.23 1783.8 620.89 1725.74 591.5 C 1712.9 585 1699.49 581.74 1685.95 581.74 Z  M 1675.94 887.37 C 1661.72 887.37 1647.61 884.02 1634.41 877.33 C 1574.81 847.17 1547.02 757.84 1572.47 678.22 C 1586.61 633.95 1614.68 600.2 1649.48 585.63 C 1675.17 574.87 1702.84 575.8 1727.4 588.22 C 1787 618.39 1814.79 707.71 1789.34 787.33 C 1775.2 831.61 1747.12 865.35 1712.33 879.93 C 1700.46 884.9 1688.16 887.37 1675.94 887.37 Z " fill="rgb(55,26,69)"/><path d=" M 1644.91 881.88 C 1610.72 871.68 1581.44 839.95 1569.89 795.74 C 1567.45 786.44 1565.85 776.91 1565.02 767.29 C 1572 815.95 1596.9 858.35 1634.41 877.33 C 1637.85 879.08 1641.35 880.59 1644.91 881.88 Z " fill="rgb(140,123,148)"/><path d=" M 1675.86 883.81 C 1662.32 883.81 1648.91 880.56 1636.06 874.05 C 1585.83 848.63 1558.88 779.8 1568.67 711.21 C 1568.9 710.1 1569.14 709 1569.4 707.9 C 1585.23 752.66 1618.84 778.49 1656.31 778.49 C 1671.95 778.49 1688.25 773.99 1704.22 764.49 C 1739.28 743.67 1764.61 703.52 1774.85 658.96 C 1776.29 662.95 1777.55 667.15 1778.69 671.46 C 1797.61 743.92 1770.65 838.47 1712.98 872.78 C 1705.25 877.38 1697.35 880.66 1689.44 882.72 C 1684.91 883.45 1680.38 883.81 1675.86 883.81 Z " fill="rgb(185,175,190)"/><path d=" M 1668.71 885.4 C 1660.62 885.4 1652.64 884.19 1644.91 881.88 C 1641.35 880.59 1637.85 879.08 1634.41 877.33 C 1596.9 858.35 1572 815.95 1565.02 767.29 C 1563.42 748.6 1564.76 729.57 1568.67 711.21 C 1558.88 779.8 1585.83 848.63 1636.06 874.05 C 1648.91 880.56 1662.32 883.81 1675.86 883.81 C 1680.38 883.81 1684.91 883.45 1689.44 882.72 C 1682.52 884.53 1675.58 885.4 1668.71 885.4 Z " fill="rgb(55,26,69)"/><path d=" M 1685.06 589.38 C 1683.9 589.38 1682.72 589.42 1681.51 589.5 C 1632.41 592.65 1591.3 660.56 1591.75 737.78 C 1592.03 785.97 1607.9 829.37 1634.2 853.88 C 1644.08 863.09 1660.16 873.85 1681.08 872.46 C 1730.18 869.3 1771.29 801.4 1770.84 724.18 L 1770.84 724.17 C 1770.56 675.99 1754.69 632.59 1728.4 608.08 C 1719.08 599.39 1704.19 589.38 1685.06 589.38 Z  M 1677.41 908.22 C 1653.04 908.22 1629.81 898.52 1609.89 879.95 C 1576.55 848.87 1556.45 795.8 1556.11 737.99 C 1555.54 639.26 1609.62 558.41 1679.23 553.93 C 1705.7 552.24 1731.16 561.93 1752.7 582.01 C 1786.04 613.09 1806.14 666.16 1806.47 723.97 C 1807.05 822.7 1752.97 903.55 1683.36 908.03 C 1681.37 908.15 1679.39 908.22 1677.41 908.22 Z " fill="rgb(55,26,69)"/><path d=" M 752.25 850.89 C 684.37 757.75 658.45 660.92 691.32 534.14 C 707.71 470.95 737.89 414.999 777.79 368.691 C 787.19 357.779 799.74 350.068 813.57 346.043 C 825.08 342.695 836.79 339.89 848.64 337.648 C 860.39 335.428 884.3 332.66 884.3 332.66 L 897.76 331.696 C 897.76 331.696 906.84 329.346 911.39 329.346 C 913.4 329.346 914.52 329.806 913.59 331.129 C 803.1 487.05 779.81 577.09 765.36 651.28 C 739.53 783.92 752.25 850.89 752.25 850.89 Z " fill="rgb(195,186,199)"/><path d=" M 1313.44 697.95 C 1311.81 697.95 1310.18 697.89 1308.54 697.76 C 1268.29 694.66 1238.58 654.11 1242.2 607.2 C 1245.67 562.21 1278.54 527.7 1316.74 527.7 C 1318.37 527.7 1320 527.76 1321.64 527.89 C 1361.9 530.99 1391.6 571.54 1387.98 618.45 C 1384.51 663.44 1351.64 697.95 1313.44 697.95 Z " fill="rgb(195,186,199)"/><path d=" M 1316.45 827.4 C 1315.06 827.4 1313.65 827.29 1312.23 827.06 C 1295.78 824.38 1284.97 806.67 1288.09 787.49 C 1290.95 769.96 1304.46 757.28 1319.33 757.28 C 1320.72 757.28 1322.13 757.39 1323.55 757.62 C 1340 760.3 1350.81 778.02 1347.68 797.2 C 1344.83 814.72 1331.32 827.4 1316.45 827.4 Z " fill="rgb(195,186,199)"/><path d=" M 1488.43 1107.56 C 1655.73 1062.74 1643.42 928.44 1623.14 900.19 C 1594.87 860.81 1476.84 876.05 1433.93 965.51 C 1391.91 1053.14 1317.51 1021.87 1306.64 1155.86 C 1296.9 1276.02 1334.89 1314.47 1368.69 1338.61 C 1399.29 1360.47 1539.27 1397.65 1613.78 1323.16 C 1733.13 1203.84 1712.46 983.24 1712.46 983.24 L 1488.43 1107.56 Z " fill="rgb(255,255,255)"/><path d=" M 1597.44 1047.07 C 1602.43 1040.9 1605.1 1036.61 1605.58 1035.82 C 1605.6 1035.79 1605.63 1035.75 1605.65 1035.72 C 1605.59 1036.06 1605.07 1038.82 1604.14 1043.35 L 1597.44 1047.07 Z " fill="rgb(185,175,190)"/><path d=" M 1542.97 1177.36 C 1508.17 1177.36 1500.78 1107.85 1500.78 1107.85 C 1552.39 1095.46 1583.71 1064.08 1597.44 1047.07 L 1604.14 1043.35 C 1598.11 1072.67 1574.66 1176.13 1544.02 1177.34 C 1543.66 1177.36 1543.31 1177.36 1542.97 1177.36 Z  M 1605.58 1035.82 C 1605.63 1035.74 1605.66 1035.69 1605.66 1035.69 C 1605.66 1035.69 1605.66 1035.7 1605.65 1035.72 C 1605.63 1035.75 1605.6 1035.79 1605.58 1035.82 Z " fill="rgb(185,175,190)"/><path d=" M 1424.01 1359.7 C 1412.02 1356.91 1401.22 1353.6 1392.13 1350.17 C 1392.13 1350.17 1392.13 1350.17 1392.13 1350.17 C 1401.22 1353.6 1412.03 1356.91 1424.01 1359.7 C 1424.01 1359.7 1424.01 1359.7 1424.01 1359.7 Z " fill="rgb(140,86,56)"/><path d=" M 1392.13 1350.17 C 1387.61 1348.46 1383.51 1346.72 1379.91 1345 C 1383.51 1346.72 1387.61 1348.46 1392.13 1350.17 C 1392.13 1350.17 1392.13 1350.17 1392.13 1350.17 Z " fill="rgb(140,101,92)"/><path d=" M 1490.14 1367.46 C 1466.54 1367.46 1443.69 1364.28 1424.01 1359.7 C 1424.01 1359.7 1424.01 1359.7 1424.01 1359.7 C 1443.7 1364.28 1466.56 1367.45 1490.15 1367.45 C 1499.92 1367.45 1509.81 1366.91 1519.66 1365.7 C 1509.81 1366.91 1499.91 1367.46 1490.14 1367.46 Z " fill="rgb(55,26,69)"/><path d=" M 1315.43 1267.95 C 1315.42 1267.93 1315.41 1267.9 1315.4 1267.88 C 1315.41 1267.9 1315.42 1267.92 1315.43 1267.95 Z  M 1315.39 1267.84 C 1313.58 1262.28 1311.97 1256.32 1310.59 1249.91 C 1311.97 1256.32 1313.58 1262.28 1315.39 1267.84 Z  M 1310.59 1249.91 C 1310.57 1249.84 1310.56 1249.77 1310.54 1249.7 C 1310.56 1249.77 1310.57 1249.84 1310.59 1249.91 Z  M 1310.52 1249.58 C 1310.51 1249.55 1310.5 1249.52 1310.5 1249.49 C 1310.5 1249.52 1310.51 1249.55 1310.52 1249.58 Z " fill="rgb(140,101,92)"/><path d=" M 1703.88 1133.22 C 1703.88 1133.21 1703.88 1133.23 1703.88 1133.22 L 1703.88 1133.22 Z " fill="rgb(140,123,148)"/><path d=" M 1708.68 1102.47 L 1708.68 1102.47 C 1717.24 1036.06 1712.58 984.46 1712.47 983.26 L 1712.48 983.25 C 1712.48 983.25 1717.35 1035.28 1708.68 1102.47 Z " fill="rgb(185,175,190)"/><path d=" M 1703.89 1133.18 C 1705.82 1122.68 1707.4 1112.41 1708.68 1102.47 L 1708.68 1102.47 C 1707.4 1112.41 1705.82 1122.69 1703.89 1133.18 Z " fill="rgb(140,123,148)"/><path d=" M 1490.15 1367.45 C 1466.56 1367.45 1443.7 1364.28 1424.01 1359.7 C 1412.03 1356.91 1401.22 1353.6 1392.13 1350.17 C 1387.61 1348.46 1383.51 1346.72 1379.91 1345 C 1375.33 1342.81 1371.55 1340.65 1368.71 1338.61 C 1348.9 1324.47 1327.67 1305.43 1315.43 1267.95 C 1315.42 1267.92 1315.41 1267.9 1315.4 1267.88 C 1315.4 1267.86 1315.4 1267.85 1315.39 1267.84 C 1313.58 1262.28 1311.97 1256.32 1310.59 1249.91 L 1310.59 1249.91 C 1310.57 1249.84 1310.56 1249.77 1310.54 1249.7 C 1310.53 1249.66 1310.52 1249.62 1310.52 1249.58 C 1310.51 1249.55 1310.5 1249.52 1310.5 1249.49 C 1305.35 1225.38 1303.48 1194.95 1306.65 1155.88 C 1306.92 1152.31 1307.27 1148.88 1307.67 1145.54 C 1316 1207.29 1343.49 1233.21 1368.71 1251.21 C 1385.62 1263.3 1435.94 1280.05 1490.14 1280.05 C 1534.02 1280.05 1580.44 1269.08 1613.77 1235.75 C 1684.6 1164.92 1706.16 1058.41 1711.95 983.56 L 1712.47 983.26 C 1712.58 984.46 1717.24 1036.06 1708.68 1102.47 C 1707.4 1112.41 1705.82 1122.68 1703.89 1133.18 C 1703.88 1133.19 1703.88 1133.2 1703.88 1133.22 C 1703.88 1133.23 1703.88 1133.21 1703.88 1133.22 C 1691.96 1197.78 1666.56 1270.38 1613.77 1323.16 C 1587.87 1349.05 1554.04 1361.46 1519.66 1365.7 C 1509.81 1366.91 1499.92 1367.45 1490.15 1367.45 Z " fill="rgb(185,175,190)"/><path d=" M 1486.89 1101.83 C 1515.53 1084.43 1542.7 1070.09 1565.21 1050.81 C 1576.32 1041.14 1586.17 1030.45 1594.21 1018.61 C 1602.13 1006.72 1608.51 993.76 1612.27 979.89 C 1616.16 966.09 1617.51 951.4 1616.14 937.31 C 1615.47 930.31 1614.03 923.39 1611.96 917.51 C 1610.93 914.75 1609.63 911.89 1608.72 910.69 C 1607.44 909.2 1606.17 907.53 1604.04 906.15 C 1600.15 903.21 1594.44 900.87 1588.13 899.49 C 1581.82 898.07 1574.92 897.49 1567.89 897.6 C 1553.79 897.77 1539.27 900.95 1525.55 905.87 C 1498.07 916 1473.77 934.56 1458.12 958.8 C 1456.27 961.89 1454.25 964.89 1452.65 968.13 L 1450.15 972.94 L 1446.93 978.89 C 1444.71 982.88 1442.65 986.95 1440.26 990.86 L 1432.35 1002.24 C 1421.19 1017.06 1407.1 1029.57 1393.33 1039.74 C 1379.55 1050.02 1366.67 1058.63 1356.94 1068.72 C 1347.09 1078.69 1340.16 1090.48 1335 1103.92 C 1332.87 1110.91 1330.33 1117.68 1329.12 1125.25 C 1328.4 1128.95 1327.51 1132.59 1326.89 1136.35 L 1325.53 1147.86 C 1325.14 1151.72 1324.49 1155.47 1324.28 1159.43 L 1323.58 1171.28 C 1322.92 1179.21 1323.16 1187.02 1322.97 1194.88 C 1323.29 1226.02 1327.53 1257.11 1340.82 1282.34 C 1347.3 1295.04 1356.44 1305.66 1367.42 1315.15 C 1370.32 1317.44 1373.09 1319.8 1376.22 1322.02 C 1377.75 1323.16 1379.38 1324.38 1380.35 1324.95 C 1381.38 1325.69 1382.98 1326.49 1384.32 1327.27 C 1390.31 1330.39 1397.33 1333.21 1404.47 1335.64 C 1433.34 1345.3 1464.85 1350.11 1495.36 1349.54 C 1525.88 1348.96 1556.02 1342.21 1580.42 1326.98 C 1586.46 1323.12 1592.25 1318.9 1597.43 1314.02 L 1601.35 1310.37 L 1605.27 1306.19 C 1607.83 1303.34 1610.64 1300.75 1613.01 1297.71 C 1623.15 1286.23 1631.88 1273.44 1639.9 1260.21 C 1647.92 1246.96 1654.81 1232.92 1660.76 1218.43 C 1666.73 1203.95 1671.93 1189.07 1676.19 1173.84 C 1680.44 1158.61 1683.97 1143.13 1686.76 1127.46 C 1689.59 1111.8 1690.92 1095.87 1692.05 1079.97 C 1694.78 1048.12 1696.04 1016.58 1706.55 983.8 L 1706.6 983.64 C 1707.68 980.28 1711.28 978.43 1714.64 979.5 C 1716.32 980.04 1717.63 981.23 1718.38 982.69 C 1722.58 990.93 1725.01 999.17 1727.11 1007.56 C 1729.11 1015.93 1730.36 1024.38 1731.03 1032.83 C 1732.22 1049.74 1731.89 1066.72 1729.91 1083.55 C 1727.94 1100.39 1724.87 1117.07 1721.87 1133.77 C 1718.82 1150.47 1715.09 1167.08 1710.49 1183.52 C 1705.88 1199.96 1700.24 1216.18 1693.68 1232.09 C 1687.13 1248.01 1679.5 1263.58 1670.5 1278.47 C 1661.5 1293.34 1651.6 1307.81 1639.98 1321.01 C 1637.26 1324.45 1634.05 1327.49 1631.1 1330.75 L 1626.58 1335.55 L 1621.49 1340.32 C 1614.67 1346.69 1607.13 1352.22 1599.32 1357.19 C 1583.56 1366.94 1566.41 1373.99 1548.93 1378.29 C 1531.46 1382.76 1513.72 1384.79 1496.14 1385.17 C 1460.93 1385.74 1426.47 1380.51 1392.97 1369.37 C 1384.56 1366.48 1376.24 1363.23 1367.64 1358.76 C 1365.42 1357.5 1363.33 1356.45 1360.98 1354.86 C 1358.46 1353.26 1356.81 1351.98 1355.03 1350.68 C 1351.46 1348.13 1347.94 1345.19 1344.41 1342.36 C 1330.48 1330.48 1317.82 1315.67 1309.32 1299.02 C 1300.61 1282.46 1295.29 1264.83 1291.98 1247.36 C 1288.53 1229.83 1287.74 1212.43 1287.33 1195.17 C 1287.52 1186.6 1287.3 1177.95 1287.98 1169.48 L 1288.74 1156.71 C 1288.98 1152.47 1289.68 1148.08 1290.13 1143.77 L 1291.68 1130.8 C 1292.4 1126.45 1293.42 1122.08 1294.29 1117.72 C 1295.73 1109.01 1298.79 1100.27 1301.57 1091.57 C 1308.03 1074.3 1318.1 1057.24 1331.45 1043.81 C 1344.68 1030.26 1359.47 1020.64 1371.96 1011.23 C 1384.59 1001.86 1395.21 992.22 1403.91 980.77 L 1410.07 971.91 C 1411.96 968.81 1413.58 965.51 1415.38 962.33 L 1418.05 957.45 L 1421.23 951.31 C 1423.3 947.19 1425.84 943.32 1428.23 939.38 C 1448.37 908.25 1479.08 885 1513.24 872.42 C 1530.42 866.26 1548.46 862.25 1567.29 861.97 C 1576.69 861.83 1586.28 862.56 1596.02 864.74 C 1605.71 866.94 1615.73 870.54 1625.09 877.4 C 1629.8 880.64 1634.12 885.15 1637.84 890.14 C 1641.69 895.68 1643.58 900.48 1645.47 905.38 C 1648.88 915.01 1650.62 924.34 1651.63 933.67 C 1653.53 952.3 1652.23 970.89 1647.96 988.94 C 1643.79 1007 1636.3 1024.34 1626.18 1039.93 C 1615.87 1055.39 1602.86 1068.85 1588.33 1079.72 C 1559.34 1101.73 1524.54 1113.29 1489.97 1113.3 C 1486.57 1113.3 1483.82 1110.55 1483.82 1107.15 C 1483.82 1104.93 1485 1102.98 1486.76 1101.9 L 1486.89 1101.83 Z " fill="rgb(55,26,69)"/><path d=" M 1553.11 1090.3 C 1553.93 1097.33 1553.46 1104.77 1553.04 1111.96 C 1552.57 1119.19 1551.5 1126.39 1550.71 1133.61 C 1549.98 1140.8 1549.32 1147.95 1549.1 1155.09 C 1548.9 1162.26 1548.98 1169.17 1551.62 1175.92 L 1551.81 1176.4 C 1552.21 1177.42 1551.7 1178.57 1550.68 1178.97 C 1550.05 1179.22 1549.37 1179.12 1548.84 1178.77 C 1547.15 1177.61 1545.08 1176.39 1543.51 1174.83 C 1542.06 1173.28 1540.45 1171.59 1539.2 1169.82 C 1538 1168.07 1536.81 1166.22 1535.71 1164.33 C 1534.78 1162.46 1533.79 1160.57 1532.9 1158.63 C 1529.59 1150.91 1527.27 1142.94 1525.65 1135 C 1524.1 1127.07 1522.89 1119.09 1522.79 1111.16 C 1522.77 1103.18 1523.17 1095.47 1525.42 1087.4 C 1527.51 1079.9 1535.29 1075.51 1542.8 1077.6 C 1548.48 1079.18 1552.38 1084.03 1553.03 1089.55 L 1553.11 1090.3 Z " fill="rgb(55,26,69)"/><path d=" M 897.32 1186.12 C 902.4 1187.52 908.06 1188.83 913.49 1190.03 C 918.98 1191.23 924.5 1192.35 930.01 1193.29 C 941.01 1195.17 952.15 1196.61 962.62 1196.47 L 963.09 1196.47 C 968.03 1196.41 972.09 1200.36 972.15 1205.31 C 972.21 1209.46 969.41 1212.99 965.59 1214.05 C 953.19 1217.47 941.08 1218.92 928.99 1220 C 922.95 1220.52 916.93 1220.86 910.9 1221.11 C 904.81 1221.34 898.97 1221.51 892.58 1221.44 L 892.34 1221.44 C 882.41 1221.33 874.45 1213.19 874.56 1203.26 C 874.66 1193.33 882.8 1185.36 892.74 1185.47 C 894.29 1185.49 895.88 1185.73 897.32 1186.12 Z " fill="rgb(55,26,69)"/></g></svg>