<?xml version="1.0" encoding="UTF-8" standalone="no"?><!-- Generator: Gravit.io --><svg xmlns="http://www.w3.org/2000/svg" xmlns:xlink="http://www.w3.org/1999/xlink" style="isolation:isolate" viewBox="0 0 4000 4000" width="4000pt" height="4000pt"><path d=" M 0 0 L 0 4000 L 4000 4000 L 4000 0 L 0 0 Z " fill="none"/><g opacity="0"><path d=" M 4000 4000 L 0 4000 L 0 0 L 4000 0 L 4000 4000 Z " fill="rgb(255,255,255)"/></g><path d=" M 2991.84 2627.19 C 2992.35 2662.48 2967.2 2693.99 2931.22 2700.3 L 2536.4 2769.62 L 2412.53 2791.4 L 2286.48 2813.51 L 1713.52 2813.51 L 1068.78 2700.3 C 1032.8 2693.99 1007.65 2662.48 1008.16 2627.19 C 1008.22 2622.95 1008.68 2618.65 1009.54 2614.35 L 1018.42 2568.23 L 1047.18 2419.03 C 1053.25 2387.35 1068.55 2358.07 1091.13 2334.98 L 1560.38 1854.33 C 1590.57 1823.39 1611.77 1784.72 1621.57 1742.55 L 1782.79 1048.48 L 2217.21 1048.48 L 2222.08 1069.45 L 2378.43 1742.55 C 2384.97 1770.63 2396.54 1797.15 2412.53 1820.87 C 2420.43 1832.79 2429.54 1844.02 2439.62 1854.33 L 2908.87 2334.98 C 2931.45 2358.07 2946.74 2387.35 2952.82 2419.03 L 2981.58 2568.23 L 2990.46 2614.35 C 2991.32 2618.65 2991.78 2622.95 2991.84 2627.19 Z " fill="rgb(255,255,255)"/><path d=" M 1784.78 1050.98 L 1624 1743.12 C 1614.11 1785.7 1592.72 1824.77 1562.16 1856.08 L 1092.91 2336.73 C 1070.61 2359.55 1055.64 2388.17 1049.64 2419.5 L 1011.99 2614.83 C 1011.16 2618.98 1010.72 2623.14 1010.67 2627.22 C 1010.15 2662.11 1034.78 2691.8 1069.21 2697.83 L 1713.96 2811.05 L 2286.48 2811.01 L 2930.78 2697.83 C 2965.22 2691.8 2989.85 2662.11 2989.34 2627.22 C 2989.28 2623.13 2988.83 2618.97 2988.01 2614.84 L 2950.36 2419.51 C 2944.36 2388.17 2929.39 2359.55 2907.09 2336.73 L 2437.84 1856.08 C 2427.61 1845.62 2418.39 1834.24 2410.44 1822.25 C 2394.2 1798.16 2382.61 1771.53 2376 1743.12 L 2215.22 1050.98 L 1784.78 1050.98 Z  M 1713.52 2816.01 L 1068.35 2702.76 C 1031.48 2696.3 1005.12 2664.51 1005.67 2627.16 C 1005.72 2622.77 1006.2 2618.3 1007.09 2613.86 L 1044.72 2418.56 C 1050.92 2386.26 1066.34 2356.75 1089.34 2333.23 L 1558.59 1852.58 C 1588.51 1821.93 1609.44 1783.68 1619.13 1741.98 L 1780.81 1045.98 L 2219.19 1045.98 L 2380.87 1741.98 C 2387.34 1769.8 2398.69 1795.88 2414.6 1819.47 C 2422.38 1831.21 2431.4 1842.35 2441.41 1852.58 L 2910.66 2333.23 C 2933.65 2356.75 2949.08 2386.26 2955.28 2418.57 L 2992.92 2613.88 C 2993.8 2618.29 2994.28 2622.76 2994.34 2627.16 C 2994.88 2664.51 2968.52 2696.31 2931.65 2702.76 L 2286.91 2815.97 L 1713.52 2816.01 Z " fill="rgb(0,0,114)"/><path d=" M 2582.02 2377.09 C 2582.02 2429.04 2539.91 2471.15 2487.96 2471.15 C 2436.02 2471.15 2393.9 2429.04 2393.9 2377.09 C 2393.9 2325.15 2436.02 2283.04 2487.96 2283.04 C 2539.91 2283.04 2582.02 2325.15 2582.02 2377.09 Z " fill="rgb(11,174,255)"/><path d=" M 2487.97 2297.36 C 2444 2297.36 2408.23 2333.13 2408.23 2377.1 C 2408.23 2421.06 2444 2456.83 2487.97 2456.83 C 2531.93 2456.83 2567.7 2421.06 2567.7 2377.1 C 2567.7 2333.13 2531.93 2297.36 2487.97 2297.36 Z  M 2487.97 2485.48 C 2428.2 2485.48 2379.58 2436.86 2379.58 2377.1 C 2379.58 2317.33 2428.2 2268.71 2487.97 2268.71 C 2547.73 2268.71 2596.35 2317.33 2596.35 2377.1 C 2596.35 2436.86 2547.73 2485.48 2487.97 2485.48 Z " fill="rgb(0,0,114)"/><path d=" M 2528.03 2398.22 L 2447.89 2398.22 C 2440.23 2398.22 2434.01 2392.01 2434.01 2384.34 L 2434.01 2369.85 C 2434.01 2362.18 2440.23 2355.97 2447.89 2355.97 L 2528.03 2355.97 C 2535.7 2355.97 2541.92 2362.18 2541.92 2369.85 L 2541.92 2384.34 C 2541.92 2392.01 2535.7 2398.22 2528.03 2398.22 Z " fill="rgb(255,255,255)"/><path d=" M 2981.58 2568.23 L 2882.4 2568.23 L 2857.19 2437.48 C 2854.67 2424.42 2848.43 2412.5 2839.14 2402.99 L 2369.96 1922.4 C 2327.27 1878.68 2297.42 1824.14 2283.61 1764.61 L 2139.86 1145.88 L 1860.14 1145.88 L 1716.39 1764.61 C 1702.58 1824.14 1672.73 1878.68 1630.04 1922.4 L 1160.86 2402.99 C 1151.57 2412.5 1145.33 2424.42 1142.81 2437.48 L 1117.6 2568.23 L 1018.42 2568.23 L 1047.18 2419.03 C 1053.25 2387.35 1068.55 2358.07 1091.13 2334.98 L 1560.38 1854.33 C 1590.57 1823.39 1611.77 1784.72 1621.57 1742.55 L 1782.79 1048.48 L 2217.21 1048.48 L 2378.43 1742.55 C 2388.23 1784.72 2409.43 1823.39 2439.62 1854.33 L 2908.87 2334.98 C 2931.45 2358.07 2946.74 2387.35 2952.82 2419.03 L 2981.58 2568.23 Z " fill="rgb(126,132,150)"/><path d=" M 2884.47 2565.73 L 2978.55 2565.73 L 2950.36 2419.51 C 2944.36 2388.17 2929.39 2359.55 2907.09 2336.73 L 2437.84 1856.08 C 2407.27 1824.77 2385.89 1785.7 2376 1743.12 L 2215.22 1050.98 L 1784.78 1050.98 L 1624 1743.12 C 1614.11 1785.7 1592.72 1824.77 1562.16 1856.08 L 1092.91 2336.73 C 1070.61 2359.55 1055.64 2388.17 1049.64 2419.5 L 1021.45 2565.73 L 1115.53 2565.73 L 1140.35 2437.01 C 1142.97 2423.48 1149.44 2411.12 1159.07 2401.24 L 1628.26 1920.65 C 1670.62 1877.27 1700.25 1823.12 1713.95 1764.04 L 1858.16 1143.38 L 2141.84 1143.38 L 2286.05 1764.04 C 2299.75 1823.12 2329.38 1877.27 2371.74 1920.65 L 2840.93 2401.24 C 2850.56 2411.11 2857.03 2423.48 2859.65 2437.01 L 2884.47 2565.73 Z  M 2984.61 2570.73 L 2880.34 2570.73 L 2854.74 2437.96 C 2852.31 2425.39 2846.3 2413.9 2837.36 2404.74 L 2368.17 1924.15 C 2325.16 1880.11 2295.08 1825.14 2281.17 1765.18 L 2137.87 1148.38 L 1862.13 1148.38 L 1718.83 1765.18 C 1704.91 1825.14 1674.84 1880.11 1631.83 1924.15 L 1162.64 2404.74 C 1153.7 2413.9 1147.69 2425.39 1145.27 2437.96 L 1119.66 2570.73 L 1015.39 2570.73 L 1044.72 2418.56 C 1050.92 2386.26 1066.34 2356.75 1089.34 2333.23 L 1558.59 1852.58 C 1588.51 1821.93 1609.44 1783.68 1619.13 1741.98 L 1780.81 1045.98 L 2219.19 1045.98 L 2380.87 1741.98 C 2390.55 1783.68 2411.49 1821.93 2441.41 1852.58 L 2910.66 2333.23 C 2933.65 2356.75 2949.08 2386.26 2955.28 2418.57 L 2984.61 2570.73 Z " fill="rgb(0,0,114)"/><path d=" M 1063.76 2551.02 L 1039.23 2551.02 L 1064.04 2422.31 C 1069.53 2393.8 1083.16 2367.75 1103.45 2346.97 L 1572.66 1866.34 C 1605.08 1833.14 1627.78 1791.69 1638.28 1746.47 L 1765.09 1200.65 L 1765.09 1308.89 L 1659.78 1762.23 C 1649.98 1804.4 1628.79 1843.08 1598.59 1874.01 L 1129.34 2354.66 C 1106.77 2377.75 1091.47 2407.03 1085.4 2438.72 L 1063.76 2551.02 Z " fill="rgb(197,200,208)"/><path d=" M 1715.02 2796.31 L 2284.98 2796.31 L 2928.27 2683.39 C 2943.19 2680.76 2956.13 2672.46 2964.72 2659.99 C 2973.32 2647.52 2976.47 2632.46 2973.6 2617.59 L 2935.96 2422.31 C 2930.46 2393.8 2916.83 2367.74 2896.55 2346.97 L 2427.34 1866.34 C 2394.91 1833.14 2372.22 1791.69 2361.72 1746.46 L 2203.55 1065.66 L 1796.45 1065.66 L 1638.28 1746.47 C 1627.78 1791.69 1605.08 1833.14 1572.66 1866.34 L 1103.45 2346.97 C 1083.16 2367.75 1069.53 2393.8 1064.04 2422.31 L 1026.4 2617.59 C 1023.53 2632.46 1026.68 2647.52 1035.28 2659.98 C 1043.87 2672.46 1056.81 2680.76 1071.74 2683.39 L 1715.02 2796.31 Z  M 2286.48 2830.68 L 1713.52 2830.68 C 1712.53 2830.68 1711.53 2830.59 1710.55 2830.42 L 1065.79 2717.24 C 1041.72 2713.02 1020.83 2699.61 1006.97 2679.49 C 993.103 2659.37 988.015 2635.07 992.638 2611.08 L 1030.28 2415.81 C 1037.06 2380.67 1053.85 2348.56 1078.85 2322.95 L 1548.06 1842.33 C 1576.1 1813.62 1595.72 1777.78 1604.8 1738.69 L 1766.06 1044.58 C 1767.87 1036.79 1774.81 1031.28 1782.8 1031.28 L 2217.2 1031.28 C 2225.19 1031.28 2232.13 1036.79 2233.94 1044.58 L 2395.2 1738.68 C 2404.28 1777.78 2423.9 1813.62 2451.94 1842.33 L 2921.15 2322.95 C 2946.14 2348.55 2962.94 2380.66 2969.72 2415.81 L 3007.36 2611.08 C 3011.98 2635.07 3006.9 2659.37 2993.03 2679.49 C 2979.17 2699.61 2958.28 2713.02 2934.22 2717.24 L 2289.45 2830.42 C 2288.47 2830.59 2287.47 2830.68 2286.48 2830.68 Z " fill="rgb(0,0,114)"/><path d=" M 2882.38 2585.42 C 2874.31 2585.42 2867.11 2579.7 2865.52 2571.48 L 2840.31 2440.73 C 2838.43 2431 2833.78 2422.1 2826.84 2415 L 2357.65 1934.41 C 2312.78 1888.45 2281.38 1831.08 2266.87 1768.49 L 2126.2 1163.07 L 1873.8 1163.07 L 1733.13 1768.5 C 1718.61 1831.08 1687.22 1888.45 1642.35 1934.41 L 1173.16 2415 C 1166.22 2422.1 1161.56 2431 1159.68 2440.74 L 1134.48 2571.48 C 1132.68 2580.8 1123.7 2586.91 1114.35 2585.11 C 1105.03 2583.31 1098.92 2574.3 1100.72 2564.98 L 1125.93 2434.23 C 1129.09 2417.87 1136.91 2402.92 1148.56 2390.98 L 1617.75 1910.39 C 1658.23 1868.93 1686.55 1817.18 1699.65 1760.73 L 1843.4 1141.99 C 1845.21 1134.21 1852.15 1128.69 1860.14 1128.69 L 2139.86 1128.69 C 2147.85 1128.69 2154.79 1134.21 2156.6 1141.99 L 2300.35 1760.72 C 2313.45 1817.18 2341.77 1868.93 2382.25 1910.39 L 2851.44 2390.98 C 2863.08 2402.91 2870.91 2417.86 2874.07 2434.22 L 2899.28 2564.98 C 2901.08 2574.3 2894.98 2583.31 2885.66 2585.11 C 2884.56 2585.32 2883.46 2585.42 2882.38 2585.42 Z " fill="rgb(0,0,114)"/><path d=" M 1662.03 2585.39 L 1018.41 2585.39 C 1008.92 2585.39 1001.22 2577.7 1001.22 2568.21 C 1001.22 2558.71 1008.92 2551.02 1018.41 2551.02 L 1662.03 2551.02 C 1671.52 2551.02 1679.22 2558.71 1679.22 2568.21 C 1679.22 2577.7 1671.52 2585.39 1662.03 2585.39 Z " fill="rgb(0,0,114)"/><path d=" M 1659.46 2786.55 L 1071.74 2683.39 C 1056.81 2680.76 1043.87 2672.46 1035.28 2659.98 C 1026.68 2647.52 1023.53 2632.46 1026.4 2617.59 L 1028.79 2605.19 C 1039.18 2615.91 1052.93 2623.57 1068.78 2626.33 L 1659.46 2730.05 L 1659.46 2786.55 Z  M 2340.54 2786.55 L 2340.54 2638.74 C 2340.54 2620.25 2337.94 2602.35 2333.1 2585.39 L 2533.52 2585.39 C 2535.41 2596.21 2536.4 2607.35 2536.4 2618.71 L 2536.4 2633.86 C 2536.4 2663.02 2560.18 2685.81 2588.22 2685.81 C 2591.21 2685.81 2594.25 2685.55 2597.32 2685.01 L 2931.22 2626.33 C 2947.07 2623.57 2960.82 2615.92 2971.21 2605.19 L 2973.6 2617.59 C 2976.47 2632.46 2973.32 2647.52 2964.72 2659.99 C 2956.13 2672.46 2943.19 2680.76 2928.27 2683.39 L 2340.54 2786.55 Z  M 2524.13 2551.02 L 2319.6 2551.02 C 2301.06 2514.48 2271.31 2484.56 2234.91 2465.8 L 2234.91 1630.94 L 2266.87 1768.49 C 2281.38 1831.08 2312.78 1888.45 2357.65 1934.41 L 2412.53 1990.61 L 2412.53 2299.34 C 2392.22 2319.05 2379.58 2346.63 2379.58 2377.1 C 2379.58 2435.03 2425.27 2482.49 2482.51 2485.34 C 2500.53 2504 2514.81 2526.29 2524.13 2551.02 Z " fill="rgb(178,178,212)"/><path d=" M 2412.53 2402.93 C 2409.74 2394.83 2408.23 2386.13 2408.23 2377.1 C 2408.23 2368.06 2409.74 2359.36 2412.53 2351.26 L 2412.53 2402.93 Z " fill="rgb(8,121,212)"/><path d=" M 2482.51 2485.34 C 2425.27 2482.49 2379.58 2435.03 2379.58 2377.1 C 2379.58 2346.63 2392.22 2319.05 2412.53 2299.34 L 2412.53 2351.26 C 2409.74 2359.36 2408.23 2368.06 2408.23 2377.1 C 2408.23 2386.13 2409.74 2394.83 2412.53 2402.93 L 2412.53 2439.2 C 2439.21 2449.31 2463.04 2465.2 2482.51 2485.34 Z " fill="rgb(0,0,114)"/><path d=" M 2412.53 1941.4 L 2382.25 1910.39 C 2341.77 1868.93 2313.45 1817.18 2300.35 1760.72 L 2234.91 1479.04 L 2234.91 1200.65 L 2361.72 1746.46 C 2370.54 1784.45 2387.96 1819.78 2412.53 1849.79 L 2412.53 1941.4 Z " fill="rgb(88,92,139)"/><path d=" M 2340.54 2804.03 L 2340.54 2786.55 L 2928.27 2683.39 C 2943.19 2680.76 2956.13 2672.46 2964.72 2659.99 C 2973.32 2647.52 2976.47 2632.46 2973.6 2617.59 L 2971.21 2605.19 C 2976.82 2599.4 2981.45 2592.71 2984.9 2585.42 L 2990.46 2614.35 C 2991.32 2618.65 2991.78 2622.95 2991.84 2627.19 C 2992.35 2662.48 2967.2 2693.99 2931.22 2700.3 L 2536.4 2769.62 L 2412.53 2791.4 L 2340.54 2804.03 Z  M 1659.46 2804.02 L 1068.78 2700.3 C 1032.8 2693.99 1007.65 2662.48 1008.16 2627.19 C 1008.22 2622.95 1008.68 2618.65 1009.54 2614.35 L 1015.1 2585.42 C 1018.55 2592.71 1023.18 2599.39 1028.79 2605.19 L 1026.4 2617.59 C 1023.53 2632.46 1026.68 2647.52 1035.28 2659.98 C 1043.87 2672.46 1056.81 2680.76 1071.74 2683.39 L 1659.46 2786.55 L 1659.46 2804.02 Z  M 2412.53 1849.79 C 2387.96 1819.78 2370.54 1784.45 2361.72 1746.46 L 2234.91 1200.65 L 2234.91 1124.69 L 2378.43 1742.55 C 2384.97 1770.63 2396.54 1797.15 2412.53 1820.87 L 2412.53 1849.79 Z " fill="rgb(0,0,114)"/><path d=" M 2412.53 1990.61 L 2357.65 1934.41 C 2312.78 1888.45 2281.38 1831.08 2266.87 1768.49 L 2234.91 1630.94 L 2234.91 1479.04 L 2300.35 1760.72 C 2313.45 1817.18 2341.77 1868.93 2382.25 1910.39 L 2412.53 1941.4 L 2412.53 1990.61 Z " fill="rgb(0,0,114)"/><path d=" M 2981.59 2585.39 L 2311.23 2585.39 C 2301.74 2585.39 2294.04 2577.7 2294.04 2568.21 C 2294.04 2558.71 2301.74 2551.02 2311.23 2551.02 L 2981.59 2551.02 C 2991.08 2551.02 2998.78 2558.71 2998.78 2568.21 C 2998.78 2577.7 2991.08 2585.39 2981.59 2585.39 Z " fill="rgb(0,0,114)"/><path d=" M 2217.72 1076.49 L 2217.72 2488.82 L 1782.28 2488.82 L 1782.28 1076.49 C 1782.28 987.918 1796.77 900.599 1824.68 817.751 C 1826.85 811.334 1829.09 804.917 1831.44 798.557 C 1859.11 722.812 1898.07 651.079 1947.52 586.049 C 1973.87 551.328 2026.13 551.328 2052.48 586.049 C 2101.93 651.079 2140.89 722.812 2168.56 798.557 C 2200.88 887.02 2217.72 981.042 2217.72 1076.49 Z " fill="rgb(255,255,255)"/><path d=" M 1784.78 2486.32 L 2215.22 2486.32 L 2215.22 1076.5 C 2215.22 981.662 2198.73 888.439 2166.21 799.416 C 2138.38 723.23 2099.45 651.95 2050.49 587.561 C 2038.41 571.637 2020 562.507 2000 562.507 C 1980 562.507 1961.59 571.637 1949.51 587.561 C 1900.56 651.935 1861.63 723.215 1833.79 799.416 C 1831.44 805.759 1829.21 812.161 1827.04 818.556 C 1799 901.828 1784.78 988.615 1784.78 1076.5 L 1784.78 2486.32 Z  M 2220.22 2491.32 L 1779.78 2491.32 L 1779.78 1076.5 C 1779.78 988.068 1794.08 900.749 1822.31 816.955 C 1824.49 810.509 1826.74 804.07 1829.09 797.692 C 1857.1 721.027 1896.28 649.309 1945.52 584.533 C 1958.57 567.36 1978.42 557.507 2000 557.507 C 2021.58 557.507 2041.43 567.36 2054.47 584.533 C 2103.73 649.324 2142.9 721.042 2170.91 797.697 C 2203.63 887.272 2220.22 981.077 2220.22 1076.5 L 2220.22 2491.32 Z " fill="rgb(0,0,114)"/><path d=" M 2168.56 798.557 C 2139.8 775.066 2106.11 757.419 2069.21 747.507 L 2069.21 792.884 L 1930.79 792.884 L 1930.79 747.507 C 1893.89 757.419 1860.2 775.066 1831.44 798.557 C 1859.11 722.812 1898.07 651.079 1947.52 586.049 C 1973.87 551.328 2026.13 551.328 2052.48 586.049 C 2101.93 651.079 2140.89 722.812 2168.56 798.557 Z " fill="rgb(126,132,150)"/><path d=" M 2066.71 744.245 L 2069.86 745.095 C 2103.77 754.201 2135.1 769.65 2163.11 791.062 C 2135.51 718.015 2097.65 649.592 2050.49 587.561 C 2038.41 571.637 2020 562.507 2000 562.507 C 1980 562.507 1961.59 571.637 1949.51 587.561 C 1902.36 649.582 1864.49 718.005 1836.89 791.062 C 1864.9 769.65 1896.23 754.201 1930.14 745.095 L 1933.29 744.245 L 1933.29 790.383 L 2066.71 790.383 L 2066.71 744.245 Z  M 1825.96 806.257 L 1829.09 797.697 C 1857.1 721.027 1896.28 649.309 1945.52 584.533 C 1958.57 567.36 1978.42 557.507 2000 557.507 C 2021.58 557.507 2041.43 567.36 2054.47 584.533 C 2103.73 649.324 2142.9 721.042 2170.91 797.697 L 2174.03 806.257 L 2166.98 800.495 C 2138.62 777.326 2106.58 760.613 2071.71 750.788 L 2071.71 795.383 L 1928.29 795.383 L 1928.29 750.788 C 1893.42 760.613 1861.38 777.326 1833.02 800.495 L 1825.96 806.257 Z " fill="rgb(0,0,114)"/><path d=" M 2069.81 2471.63 L 2064.84 2471.63 C 2063.8 2417.19 2053.63 2363.75 2034.56 2312.63 C 2031.65 2304.84 2026.43 2298.53 2019.82 2294.34 L 2094.88 2322.26 L 2094.88 1088.47 C 2101.41 1094.54 2109.78 1097.81 2118.72 1097.81 C 2132.52 1097.81 2144.73 1090.13 2150.63 1077.64 L 2158.88 1060.17 C 2163.46 1050.43 2163.46 1039.37 2158.76 1029.86 C 2141.46 994.334 2118.43 965.916 2091.9 946.034 C 2087.52 894.898 2078.3 844.462 2064.45 795.383 L 2071.71 795.383 L 2071.71 750.788 C 2097.6 758.082 2121.92 769.171 2144.34 783.88 C 2181.11 876.668 2200.53 976.274 2200.53 1076.5 L 2200.53 2452.06 C 2183.26 2447.01 2164.99 2444.3 2146.1 2444.3 L 2133.69 2444.3 C 2108.6 2444.3 2085.92 2454.8 2069.81 2471.63 Z " fill="rgb(178,178,212)"/><path d=" M 2066.71 790.383 L 2063.02 790.383 C 2057.87 772.535 2052.1 754.876 2045.72 737.424 C 2028.55 690.396 2007.01 644.95 1981.32 601.662 C 1989.81 590.508 2001.01 582.943 2013.16 578.987 C 2023.28 581.793 2032.26 587.831 2038.82 596.467 C 2080.71 651.59 2115.05 712.078 2141.13 775.902 C 2119.01 762.21 2095.15 751.887 2069.86 745.095 L 2066.71 744.245 L 2066.71 790.383 Z " fill="rgb(88,92,139)"/><path d=" M 2071.71 795.383 L 2064.45 795.383 C 2063.98 793.716 2063.51 792.047 2063.02 790.383 L 2066.71 790.383 L 2066.71 744.245 L 2069.86 745.095 C 2095.15 751.887 2119.01 762.21 2141.13 775.902 C 2142.22 778.559 2143.28 781.212 2144.34 783.88 C 2121.92 769.171 2097.6 758.082 2071.71 750.788 L 2071.71 795.383 Z " fill="rgb(0,0,114)"/><path d=" M 2005.62 2289.06 C 2005.05 2288.97 2004.48 2288.9 2003.9 2288.84 C 2003.78 2288.66 2003.67 2288.47 2003.55 2288.29 L 2005.62 2289.06 Z " fill="rgb(178,178,212)"/><path d=" M 1858.87 775.904 C 1884.95 712.08 1919.29 651.59 1961.18 596.467 C 1964.25 592.425 1967.85 588.951 1971.85 586.112 C 1975.07 591.263 1978.22 596.448 1981.32 601.662 C 1981.28 601.71 1981.24 601.757 1981.21 601.805 C 1943.57 651.332 1911.98 704.697 1886.91 760.782 C 1877.28 765.25 1867.93 770.294 1858.87 775.904 Z " fill="rgb(197,200,208)"/><path d=" M 1857.23 779.939 C 1857.77 778.588 1858.32 777.252 1858.87 775.904 C 1867.93 770.294 1877.28 765.25 1886.91 760.782 C 1886.37 761.988 1885.83 763.2 1885.3 764.409 C 1875.6 769.028 1866.23 774.221 1857.23 779.939 Z " fill="rgb(140,140,191)"/><path d=" M 1981.32 601.662 C 1978.22 596.448 1975.07 591.263 1971.85 586.112 C 1979.96 580.357 1989.7 577.209 2000 577.209 C 2004.52 577.209 2008.94 577.817 2013.16 578.987 C 2001.01 582.943 1989.81 590.508 1981.32 601.662 Z " fill="rgb(180,181,203)"/><path d=" M 1799.46 2471.63 L 2200.53 2471.63 L 2200.53 1076.5 C 2200.53 904.157 2143.1 733.679 2038.82 596.467 C 2029.52 584.23 2015.37 577.209 2000 577.209 C 1984.63 577.209 1970.48 584.23 1961.18 596.467 C 1856.9 733.679 1799.46 904.157 1799.46 1076.5 L 1799.46 2471.63 Z  M 2217.72 2506.01 L 1782.28 2506.01 C 1772.79 2506.01 1765.09 2498.31 1765.09 2488.82 L 1765.09 1076.5 C 1765.09 896.691 1825.01 718.825 1933.81 575.666 C 1949.67 554.801 1973.79 542.834 2000 542.834 C 2026.21 542.834 2050.33 554.801 2066.19 575.666 C 2174.99 718.825 2234.91 896.691 2234.91 1076.5 L 2234.91 2488.82 C 2234.91 2498.31 2227.21 2506.01 2217.72 2506.01 Z " fill="rgb(0,0,114)"/><path d=" M 2168.55 812.883 C 2165.37 812.883 2162.16 811.823 2159.5 809.65 C 2136.54 790.891 2111.05 776.56 2083.54 766.916 L 2083.54 792.883 C 2083.54 800.793 2077.12 807.209 2069.21 807.209 L 1930.79 807.209 C 1922.88 807.209 1916.46 800.793 1916.46 792.883 L 1916.46 766.916 C 1888.96 776.56 1863.47 790.891 1840.5 809.65 C 1834.37 814.66 1825.35 813.742 1820.34 807.619 C 1815.34 801.491 1816.25 792.468 1822.38 787.463 C 1853.45 762.087 1888.67 743.986 1927.07 733.674 C 1931.38 732.531 1935.97 733.435 1939.5 736.14 C 1943.04 738.85 1945.11 743.054 1945.11 747.507 L 1945.11 778.557 L 2054.88 778.557 L 2054.88 747.507 C 2054.88 743.054 2056.96 738.85 2060.5 736.14 C 2064.03 733.425 2068.63 732.526 2072.93 733.674 C 2111.33 743.991 2146.55 762.087 2177.62 787.463 C 2183.75 792.468 2184.66 801.491 2179.66 807.619 C 2176.82 811.086 2172.71 812.883 2168.55 812.883 Z " fill="rgb(0,0,114)"/><path d=" M 2001.43 3070.37 L 1998.57 3070.37 C 1972.99 3070.37 1952.25 3049.63 1952.25 3024.05 L 1952.25 2480.94 C 1952.25 2425.53 1962.17 2370.56 1981.55 2318.64 C 1987.92 2301.56 2012.08 2301.56 2018.45 2318.64 C 2037.82 2370.56 2047.75 2425.53 2047.75 2480.94 L 2047.75 3024.05 C 2047.75 3049.63 2027.01 3070.37 2001.43 3070.37 Z " fill="rgb(255,255,255)"/><path d=" M 2000 2308.33 C 1994.23 2308.33 1986.97 2311.27 1983.89 2319.51 C 1964.56 2371.33 1954.75 2425.64 1954.75 2480.94 L 1954.75 3024.05 C 1954.75 3048.21 1974.41 3067.87 1998.57 3067.87 L 2001.43 3067.87 C 2025.59 3067.87 2045.25 3048.21 2045.25 3024.05 L 2045.25 2480.94 C 2045.25 2425.64 2035.45 2371.33 2016.11 2319.51 C 2013.03 2311.27 2005.77 2308.33 2000 2308.33 Z  M 2001.43 3072.87 L 1998.57 3072.87 C 1971.65 3072.87 1949.75 3050.97 1949.75 3024.05 L 1949.75 2480.94 C 1949.75 2425.04 1959.66 2370.14 1979.21 2317.77 C 1982.53 2308.86 1990.49 2303.33 2000 2303.33 C 2009.5 2303.33 2017.47 2308.86 2020.8 2317.77 C 2040.34 2370.14 2050.25 2425.05 2050.25 2480.94 L 2050.25 3024.05 C 2050.25 3050.97 2028.35 3072.87 2001.43 3072.87 Z " fill="rgb(0,0,114)"/><path d=" M 2001.43 3053.18 L 1998.57 3053.18 C 1982.51 3053.18 1969.44 3040.11 1969.44 3024.05 L 1969.44 2847.59 C 1977.58 2853.66 1987.66 2857.26 1998.57 2857.26 L 2001.43 2857.26 C 2012.34 2857.26 2022.42 2853.66 2030.56 2847.59 L 2030.56 3024.05 C 2030.56 3040.11 2017.49 3053.18 2001.43 3053.18 Z " fill="rgb(189,192,210)"/><path d=" M 2001.43 2857.26 L 1998.57 2857.26 C 1987.66 2857.26 1977.58 2853.66 1969.44 2847.59 L 1969.44 2841.15 C 1977.19 2848.06 1987.39 2852.26 1998.57 2852.26 L 2001.43 2852.26 C 2012.61 2852.26 2022.81 2848.06 2030.56 2841.15 L 2030.56 2847.59 C 2022.42 2853.66 2012.34 2857.26 2001.43 2857.26 Z " fill="rgb(178,178,212)"/><path d=" M 2338.04 2901.35 L 2047.75 2901.35 L 2047.75 2532.75 C 2047.75 2485.28 2086.22 2446.8 2133.69 2446.8 L 2146.1 2446.8 C 2252.11 2446.8 2338.04 2532.74 2338.04 2638.74 L 2338.04 2901.35 Z " fill="rgb(255,255,255)"/><path d=" M 2050.25 2898.84 L 2335.54 2898.84 L 2335.54 2638.74 C 2335.54 2534.28 2250.56 2449.3 2146.1 2449.3 L 2133.69 2449.3 C 2087.68 2449.3 2050.25 2486.74 2050.25 2532.75 L 2050.25 2898.84 Z  M 2340.54 2903.84 L 2045.25 2903.84 L 2045.25 2532.75 C 2045.25 2483.98 2084.92 2444.3 2133.69 2444.3 L 2146.1 2444.3 C 2253.31 2444.3 2340.54 2531.53 2340.54 2638.74 L 2340.54 2903.84 Z " fill="rgb(0,0,114)"/><path d=" M 2335.54 2898.84 L 2064.93 2898.84 L 2064.93 2485.51 C 2079.99 2463.66 2105.2 2449.3 2133.69 2449.3 L 2146.1 2449.3 C 2153.31 2449.3 2160.43 2449.71 2167.44 2450.5 C 2132.13 2461.18 2106.45 2493.93 2106.45 2532.77 L 2106.45 2826 C 2106.45 2844.42 2121.38 2859.35 2139.8 2859.35 C 2202.26 2859.35 2252.9 2808.71 2252.9 2746.25 L 2252.9 2596.71 C 2252.9 2540.24 2228.52 2489.47 2189.69 2454.36 C 2273.21 2474.1 2335.54 2549.28 2335.54 2638.74 L 2335.54 2898.84 Z " fill="rgb(178,178,212)"/><path d=" M 2338.04 2901.35 L 2263.85 2901.35 L 2262.88 2898.84 L 2064.93 2898.84 L 2335.54 2898.84 L 2335.54 2638.74 C 2335.54 2549.28 2273.21 2474.1 2189.69 2454.36 C 2188.41 2453.21 2187.12 2452.07 2185.81 2450.95 C 2272.78 2469.23 2338.04 2546.4 2338.04 2638.76 L 2338.04 2901.35 Z  M 2064.93 2485.51 L 2064.93 2481.17 C 2080.61 2460.31 2105.57 2446.82 2133.67 2446.82 L 2146.1 2446.82 C 2155.5 2446.82 2164.78 2447.51 2173.83 2448.83 C 2171.67 2449.3 2169.54 2449.86 2167.44 2450.5 C 2160.43 2449.71 2153.31 2449.3 2146.1 2449.3 L 2133.69 2449.3 C 2105.2 2449.3 2079.99 2463.66 2064.93 2485.51 Z " fill="rgb(0,0,114)"/><path d=" M 2298.41 2997.32 L 2047.75 2997.32 L 2047.75 2901.35 L 2261.17 2901.35 L 2298.41 2997.32 Z " fill="rgb(255,255,255)"/><path d=" M 2050.25 2994.82 L 2294.76 2994.82 L 2259.46 2903.84 L 2050.25 2903.84 L 2050.25 2994.82 Z  M 2302.06 2999.82 L 2045.25 2999.82 L 2045.25 2898.84 L 2262.88 2898.84 L 2302.06 2999.82 Z " fill="rgb(0,0,114)"/><path d=" M 1661.96 2901.35 L 1952.25 2901.35 L 1952.25 2532.75 C 1952.25 2485.28 1913.78 2446.8 1866.31 2446.8 L 1853.9 2446.8 C 1747.89 2446.8 1661.96 2532.74 1661.96 2638.74 L 1661.96 2901.35 Z " fill="rgb(255,255,255)"/><path d=" M 1664.46 2898.84 L 1949.75 2898.84 L 1949.75 2532.75 C 1949.75 2486.74 1912.32 2449.3 1866.31 2449.3 L 1853.9 2449.3 C 1749.44 2449.3 1664.46 2534.28 1664.46 2638.74 L 1664.46 2898.84 Z  M 1954.75 2903.84 L 1659.46 2903.84 L 1659.46 2638.74 C 1659.46 2531.53 1746.69 2444.3 1853.9 2444.3 L 1866.31 2444.3 C 1915.08 2444.3 1954.75 2483.98 1954.75 2532.75 L 1954.75 2903.84 Z " fill="rgb(0,0,114)"/><path d=" M 1935.07 2898.84 L 1664.46 2898.84 L 1664.46 2832.59 L 1701.35 2832.59 C 1781.64 2832.59 1846.74 2767.5 1846.74 2687.2 L 1846.74 2464.01 C 1846.74 2459.05 1846.32 2454.2 1845.53 2449.49 C 1848.31 2449.36 1851.09 2449.3 1853.9 2449.3 L 1866.31 2449.3 C 1894.8 2449.3 1920 2463.66 1935.07 2485.51 L 1935.07 2898.84 Z " fill="rgb(178,178,212)"/><path d=" M 1736.15 2901.35 L 1661.96 2901.35 L 1661.96 2832.59 L 1664.46 2832.59 L 1664.46 2898.84 L 1935.07 2898.84 L 1737.12 2898.84 L 1736.15 2901.35 Z  M 1935.07 2485.51 C 1920 2463.66 1894.8 2449.3 1866.31 2449.3 L 1853.9 2449.3 C 1851.09 2449.3 1848.31 2449.36 1845.53 2449.49 C 1845.39 2448.65 1845.24 2447.82 1845.07 2446.99 C 1848 2446.88 1850.92 2446.82 1853.9 2446.82 L 1866.33 2446.82 C 1894.43 2446.82 1919.38 2460.31 1935.07 2481.17 L 1935.07 2485.51 Z " fill="rgb(0,0,114)"/><path d=" M 1701.59 2997.32 L 1952.25 2997.32 L 1952.25 2901.35 L 1738.83 2901.35 L 1701.59 2997.32 Z " fill="rgb(255,255,255)"/><path d=" M 1705.24 2994.82 L 1949.75 2994.82 L 1949.75 2903.84 L 1740.54 2903.84 L 1705.24 2994.82 Z  M 1954.75 2999.82 L 1697.94 2999.82 L 1737.12 2898.84 L 1954.75 2898.84 L 1954.75 2999.82 Z " fill="rgb(0,0,114)"/><path d=" M 2000 2323.02 C 1998.26 2323.02 1997.85 2324.12 1997.65 2324.65 C 1978.93 2374.81 1969.44 2427.4 1969.44 2480.94 L 1969.44 3024.05 C 1969.44 3040.11 1982.51 3053.18 1998.57 3053.18 L 2001.43 3053.18 C 2017.49 3053.18 2030.56 3040.11 2030.56 3024.05 L 2030.56 2480.94 C 2030.56 2427.4 2021.07 2374.82 2002.35 2324.65 C 2002.16 2324.12 2001.74 2323.02 2000 2323.02 Z  M 2001.43 3087.56 L 1998.57 3087.56 C 1963.55 3087.56 1935.07 3059.07 1935.07 3024.05 L 1935.07 2480.94 C 1935.07 2423.28 1945.29 2366.65 1965.45 2312.63 C 1970.88 2298.06 1984.45 2288.64 2000 2288.64 C 2015.55 2288.64 2029.12 2298.05 2034.56 2312.63 C 2054.71 2366.66 2064.93 2423.29 2064.93 2480.94 L 2064.93 3024.05 C 2064.93 3059.07 2036.45 3087.56 2001.43 3087.56 Z " fill="rgb(0,0,114)"/><path d=" M 2298.41 2997.32 L 2047.75 2997.32 L 2047.75 2901.35 L 2261.17 2901.35 L 2298.41 2997.32 Z " fill="rgb(149,155,183)"/><path d=" M 2050.25 2994.82 L 2294.76 2994.82 L 2259.46 2903.84 L 2050.25 2903.84 L 2050.25 2994.82 Z  M 2302.06 2999.82 L 2045.25 2999.82 L 2045.25 2898.84 L 2262.88 2898.84 L 2302.06 2999.82 Z " fill="rgb(0,0,114)"/><path d=" M 2294.76 2994.82 L 2230.1 2994.82 L 2194.8 2903.84 L 2259.46 2903.84 L 2294.76 2994.82 Z " fill="rgb(104,108,162)"/><path d=" M 2298.39 2997.32 L 2231.07 2997.32 L 2230.1 2994.82 L 2294.76 2994.82 L 2259.46 2903.84 L 2194.8 2903.84 L 2193.83 2901.35 L 2261.15 2901.35 L 2298.39 2997.32 Z " fill="rgb(0,0,114)"/><path d=" M 2115.05 2994.82 L 2050.25 2994.82 L 2050.25 2903.84 L 2115.05 2903.84 L 2115.05 2994.82 Z " fill="rgb(104,108,162)"/><path d=" M 2115.05 2997.32 L 2047.73 2997.32 L 2047.73 2901.35 L 2115.05 2901.35 L 2115.05 2903.84 L 2050.25 2903.84 L 2050.25 2994.82 L 2115.05 2994.82 L 2115.05 2997.32 Z " fill="rgb(0,0,114)"/><path d=" M 1701.59 2997.32 L 1952.25 2997.32 L 1952.25 2901.35 L 1738.83 2901.35 L 1701.59 2997.32 Z " fill="rgb(149,155,183)"/><path d=" M 1705.24 2994.82 L 1949.75 2994.82 L 1949.75 2903.84 L 1740.54 2903.84 L 1705.24 2994.82 Z  M 1954.75 2999.82 L 1697.94 2999.82 L 1737.12 2898.84 L 1954.75 2898.84 L 1954.75 2999.82 Z " fill="rgb(0,0,114)"/><path d=" M 1949.75 2994.82 L 1883.52 2994.82 L 1883.52 2903.84 L 1949.75 2903.84 L 1949.75 2994.82 Z " fill="rgb(104,108,162)"/><path d=" M 1952.27 2997.32 L 1883.52 2997.32 L 1883.52 2994.82 L 1949.75 2994.82 L 1949.75 2903.84 L 1883.52 2903.84 L 1883.52 2901.35 L 1952.27 2901.35 L 1952.27 2997.32 Z " fill="rgb(0,0,114)"/><path d=" M 1750.3 2994.82 L 1705.24 2994.82 L 1740.54 2903.84 L 1785.61 2903.84 L 1750.3 2994.82 Z " fill="rgb(207,210,223)"/><path d=" M 1749.33 2997.32 L 1701.61 2997.32 L 1738.85 2901.35 L 1786.58 2901.35 L 1785.61 2903.84 L 1740.54 2903.84 L 1705.24 2994.82 L 1750.3 2994.82 L 1749.33 2997.32 Z " fill="rgb(140,140,191)"/><path d=" M 2064.93 2884.16 L 2320.85 2884.16 L 2320.85 2638.74 C 2320.85 2542.38 2242.46 2463.99 2146.1 2463.99 L 2133.69 2463.99 C 2095.78 2463.99 2064.93 2494.84 2064.93 2532.75 L 2064.93 2884.16 Z  M 2338.04 2918.53 L 2047.75 2918.53 C 2038.25 2918.53 2030.56 2910.84 2030.56 2901.34 L 2030.56 2532.75 C 2030.56 2475.88 2076.82 2429.62 2133.69 2429.62 L 2146.1 2429.62 C 2261.41 2429.62 2355.23 2523.43 2355.23 2638.74 L 2355.23 2901.34 C 2355.23 2910.84 2347.53 2918.53 2338.04 2918.53 Z " fill="rgb(0,0,114)"/><path d=" M 2064.93 2980.13 L 2273.3 2980.13 L 2249.4 2918.53 L 2064.93 2918.53 L 2064.93 2980.13 Z  M 2298.41 3014.5 L 2047.75 3014.5 C 2038.25 3014.5 2030.56 3006.81 2030.56 2997.32 L 2030.56 2901.34 C 2030.56 2891.85 2038.25 2884.16 2047.75 2884.16 L 2261.17 2884.16 C 2268.26 2884.16 2274.63 2888.51 2277.19 2895.13 L 2314.44 2991.1 C 2316.49 2996.38 2315.8 3002.35 2312.59 3007.03 C 2309.39 3011.71 2304.08 3014.5 2298.41 3014.5 Z " fill="rgb(0,0,114)"/><path d=" M 1679.15 2884.16 L 1935.07 2884.16 L 1935.07 2532.75 C 1935.07 2494.84 1904.22 2463.99 1866.31 2463.99 L 1853.9 2463.99 C 1757.54 2463.99 1679.15 2542.38 1679.15 2638.74 L 1679.15 2884.16 Z  M 1952.25 2918.53 L 1661.96 2918.53 C 1652.47 2918.53 1644.77 2910.84 1644.77 2901.34 L 1644.77 2638.74 C 1644.77 2523.43 1738.59 2429.62 1853.9 2429.62 L 1866.31 2429.62 C 1923.18 2429.62 1969.44 2475.88 1969.44 2532.75 L 1969.44 2901.34 C 1969.44 2910.84 1961.75 2918.53 1952.25 2918.53 Z " fill="rgb(0,0,114)"/><path d=" M 1726.7 2980.13 L 1935.07 2980.13 L 1935.07 2918.53 L 1750.6 2918.53 L 1726.7 2980.13 Z  M 1952.25 3014.5 L 1701.59 3014.5 C 1695.92 3014.5 1690.61 3011.71 1687.4 3007.03 C 1684.2 3002.35 1683.51 2996.38 1685.56 2991.1 L 1722.8 2895.13 C 1725.37 2888.51 1731.74 2884.16 1738.83 2884.16 L 1952.25 2884.16 C 1961.75 2884.16 1969.44 2891.85 1969.44 2901.34 L 1969.44 2997.32 C 1969.44 3006.81 1961.75 3014.5 1952.25 3014.5 Z " fill="rgb(0,0,114)"/><path d=" M 2217.72 1243.5 L 1782.28 1243.5 C 1774.37 1243.5 1767.95 1237.09 1767.95 1229.18 C 1767.95 1221.27 1774.37 1214.85 1782.28 1214.85 L 2217.72 1214.85 C 2225.63 1214.85 2232.05 1221.27 2232.05 1229.18 C 2232.05 1237.09 2225.63 1243.5 2217.72 1243.5 Z " fill="rgb(0,0,114)"/><path d=" M 2217.72 1654.82 L 1782.28 1654.82 C 1774.37 1654.82 1767.95 1648.41 1767.95 1640.5 C 1767.95 1632.58 1774.37 1626.17 1782.28 1626.17 L 2217.72 1626.17 C 2225.63 1626.17 2232.05 1632.58 2232.05 1640.5 C 2232.05 1648.41 2225.63 1654.82 2217.72 1654.82 Z " fill="rgb(0,0,114)"/><path d=" M 2217.72 2057.98 L 1782.28 2057.98 C 1774.37 2057.98 1767.95 2051.56 1767.95 2043.65 C 1767.95 2035.74 1774.37 2029.32 1782.28 2029.32 L 2217.72 2029.32 C 2225.63 2029.32 2232.05 2035.74 2232.05 2043.65 C 2232.05 2051.56 2225.63 2057.98 2217.72 2057.98 Z " fill="rgb(0,0,114)"/><path d=" M 2000 2320.16 C 1992.09 2320.16 1985.68 2313.74 1985.68 2305.83 L 1985.68 1229.18 C 1985.68 1221.27 1992.09 1214.85 2000 1214.85 C 2007.91 1214.85 2014.33 1221.27 2014.33 1229.18 L 2014.33 2305.83 C 2014.33 2313.74 2007.91 2320.16 2000 2320.16 Z " fill="rgb(0,0,114)"/><path d=" M 2143.32 1052.83 L 2135.06 1070.32 C 2129.61 1081.85 2114.23 1084.23 2105.55 1074.87 C 2076.26 1043.28 2039.7 1024.51 2000 1024.51 C 1960.3 1024.51 1923.74 1043.28 1894.45 1074.87 C 1885.77 1084.23 1870.39 1081.85 1864.94 1070.32 L 1856.68 1052.83 C 1854.37 1047.96 1854.29 1042.26 1856.66 1037.42 C 1888.06 973.213 1940.58 931.115 2000 931.115 C 2059.42 931.115 2111.94 973.213 2143.34 1037.42 C 2145.71 1042.26 2145.63 1047.96 2143.32 1052.83 Z " fill="rgb(0,0,114)"/><path d=" M 2049.18 1194.91 L 2031.04 1194.91 C 2025.5 1194.91 2021.01 1190.42 2021.01 1184.88 L 2021.01 1166.74 C 2021.01 1161.2 2025.5 1156.71 2031.04 1156.71 L 2049.18 1156.71 C 2054.72 1156.71 2059.21 1161.2 2059.21 1166.74 L 2059.21 1184.88 C 2059.21 1190.42 2054.72 1194.91 2049.18 1194.91 Z " fill="rgb(0,0,114)"/><path d=" M 1968.96 1194.91 L 1950.82 1194.91 C 1945.28 1194.91 1940.79 1190.42 1940.79 1184.88 L 1940.79 1166.74 C 1940.79 1161.2 1945.28 1156.71 1950.82 1156.71 L 1968.96 1156.71 C 1974.5 1156.71 1978.99 1161.2 1978.99 1166.74 L 1978.99 1184.88 C 1978.99 1190.42 1974.5 1194.91 1968.96 1194.91 Z " fill="rgb(0,0,114)"/><path d=" M 1604.66 2460.17 L 1381.21 2460.17 L 1381.21 2322.67 L 1604.66 2322.67 L 1604.66 2460.17 Z " fill="rgb(11,174,255)"/><path d=" M 1395.54 2445.85 L 1590.34 2445.85 L 1590.34 2336.99 L 1395.54 2336.99 L 1395.54 2445.85 Z  M 1604.67 2474.5 L 1381.21 2474.5 C 1373.3 2474.5 1366.89 2468.08 1366.89 2460.17 L 1366.89 2322.66 C 1366.89 2314.75 1373.3 2308.34 1381.21 2308.34 L 1604.67 2308.34 C 1612.58 2308.34 1618.99 2314.75 1618.99 2322.66 L 1618.99 2460.17 C 1618.99 2468.08 1612.58 2474.5 1604.67 2474.5 Z " fill="rgb(0,0,114)"/><path d=" M 1459.99 2382.82 L 1381.21 2382.82 L 1381.21 2322.67 L 1459.99 2322.67 L 1459.99 2382.82 Z " fill="rgb(255,48,104)"/><path d=" M 1383.71 2380.32 L 1457.49 2380.32 L 1457.49 2325.16 L 1383.71 2325.16 L 1383.71 2380.32 Z  M 1462.49 2385.32 L 1378.71 2385.32 L 1378.71 2320.16 L 1462.49 2320.16 L 1462.49 2385.32 Z " fill="rgb(0,0,114)"/><path d=" M 1395.54 2368.5 L 1445.67 2368.5 L 1445.67 2336.99 L 1395.54 2336.99 L 1395.54 2368.5 Z  M 1459.99 2397.15 L 1381.21 2397.15 C 1373.3 2397.15 1366.89 2390.73 1366.89 2382.82 L 1366.89 2322.66 C 1366.89 2314.75 1373.3 2308.34 1381.21 2308.34 L 1459.99 2308.34 C 1467.9 2308.34 1474.32 2314.75 1474.32 2322.66 L 1474.32 2382.82 C 1474.32 2390.73 1467.9 2397.15 1459.99 2397.15 Z " fill="rgb(0,0,114)"/></svg>